<svg width="125" height="125" viewBox="0 0 125 125" fill="none" xmlns="http://www.w3.org/2000/svg">
<g clip-path="url(#clip0_10554_116462)">
<path d="M5.14844 63.7175C5.14844 35.6363 27.9127 12.8721 55.9938 12.8721C84.075 12.8721 106.839 35.6363 106.839 63.7175C106.839 71.6558 105.02 79.1693 101.776 85.8637L47.1694 94.6109H15.6067C9.04666 86.0478 5.14844 75.3379 5.14844 63.7175Z" fill="url(#paint0_linear_10554_116462)" fill-opacity="0.14"/>
<path d="M101.823 86.1593L101.977 86.1347L102.045 85.9943C105.309 79.2601 107.139 71.702 107.139 63.7175C107.139 35.471 84.2403 12.5727 55.9938 12.5727C27.7474 12.5727 4.84907 35.471 4.84907 63.7175C4.84907 75.406 8.77039 86.1794 15.3691 94.7929L15.459 94.9102H15.6067H47.1694H47.1932L47.2167 94.9065L101.823 86.1593Z" stroke="url(#paint1_linear_10554_116462)" stroke-opacity="0.1" stroke-width="0.598734"/>
<path d="M20.4393 89.9366L26.9315 86.8244C27.0847 86.751 27.2524 86.7129 27.4222 86.7129H97.3165C97.4627 86.7129 97.6075 86.7411 97.743 86.7961L99.5421 87.5255C100.42 87.8812 100.501 89.0915 99.6801 89.5622L63.8785 110.08C63.5695 110.257 63.1951 110.279 62.8676 110.139L20.4834 92.0038C19.5865 91.62 19.5596 90.3583 20.4393 89.9366Z" fill="url(#paint2_radial_10554_116462)"/>
<path d="M62.5127 48.5891L25.4268 27.165C23.1419 69.2293 25.5147 86.1247 25.5147 86.1247L62.6006 107.462L62.5127 48.5891Z" fill="white"/>
<path opacity="0.3" d="M62.5127 48.5891L25.4268 27.165C23.1419 69.2293 25.5147 86.1247 25.5147 86.1247L62.6006 107.462L62.5127 48.5891Z" fill="url(#paint3_linear_10554_116462)"/>
<path d="M98.8984 27.7746L61.8125 6.35059L25.4297 27.2521L62.5156 48.589L98.8984 27.7746Z" fill="white"/>
<path d="M62.6875 107.549L98.9825 86.7344L62.6875 107.549Z" fill="#F9FAFD"/>
<path d="M62.6875 107.549L98.9825 86.7344L62.6875 107.549Z" fill="#F9FAFD"/>
<path d="M62.5117 48.5888L62.5996 107.548L98.8946 86.734C101.092 71.2321 101.97 47.1954 98.8946 27.7744L62.5117 48.5888Z" fill="white"/>
<path d="M62.5117 48.5888L62.5996 107.548L98.8946 86.734C101.092 71.2321 101.97 47.1954 98.8946 27.7744L62.5117 48.5888Z" fill="#F4F6F9"/>
<path d="M85.7122 35.2646L85.8001 94.2243L79.4726 97.882L79.2969 38.9224L85.7122 35.2646Z" fill="#1B84F9"/>
<path d="M38.6074 34.8291L38.6953 34.9162L45.0227 38.4869L44.9349 97.2723L38.5195 93.6145L38.6074 34.8291Z" fill="#1B84F9"/>
<path opacity="0.1" d="M63.3927 26.8162C60.4047 28.7321 57.7683 30.9965 50.3863 32.9124C43.0042 34.8284 39.1375 31.2577 37.4677 29.2547C35.798 27.2516 35.6222 22.7229 44.2346 22.3746C53.3742 22.0262 56.2743 24.0293 61.9866 24.8131C61.9866 24.8131 60.4926 23.8551 58.8229 22.8971C57.1531 21.9391 55.2197 13.1431 60.1411 12.1851C65.0624 11.2271 73.2354 14.8849 72.8839 18.4556C72.5323 22.1133 63.3927 26.8162 63.3927 26.8162Z" fill="black"/>
<path opacity="0.7" fill-rule="evenodd" clip-rule="evenodd" d="M81.3197 17.5855L74.9922 13.9277L61.7895 21.5309L48.5431 13.9277L42.2156 17.5855L55.4343 25.1907L38.6973 34.8292V34.9163L45.0247 38.487L53.8016 33.4326L51.3541 38.3121L59.2634 39.183L61.6335 34.3101L68.0522 45.541L74.4676 41.8832L69.5211 33.2954L79.3015 38.9224L85.7168 35.2647L68.1395 25.1757L81.3197 17.5855Z" fill="#1B84F9"/>
<path d="M75.9552 6.61226C74.8127 6.2639 73.3187 6.43808 71.5611 7.39607C65.8488 10.5313 66.1125 17.4114 66.0246 22.1142C65.9367 24.2043 65.8488 25.859 65.1458 26.5558C65.1458 26.5558 64.97 26.7299 64.7943 26.817L58.6426 22.2013C59.6093 21.2433 59.5214 18.5435 59.6093 15.4954C59.6972 11.0538 60.3123 5.74137 65.1458 3.04159C67.8701 1.56107 69.6277 2.43196 71.2096 3.47704C72.2642 4.17375 74.9006 5.91554 75.9552 6.61226Z" fill="white"/>
<path opacity="0.5" d="M75.9552 6.61226C74.8127 6.2639 73.3187 6.43808 71.5611 7.39607C65.8488 10.5313 66.1125 17.4114 66.0246 22.1142C65.9367 24.2043 65.8488 25.859 65.1458 26.5558C65.1458 26.5558 64.97 26.7299 64.7943 26.817L58.6426 22.2013C59.6093 21.2433 59.5214 18.5435 59.6093 15.4954C59.6972 11.0538 60.3123 5.74137 65.1458 3.04159C67.8701 1.56107 69.6277 2.43196 71.2096 3.47704C72.2642 4.17375 74.9006 5.91554 75.9552 6.61226Z" fill="#1B84F9"/>
<path d="M72.0889 22.3752C61.7189 29.1682 65.1463 26.4684 65.1463 26.4684C66.113 25.5104 66.0251 22.7235 66.113 19.5883C66.2888 19.5012 66.3767 19.4141 66.5524 19.327C70.8586 16.5402 72.8799 12.6211 73.2314 9.48592C73.3193 8.52793 73.3193 7.56995 73.0556 6.78614C75.6042 6.00234 77.3618 6.96032 78.2406 8.7892C79.8225 12.0986 78.3285 18.282 72.0889 22.3752Z" fill="white"/>
<path opacity="0.8" d="M72.0889 22.3761C61.7189 29.1691 65.1463 26.4694 65.1463 26.4694C66.113 25.5114 66.0251 22.7245 66.113 19.5893C66.2888 19.5022 66.3767 19.4151 66.5524 19.328C70.8586 16.5411 72.8799 12.6221 73.2314 9.48689C73.3193 8.52891 73.3193 7.57092 73.0556 6.78712C75.6042 6.00331 77.3618 6.9613 78.2406 8.79018C79.8225 12.0996 78.3285 18.2829 72.0889 22.3761Z" fill="#1B84F9"/>
<path d="M65.4138 26.3819C62.5138 26.3819 60.4925 14.0151 52.4074 14.1893C55.5711 17.76 57.153 23.2466 59.0864 23.2466C59.0864 23.2466 61.4592 22.9854 49.9467 27.3398C48.1012 28.0366 46.4315 28.3849 45.0254 28.3849C46.9588 31.1718 50.7377 32.6523 56.3621 30.4751C67.7866 26.1206 65.4138 26.3819 65.4138 26.3819Z" fill="white"/>
<path opacity="0.8" d="M65.4119 26.3819C62.5118 26.3819 60.4905 14.0151 52.4055 14.1893C55.5692 17.76 57.1511 23.2466 59.0844 23.2466C59.0844 23.2466 61.4572 22.9854 49.9448 27.3398C48.0993 28.0366 46.4295 28.3849 45.0234 28.3849C46.9568 31.1718 50.7357 32.6523 56.3601 30.4751C67.7847 26.1206 65.4119 26.3819 65.4119 26.3819Z" fill="#1B84F9"/>
<path d="M55.4836 14.7115C53.9018 14.0148 52.0563 13.8406 49.8592 14.5373C47.5743 15.234 45.9925 16.6275 44.9379 18.3692C42.653 22.1141 43.1803 27.3395 46.5197 29.8651C44.9379 28.9942 42.0378 27.3395 41.5105 26.904C38.6983 24.3784 38.2589 19.7627 40.1044 16.192C41.159 14.276 42.8287 12.6213 45.2894 11.9246C47.1349 11.315 48.7168 11.4021 50.1229 11.7504C51.0896 12.0988 53.9018 13.8406 55.4836 14.7115Z" fill="white"/>
<path opacity="0.5" d="M55.4817 14.7115C53.8998 14.0148 52.0543 13.8406 49.8573 14.5373C47.5724 15.234 45.9905 16.6275 44.9359 18.3692C42.651 22.1141 43.1783 27.3395 46.5178 29.8651C44.9359 28.9942 42.0359 27.3395 41.5086 26.904C38.6964 24.3784 38.257 19.7627 40.1025 16.192C41.157 14.276 42.8268 12.6213 45.2875 11.9246C47.133 11.315 48.7148 11.4021 50.1209 11.7504C51.0876 12.0988 53.8998 13.8406 55.4817 14.7115Z" fill="#1B84F9"/>
<path d="M65.4146 26.3819C62.5146 26.3819 60.4933 14.0151 52.4082 14.1893C55.5719 17.76 57.1538 23.2466 59.0872 23.2466C59.0872 23.2466 60.669 23.0725 55.0446 25.3368L65.0631 26.9044C66.0298 26.2948 65.4146 26.3819 65.4146 26.3819Z" fill="#1B84F9"/>
<path d="M74.4661 61.478V41.8828L68.0508 45.5406V65.1357L74.4661 61.478Z" fill="#1B84F9"/>
<path d="M13.7584 16.6016L14.96 21.9137L19.7844 23.2368L14.96 24.5599L13.7584 29.872L12.5568 24.5599L7.73242 23.2368L12.5568 21.9137L13.7584 16.6016Z" fill="url(#paint4_linear_10554_116462)"/>
<path d="M110.825 80.4541L111.596 84.0325L114.691 84.9238L111.596 85.815L110.825 89.3934L110.054 85.815L106.959 84.9238L110.054 84.0325L110.825 80.4541Z" fill="url(#paint5_linear_10554_116462)"/>
<path d="M4.0105 33.2041L4.81021 36.9163L8.021 37.8409L4.81021 38.7655L4.0105 42.4776L3.21079 38.7655L0 37.8409L3.21079 36.9163L4.0105 33.2041Z" fill="url(#paint6_linear_10554_116462)"/>
<path d="M106.552 28.0957L108.012 34.8742L113.875 36.5625L108.012 38.2509L106.552 45.0294L105.091 38.2509L99.2285 36.5625L105.091 34.8742L106.552 28.0957Z" fill="url(#paint7_linear_10554_116462)"/>
<path d="M92.3639 8.93945L93.6507 14.1577L98.3899 15.5747L93.6507 16.9916L92.3639 22.2099L91.0771 16.9916L86.3379 15.5747L91.0771 14.1577L92.3639 8.93945Z" fill="url(#paint8_linear_10554_116462)"/>
<path d="M8.72086 107.194L13.834 104.561C13.9947 104.479 14.1729 104.436 14.3537 104.436H72.3769C72.5996 104.436 72.8174 104.501 73.0031 104.624L76.8729 107.184C77.6087 107.67 77.5323 108.774 76.7363 109.154L44.7298 124.459C44.4328 124.601 44.0889 124.607 43.7872 124.475L8.78756 109.244C7.90994 108.862 7.86992 107.633 8.72086 107.194Z" fill="url(#paint9_radial_10554_116462)"/>
<path d="M43.818 90.1391L12.4865 74.6016C11.7948 85.3416 11.6687 91.7855 12.5038 103.631C12.5537 104.339 12.9336 104.984 13.5316 105.366C19.7645 109.347 25.8895 112.5 43.9161 120.293L43.818 90.1391Z" fill="white"/>
<g opacity="0.9" filter="url(#filter0_d_10554_116462)">
<path d="M43.818 90.1391L12.4865 74.6016C11.7948 85.3416 11.6687 91.7855 12.5038 103.631C12.5537 104.339 12.9336 104.984 13.5316 105.366C19.7645 109.347 25.8895 112.5 43.9161 120.293L43.818 90.1391Z" fill="url(#paint10_linear_10554_116462)"/>
</g>
<path d="M74.5662 75.069L43.5153 59.7995C43.199 59.6439 42.8283 59.6442 42.5121 59.8002L12.4883 74.6165L43.9018 90.3626L74.5662 75.069Z" fill="white"/>
<path d="M74.5662 75.069L43.5153 59.7995C43.199 59.6439 42.8283 59.6442 42.5121 59.8002L12.4883 74.6165L43.9018 90.3626L74.5662 75.069Z" fill="url(#paint11_linear_10554_116462)"/>
<path d="M43.8184 90.1381L43.9165 120.292C55.0282 115.35 60.8637 113.242 73.6605 105.736C74.2908 105.366 74.7062 104.71 74.7679 103.982C75.671 93.3138 75.5133 86.7204 74.5648 74.9893L43.8184 90.1381Z" fill="white"/>
<g opacity="0.8" filter="url(#filter1_d_10554_116462)">
<path d="M43.8184 90.1381L43.9165 120.292C55.3154 115.222 61.1618 113.135 74.6669 105.143C75.6813 93.7788 75.5472 87.14 74.5648 74.9893L43.8184 90.1381Z" fill="url(#paint12_linear_10554_116462)"/>
</g>
<path d="M63.0004 80.6797L63.4446 111.555L58.1148 114.13L57.2266 83.7607L63.0004 80.6797Z" fill="#F4F6F9"/>
<path d="M57.2269 83.761L26.666 66.5385L32.0293 63.4795L63.0007 80.68" fill="url(#paint13_linear_10554_116462)"/>
<path d="M54.5595 65.2744L59.445 67.475L29.6875 83.3202L23.9141 80.2392L54.5595 65.2744Z" fill="url(#paint14_linear_10554_116462)"/>
<path d="M29.6887 83.3202L28.705 114.13L23.4707 111.453L23.9148 80.2393" fill="#F4F6F9"/>
<path opacity="0.1" d="M61.8194 74.6137C62.0825 76.1606 62.0825 77.9666 62.0825 77.9666C62.0825 77.9666 50.1742 80.1593 44.1513 75.2595L43.3975 74.633C43.3975 74.633 36.0397 81.188 27.1389 79.5135L25.6979 74.7452C25.6979 74.7452 27.0054 73.585 29.3611 73.0707C29.3611 73.0707 26.7423 71.7829 25.5645 69.2034L32.9458 64.5898C32.9458 64.5898 38.6546 68.5538 38.9176 68.8129C39.1807 69.072 41.666 69.8454 41.666 69.8454C41.666 69.8454 40.7512 69.5863 43.1069 66.4925C45.4627 63.3987 50.9594 65.3324 47.948 70.2321C44.9366 75.1319 52.3964 74.227 54.8857 74.3585C57.371 74.4861 61.8194 74.6137 61.8194 74.6137Z" fill="black"/>
<path d="M54.8154 56.932C56.9081 57.7093 54.0695 66.8979 43.5 74.4853C43.5 74.4853 55.3926 59.3104 47.3752 54.4531C47.3752 54.4531 49.197 55.8337 51.4075 56.5685C52.5068 56.9359 54.1205 56.6729 54.8154 56.932Z" fill="#E5E9F0"/>
<path d="M54.8171 56.9321C49.1515 59.4845 46.2972 63.2551 44.8798 66.6543C43.113 70.8967 43.5723 74.5628 43.5723 74.5628C41.3893 69.6012 41.2833 65.5909 42.0568 62.4932C43.4428 56.9128 47.6556 54.2715 47.6556 54.2715C47.6556 54.2715 49.4578 55.2615 50.7691 55.6908C52.0805 56.1239 54.8171 56.9321 54.8171 56.9321Z" fill="white"/>
<path d="M43.5723 74.5628C41.3893 69.6011 41.2833 65.5908 42.0568 62.4932C41.7388 64.1909 44.3576 66.6079 44.8798 66.6543C43.113 70.8967 43.5723 74.5628 43.5723 74.5628Z" fill="#F7F7F7"/>
<path d="M25.0453 64.3069C23.9185 64.6936 29.8118 74.3501 43.6322 74.47C43.6322 74.47 26.3999 64.8058 31.0957 58.332C31.0957 58.3359 29.1797 62.8915 25.0453 64.3069Z" fill="#E5E9F0"/>
<path d="M25.0859 64.3108C26.2834 64.2683 27.4809 64.3611 28.6627 64.5583C29.0357 64.6202 29.4087 64.6937 29.7778 64.7788C30.0683 64.8445 30.3589 64.918 30.6455 64.9953C30.6848 65.0031 30.728 65.0147 30.7672 65.0263C30.8143 65.0379 30.8575 65.0533 30.9046 65.0649C33.2761 65.7262 35.5023 66.7743 37.3908 67.9344C38.5844 68.6653 39.6405 69.4465 40.5161 70.2084C42.9936 72.3585 43.5236 74.4623 43.5236 74.4623C43.5 72.7762 43.4883 72.0066 43.3587 70.9006C43.0093 67.9151 41.4819 65.5058 39.6209 63.6263C38.5726 62.5745 37.4261 61.6889 36.3229 60.9618C36.1148 60.8265 35.9106 60.695 35.7064 60.5674C35.5769 60.49 35.4512 60.4165 35.3256 60.3431C35.2549 60.3005 35.1882 60.258 35.1175 60.2193C34.9173 60.1033 34.721 59.9911 34.5286 59.8867C32.6047 58.8387 31.1363 58.3398 31.1363 58.3398C31.1363 58.3398 29.9231 59.8365 28.1955 61.7159C26.5269 63.5374 25.0859 64.3108 25.0859 64.3108Z" fill="white"/>
<path d="M36.3208 60.9619C37.4241 61.689 38.5706 62.5745 39.6189 63.6264C39.0378 64.7325 37.9031 67.0412 37.3888 67.9345C35.8104 66.9639 33.9926 66.0744 32.053 65.4208L32.002 65.4015C33.1563 65.3319 35.779 62.211 36.3208 60.9619Z" fill="white"/>
<path opacity="0.6" d="M30.0625 64.8561L30.6436 64.9953L30.887 65.0727C30.8909 65.0688 30.8988 65.0688 30.9027 65.0649C32.3633 64.3998 35.1313 60.6872 35.3237 60.3431C35.253 60.3005 35.1863 60.258 35.1156 60.2193C34.9153 60.1033 34.719 59.9911 34.5266 59.8867C33.388 62.1877 30.0625 64.8561 30.0625 64.8561Z" fill="white"/>
<g clip-path="url(#clip1_10554_116462)">
<path fill-rule="evenodd" clip-rule="evenodd" d="M20.7739 43.1198C20.1106 43.2261 19.4819 43.4122 18.8958 43.666L18.2216 42.1375C18.9363 41.8279 19.7011 41.6018 20.5052 41.473C25.6067 40.6557 30.4187 44.05 31.2384 49.0746C32.0581 54.0993 28.5703 58.8232 23.4689 59.6404C18.3675 60.4577 13.5554 57.0635 12.7357 52.0388C12.3022 49.3814 13.0754 46.8048 14.6531 44.8499L15.9678 45.8919C14.6725 47.4968 14.0435 49.6024 14.3975 51.7726C15.0662 55.872 19.0007 58.6664 23.2002 57.9936C27.3998 57.3208 30.2453 53.4403 29.5766 49.3409C28.9079 45.2414 24.9735 42.4471 20.7739 43.1198Z" fill="url(#paint15_linear_10554_116462)"/>
<path fill-rule="evenodd" clip-rule="evenodd" d="M21.7361 49.0199C20.8327 49.1647 20.2188 50.0077 20.3648 50.9029C20.5108 51.7982 21.3615 52.4066 22.2649 52.2619C23.1683 52.1171 23.7822 51.2741 23.6362 50.3789C23.4901 49.4836 22.6394 48.8752 21.7361 49.0199ZM18.703 51.1692C18.4086 49.3644 19.6463 47.6649 21.4674 47.3731C23.2886 47.0814 25.0036 48.3079 25.298 50.1126C25.5924 51.9174 24.3547 53.6169 22.5336 53.9087C20.7124 54.2004 18.9974 52.9739 18.703 51.1692Z" fill="url(#paint16_linear_10554_116462)"/>
<path fill-rule="evenodd" clip-rule="evenodd" d="M16.9169 40.5911L16.5109 41.3218L15.8933 40.7551L16.3404 40.2765L16.9169 40.5911ZM16.69 42.4198C16.5912 42.5503 16.4854 42.6979 16.3822 42.8561C16.1989 43.1371 16.0371 43.4311 15.9336 43.7067C15.8266 43.9917 15.8074 44.1896 15.8267 44.308C15.9824 45.2621 16.7044 45.6914 17.2105 45.6103C17.7166 45.5293 18.2653 44.8963 18.1096 43.9422C18.0903 43.8239 18.0092 43.6421 17.817 43.405C17.6312 43.1758 17.3841 42.9472 17.1209 42.7378C16.9726 42.6199 16.8252 42.5128 16.69 42.4198ZM15.8933 40.7551C15.8934 40.7549 15.8933 40.7551 16.5109 41.3218C16.9169 40.5911 16.9167 40.591 16.9169 40.5911L16.9185 40.592L16.9208 40.5933L16.928 40.5972L16.9517 40.6105C16.9714 40.6216 16.999 40.6373 17.0334 40.6573C17.1021 40.6974 17.1984 40.7549 17.3136 40.8277C17.5427 40.9724 17.8535 41.1814 18.1746 41.4368C18.4927 41.6899 18.8401 42.0035 19.1293 42.3601C19.4122 42.709 19.6868 43.1569 19.7714 43.676C20.0318 45.272 19.1516 46.9892 17.4791 47.2572C15.8066 47.5251 14.4253 46.1702 14.1649 44.5742C14.0802 44.0551 14.1985 43.5443 14.356 43.1248C14.517 42.696 14.747 42.29 14.9685 41.9504C15.192 41.6078 15.4205 41.3124 15.592 41.1035C15.6782 40.9984 15.7512 40.9138 15.8037 40.8543C15.83 40.8246 15.8512 40.8011 15.8664 40.7843L15.8846 40.7644L15.8902 40.7584L15.892 40.7564L15.8933 40.7551ZM16.1041 42.052C16.104 42.0519 16.104 42.0519 16.1041 42.052V42.052Z" fill="url(#paint17_linear_10554_116462)"/>
</g>
<path fill-rule="evenodd" clip-rule="evenodd" d="M107.42 55.2608L101.661 54.1903L102.021 52.2881L107.78 53.3586L107.42 55.2608Z" fill="url(#paint18_linear_10554_116462)"/>
<path fill-rule="evenodd" clip-rule="evenodd" d="M101.669 54.1926C100.074 53.896 98.5375 54.9374 98.2382 56.5186C97.9389 58.0998 98.9897 59.6221 100.585 59.9187C102.181 60.2153 103.717 59.174 104.016 57.5927C104.316 56.0115 103.265 54.4892 101.669 54.1926ZM96.3187 56.1618C96.8169 53.53 99.3736 51.7967 102.029 52.2904C104.685 52.7841 106.434 55.3178 105.936 57.9496C105.438 60.5814 102.881 62.3146 100.225 61.821C97.5695 61.3273 95.8205 58.7936 96.3187 56.1618Z" fill="url(#paint19_linear_10554_116462)"/>
<path fill-rule="evenodd" clip-rule="evenodd" d="M101.924 61.8212C102.437 61.9165 102.695 62.3577 102.626 62.7246C102.556 63.0916 102.154 63.4098 101.641 63.3144L101.281 65.2167C102.76 65.4916 104.26 64.5898 104.545 63.0815C104.831 61.5732 103.763 60.1939 102.284 59.919L101.924 61.8212Z" fill="url(#paint20_linear_10554_116462)"/>
<path fill-rule="evenodd" clip-rule="evenodd" d="M99.6927 64.635C98.0971 64.3384 96.5609 65.3798 96.2616 66.961C95.9623 68.5422 97.0132 70.0645 98.6088 70.3611C100.204 70.6577 101.741 69.6163 102.04 68.0351C102.339 66.4539 101.288 64.9316 99.6927 64.635ZM94.3421 66.6042C94.8403 63.9724 97.397 62.2391 100.053 62.7328C102.708 63.2264 104.458 65.7602 103.959 68.3919C103.461 71.0237 100.904 72.757 98.2487 72.2633C95.593 71.7697 93.8439 69.236 94.3421 66.6042Z" fill="url(#paint21_linear_10554_116462)"/>
</g>
<defs>
<filter id="filter0_d_10554_116462" x="8.90251" y="73.4174" width="38.0329" height="51.7301" filterUnits="userSpaceOnUse" color-interpolation-filters="sRGB">
<feFlood flood-opacity="0" result="BackgroundImageFix"/>
<feColorMatrix in="SourceAlpha" type="matrix" values="0 0 0 0 0 0 0 0 0 0 0 0 0 0 0 0 0 0 127 0" result="hardAlpha"/>
<feOffset dy="1.83519"/>
<feGaussianBlur stdDeviation="1.50968"/>
<feColorMatrix type="matrix" values="0 0 0 0 0 0 0 0 0 0 0 0 0 0 0 0 0 0 0.04 0"/>
<feBlend mode="normal" in2="BackgroundImageFix" result="effect1_dropShadow_10554_116462"/>
<feBlend mode="normal" in="SourceGraphic" in2="effect1_dropShadow_10554_116462" result="shape"/>
</filter>
<filter id="filter1_d_10554_116462" x="40.799" y="73.8051" width="37.5876" height="51.3415" filterUnits="userSpaceOnUse" color-interpolation-filters="sRGB">
<feFlood flood-opacity="0" result="BackgroundImageFix"/>
<feColorMatrix in="SourceAlpha" type="matrix" values="0 0 0 0 0 0 0 0 0 0 0 0 0 0 0 0 0 0 127 0" result="hardAlpha"/>
<feOffset dy="1.83519"/>
<feGaussianBlur stdDeviation="1.50968"/>
<feColorMatrix type="matrix" values="0 0 0 0 0 0 0 0 0 0 0 0 0 0 0 0 0 0 0.04 0"/>
<feBlend mode="normal" in2="BackgroundImageFix" result="effect1_dropShadow_10554_116462"/>
<feBlend mode="normal" in="SourceGraphic" in2="effect1_dropShadow_10554_116462" result="shape"/>
</filter>
<linearGradient id="paint0_linear_10554_116462" x1="5.14844" y1="12.8721" x2="104.074" y2="10.7712" gradientUnits="userSpaceOnUse">
<stop stop-color="#229AFA"/>
<stop offset="1" stop-color="#1168F8"/>
</linearGradient>
<linearGradient id="paint1_linear_10554_116462" x1="5.14844" y1="12.8721" x2="104.074" y2="10.7712" gradientUnits="userSpaceOnUse">
<stop stop-color="#229AFA"/>
<stop offset="1" stop-color="#1168F8"/>
</linearGradient>
<radialGradient id="paint2_radial_10554_116462" cx="0" cy="0" r="1" gradientUnits="userSpaceOnUse" gradientTransform="translate(61.356 86.7129) rotate(90) scale(24.2362 62.5466)">
<stop stop-color="#89B8F0"/>
<stop offset="1" stop-color="#E2F0FF" stop-opacity="0"/>
</radialGradient>
<linearGradient id="paint3_linear_10554_116462" x1="24.4336" y1="27.165" x2="61.5771" y2="26.8637" gradientUnits="userSpaceOnUse">
<stop stop-color="#229AFA"/>
<stop offset="1" stop-color="#1168F8"/>
</linearGradient>
<linearGradient id="paint4_linear_10554_116462" x1="7.73242" y1="16.6016" x2="19.4591" y2="16.4198" gradientUnits="userSpaceOnUse">
<stop stop-color="#229AFA"/>
<stop offset="1" stop-color="#1168F8"/>
</linearGradient>
<linearGradient id="paint5_linear_10554_116462" x1="106.959" y1="80.4541" x2="114.482" y2="80.343" gradientUnits="userSpaceOnUse">
<stop stop-color="#229AFA"/>
<stop offset="1" stop-color="#1168F8"/>
</linearGradient>
<linearGradient id="paint6_linear_10554_116462" x1="0" y1="33.2041" x2="7.80471" y2="33.0889" gradientUnits="userSpaceOnUse">
<stop stop-color="#229AFA"/>
<stop offset="1" stop-color="#1168F8"/>
</linearGradient>
<linearGradient id="paint7_linear_10554_116462" x1="99.2285" y1="28.0957" x2="113.48" y2="27.8853" gradientUnits="userSpaceOnUse">
<stop stop-color="#229AFA"/>
<stop offset="1" stop-color="#1168F8"/>
</linearGradient>
<linearGradient id="paint8_linear_10554_116462" x1="86.3379" y1="8.93945" x2="98.0646" y2="8.75765" gradientUnits="userSpaceOnUse">
<stop stop-color="#229AFA"/>
<stop offset="1" stop-color="#1168F8"/>
</linearGradient>
<radialGradient id="paint9_radial_10554_116462" cx="0" cy="0" r="1" gradientUnits="userSpaceOnUse" gradientTransform="translate(42.5693 104.436) rotate(90) scale(21.6927 52.1178)">
<stop stop-color="#89B8F0"/>
<stop offset="1" stop-color="#E2F0FF" stop-opacity="0"/>
</radialGradient>
<linearGradient id="paint10_linear_10554_116462" x1="11.9219" y1="74.6016" x2="43.0557" y2="74.2294" gradientUnits="userSpaceOnUse">
<stop stop-color="#229AFA"/>
<stop offset="1" stop-color="#1168F8"/>
</linearGradient>
<linearGradient id="paint11_linear_10554_116462" x1="12.4883" y1="59.5527" x2="72.834" y2="57.4772" gradientUnits="userSpaceOnUse">
<stop stop-color="#229AFA"/>
<stop offset="1" stop-color="#1168F8"/>
</linearGradient>
<linearGradient id="paint12_linear_10554_116462" x1="43.8184" y1="74.9893" x2="74.5189" y2="74.6243" gradientUnits="userSpaceOnUse">
<stop stop-color="#229AFA"/>
<stop offset="1" stop-color="#1168F8"/>
</linearGradient>
<linearGradient id="paint13_linear_10554_116462" x1="44.8334" y1="63.4795" x2="44.8334" y2="83.761" gradientUnits="userSpaceOnUse">
<stop stop-color="#E4ECFF"/>
<stop offset="1" stop-color="white"/>
</linearGradient>
<linearGradient id="paint14_linear_10554_116462" x1="41.6795" y1="65.2744" x2="41.6795" y2="83.3202" gradientUnits="userSpaceOnUse">
<stop stop-color="#E4ECFF"/>
<stop offset="1" stop-color="white"/>
</linearGradient>
<linearGradient id="paint15_linear_10554_116462" x1="25.4432" y1="41.5269" x2="18.8815" y2="59.7425" gradientUnits="userSpaceOnUse">
<stop stop-color="#497DF3"/>
<stop offset="1" stop-color="#CB58DE"/>
</linearGradient>
<linearGradient id="paint16_linear_10554_116462" x1="23.0089" y1="47.9711" x2="21.0487" y2="53.3401" gradientUnits="userSpaceOnUse">
<stop stop-color="#497DF3"/>
<stop offset="1" stop-color="#CB58DE"/>
</linearGradient>
<linearGradient id="paint17_linear_10554_116462" x1="17.5596" y1="41.126" x2="14.1632" y2="45.8821" gradientUnits="userSpaceOnUse">
<stop stop-color="#6290E8"/>
<stop offset="1" stop-color="#00FFD6"/>
</linearGradient>
<linearGradient id="paint18_linear_10554_116462" x1="109.58" y1="43.8475" x2="103.174" y2="43.0128" gradientUnits="userSpaceOnUse">
<stop stop-color="#BE5CE0"/>
<stop offset="1" stop-color="#567FEF"/>
</linearGradient>
<linearGradient id="paint19_linear_10554_116462" x1="104.045" y1="53.6497" x2="98.2985" y2="60.5525" gradientUnits="userSpaceOnUse">
<stop stop-color="#497DF3"/>
<stop offset="1" stop-color="#CB58DE"/>
</linearGradient>
<linearGradient id="paint20_linear_10554_116462" x1="103.263" y1="61.1546" x2="104.249" y2="63.7033" gradientUnits="userSpaceOnUse">
<stop stop-color="#A264E5"/>
<stop offset="1" stop-color="#6192E8"/>
</linearGradient>
<linearGradient id="paint21_linear_10554_116462" x1="101.935" y1="64.0256" x2="94.6409" y2="70.6554" gradientUnits="userSpaceOnUse">
<stop stop-color="#6290E8"/>
<stop offset="1" stop-color="#00FFD6"/>
</linearGradient>
<clipPath id="clip0_10554_116462">
<rect width="125" height="125" fill="white"/>
</clipPath>
<clipPath id="clip1_10554_116462">
<rect width="20.196" height="20.0233" fill="white" transform="matrix(0.98741 -0.158184 0.161 0.986954 10.2266 41.4834)"/>
</clipPath>
</defs>
</svg>
