<svg width="110" height="111" viewBox="0 0 110 111" fill="none" xmlns="http://www.w3.org/2000/svg">
<g clip-path="url(#clip0)">
<path d="M4.53516 56.1341C4.53516 31.3952 24.59 11.3403 49.329 11.3403C74.0679 11.3403 94.1228 31.3952 94.1228 56.1341C94.1228 63.1277 92.5201 69.7469 89.6619 75.6446L41.5548 83.3506H13.7487C7.96942 75.8067 4.53516 66.3715 4.53516 56.1341Z" fill="#003DA1" fill-opacity="0.14"/>
<path d="M89.7036 75.905L89.8393 75.8833L89.8992 75.7596C92.7744 69.8269 94.3865 63.1684 94.3865 56.1341C94.3865 31.2495 74.2136 11.0766 49.329 11.0766C24.4444 11.0766 4.27142 31.2495 4.27142 56.1341C4.27142 66.4315 7.72603 75.9227 13.5394 83.511L13.6185 83.6144H13.7487H41.5548H41.5758L41.5965 83.6111L89.7036 75.905Z" stroke="#003DA1" stroke-opacity="0.1" stroke-width="0.527473"/>
<path d="M30.5197 78.0706L35.3139 75.1463C35.4707 75.0506 35.6509 75 35.8346 75H86.5999C86.7946 75 86.9851 75.0568 87.1479 75.1635L91.6068 78.0848C92.238 78.4983 92.2012 79.4354 91.5394 79.7981L62.4486 95.7444C62.1571 95.9042 61.8052 95.9087 61.5097 95.7564L30.5822 79.8131C29.8886 79.4556 29.8535 78.4769 30.5197 78.0706Z" fill="url(#paint0_radial)"/>
<path d="M58.0116 43.1466L25.376 24.1221C23.3653 61.4751 25.4533 76.4782 25.4533 76.4782L58.0889 95.4254L58.0116 43.1466Z" fill="white"/>
<path opacity="0.3" d="M58.0116 43.1466L25.376 24.1221C23.3653 61.4751 25.4533 76.4782 25.4533 76.4782L58.0889 95.4254L58.0116 43.1466Z" fill="url(#paint1_linear)"/>
<path d="M90.0294 24.6637L57.3939 5.63916L25.377 24.1997L58.0125 43.1469L90.0294 24.6637Z" fill="white"/>
<path opacity="0.1" d="M58.7863 23.813C56.1569 25.5144 53.8369 27.5251 47.3407 29.2265C40.8445 30.9278 37.4417 27.7571 35.9724 25.9784C34.503 24.1996 34.3483 20.1782 41.9272 19.8689C49.9701 19.5595 52.5222 21.3382 57.549 22.0343C57.549 22.0343 56.2343 21.1836 54.7649 20.3329C53.2955 19.4822 51.5941 11.6713 55.9249 10.8206C60.2557 9.96992 67.4479 13.218 67.1386 16.3888C66.8292 19.6369 58.7863 23.813 58.7863 23.813Z" fill="black"/>
<path d="M58.166 95.5032L90.1056 77.02L58.166 95.5032Z" fill="#F9FAFD"/>
<path d="M58.166 95.5032L90.1056 77.02L58.166 95.5032Z" fill="#F9FAFD"/>
<path d="M58.0117 43.1468L58.0891 95.5029L90.0286 77.0197C91.962 63.254 92.7354 41.9094 90.0286 24.6636L58.0117 43.1468Z" fill="white"/>
<path d="M58.0117 43.1468L58.0891 95.5029L90.0286 77.0197C91.962 63.254 92.7354 41.9094 90.0286 24.6636L58.0117 43.1468Z" fill="#F4F6F9"/>
<path d="M78.4287 31.3145L78.506 83.6706L72.9379 86.9187L72.7832 34.5625L78.4287 31.3145Z" fill="#1B84F9"/>
<path d="M36.9758 30.9282L37.0531 31.0056L42.6213 34.1763L42.5439 86.3778L36.8984 83.1297L36.9758 30.9282Z" fill="#1B84F9"/>
<path opacity="0.7" fill-rule="evenodd" clip-rule="evenodd" d="M74.5605 15.6158L68.9923 12.3677L57.3737 19.1194L45.7166 12.3677L40.1484 15.6158L51.7811 22.3693L37.0527 30.9282V31.0055L42.6209 34.1763L50.343 29.6889L48.1895 34.0212L55.1496 34.7946L57.2352 30.4678L62.8833 40.4403L68.5288 37.1922L64.1752 29.565L72.784 34.563L78.4295 31.3149L62.9617 22.356L74.5605 15.6158Z" fill="#1B84F9"/>
<path d="M66.4407 19.8689C57.3151 25.901 60.3312 23.5036 60.3312 23.5036C61.1819 22.6529 61.1045 20.1782 61.1819 17.3941C61.3365 17.3168 61.4139 17.2395 61.5685 17.1621C65.358 14.6874 67.1367 11.2073 67.446 8.42321C67.5234 7.57252 67.5234 6.72182 67.2914 6.02581C69.5341 5.32979 71.0808 6.18048 71.8542 7.80452C73.2462 10.7433 71.9315 16.2341 66.4407 19.8689Z" fill="white"/>
<path d="M69.8425 5.87109C68.8372 5.56174 67.5224 5.71642 65.9757 6.56711C60.9489 9.35118 61.1809 15.4607 61.1036 19.6368C61.0263 21.4929 60.9489 22.9622 60.3302 23.5809C60.3302 23.5809 60.1756 23.7356 60.0209 23.8129L54.6074 19.7141C55.4581 18.8635 55.3808 16.4661 55.4581 13.7593C55.5354 9.8152 56.0768 5.09773 60.3302 2.70033C62.7276 1.38563 64.2744 2.15898 65.6664 3.08701C66.5944 3.70569 68.9145 5.2524 69.8425 5.87109Z" fill="white"/>
<path opacity="0.5" d="M69.8425 5.87109C68.8372 5.56174 67.5224 5.71642 65.9757 6.56711C60.9489 9.35118 61.1809 15.4607 61.1036 19.6368C61.0263 21.4929 60.9489 22.9622 60.3302 23.5809C60.3302 23.5809 60.1756 23.7356 60.0209 23.8129L54.6074 19.7141C55.4581 18.8635 55.3808 16.4661 55.4581 13.7593C55.5354 9.8152 56.0768 5.09773 60.3302 2.70033C62.7276 1.38563 64.2744 2.15898 65.6664 3.08701C66.5944 3.70569 68.9145 5.2524 69.8425 5.87109Z" fill="#1B84F9"/>
<path opacity="0.8" d="M66.4407 19.8689C57.3151 25.901 60.3312 23.5036 60.3312 23.5036C61.1819 22.6529 61.1045 20.1782 61.1819 17.3941C61.3365 17.3168 61.4139 17.2395 61.5685 17.1621C65.358 14.6874 67.1367 11.2073 67.446 8.42321C67.5234 7.57252 67.5234 6.72182 67.2914 6.02581C69.5341 5.32979 71.0808 6.18048 71.8542 7.80452C73.2462 10.7433 71.9315 16.2341 66.4407 19.8689Z" fill="#1B84F9"/>
<path d="M60.5629 23.4267C58.0109 23.4267 56.2321 12.4451 49.1173 12.5998C51.9014 15.7705 53.2934 20.6427 54.9948 20.6427C54.9948 20.6427 57.0828 20.4106 46.9519 24.2774C45.3278 24.8961 43.8585 25.2055 42.6211 25.2055C44.3225 27.6802 47.6479 28.9949 52.5974 27.0615C62.651 23.1947 60.5629 23.4267 60.5629 23.4267Z" fill="white"/>
<path opacity="0.8" d="M60.5629 23.4267C58.0109 23.4267 56.2321 12.4451 49.1173 12.5998C51.9014 15.7705 53.2934 20.6427 54.9948 20.6427C54.9948 20.6427 57.0828 20.4106 46.9519 24.2774C45.3278 24.8961 43.8585 25.2055 42.6211 25.2055C44.3225 27.6802 47.6479 28.9949 52.5974 27.0615C62.651 23.1947 60.5629 23.4267 60.5629 23.4267Z" fill="#1B84F9"/>
<path d="M51.825 13.0632C50.4329 12.4445 48.8089 12.2898 46.8755 12.9085C44.8648 13.5272 43.4727 14.7645 42.5447 16.3112C40.534 19.6367 40.998 24.2768 43.9368 26.5195C42.5447 25.7462 39.9926 24.2768 39.5286 23.8901C37.0539 21.6474 36.6672 17.5486 38.2913 14.3779C39.2193 12.6765 40.6887 11.2071 42.8541 10.5884C44.4781 10.0471 45.8701 10.1244 47.1075 10.4337C47.9582 10.7431 50.4329 12.2898 51.825 13.0632Z" fill="white"/>
<path opacity="0.5" d="M51.825 13.0632C50.4329 12.4445 48.8089 12.2898 46.8755 12.9085C44.8648 13.5272 43.4727 14.7645 42.5447 16.3112C40.534 19.6367 40.998 24.2768 43.9368 26.5195C42.5447 25.7462 39.9926 24.2768 39.5286 23.8901C37.0539 21.6474 36.6672 17.5486 38.2913 14.3779C39.2193 12.6765 40.6887 11.2071 42.8541 10.5884C44.4781 10.0471 45.8701 10.1244 47.1075 10.4337C47.9582 10.7431 50.4329 12.2898 51.825 13.0632Z" fill="#1B84F9"/>
<path d="M60.5628 23.4267C58.0108 23.4267 56.2321 12.4451 49.1172 12.5998C51.9013 15.7705 53.2933 20.6427 54.9947 20.6427C54.9947 20.6427 56.3867 20.488 51.4373 22.4987L60.2535 23.8907C61.1042 23.3494 60.5628 23.4267 60.5628 23.4267Z" fill="#1B84F9"/>
<path d="M68.5303 54.5924V37.1919L62.8848 40.44V57.8405L68.5303 54.5924Z" fill="#1B84F9"/>
<path d="M12.1075 14.7422L13.165 19.4594L17.4104 20.6343L13.165 21.8092L12.1075 26.5263L11.0501 21.8092L6.80469 20.6343L11.0501 19.4594L12.1075 14.7422Z" fill="white"/>
<path d="M97.5251 71.4434L98.2035 74.621L100.927 75.4124L98.2035 76.2039L97.5251 79.3815L96.8467 76.2039L94.123 75.4124L96.8467 74.621L97.5251 71.4434Z" fill="white"/>
<path d="M3.52924 29.4844L4.23299 32.7808L7.05848 33.6018L4.23299 34.4229L3.52924 37.7193L2.8255 34.4229L0 33.6018L2.8255 32.7808L3.52924 29.4844Z" fill="white"/>
<path d="M93.7648 24.9482L95.0498 30.9676L100.209 32.4668L95.0498 33.966L93.7648 39.9854L92.4797 33.966L87.3203 32.4668L92.4797 30.9676L93.7648 24.9482Z" fill="white"/>
<path d="M81.2814 7.93799L82.4138 12.5718L86.5843 13.8301L82.4138 15.0883L81.2814 19.7221L80.149 15.0883L75.9785 13.8301L80.149 12.5718L81.2814 7.93799Z" fill="white"/>
<path d="M10.8397 95.4646L15.336 93.1138C15.479 93.039 15.638 93 15.7993 93H66.5937C66.7922 93 66.9863 93.0591 67.1512 93.1699L70.5558 95.4565C71.1963 95.8866 71.1291 96.8493 70.435 97.1862L42.3993 110.798C42.1349 110.926 41.8273 110.931 41.5584 110.813L10.8989 97.2655C10.1326 96.9269 10.0973 95.8527 10.8397 95.4646Z" fill="url(#paint2_radial)"/>
<path d="M41.5627 80.0434L13.991 66.2461C13.382 75.7869 13.2713 81.5098 14.007 92.0365C14.0505 92.6577 14.3824 93.224 14.9057 93.5614C20.3924 97.0986 25.7809 99.8981 41.6491 106.82L41.5627 80.0434Z" fill="white"/>
<g opacity="0.9" filter="url(#filter0_d)">
<path d="M41.5627 80.0434L13.991 66.2461C13.382 75.7869 13.2713 81.5098 14.007 92.0365C14.0505 92.6577 14.3824 93.224 14.9057 93.5614C20.3924 97.0986 25.7809 99.8981 41.6491 106.82L41.5627 80.0434Z" fill="url(#paint3_linear)"/>
</g>
<path d="M68.6207 66.6613L41.2997 53.1038C41.0192 52.9646 40.6897 52.9648 40.4094 53.1044L13.9922 66.2595L41.6361 80.242L68.6207 66.6613Z" fill="white"/>
<path d="M68.6207 66.6613L41.2997 53.1038C41.0192 52.9646 40.6897 52.9648 40.4094 53.1044L13.9922 66.2595L41.6361 80.242L68.6207 66.6613Z" fill="url(#paint4_linear)"/>
<path d="M41.5625 80.043L41.6489 106.819C51.4284 102.431 56.5637 100.559 67.8281 93.8911C68.3801 93.5644 68.7434 92.988 68.7971 92.3488C69.593 82.868 69.4544 77.0126 68.6194 66.5908L41.5625 80.043Z" fill="white"/>
<g opacity="0.8" filter="url(#filter1_d)">
<path d="M41.5625 80.043L41.6489 106.819C51.6799 102.318 56.8247 100.464 68.7092 93.3672C69.6019 83.2759 69.4839 77.3806 68.6194 66.5908L41.5625 80.043Z" fill="url(#paint5_linear)"/>
</g>
<path d="M58.4423 71.6436L58.8332 99.0612L54.143 101.348L53.3613 74.3795L58.4423 71.6436Z" fill="#F4F6F9"/>
<path d="M53.3603 74.3791L26.4668 59.0855L31.1865 56.3691L58.4413 71.6432" fill="url(#paint6_linear)"/>
<path d="M51.0148 57.9639L55.3141 59.918L29.1275 73.9885L24.0469 71.2526L51.0148 57.9639Z" fill="url(#paint7_linear)"/>
<path d="M29.1281 73.9888L28.2624 101.348L23.6562 98.9706L24.0471 71.2529" fill="#F4F6F9"/>
<path opacity="0.1" d="M57.4024 66.2562C57.6339 67.6298 57.6339 69.2335 57.6339 69.2335C57.6339 69.2335 47.1546 71.1806 41.8545 66.8297L41.1911 66.2733C41.1911 66.2733 34.7162 72.0941 26.8835 70.6072L25.6155 66.3729C25.6155 66.3729 26.7661 65.3427 28.8391 64.886C28.8391 64.886 26.5346 63.7424 25.498 61.4519L31.9936 57.355C31.9936 57.355 37.0173 60.8749 37.2488 61.105C37.4803 61.3351 39.6674 62.0219 39.6674 62.0219C39.6674 62.0219 38.8624 61.7918 40.9354 59.0446C43.0085 56.2973 47.8456 58.0143 45.1956 62.3653C42.5455 66.7163 49.1102 65.9127 51.3007 66.0295C53.4878 66.1428 57.4024 66.2562 57.4024 66.2562Z" fill="black"/>
<path d="M51.2369 50.5557C53.0785 51.246 50.5804 59.4054 41.2793 66.1431C41.2793 66.1431 51.7448 52.6677 44.6895 48.3545C44.6895 48.3545 46.2926 49.5805 48.2379 50.2329C49.2053 50.5592 50.6253 50.3257 51.2369 50.5557Z" fill="#E5E9F0"/>
<path d="M51.2392 50.5555C46.2535 52.822 43.7417 56.1703 42.4944 59.1888C40.9396 62.9561 41.3438 66.2116 41.3438 66.2116C39.4228 61.8056 39.3295 58.2445 40.0101 55.4938C41.2298 50.5384 44.9371 48.1929 44.9371 48.1929C44.9371 48.1929 46.523 49.072 47.677 49.4532C48.831 49.8378 51.2392 50.5555 51.2392 50.5555Z" fill="white"/>
<path d="M41.3438 66.212C39.4228 61.806 39.3295 58.2449 40.0101 55.4941C39.7303 57.0017 42.0348 59.148 42.4944 59.1892C40.9396 62.9564 41.3438 66.212 41.3438 66.212Z" fill="#F7F7F7"/>
<path d="M25.0408 57.1045C24.0492 57.4479 29.2353 66.0229 41.3973 66.1293C41.3973 66.1293 26.2329 57.5475 30.3651 51.7988C30.3651 51.8023 28.6791 55.8476 25.0408 57.1045Z" fill="#E5E9F0"/>
<path d="M25.0762 57.1074C26.13 57.0696 27.1838 57.1521 28.2238 57.3272C28.552 57.3821 28.8802 57.4474 29.205 57.5229C29.4607 57.5813 29.7164 57.6466 29.9686 57.7153C30.0031 57.7221 30.0411 57.7324 30.0757 57.7427C30.1172 57.753 30.1552 57.7668 30.1966 57.7771C32.2835 58.3643 34.2425 59.2949 35.9044 60.3252C36.9548 60.9742 37.8842 61.6679 38.6547 62.3444C40.8349 64.2538 41.3013 66.1219 41.3013 66.1219C41.2806 64.6247 41.2702 63.9413 41.1562 62.9591C40.8487 60.308 39.5047 58.1686 37.8669 56.4996C36.9444 55.5655 35.9355 54.7791 34.9647 54.1335C34.7815 54.0133 34.6019 53.8965 34.4222 53.7832C34.3082 53.7145 34.1976 53.6493 34.0871 53.584C34.0249 53.5463 33.9661 53.5085 33.9039 53.4741C33.7277 53.3711 33.555 53.2715 33.3857 53.1788C31.6927 52.2482 30.4005 51.8052 30.4005 51.8052C30.4005 51.8052 29.3329 53.1342 27.8126 54.8031C26.3442 56.4206 25.0762 57.1074 25.0762 57.1074Z" fill="white"/>
<path d="M34.9627 54.1338C35.9336 54.7794 36.9425 55.5658 37.865 56.4999C37.3536 57.482 36.3551 59.5322 35.9025 60.3255C34.5136 59.4635 32.9138 58.6737 31.207 58.0933L31.1621 58.0761C32.1779 58.0143 34.4859 55.243 34.9627 54.1338Z" fill="white"/>
<path opacity="0.6" d="M29.4551 57.592L29.9664 57.7156L30.1806 57.7843C30.1841 57.7809 30.191 57.7809 30.1945 57.7775C31.4798 57.1868 33.9156 53.8901 34.0849 53.5844C34.0227 53.5466 33.964 53.5089 33.9018 53.4745C33.7256 53.3715 33.5528 53.2719 33.3835 53.1792C32.3815 55.2225 29.4551 57.592 29.4551 57.592Z" fill="white"/>
<g clip-path="url(#clip1)">
<path fill-rule="evenodd" clip-rule="evenodd" d="M21.2819 34.2904C20.6981 34.3847 20.1449 34.55 19.6292 34.7754L19.0359 33.418C19.6648 33.1431 20.3379 32.9423 21.0455 32.828C25.5347 32.1022 29.7693 35.1163 30.4906 39.5782C31.212 44.0401 28.1427 48.2349 23.6535 48.9606C19.1642 49.6864 14.9296 46.6723 14.2083 42.2104C13.8268 39.8506 14.5072 37.5626 15.8956 35.8267L17.0525 36.7519C15.9127 38.177 15.3591 40.0468 15.6707 41.974C16.2592 45.6143 19.7214 48.0957 23.417 47.4982C27.1127 46.9008 29.6167 43.4549 29.0283 39.8146C28.4398 36.1743 24.9775 33.6929 21.2819 34.2904Z" fill="url(#paint8_linear)"/>
<path fill-rule="evenodd" clip-rule="evenodd" d="M22.1284 39.5299C21.3335 39.6584 20.7932 40.4071 20.9217 41.202C21.0502 41.997 21.7989 42.5372 22.5938 42.4087C23.3888 42.2802 23.929 41.5316 23.8005 40.7366C23.672 39.9417 22.9234 39.4014 22.1284 39.5299ZM19.4593 41.4384C19.2003 39.8358 20.2894 38.3266 21.892 38.0675C23.4947 37.8084 25.0039 38.8976 25.2629 40.5002C25.522 42.1028 24.4329 43.612 22.8302 43.8711C21.2276 44.1302 19.7184 43.041 19.4593 41.4384Z" fill="url(#paint9_linear)"/>
<path fill-rule="evenodd" clip-rule="evenodd" d="M17.8863 32.0451L17.529 32.6939L16.9855 32.1907L17.379 31.7658L17.8863 32.0451ZM17.6867 33.669C17.5997 33.7849 17.5066 33.916 17.4158 34.0565C17.2545 34.3059 17.1121 34.5671 17.021 34.8118C16.9269 35.0649 16.91 35.2406 16.927 35.3457C17.0639 36.1929 17.6993 36.5742 18.1447 36.5022C18.59 36.4302 19.0729 35.8682 18.9359 35.0209C18.9189 34.9158 18.8476 34.7544 18.6784 34.5439C18.5149 34.3403 18.2975 34.1373 18.0658 33.9514C17.9354 33.8467 17.8057 33.7516 17.6867 33.669ZM16.9855 32.1907C16.9856 32.1906 16.9855 32.1907 17.529 32.6939C17.8863 32.0451 17.8862 32.045 17.8863 32.0451L17.8877 32.0459L17.8898 32.0471L17.8961 32.0506L17.9169 32.0623C17.9343 32.0722 17.9586 32.0862 17.9889 32.104C18.0493 32.1395 18.134 32.1906 18.2354 32.2552C18.4371 32.3837 18.7105 32.5693 18.9931 32.7961C19.2731 33.0209 19.5787 33.2993 19.8332 33.616C20.0822 33.9258 20.3238 34.3236 20.3983 34.7845C20.6274 36.2018 19.8529 37.7267 18.3811 37.9646C16.9093 38.2025 15.6937 36.9993 15.4646 35.5821C15.3901 35.1211 15.4941 34.6675 15.6327 34.2951C15.7745 33.9143 15.9768 33.5537 16.1717 33.2522C16.3685 32.9479 16.5695 32.6856 16.7204 32.5001C16.7963 32.4068 16.8605 32.3317 16.9067 32.2789C16.9298 32.2525 16.9485 32.2316 16.9619 32.2167L16.9779 32.199L16.9828 32.1937L16.9844 32.1919L16.9855 32.1907ZM17.1711 33.3424C17.171 33.3423 17.171 33.3423 17.1711 33.3424V33.3424Z" fill="url(#paint10_linear)"/>
</g>
<path fill-rule="evenodd" clip-rule="evenodd" d="M97.528 51.0714L92.4605 50.1208L92.7773 48.4316L97.8449 49.3822L97.528 51.0714Z" fill="url(#paint11_linear)"/>
<path fill-rule="evenodd" clip-rule="evenodd" d="M92.4674 50.1221C91.0633 49.8587 89.7115 50.7835 89.4481 52.1876C89.1847 53.5917 90.1095 54.9435 91.5136 55.2069C92.9177 55.4703 94.2695 54.5456 94.5329 53.1414C94.7963 51.7373 93.8716 50.3855 92.4674 50.1221ZM87.759 51.8707C88.1973 49.5337 90.4473 47.9945 92.7843 48.4329C95.1213 48.8713 96.6605 51.1213 96.2221 53.4583C95.7837 55.7953 93.5338 57.3345 91.1967 56.8961C88.8597 56.4577 87.3206 54.2078 87.759 51.8707Z" fill="url(#paint12_linear)"/>
<path fill-rule="evenodd" clip-rule="evenodd" d="M92.693 56.8966C93.1444 56.9813 93.3721 57.373 93.311 57.6989C93.2499 58.0248 92.8956 58.3073 92.4443 58.2226L92.1274 59.9118C93.429 60.156 94.7489 59.3551 95.0002 58.0158C95.2514 56.6764 94.3114 55.4516 93.0099 55.2075L92.693 56.8966Z" fill="url(#paint13_linear)"/>
<path fill-rule="evenodd" clip-rule="evenodd" d="M90.7272 59.3956C89.3231 59.1322 87.9713 60.0569 87.7079 61.461C87.4445 62.8652 88.3692 64.217 89.7734 64.4804C91.1775 64.7437 92.5293 63.819 92.7927 62.4149C93.0561 61.0107 92.1313 59.6589 90.7272 59.3956ZM86.0187 61.1442C86.4571 58.8071 88.707 57.268 91.0441 57.7064C93.3811 58.1448 94.9203 60.3947 94.4819 62.7317C94.0435 65.0688 91.7935 66.6079 89.4565 66.1695C87.1195 65.7311 85.5803 63.4812 86.0187 61.1442Z" fill="url(#paint14_linear)"/>
</g>
<defs>
<filter id="filter0_d" x="10.8341" y="65.2029" width="33.4749" height="45.8937" filterUnits="userSpaceOnUse" color-interpolation-filters="sRGB">
<feFlood flood-opacity="0" result="BackgroundImageFix"/>
<feColorMatrix in="SourceAlpha" type="matrix" values="0 0 0 0 0 0 0 0 0 0 0 0 0 0 0 0 0 0 127 0"/>
<feOffset dy="1.61677"/>
<feGaussianBlur stdDeviation="1.33"/>
<feColorMatrix type="matrix" values="0 0 0 0 0 0 0 0 0 0 0 0 0 0 0 0 0 0 0.04 0"/>
<feBlend mode="normal" in2="BackgroundImageFix" result="effect1_dropShadow"/>
<feBlend mode="normal" in="SourceGraphic" in2="effect1_dropShadow" result="shape"/>
</filter>
<filter id="filter1_d" x="38.9025" y="65.5476" width="33.083" height="45.5486" filterUnits="userSpaceOnUse" color-interpolation-filters="sRGB">
<feFlood flood-opacity="0" result="BackgroundImageFix"/>
<feColorMatrix in="SourceAlpha" type="matrix" values="0 0 0 0 0 0 0 0 0 0 0 0 0 0 0 0 0 0 127 0"/>
<feOffset dy="1.61677"/>
<feGaussianBlur stdDeviation="1.33"/>
<feColorMatrix type="matrix" values="0 0 0 0 0 0 0 0 0 0 0 0 0 0 0 0 0 0 0.04 0"/>
<feBlend mode="normal" in2="BackgroundImageFix" result="effect1_dropShadow"/>
<feBlend mode="normal" in="SourceGraphic" in2="effect1_dropShadow" result="shape"/>
</filter>
<radialGradient id="paint0_radial" cx="0" cy="0" r="1" gradientUnits="userSpaceOnUse" gradientTransform="translate(60.5 75) rotate(90) scale(22.5 45.634)">
<stop stop-color="#105FBB"/>
<stop offset="1" stop-color="#3781D8" stop-opacity="0"/>
</radialGradient>
<linearGradient id="paint1_linear" x1="24.502" y1="24.1221" x2="57.1882" y2="23.8592" gradientUnits="userSpaceOnUse">
<stop stop-color="#229AFA"/>
<stop offset="1" stop-color="#1168F8"/>
</linearGradient>
<radialGradient id="paint2_radial" cx="0" cy="0" r="1" gradientUnits="userSpaceOnUse" gradientTransform="translate(40.5 93) rotate(90) scale(19.2857 45.634)">
<stop stop-color="#105FBB"/>
<stop offset="1" stop-color="#3781D8" stop-opacity="0"/>
</radialGradient>
<linearGradient id="paint3_linear" x1="13.4941" y1="66.2461" x2="40.892" y2="65.9216" gradientUnits="userSpaceOnUse">
<stop stop-color="#229AFA"/>
<stop offset="1" stop-color="#1168F8"/>
</linearGradient>
<linearGradient id="paint4_linear" x1="13.9922" y1="52.8828" x2="67.0976" y2="51.0727" gradientUnits="userSpaceOnUse">
<stop stop-color="#229AFA"/>
<stop offset="1" stop-color="#1168F8"/>
</linearGradient>
<linearGradient id="paint5_linear" x1="41.5625" y1="66.5908" x2="68.579" y2="66.2725" gradientUnits="userSpaceOnUse">
<stop stop-color="#229AFA"/>
<stop offset="1" stop-color="#1168F8"/>
</linearGradient>
<linearGradient id="paint6_linear" x1="42.4541" y1="56.3691" x2="42.4541" y2="74.3791" gradientUnits="userSpaceOnUse">
<stop stop-color="#E4ECFF"/>
<stop offset="1" stop-color="white"/>
</linearGradient>
<linearGradient id="paint7_linear" x1="39.6805" y1="57.9639" x2="39.6805" y2="73.9885" gradientUnits="userSpaceOnUse">
<stop stop-color="#E4ECFF"/>
<stop offset="1" stop-color="white"/>
</linearGradient>
<linearGradient id="paint8_linear" x1="25.3908" y1="32.8758" x2="19.5234" y2="49.0174" gradientUnits="userSpaceOnUse">
<stop stop-color="#497DF3"/>
<stop offset="1" stop-color="#CB58DE"/>
</linearGradient>
<linearGradient id="paint9_linear" x1="23.2485" y1="38.5985" x2="21.4958" y2="43.356" gradientUnits="userSpaceOnUse">
<stop stop-color="#497DF3"/>
<stop offset="1" stop-color="#CB58DE"/>
</linearGradient>
<linearGradient id="paint10_linear" x1="18.4519" y1="32.5201" x2="15.4272" y2="36.7176" gradientUnits="userSpaceOnUse">
<stop stop-color="#6290E8"/>
<stop offset="1" stop-color="#00FFD6"/>
</linearGradient>
<linearGradient id="paint11_linear" x1="99.4292" y1="40.9364" x2="93.7897" y2="40.2082" gradientUnits="userSpaceOnUse">
<stop stop-color="#BE5CE0"/>
<stop offset="1" stop-color="#567FEF"/>
</linearGradient>
<linearGradient id="paint12_linear" x1="94.558" y1="49.64" x2="89.4471" y2="55.7242" gradientUnits="userSpaceOnUse">
<stop stop-color="#497DF3"/>
<stop offset="1" stop-color="#CB58DE"/>
</linearGradient>
<linearGradient id="paint13_linear" x1="93.8719" y1="56.3047" x2="94.7528" y2="58.5626" gradientUnits="userSpaceOnUse">
<stop stop-color="#A264E5"/>
<stop offset="1" stop-color="#6192E8"/>
</linearGradient>
<linearGradient id="paint14_linear" x1="92.7008" y1="58.8544" x2="86.2291" y2="64.6834" gradientUnits="userSpaceOnUse">
<stop stop-color="#6290E8"/>
<stop offset="1" stop-color="#00FFD6"/>
</linearGradient>
<clipPath id="clip0">
<rect width="110" height="111" fill="white"/>
</clipPath>
<clipPath id="clip1">
<rect width="17.7765" height="17.7766" fill="white" transform="translate(12 32.8369) rotate(-9.18288)"/>
</clipPath>
</defs>
</svg>
