<svg width="110" height="110" viewBox="0 0 110 110" fill="none" xmlns="http://www.w3.org/2000/svg">
<g clip-path="url(#clip0)">
<path d="M50.4637 11.3403C25.7248 11.3403 5.66992 31.3952 5.66992 56.1341C5.66992 66.3715 9.10418 75.8067 14.8835 83.3506H86.044C91.8233 75.8067 95.2576 66.3715 95.2576 56.1341C95.2576 31.3952 75.2027 11.3403 50.4637 11.3403Z" fill="url(#paint0_linear)" fill-opacity="0.14"/>
<path d="M14.6741 83.511L14.7533 83.6144H14.8835H86.044H86.1742L86.2534 83.511C92.0667 75.9227 95.5213 66.4315 95.5213 56.1341C95.5213 31.2495 75.3483 11.0766 50.4637 11.0766C25.5791 11.0766 5.40619 31.2495 5.40619 56.1341C5.40619 66.4315 8.86079 75.9227 14.6741 83.511Z" stroke="url(#paint1_linear)" stroke-opacity="0.1" stroke-width="0.527473"/>
<path d="M10.9258 87.4849L17.5748 84.0301C17.7172 83.9561 17.8754 83.9175 18.0359 83.9175H85.7999C85.9976 83.9175 86.1907 83.976 86.3551 84.0857L91.4347 87.4763C92.0784 87.9059 92.0111 88.8724 91.3141 89.2087L53.3685 107.518C53.1052 107.645 52.7995 107.65 52.5318 107.533L10.9848 89.2879C10.2158 88.9502 10.1805 87.8722 10.9258 87.4849Z" fill="url(#paint2_radial)"/>
<g filter="url(#filter0_d)">
<path d="M86.7158 85.3799C87.4107 85.0302 87.4079 84.0373 86.7111 83.6915L50.8055 65.8741C50.5407 65.7427 50.2298 65.7429 49.9652 65.8747L15.2888 83.1426C14.5938 83.4887 14.5907 84.4792 15.2835 84.8296L51.0306 102.911C51.2978 103.046 51.6133 103.046 51.8808 102.912L86.7158 85.3799Z" fill="white"/>
<path d="M86.7158 85.3799C87.4107 85.0302 87.4079 84.0373 86.7111 83.6915L50.8055 65.8741C50.5407 65.7427 50.2298 65.7429 49.9652 65.8747L15.2888 83.1426C14.5938 83.4887 14.5907 84.4792 15.2835 84.8296L51.0306 102.911C51.2978 103.046 51.6133 103.046 51.8808 102.912L86.7158 85.3799Z" fill="url(#paint3_radial)"/>
</g>
<g filter="url(#filter1_d)">
<path d="M86.7158 80.0284C87.4107 79.6787 87.4079 78.6857 86.7111 78.3399L50.8055 60.5225C50.5407 60.3911 50.2298 60.3914 49.9652 60.5231L15.2888 77.791C14.5938 78.1371 14.5907 79.1276 15.2835 79.478L51.0306 97.5592C51.2978 97.6944 51.6133 97.6947 51.8808 97.56L86.7158 80.0284Z" fill="white"/>
<path d="M86.7158 80.0284C87.4107 79.6787 87.4079 78.6857 86.7111 78.3399L50.8055 60.5225C50.5407 60.3911 50.2298 60.3914 49.9652 60.5231L15.2888 77.791C14.5938 78.1371 14.5907 79.1276 15.2835 79.478L51.0306 97.5592C51.2978 97.6944 51.6133 97.6947 51.8808 97.56L86.7158 80.0284Z" fill="url(#paint4_radial)"/>
</g>
<g filter="url(#filter2_d)">
<path d="M86.7158 74.6768C87.4107 74.3271 87.4079 73.3341 86.7111 72.9883L50.8055 55.171C50.5407 55.0396 50.2298 55.0398 49.9652 55.1715L15.2888 72.4394C14.5938 72.7855 14.5907 73.776 15.2835 74.1265L51.0306 92.2076C51.2978 92.3428 51.6133 92.3431 51.8808 92.2085L86.7158 74.6768Z" fill="white"/>
<path d="M86.7158 74.6768C87.4107 74.3271 87.4079 73.3341 86.7111 72.9883L50.8055 55.171C50.5407 55.0396 50.2298 55.0398 49.9652 55.1715L15.2888 72.4394C14.5938 72.7855 14.5907 73.776 15.2835 74.1265L51.0306 92.2076C51.2978 92.3428 51.6133 92.3431 51.8808 92.2085L86.7158 74.6768Z" fill="url(#paint5_radial)"/>
</g>
<g filter="url(#filter3_d)">
<path d="M86.7158 69.3258C87.4107 68.9761 87.4079 67.9831 86.7111 67.6373L50.8055 49.8199C50.5407 49.6885 50.2298 49.6887 49.9652 49.8205L15.2888 67.0884C14.5938 67.4345 14.5907 68.425 15.2835 68.7754L51.0306 86.8566C51.2978 86.9917 51.6133 86.9921 51.8808 86.8574L86.7158 69.3258Z" fill="white"/>
<path d="M86.7158 69.3258C87.4107 68.9761 87.4079 67.9831 86.7111 67.6373L50.8055 49.8199C50.5407 49.6885 50.2298 49.6887 49.9652 49.8205L15.2888 67.0884C14.5938 67.4345 14.5907 68.425 15.2835 68.7754L51.0306 86.8566C51.2978 86.9917 51.6133 86.9921 51.8808 86.8574L86.7158 69.3258Z" fill="url(#paint6_radial)"/>
</g>
<g filter="url(#filter4_d)">
<path d="M86.7158 63.9742C87.4107 63.6245 87.4079 62.6315 86.7111 62.2857L50.8055 44.4683C50.5407 44.3369 50.2298 44.3372 49.9652 44.4689L15.2888 61.7368C14.5938 62.0829 14.5907 63.0734 15.2835 63.4238L51.0306 81.505C51.2978 81.6402 51.6133 81.6405 51.8808 81.5059L86.7158 63.9742Z" fill="white"/>
<path d="M86.7158 63.9742C87.4107 63.6245 87.4079 62.6315 86.7111 62.2857L50.8055 44.4683C50.5407 44.3369 50.2298 44.3372 49.9652 44.4689L15.2888 61.7368C14.5938 62.0829 14.5907 63.0734 15.2835 63.4238L51.0306 81.505C51.2978 81.6402 51.6133 81.6405 51.8808 81.5059L86.7158 63.9742Z" fill="url(#paint7_radial)"/>
</g>
<g filter="url(#filter5_d)">
<path d="M86.7158 58.6226C87.4107 58.2729 87.4079 57.2799 86.7111 56.9342L50.8055 39.1168C50.5407 38.9854 50.2298 38.9856 49.9652 39.1173L15.2888 56.3852C14.5938 56.7313 14.5907 57.7218 15.2835 58.0723L51.0306 76.1534C51.2978 76.2886 51.6133 76.2889 51.8808 76.1543L86.7158 58.6226Z" fill="white"/>
<path d="M86.7158 58.6226C87.4107 58.2729 87.4079 57.2799 86.7111 56.9342L50.8055 39.1168C50.5407 38.9854 50.2298 38.9856 49.9652 39.1173L15.2888 56.3852C14.5938 56.7313 14.5907 57.7218 15.2835 58.0723L51.0306 76.1534C51.2978 76.2886 51.6133 76.2889 51.8808 76.1543L86.7158 58.6226Z" fill="url(#paint8_radial)"/>
</g>
<g filter="url(#filter6_d)">
<path d="M86.7158 53.2711C87.4107 52.9214 87.4079 51.9284 86.7111 51.5826L50.8055 33.7652C50.5407 33.6338 50.2298 33.634 49.9652 33.7658L15.2888 51.0337C14.5938 51.3798 14.5907 52.3703 15.2835 52.7207L51.0306 70.8019C51.2978 70.937 51.6133 70.9374 51.8808 70.8027L86.7158 53.2711Z" fill="white"/>
<path d="M86.7158 53.2711C87.4107 52.9214 87.4079 51.9284 86.7111 51.5826L50.8055 33.7652C50.5407 33.6338 50.2298 33.634 49.9652 33.7658L15.2888 51.0337C14.5938 51.3798 14.5907 52.3703 15.2835 52.7207L51.0306 70.8019C51.2978 70.937 51.6133 70.9374 51.8808 70.8027L86.7158 53.2711Z" fill="url(#paint9_radial)"/>
</g>
<g filter="url(#filter7_d)">
<path d="M86.7158 47.92C87.4107 47.5703 87.4079 46.5773 86.7111 46.2315L50.8055 28.4141C50.5407 28.2828 50.2298 28.283 49.9652 28.4147L15.2888 45.6826C14.5938 46.0287 14.5907 47.0192 15.2835 47.3696L51.0306 65.4508C51.2978 65.586 51.6133 65.5863 51.8808 65.4516L86.7158 47.92Z" fill="white"/>
<path d="M86.7158 47.92C87.4107 47.5703 87.4079 46.5773 86.7111 46.2315L50.8055 28.4141C50.5407 28.2828 50.2298 28.283 49.9652 28.4147L15.2888 45.6826C14.5938 46.0287 14.5907 47.0192 15.2835 47.3696L51.0306 65.4508C51.2978 65.586 51.6133 65.5863 51.8808 65.4516L86.7158 47.92Z" fill="url(#paint10_radial)"/>
</g>
<ellipse rx="0.948822" ry="0.948824" transform="matrix(0.920041 0.391822 -0.799349 0.600867 18.4485 45.9609)" fill="url(#paint11_linear)"/>
<ellipse rx="0.948822" ry="0.948823" transform="matrix(0.920041 0.391823 -0.799349 0.600868 21.5051 44.5107)" fill="url(#paint12_linear)"/>
<ellipse rx="0.948822" ry="0.948823" transform="matrix(0.920041 0.391822 -0.799349 0.600867 24.5657 43.061)" fill="url(#paint13_linear)"/>
<path d="M75.1502 53.8921L75.6854 91.4322L69.2636 94.5631L68.1934 57.6381L75.1502 53.8921Z" fill="url(#paint14_linear)"/>
<path d="M68.1917 57.6378L31.3691 36.6978L37.8313 32.9785L75.1486 53.8918" fill="url(#paint15_linear)"/>
<path d="M64.9811 35.1621L70.8677 37.8377L35.013 57.1031L28.0566 53.357L64.9811 35.1621Z" fill="url(#paint16_linear)"/>
<path d="M35.0135 57.1029L33.8282 94.5632L27.5215 91.3079L28.0566 53.3569" fill="url(#paint17_linear)"/>
<path opacity="0.1" d="M73.7244 46.5161C74.0414 48.3969 74.0414 50.5927 74.0414 50.5927C74.0414 50.5927 59.6931 53.2587 52.4362 47.3013L51.5279 46.5396C51.5279 46.5396 42.6626 54.5094 31.938 52.4735L30.2019 46.676C30.2019 46.676 31.7772 45.2654 34.6156 44.64C34.6156 44.64 31.4602 43.0743 30.041 39.938L38.9348 34.3286C38.9348 34.3286 45.8132 39.1481 46.1302 39.4631C46.4471 39.7782 49.4417 40.7186 49.4417 40.7186C49.4417 40.7186 48.3394 40.4035 51.1779 36.642C54.0163 32.8804 60.6393 35.2314 57.0108 41.1888C53.3824 47.1461 62.3707 46.0459 65.37 46.2058C68.3645 46.3609 73.7244 46.5161 73.7244 46.5161Z" fill="black"/>
<path d="M65.2843 25.0179C67.8058 25.963 64.3855 37.1348 51.6504 46.3601C51.6504 46.3601 65.9797 27.9096 56.3196 22.0039C56.3196 22.0039 58.5147 23.6825 61.178 24.5759C62.5026 25.0226 64.447 24.7028 65.2843 25.0179Z" fill="#1B84F9"/>
<path d="M65.2908 25.0182C58.4644 28.1214 55.0252 32.7059 53.3174 36.8389C51.1886 41.9969 51.7421 46.4544 51.7421 46.4544C49.1118 40.4218 48.9841 35.5458 49.916 31.7796C51.586 24.9946 56.662 21.7832 56.662 21.7832C56.662 21.7832 58.8334 22.9869 60.4135 23.5088C61.9935 24.0354 65.2908 25.0182 65.2908 25.0182Z" fill="url(#paint18_linear)"/>
<path d="M51.7421 46.4546C49.1118 40.422 48.9841 35.5461 49.916 31.7798C49.5328 33.8439 52.6882 36.7827 53.3174 36.8391C51.1886 41.9971 51.7421 46.4546 51.7421 46.4546Z" fill="url(#paint19_linear)"/>
<path d="M29.4168 33.9847C28.0591 34.4549 35.1599 46.1957 51.812 46.3415C51.812 46.3415 31.0489 34.5913 36.7068 26.7202C36.7068 26.7249 34.3982 32.2638 29.4168 33.9847Z" fill="#1B84F9"/>
<path d="M29.4648 33.9893C30.9077 33.9376 32.3506 34.0504 33.7745 34.2902C34.2239 34.3655 34.6734 34.4548 35.118 34.5583C35.4681 34.6382 35.8182 34.7275 36.1635 34.8216C36.2108 34.831 36.2629 34.8451 36.3102 34.8592C36.367 34.8733 36.419 34.8921 36.4758 34.9062C39.3331 35.7102 42.0154 36.9845 44.2909 38.3951C45.729 39.2837 47.0016 40.2335 48.0565 41.1598C51.0416 43.7741 51.6803 46.332 51.6803 46.332C51.6519 44.2819 51.6377 43.3462 51.4816 42.0015C51.0606 38.3715 49.2203 35.4422 46.9779 33.1571C45.7148 31.8781 44.3335 30.8014 43.0041 29.9174C42.7534 29.7529 42.5074 29.593 42.2614 29.4378C42.1053 29.3438 41.9539 29.2544 41.8025 29.1651C41.7174 29.1134 41.637 29.0617 41.5518 29.0146C41.3106 28.8736 41.074 28.7372 40.8422 28.6103C38.5242 27.336 36.7549 26.7295 36.7549 26.7295C36.7549 26.7295 35.2931 28.5491 33.2116 30.8343C31.201 33.0489 29.4648 33.9893 29.4648 33.9893Z" fill="url(#paint20_linear)"/>
<path opacity="0.4" d="M43.0026 29.9175C44.3319 30.8014 45.7133 31.8782 46.9764 33.1571C46.2763 34.5019 44.9091 37.309 44.2894 38.3951C42.3876 37.2149 40.1973 36.1335 37.8603 35.3388L37.7988 35.3153C39.1897 35.2307 42.3498 31.4362 43.0026 29.9175Z" fill="white"/>
<path opacity="0.22" d="M35.4629 34.6529L36.163 34.8221L36.4563 34.9162C36.4611 34.9115 36.4705 34.9115 36.4753 34.9068C38.2351 34.098 41.5702 29.5841 41.802 29.1657C41.7169 29.1139 41.6365 29.0622 41.5513 29.0152C41.3101 28.8741 41.0735 28.7378 40.8417 28.6108C39.4698 31.4085 35.4629 34.6529 35.4629 34.6529Z" fill="white"/>
<path d="M19.1542 5.62842L20.483 10.93L25.3768 12.3696L20.483 13.8091L19.1542 19.1107L17.8254 13.8091L12.9316 12.3696L17.8254 10.93L19.1542 5.62842Z" fill="url(#paint21_linear)"/>
<path d="M84.664 11.3398L85.5499 14.6024L88.8124 15.4882L85.5499 16.3741L84.664 19.6366L83.7781 16.3741L80.5156 15.4882L83.7781 14.6024L84.664 11.3398Z" fill="url(#paint22_linear)"/>
<path d="M3.01362 70.3091L3.89949 73.5716L7.162 74.4575L3.89949 75.3433L3.01362 78.6059L2.12775 75.3433L-1.13477 74.4575L2.12775 73.5716L3.01362 70.3091Z" fill="url(#paint23_linear)"/>
<path d="M94.8242 77.1885L95.71 80.451L98.9726 81.3369L95.71 82.2227L94.8242 85.4853L93.9383 82.2227L90.6758 81.3369L93.9383 80.451L94.8242 77.1885Z" fill="url(#paint24_linear)"/>
<path d="M100.515 57.835L101.638 61.9699L105.773 63.0926L101.638 64.2154L100.515 68.3503L99.3927 64.2154L95.2578 63.0926L99.3927 61.9699L100.515 57.835Z" fill="url(#paint25_linear)"/>
<path d="M6.98792 22.5151L7.99594 26.2275L11.7083 27.2355L7.99594 28.2435L6.98792 31.9558L5.97991 28.2435L2.26758 27.2355L5.97991 26.2275L6.98792 22.5151Z" fill="#1B84F9"/>
</g>
<defs>
<filter id="filter0_d" x="12.1056" y="64.7326" width="77.7896" height="42.5566" filterUnits="userSpaceOnUse" color-interpolation-filters="sRGB">
<feFlood flood-opacity="0" result="BackgroundImageFix"/>
<feColorMatrix in="SourceAlpha" type="matrix" values="0 0 0 0 0 0 0 0 0 0 0 0 0 0 0 0 0 0 127 0"/>
<feOffset dy="1.61677"/>
<feGaussianBlur stdDeviation="1.33"/>
<feColorMatrix type="matrix" values="0 0 0 0 0 0 0 0 0 0 0 0 0 0 0 0 0 0 0.04 0"/>
<feBlend mode="normal" in2="BackgroundImageFix" result="effect1_dropShadow"/>
<feBlend mode="normal" in="SourceGraphic" in2="effect1_dropShadow" result="shape"/>
</filter>
<filter id="filter1_d" x="12.1056" y="59.3811" width="77.7896" height="42.5566" filterUnits="userSpaceOnUse" color-interpolation-filters="sRGB">
<feFlood flood-opacity="0" result="BackgroundImageFix"/>
<feColorMatrix in="SourceAlpha" type="matrix" values="0 0 0 0 0 0 0 0 0 0 0 0 0 0 0 0 0 0 127 0"/>
<feOffset dy="1.61677"/>
<feGaussianBlur stdDeviation="1.33"/>
<feColorMatrix type="matrix" values="0 0 0 0 0 0 0 0 0 0 0 0 0 0 0 0 0 0 0.1 0"/>
<feBlend mode="normal" in2="BackgroundImageFix" result="effect1_dropShadow"/>
<feBlend mode="normal" in="SourceGraphic" in2="effect1_dropShadow" result="shape"/>
</filter>
<filter id="filter2_d" x="12.1056" y="54.0295" width="77.7896" height="42.5567" filterUnits="userSpaceOnUse" color-interpolation-filters="sRGB">
<feFlood flood-opacity="0" result="BackgroundImageFix"/>
<feColorMatrix in="SourceAlpha" type="matrix" values="0 0 0 0 0 0 0 0 0 0 0 0 0 0 0 0 0 0 127 0"/>
<feOffset dy="1.61677"/>
<feGaussianBlur stdDeviation="1.33"/>
<feColorMatrix type="matrix" values="0 0 0 0 0 0 0 0 0 0 0 0 0 0 0 0 0 0 0.1 0"/>
<feBlend mode="normal" in2="BackgroundImageFix" result="effect1_dropShadow"/>
<feBlend mode="normal" in="SourceGraphic" in2="effect1_dropShadow" result="shape"/>
</filter>
<filter id="filter3_d" x="12.1056" y="48.6784" width="77.7896" height="42.5567" filterUnits="userSpaceOnUse" color-interpolation-filters="sRGB">
<feFlood flood-opacity="0" result="BackgroundImageFix"/>
<feColorMatrix in="SourceAlpha" type="matrix" values="0 0 0 0 0 0 0 0 0 0 0 0 0 0 0 0 0 0 127 0"/>
<feOffset dy="1.61677"/>
<feGaussianBlur stdDeviation="1.33"/>
<feColorMatrix type="matrix" values="0 0 0 0 0 0 0 0 0 0 0 0 0 0 0 0 0 0 0.1 0"/>
<feBlend mode="normal" in2="BackgroundImageFix" result="effect1_dropShadow"/>
<feBlend mode="normal" in="SourceGraphic" in2="effect1_dropShadow" result="shape"/>
</filter>
<filter id="filter4_d" x="12.1056" y="43.3269" width="77.7896" height="42.5567" filterUnits="userSpaceOnUse" color-interpolation-filters="sRGB">
<feFlood flood-opacity="0" result="BackgroundImageFix"/>
<feColorMatrix in="SourceAlpha" type="matrix" values="0 0 0 0 0 0 0 0 0 0 0 0 0 0 0 0 0 0 127 0"/>
<feOffset dy="1.61677"/>
<feGaussianBlur stdDeviation="1.33"/>
<feColorMatrix type="matrix" values="0 0 0 0 0 0 0 0 0 0 0 0 0 0 0 0 0 0 0.1 0"/>
<feBlend mode="normal" in2="BackgroundImageFix" result="effect1_dropShadow"/>
<feBlend mode="normal" in="SourceGraphic" in2="effect1_dropShadow" result="shape"/>
</filter>
<filter id="filter5_d" x="12.1056" y="37.9753" width="77.7896" height="42.5567" filterUnits="userSpaceOnUse" color-interpolation-filters="sRGB">
<feFlood flood-opacity="0" result="BackgroundImageFix"/>
<feColorMatrix in="SourceAlpha" type="matrix" values="0 0 0 0 0 0 0 0 0 0 0 0 0 0 0 0 0 0 127 0"/>
<feOffset dy="1.61677"/>
<feGaussianBlur stdDeviation="1.33"/>
<feColorMatrix type="matrix" values="0 0 0 0 0 0 0 0 0 0 0 0 0 0 0 0 0 0 0.1 0"/>
<feBlend mode="normal" in2="BackgroundImageFix" result="effect1_dropShadow"/>
<feBlend mode="normal" in="SourceGraphic" in2="effect1_dropShadow" result="shape"/>
</filter>
<filter id="filter6_d" x="12.1056" y="32.6238" width="77.7896" height="42.5567" filterUnits="userSpaceOnUse" color-interpolation-filters="sRGB">
<feFlood flood-opacity="0" result="BackgroundImageFix"/>
<feColorMatrix in="SourceAlpha" type="matrix" values="0 0 0 0 0 0 0 0 0 0 0 0 0 0 0 0 0 0 127 0"/>
<feOffset dy="1.61677"/>
<feGaussianBlur stdDeviation="1.33"/>
<feColorMatrix type="matrix" values="0 0 0 0 0 0 0 0 0 0 0 0 0 0 0 0 0 0 0.1 0"/>
<feBlend mode="normal" in2="BackgroundImageFix" result="effect1_dropShadow"/>
<feBlend mode="normal" in="SourceGraphic" in2="effect1_dropShadow" result="shape"/>
</filter>
<filter id="filter7_d" x="12.1056" y="27.2727" width="77.7896" height="42.5566" filterUnits="userSpaceOnUse" color-interpolation-filters="sRGB">
<feFlood flood-opacity="0" result="BackgroundImageFix"/>
<feColorMatrix in="SourceAlpha" type="matrix" values="0 0 0 0 0 0 0 0 0 0 0 0 0 0 0 0 0 0 127 0"/>
<feOffset dy="1.61677"/>
<feGaussianBlur stdDeviation="1.33"/>
<feColorMatrix type="matrix" values="0 0 0 0 0 0 0 0 0 0 0 0 0 0 0 0 0 0 0.1 0"/>
<feBlend mode="normal" in2="BackgroundImageFix" result="effect1_dropShadow"/>
<feBlend mode="normal" in="SourceGraphic" in2="effect1_dropShadow" result="shape"/>
</filter>
<linearGradient id="paint0_linear" x1="5.66992" y1="11.3403" x2="92.8215" y2="9.48947" gradientUnits="userSpaceOnUse">
<stop stop-color="#229AFA"/>
<stop offset="1" stop-color="#1168F8"/>
</linearGradient>
<linearGradient id="paint1_linear" x1="5.66992" y1="11.3403" x2="92.8215" y2="9.48947" gradientUnits="userSpaceOnUse">
<stop stop-color="#229AFA"/>
<stop offset="1" stop-color="#1168F8"/>
</linearGradient>
<radialGradient id="paint2_radial" cx="0" cy="0" r="1" gradientUnits="userSpaceOnUse" gradientTransform="translate(50.9814 83.9175) rotate(90) scale(25.5003 60.7137)">
<stop stop-color="#89B8F0"/>
<stop offset="1" stop-color="#E2F0FF" stop-opacity="0"/>
</radialGradient>
<radialGradient id="paint3_radial" cx="0" cy="0" r="1" gradientUnits="userSpaceOnUse" gradientTransform="translate(51.0424 71.226) rotate(90.0688) scale(31.8997 63.6946)">
<stop offset="0.344161" stop-color="white" stop-opacity="0"/>
<stop offset="1" stop-color="#F5F8FF"/>
</radialGradient>
<radialGradient id="paint4_radial" cx="0" cy="0" r="1" gradientUnits="userSpaceOnUse" gradientTransform="translate(51.0424 65.8745) rotate(90.0688) scale(31.8997 63.6946)">
<stop offset="0.344161" stop-color="white" stop-opacity="0"/>
<stop offset="1" stop-color="#F5F8FF"/>
</radialGradient>
<radialGradient id="paint5_radial" cx="0" cy="0" r="1" gradientUnits="userSpaceOnUse" gradientTransform="translate(51.0424 60.5229) rotate(90.0688) scale(31.8997 63.6946)">
<stop offset="0.344161" stop-color="white" stop-opacity="0"/>
<stop offset="1" stop-color="#F5F8FF"/>
</radialGradient>
<radialGradient id="paint6_radial" cx="0" cy="0" r="1" gradientUnits="userSpaceOnUse" gradientTransform="translate(51.0424 55.1718) rotate(90.0688) scale(31.8997 63.6946)">
<stop offset="0.344161" stop-color="white" stop-opacity="0"/>
<stop offset="1" stop-color="#F5F8FF"/>
</radialGradient>
<radialGradient id="paint7_radial" cx="0" cy="0" r="1" gradientUnits="userSpaceOnUse" gradientTransform="translate(51.0424 49.8203) rotate(90.0688) scale(31.8997 63.6946)">
<stop offset="0.344161" stop-color="white" stop-opacity="0"/>
<stop offset="1" stop-color="#F5F8FF"/>
</radialGradient>
<radialGradient id="paint8_radial" cx="0" cy="0" r="1" gradientUnits="userSpaceOnUse" gradientTransform="translate(51.0424 44.4687) rotate(90.0688) scale(31.8997 63.6946)">
<stop offset="0.344161" stop-color="white" stop-opacity="0"/>
<stop offset="1" stop-color="#F5F8FF"/>
</radialGradient>
<radialGradient id="paint9_radial" cx="0" cy="0" r="1" gradientUnits="userSpaceOnUse" gradientTransform="translate(51.0424 39.1171) rotate(90.0688) scale(31.8997 63.6946)">
<stop offset="0.344161" stop-color="white" stop-opacity="0"/>
<stop offset="1" stop-color="#F5F8FF"/>
</radialGradient>
<radialGradient id="paint10_radial" cx="0" cy="0" r="1" gradientUnits="userSpaceOnUse" gradientTransform="translate(51.0424 33.7661) rotate(90.0688) scale(31.8997 63.6946)">
<stop offset="0.344161" stop-color="white" stop-opacity="0"/>
<stop offset="1" stop-color="#F5F8FF"/>
</radialGradient>
<linearGradient id="paint11_linear" x1="0" y1="0" x2="1.84634" y2="-0.0315178" gradientUnits="userSpaceOnUse">
<stop stop-color="#229AFA"/>
<stop offset="1" stop-color="#1168F8"/>
</linearGradient>
<linearGradient id="paint12_linear" x1="0" y1="0" x2="1.84634" y2="-0.0315177" gradientUnits="userSpaceOnUse">
<stop stop-color="#229AFA"/>
<stop offset="1" stop-color="#1168F8"/>
</linearGradient>
<linearGradient id="paint13_linear" x1="0" y1="0" x2="1.84634" y2="-0.0315178" gradientUnits="userSpaceOnUse">
<stop stop-color="#229AFA"/>
<stop offset="1" stop-color="#1168F8"/>
</linearGradient>
<linearGradient id="paint14_linear" x1="68.1934" y1="53.8921" x2="75.4849" y2="53.8692" gradientUnits="userSpaceOnUse">
<stop stop-color="#229AFA"/>
<stop offset="1" stop-color="#1168F8"/>
</linearGradient>
<linearGradient id="paint15_linear" x1="31.3691" y1="32.9785" x2="73.9383" y2="31.6884" gradientUnits="userSpaceOnUse">
<stop stop-color="#229AFA"/>
<stop offset="1" stop-color="#1168F8"/>
</linearGradient>
<linearGradient id="paint16_linear" x1="28.0566" y1="35.1621" x2="69.6762" y2="33.7759" gradientUnits="userSpaceOnUse">
<stop stop-color="#229AFA"/>
<stop offset="1" stop-color="#1168F8"/>
</linearGradient>
<linearGradient id="paint17_linear" x1="27.5215" y1="53.3569" x2="34.813" y2="53.3343" gradientUnits="userSpaceOnUse">
<stop stop-color="#229AFA"/>
<stop offset="1" stop-color="#1168F8"/>
</linearGradient>
<linearGradient id="paint18_linear" x1="49.3887" y1="21.7832" x2="64.8635" y2="21.6129" gradientUnits="userSpaceOnUse">
<stop stop-color="#6FB3FF"/>
<stop offset="1" stop-color="#498EFF"/>
</linearGradient>
<linearGradient id="paint19_linear" x1="49.3887" y1="31.7798" x2="53.2122" y2="31.7623" gradientUnits="userSpaceOnUse">
<stop stop-color="#6FB3FF"/>
<stop offset="1" stop-color="#498EFF"/>
</linearGradient>
<linearGradient id="paint20_linear" x1="29.4648" y1="26.7295" x2="51.0779" y2="26.3114" gradientUnits="userSpaceOnUse">
<stop stop-color="#6FB3FF"/>
<stop offset="1" stop-color="#498EFF"/>
</linearGradient>
<linearGradient id="paint21_linear" x1="12.9316" y1="5.62842" x2="25.0409" y2="5.43761" gradientUnits="userSpaceOnUse">
<stop stop-color="#229AFA"/>
<stop offset="1" stop-color="#1168F8"/>
</linearGradient>
<linearGradient id="paint22_linear" x1="80.5156" y1="11.3398" x2="88.5881" y2="11.202" gradientUnits="userSpaceOnUse">
<stop stop-color="#229AFA"/>
<stop offset="1" stop-color="#1168F8"/>
</linearGradient>
<linearGradient id="paint23_linear" x1="-1.13477" y1="70.3091" x2="6.93769" y2="70.1713" gradientUnits="userSpaceOnUse">
<stop stop-color="#229AFA"/>
<stop offset="1" stop-color="#1168F8"/>
</linearGradient>
<linearGradient id="paint24_linear" x1="90.6758" y1="77.1885" x2="98.7482" y2="77.0507" gradientUnits="userSpaceOnUse">
<stop stop-color="#229AFA"/>
<stop offset="1" stop-color="#1168F8"/>
</linearGradient>
<linearGradient id="paint25_linear" x1="95.2578" y1="57.835" x2="105.489" y2="57.6603" gradientUnits="userSpaceOnUse">
<stop stop-color="#229AFA"/>
<stop offset="1" stop-color="#1168F8"/>
</linearGradient>
<clipPath id="clip0">
<rect width="110" height="110" fill="white"/>
</clipPath>
</defs>
</svg>
