<svg width="125" height="125" viewBox="0 0 125 125" fill="none" xmlns="http://www.w3.org/2000/svg">
<g clip-path="url(#clip0_10554_116434)">
<path d="M57.3454 12.8867C29.233 12.8867 6.44336 35.6763 6.44336 63.7888C6.44336 75.4221 10.3459 86.144 16.9133 94.7166H97.7775C104.345 86.144 108.247 75.4221 108.247 63.7888C108.247 35.6763 85.4578 12.8867 57.3454 12.8867Z" fill="#003DA2" fill-opacity="0.14"/>
<path d="M16.6757 94.8987L16.7655 95.016H16.9133H97.7775H97.9253L98.0152 94.8987C104.621 86.2756 108.547 75.4902 108.547 63.7888C108.547 35.511 85.6232 12.5874 57.3454 12.5874C29.0676 12.5874 6.14399 35.511 6.14399 63.7888C6.14399 75.4902 10.0697 86.2756 16.6757 94.8987Z" stroke="#003DA1" stroke-opacity="0.1" stroke-width="0.598734"/>
<path d="M12.4106 99.4155L19.9689 95.4882C20.1306 95.4042 20.3101 95.3604 20.4923 95.3604H97.4976C97.7219 95.3604 97.9411 95.4268 98.1277 95.5513L103.902 99.4057C104.633 99.8934 104.556 100.99 103.765 101.372L60.6427 122.179C60.3439 122.323 59.9969 122.329 59.6931 122.196L12.4776 101.462C11.6046 101.079 11.5646 99.8551 12.4106 99.4155Z" fill="url(#paint0_radial_10554_116434)"/>
<g filter="url(#filter0_d_10554_116434)">
<path d="M98.5411 97.0218C99.3298 96.6248 99.3266 95.4977 98.5357 95.1052L57.7312 74.8568C57.4307 74.7077 57.0777 74.708 56.7774 74.8575L17.3698 94.4814C16.5808 94.8743 16.5773 95.9986 17.3638 96.3964L57.988 116.944C58.2914 117.098 58.6495 117.098 58.9532 116.945L98.5411 97.0218Z" fill="white"/>
<path d="M98.5411 97.0218C99.3298 96.6248 99.3266 95.4977 98.5357 95.1052L57.7312 74.8568C57.4307 74.7077 57.0777 74.708 56.7774 74.8575L17.3698 94.4814C16.5808 94.8743 16.5773 95.9986 17.3638 96.3964L57.988 116.944C58.2914 117.098 58.6495 117.098 58.9532 116.945L98.5411 97.0218Z" fill="url(#paint1_radial_10554_116434)"/>
</g>
<g filter="url(#filter1_d_10554_116434)">
<path d="M98.5411 90.9398C99.3298 90.5428 99.3266 89.4157 98.5357 89.0232L57.7312 68.7748C57.4307 68.6257 57.0777 68.6259 56.7774 68.7755L17.3698 88.3994C16.5808 88.7923 16.5773 89.9166 17.3638 90.3144L57.988 110.862C58.2914 111.016 58.6495 111.016 58.9532 110.863L98.5411 90.9398Z" fill="white"/>
<path d="M98.5411 90.9398C99.3298 90.5428 99.3266 89.4157 98.5357 89.0232L57.7312 68.7748C57.4307 68.6257 57.0777 68.6259 56.7774 68.7755L17.3698 88.3994C16.5808 88.7923 16.5773 89.9166 17.3638 90.3144L57.988 110.862C58.2914 111.016 58.6495 111.016 58.9532 110.863L98.5411 90.9398Z" fill="url(#paint2_radial_10554_116434)"/>
</g>
<g filter="url(#filter2_d_10554_116434)">
<path d="M98.5411 84.8587C99.3298 84.4618 99.3266 83.3346 98.5357 82.9421L57.7312 62.6938C57.4307 62.5446 57.0777 62.5449 56.7774 62.6944L17.3698 82.3184C16.5808 82.7112 16.5773 83.8355 17.3638 84.2333L57.988 104.781C58.2914 104.935 58.6495 104.935 58.9532 104.782L98.5411 84.8587Z" fill="white"/>
<path d="M98.5411 84.8587C99.3298 84.4618 99.3266 83.3346 98.5357 82.9421L57.7312 62.6938C57.4307 62.5446 57.0777 62.5449 56.7774 62.6944L17.3698 82.3184C16.5808 82.7112 16.5773 83.8355 17.3638 84.2333L57.988 104.781C58.2914 104.935 58.6495 104.935 58.9532 104.782L98.5411 84.8587Z" fill="url(#paint3_radial_10554_116434)"/>
</g>
<g filter="url(#filter3_d_10554_116434)">
<path d="M98.5411 78.7787C99.3298 78.3817 99.3266 77.2546 98.5357 76.862L57.7312 56.6137C57.4307 56.4646 57.0777 56.4648 56.7774 56.6143L17.3698 76.2383C16.5808 76.6311 16.5773 77.7555 17.3638 78.1532L57.988 98.7014C58.2914 98.8548 58.6495 98.8551 58.9532 98.7023L98.5411 78.7787Z" fill="white"/>
<path d="M98.5411 78.7787C99.3298 78.3817 99.3266 77.2546 98.5357 76.862L57.7312 56.6137C57.4307 56.4646 57.0777 56.4648 56.7774 56.6143L17.3698 76.2383C16.5808 76.6311 16.5773 77.7555 17.3638 78.1532L57.988 98.7014C58.2914 98.8548 58.6495 98.8551 58.9532 98.7023L98.5411 78.7787Z" fill="url(#paint4_radial_10554_116434)"/>
</g>
<g filter="url(#filter4_d_10554_116434)">
<path d="M98.5411 72.6966C99.3298 72.2997 99.3266 71.1725 98.5357 70.78L57.7312 50.5316C57.4307 50.3825 57.0777 50.3828 56.7774 50.5323L17.3698 70.1563C16.5808 70.5491 16.5773 71.6734 17.3638 72.0712L57.988 92.6193C58.2914 92.7728 58.6495 92.7731 58.9532 92.6203L98.5411 72.6966Z" fill="white"/>
<path d="M98.5411 72.6966C99.3298 72.2997 99.3266 71.1725 98.5357 70.78L57.7312 50.5316C57.4307 50.3825 57.0777 50.3828 56.7774 50.5323L17.3698 70.1563C16.5808 70.5491 16.5773 71.6734 17.3638 72.0712L57.988 92.6193C58.2914 92.7728 58.6495 92.7731 58.9532 92.6203L98.5411 72.6966Z" fill="url(#paint5_radial_10554_116434)"/>
</g>
<g filter="url(#filter5_d_10554_116434)">
<path d="M98.5411 66.6156C99.3298 66.2186 99.3266 65.0915 98.5357 64.699L57.7312 44.4506C57.4307 44.3015 57.0777 44.3017 56.7774 44.4513L17.3698 64.0752C16.5808 64.4681 16.5773 65.5924 17.3638 65.9902L57.988 86.5383C58.2914 86.6917 58.6495 86.6921 58.9532 86.5392L98.5411 66.6156Z" fill="white"/>
<path d="M98.5411 66.6156C99.3298 66.2186 99.3266 65.0915 98.5357 64.699L57.7312 44.4506C57.4307 44.3015 57.0777 44.3017 56.7774 44.4513L17.3698 64.0752C16.5808 64.4681 16.5773 65.5924 17.3638 65.9902L57.988 86.5383C58.2914 86.6917 58.6495 86.6921 58.9532 86.5392L98.5411 66.6156Z" fill="url(#paint6_radial_10554_116434)"/>
</g>
<g filter="url(#filter6_d_10554_116434)">
<path d="M98.5411 60.5345C99.3298 60.1375 99.3266 59.0104 98.5357 58.6179L57.7312 38.3695C57.4307 38.2204 57.0777 38.2207 56.7774 38.3702L17.3698 57.9941C16.5808 58.387 16.5773 59.5113 17.3638 59.9091L57.988 80.4572C58.2914 80.6106 58.6495 80.611 58.9532 80.4582L98.5411 60.5345Z" fill="white"/>
<path d="M98.5411 60.5345C99.3298 60.1375 99.3266 59.0104 98.5357 58.6179L57.7312 38.3695C57.4307 38.2204 57.0777 38.2207 56.7774 38.3702L17.3698 57.9941C16.5808 58.387 16.5773 59.5113 17.3638 59.9091L57.988 80.4572C58.2914 80.6106 58.6495 80.611 58.9532 80.4582L98.5411 60.5345Z" fill="url(#paint7_radial_10554_116434)"/>
</g>
<g filter="url(#filter7_d_10554_116434)">
<path d="M98.5411 54.4534C99.3298 54.0565 99.3266 52.9293 98.5357 52.5368L57.7312 32.2885C57.4307 32.1394 57.0777 32.1396 56.7774 32.2891L17.3698 51.9131C16.5808 52.3059 16.5773 53.4303 17.3638 53.828L57.988 74.3761C58.2914 74.5296 58.6495 74.5299 58.9532 74.3771L98.5411 54.4534Z" fill="white"/>
<path d="M98.5411 54.4534C99.3298 54.0565 99.3266 52.9293 98.5357 52.5368L57.7312 32.2885C57.4307 32.1394 57.0777 32.1396 56.7774 32.2891L17.3698 51.9131C16.5808 52.3059 16.5773 53.4303 17.3638 53.828L57.988 74.3761C58.2914 74.5296 58.6495 74.5299 58.9532 74.3771L98.5411 54.4534Z" fill="url(#paint8_radial_10554_116434)"/>
</g>
<ellipse rx="1.07821" ry="1.07821" transform="matrix(0.920041 0.391822 -0.799349 0.600867 20.9602 52.2285)" fill="url(#paint9_linear_10554_116434)"/>
<ellipse rx="1.07821" ry="1.07821" transform="matrix(0.920041 0.391822 -0.799349 0.600867 24.4368 50.5811)" fill="url(#paint10_linear_10554_116434)"/>
<ellipse rx="1.07821" ry="1.07821" transform="matrix(0.920041 0.391823 -0.799348 0.600868 27.9133 48.9336)" fill="url(#paint11_linear_10554_116434)"/>
<path d="M85.3938 61.2412L86.0019 103.9L78.7045 107.458L77.4883 65.498L85.3938 61.2412Z" fill="url(#paint12_linear_10554_116434)"/>
<path d="M77.4864 65.4975L35.6426 41.702L42.9859 37.4756L85.392 61.2406" fill="url(#paint13_linear_10554_116434)"/>
<path d="M73.8385 39.957L80.5278 42.9975L39.7838 64.8899L31.8789 60.6331L73.8385 39.957Z" fill="url(#paint14_linear_10554_116434)"/>
<path d="M39.7852 64.8896L38.4382 107.458L31.2715 103.759L31.8796 60.6328" fill="url(#paint15_linear_10554_116434)"/>
<path opacity="0.1" d="M83.7731 52.8592C84.1332 54.9964 84.1332 57.4917 84.1332 57.4917C84.1332 57.4917 67.8284 60.5212 59.5819 53.7515L58.5497 52.8859C58.5497 52.8859 48.4755 61.9425 36.2885 59.6289L34.3156 53.0408C34.3156 53.0408 36.1057 51.4379 39.3312 50.7273C39.3312 50.7273 35.7456 48.948 34.1328 45.3841L44.2393 39.0098C44.2393 39.0098 52.0558 44.4865 52.4159 44.8445C52.7761 45.2025 56.179 46.2711 56.179 46.2711C56.179 46.2711 54.9265 45.9131 58.1519 41.6386C61.3774 37.3641 68.9036 40.0356 64.7803 46.8054C60.6571 53.5751 70.8711 52.3249 74.2794 52.5065C77.6823 52.6828 83.7731 52.8592 83.7731 52.8592Z" fill="black"/>
<path d="M74.1845 28.4298C77.0498 29.5038 73.1631 42.1991 58.6914 52.6823C58.6914 52.6823 74.9747 31.7159 63.9973 25.0049C63.9973 25.0049 66.4917 26.9124 69.5183 27.9276C71.0235 28.4352 73.233 28.0718 74.1845 28.4298Z" fill="#1B84F9"/>
<path d="M74.1898 28.43C66.4325 31.9565 62.5243 37.166 60.5836 41.8626C58.1645 47.724 58.7935 52.7893 58.7935 52.7893C55.8045 45.9341 55.6594 40.3933 56.7184 36.1134C58.616 28.4033 64.3843 24.7539 64.3843 24.7539C64.3843 24.7539 66.8518 26.1217 68.6473 26.7148C70.4428 27.3133 74.1898 28.43 74.1898 28.43Z" fill="url(#paint16_linear_10554_116434)"/>
<path d="M58.7935 52.7892C55.8045 45.934 55.6594 40.3931 56.7184 36.1133C56.2829 38.4589 59.8686 41.7984 60.5836 41.8625C58.1645 47.7239 58.7935 52.7892 58.7935 52.7892Z" fill="url(#paint17_linear_10554_116434)"/>
<path d="M33.4253 38.6194C31.8825 39.1537 39.9516 52.4955 58.8744 52.6611C58.8744 52.6611 35.28 39.3087 41.7095 30.3643C41.7095 30.3696 39.0861 36.6638 33.4253 38.6194Z" fill="#1B84F9"/>
<path d="M33.4805 38.6248C35.1201 38.566 36.7597 38.6943 38.3778 38.9668C38.8885 39.0522 39.3992 39.1538 39.9046 39.2713C40.3024 39.3622 40.7002 39.4637 41.0926 39.5705C41.1464 39.5812 41.2055 39.5972 41.2593 39.6133C41.3238 39.6293 41.3829 39.6507 41.4474 39.6667C44.6944 40.5804 47.7425 42.0284 50.3283 43.6313C51.9625 44.6412 53.4086 45.7205 54.6074 46.7731C57.9995 49.7439 58.7253 52.6505 58.7253 52.6505C58.693 50.3209 58.6769 49.2576 58.4995 47.7295C58.021 43.6046 55.9299 40.2758 53.3817 37.6791C51.9464 36.2257 50.3766 35.0022 48.866 33.9976C48.5811 33.8106 48.3016 33.629 48.022 33.4526C47.8446 33.3458 47.6726 33.2443 47.5006 33.1427C47.4038 33.084 47.3124 33.0252 47.2157 32.9718C46.9415 32.8115 46.6727 32.6565 46.4093 32.5123C43.7751 31.0643 41.7646 30.375 41.7646 30.375C41.7646 30.375 40.1035 32.4428 37.7381 35.0396C35.4534 37.5562 33.4805 38.6248 33.4805 38.6248Z" fill="url(#paint18_linear_10554_116434)"/>
<path opacity="0.4" d="M48.8646 33.998C50.3752 35.0026 51.9449 36.2261 53.3802 37.6795C52.5846 39.2076 51.031 42.3975 50.3268 43.6317C48.1657 42.2906 45.6767 41.0617 43.0211 40.1587L42.9512 40.132C44.5317 40.0358 48.1227 35.7239 48.8646 33.998Z" fill="white"/>
<path opacity="0.22" d="M40.2969 39.3786L41.0925 39.571L41.4258 39.6778C41.4312 39.6725 41.4419 39.6725 41.4473 39.6672C43.4471 38.7481 47.2371 33.6187 47.5005 33.1432C47.4037 33.0844 47.3123 33.0256 47.2155 32.9722C46.9414 32.8119 46.6726 32.657 46.4092 32.5127C44.8502 35.6919 40.2969 39.3786 40.2969 39.3786Z" fill="white"/>
<path d="M21.7645 6.39648L23.2745 12.421L28.8356 14.0569L23.2745 15.6927L21.7645 21.7172L20.2545 15.6927L14.6934 14.0569L20.2545 12.421L21.7645 6.39648Z" fill="white"/>
<path d="M96.2082 12.8867L97.2149 16.5941L100.922 17.6008L97.2149 18.6075L96.2082 22.3149L95.2015 18.6075L91.4941 17.6008L95.2015 16.5941L96.2082 12.8867Z" fill="white"/>
<path d="M3.42306 79.8975L4.42973 83.6049L8.13713 84.6115L4.42973 85.6182L3.42306 89.3256L2.41639 85.6182L-1.29102 84.6115L2.41639 83.6049L3.42306 79.8975Z" fill="white"/>
<path d="M107.755 87.7148L108.762 91.4223L112.469 92.4289L108.762 93.4356L107.755 97.143L106.748 93.4356L103.041 92.4289L106.748 91.4223L107.755 87.7148Z" fill="white"/>
<path d="M114.221 65.7217L115.497 70.4205L120.195 71.6963L115.497 72.9722L114.221 77.671L112.945 72.9722L108.246 71.6963L112.945 70.4205L114.221 65.7217Z" fill="white"/>
<path d="M7.9402 25.5859L9.08567 29.8045L13.3042 30.95L9.08567 32.0954L7.9402 36.314L6.79473 32.0954L2.57617 30.95L6.79473 29.8045L7.9402 25.5859Z" fill="white"/>
</g>
<defs>
<filter id="filter0_d_10554_116434" x="13.756" y="73.5609" width="88.3942" height="48.3532" filterUnits="userSpaceOnUse" color-interpolation-filters="sRGB">
<feFlood flood-opacity="0" result="BackgroundImageFix"/>
<feColorMatrix in="SourceAlpha" type="matrix" values="0 0 0 0 0 0 0 0 0 0 0 0 0 0 0 0 0 0 127 0" result="hardAlpha"/>
<feOffset dy="1.83519"/>
<feGaussianBlur stdDeviation="1.50968"/>
<feColorMatrix type="matrix" values="0 0 0 0 0 0 0 0 0 0 0 0 0 0 0 0 0 0 0.04 0"/>
<feBlend mode="normal" in2="BackgroundImageFix" result="effect1_dropShadow_10554_116434"/>
<feBlend mode="normal" in="SourceGraphic" in2="effect1_dropShadow_10554_116434" result="shape"/>
</filter>
<filter id="filter1_d_10554_116434" x="13.756" y="67.4789" width="88.3942" height="48.3532" filterUnits="userSpaceOnUse" color-interpolation-filters="sRGB">
<feFlood flood-opacity="0" result="BackgroundImageFix"/>
<feColorMatrix in="SourceAlpha" type="matrix" values="0 0 0 0 0 0 0 0 0 0 0 0 0 0 0 0 0 0 127 0" result="hardAlpha"/>
<feOffset dy="1.83519"/>
<feGaussianBlur stdDeviation="1.50968"/>
<feColorMatrix type="matrix" values="0 0 0 0 0 0 0 0 0 0 0 0 0 0 0 0 0 0 0.1 0"/>
<feBlend mode="normal" in2="BackgroundImageFix" result="effect1_dropShadow_10554_116434"/>
<feBlend mode="normal" in="SourceGraphic" in2="effect1_dropShadow_10554_116434" result="shape"/>
</filter>
<filter id="filter2_d_10554_116434" x="13.756" y="61.3979" width="88.3942" height="48.3532" filterUnits="userSpaceOnUse" color-interpolation-filters="sRGB">
<feFlood flood-opacity="0" result="BackgroundImageFix"/>
<feColorMatrix in="SourceAlpha" type="matrix" values="0 0 0 0 0 0 0 0 0 0 0 0 0 0 0 0 0 0 127 0" result="hardAlpha"/>
<feOffset dy="1.83519"/>
<feGaussianBlur stdDeviation="1.50968"/>
<feColorMatrix type="matrix" values="0 0 0 0 0 0 0 0 0 0 0 0 0 0 0 0 0 0 0.1 0"/>
<feBlend mode="normal" in2="BackgroundImageFix" result="effect1_dropShadow_10554_116434"/>
<feBlend mode="normal" in="SourceGraphic" in2="effect1_dropShadow_10554_116434" result="shape"/>
</filter>
<filter id="filter3_d_10554_116434" x="13.756" y="55.3178" width="88.3942" height="48.3532" filterUnits="userSpaceOnUse" color-interpolation-filters="sRGB">
<feFlood flood-opacity="0" result="BackgroundImageFix"/>
<feColorMatrix in="SourceAlpha" type="matrix" values="0 0 0 0 0 0 0 0 0 0 0 0 0 0 0 0 0 0 127 0" result="hardAlpha"/>
<feOffset dy="1.83519"/>
<feGaussianBlur stdDeviation="1.50968"/>
<feColorMatrix type="matrix" values="0 0 0 0 0 0 0 0 0 0 0 0 0 0 0 0 0 0 0.1 0"/>
<feBlend mode="normal" in2="BackgroundImageFix" result="effect1_dropShadow_10554_116434"/>
<feBlend mode="normal" in="SourceGraphic" in2="effect1_dropShadow_10554_116434" result="shape"/>
</filter>
<filter id="filter4_d_10554_116434" x="13.756" y="49.2358" width="88.3942" height="48.3532" filterUnits="userSpaceOnUse" color-interpolation-filters="sRGB">
<feFlood flood-opacity="0" result="BackgroundImageFix"/>
<feColorMatrix in="SourceAlpha" type="matrix" values="0 0 0 0 0 0 0 0 0 0 0 0 0 0 0 0 0 0 127 0" result="hardAlpha"/>
<feOffset dy="1.83519"/>
<feGaussianBlur stdDeviation="1.50968"/>
<feColorMatrix type="matrix" values="0 0 0 0 0 0 0 0 0 0 0 0 0 0 0 0 0 0 0.1 0"/>
<feBlend mode="normal" in2="BackgroundImageFix" result="effect1_dropShadow_10554_116434"/>
<feBlend mode="normal" in="SourceGraphic" in2="effect1_dropShadow_10554_116434" result="shape"/>
</filter>
<filter id="filter5_d_10554_116434" x="13.756" y="43.1547" width="88.3942" height="48.3532" filterUnits="userSpaceOnUse" color-interpolation-filters="sRGB">
<feFlood flood-opacity="0" result="BackgroundImageFix"/>
<feColorMatrix in="SourceAlpha" type="matrix" values="0 0 0 0 0 0 0 0 0 0 0 0 0 0 0 0 0 0 127 0" result="hardAlpha"/>
<feOffset dy="1.83519"/>
<feGaussianBlur stdDeviation="1.50968"/>
<feColorMatrix type="matrix" values="0 0 0 0 0 0 0 0 0 0 0 0 0 0 0 0 0 0 0.1 0"/>
<feBlend mode="normal" in2="BackgroundImageFix" result="effect1_dropShadow_10554_116434"/>
<feBlend mode="normal" in="SourceGraphic" in2="effect1_dropShadow_10554_116434" result="shape"/>
</filter>
<filter id="filter6_d_10554_116434" x="13.756" y="37.0736" width="88.3942" height="48.3532" filterUnits="userSpaceOnUse" color-interpolation-filters="sRGB">
<feFlood flood-opacity="0" result="BackgroundImageFix"/>
<feColorMatrix in="SourceAlpha" type="matrix" values="0 0 0 0 0 0 0 0 0 0 0 0 0 0 0 0 0 0 127 0" result="hardAlpha"/>
<feOffset dy="1.83519"/>
<feGaussianBlur stdDeviation="1.50968"/>
<feColorMatrix type="matrix" values="0 0 0 0 0 0 0 0 0 0 0 0 0 0 0 0 0 0 0.1 0"/>
<feBlend mode="normal" in2="BackgroundImageFix" result="effect1_dropShadow_10554_116434"/>
<feBlend mode="normal" in="SourceGraphic" in2="effect1_dropShadow_10554_116434" result="shape"/>
</filter>
<filter id="filter7_d_10554_116434" x="13.756" y="30.9926" width="88.3942" height="48.3532" filterUnits="userSpaceOnUse" color-interpolation-filters="sRGB">
<feFlood flood-opacity="0" result="BackgroundImageFix"/>
<feColorMatrix in="SourceAlpha" type="matrix" values="0 0 0 0 0 0 0 0 0 0 0 0 0 0 0 0 0 0 127 0" result="hardAlpha"/>
<feOffset dy="1.83519"/>
<feGaussianBlur stdDeviation="1.50968"/>
<feColorMatrix type="matrix" values="0 0 0 0 0 0 0 0 0 0 0 0 0 0 0 0 0 0 0.1 0"/>
<feBlend mode="normal" in2="BackgroundImageFix" result="effect1_dropShadow_10554_116434"/>
<feBlend mode="normal" in="SourceGraphic" in2="effect1_dropShadow_10554_116434" result="shape"/>
</filter>
<radialGradient id="paint0_radial_10554_116434" cx="0" cy="0" r="1" gradientUnits="userSpaceOnUse" gradientTransform="translate(57.9307 95.3604) rotate(90) scale(28.9776 68.9929)">
<stop stop-color="#105FBB"/>
<stop offset="1" stop-color="#3781D8" stop-opacity="0"/>
</radialGradient>
<radialGradient id="paint1_radial_10554_116434" cx="0" cy="0" r="1" gradientUnits="userSpaceOnUse" gradientTransform="translate(58.001 80.9389) rotate(90.0688) scale(36.2496 72.3802)">
<stop offset="0.344161" stop-color="white" stop-opacity="0"/>
<stop offset="1" stop-color="#F5F8FF"/>
</radialGradient>
<radialGradient id="paint2_radial_10554_116434" cx="0" cy="0" r="1" gradientUnits="userSpaceOnUse" gradientTransform="translate(58.001 74.8568) rotate(90.0688) scale(36.2496 72.3802)">
<stop offset="0.344161" stop-color="white" stop-opacity="0"/>
<stop offset="1" stop-color="#F5F8FF"/>
</radialGradient>
<radialGradient id="paint3_radial_10554_116434" cx="0" cy="0" r="1" gradientUnits="userSpaceOnUse" gradientTransform="translate(58.001 68.7758) rotate(90.0688) scale(36.2496 72.3802)">
<stop offset="0.344161" stop-color="white" stop-opacity="0"/>
<stop offset="1" stop-color="#F5F8FF"/>
</radialGradient>
<radialGradient id="paint4_radial_10554_116434" cx="0" cy="0" r="1" gradientUnits="userSpaceOnUse" gradientTransform="translate(58.001 62.6957) rotate(90.0688) scale(36.2497 72.3802)">
<stop offset="0.344161" stop-color="white" stop-opacity="0"/>
<stop offset="1" stop-color="#F5F8FF"/>
</radialGradient>
<radialGradient id="paint5_radial_10554_116434" cx="0" cy="0" r="1" gradientUnits="userSpaceOnUse" gradientTransform="translate(58.001 56.6137) rotate(90.0688) scale(36.2497 72.3802)">
<stop offset="0.344161" stop-color="white" stop-opacity="0"/>
<stop offset="1" stop-color="#F5F8FF"/>
</radialGradient>
<radialGradient id="paint6_radial_10554_116434" cx="0" cy="0" r="1" gradientUnits="userSpaceOnUse" gradientTransform="translate(58.001 50.5326) rotate(90.0688) scale(36.2496 72.3802)">
<stop offset="0.344161" stop-color="white" stop-opacity="0"/>
<stop offset="1" stop-color="#F5F8FF"/>
</radialGradient>
<radialGradient id="paint7_radial_10554_116434" cx="0" cy="0" r="1" gradientUnits="userSpaceOnUse" gradientTransform="translate(58.001 44.4516) rotate(90.0688) scale(36.2496 72.3802)">
<stop offset="0.344161" stop-color="white" stop-opacity="0"/>
<stop offset="1" stop-color="#F5F8FF"/>
</radialGradient>
<radialGradient id="paint8_radial_10554_116434" cx="0" cy="0" r="1" gradientUnits="userSpaceOnUse" gradientTransform="translate(58.001 38.3705) rotate(90.0688) scale(36.2496 72.3802)">
<stop offset="0.344161" stop-color="white" stop-opacity="0"/>
<stop offset="1" stop-color="#F5F8FF"/>
</radialGradient>
<linearGradient id="paint9_linear_10554_116434" x1="0" y1="0" x2="2.09811" y2="-0.0358156" gradientUnits="userSpaceOnUse">
<stop stop-color="#229AFA"/>
<stop offset="1" stop-color="#1168F8"/>
</linearGradient>
<linearGradient id="paint10_linear_10554_116434" x1="0" y1="0" x2="2.09811" y2="-0.0358156" gradientUnits="userSpaceOnUse">
<stop stop-color="#229AFA"/>
<stop offset="1" stop-color="#1168F8"/>
</linearGradient>
<linearGradient id="paint11_linear_10554_116434" x1="0" y1="0" x2="2.09811" y2="-0.0358156" gradientUnits="userSpaceOnUse">
<stop stop-color="#229AFA"/>
<stop offset="1" stop-color="#1168F8"/>
</linearGradient>
<linearGradient id="paint12_linear_10554_116434" x1="77.4883" y1="61.2412" x2="85.7741" y2="61.2152" gradientUnits="userSpaceOnUse">
<stop stop-color="#229AFA"/>
<stop offset="1" stop-color="#1168F8"/>
</linearGradient>
<linearGradient id="paint13_linear_10554_116434" x1="35.6426" y1="37.4756" x2="84.0166" y2="36.0095" gradientUnits="userSpaceOnUse">
<stop stop-color="#229AFA"/>
<stop offset="1" stop-color="#1168F8"/>
</linearGradient>
<linearGradient id="paint14_linear_10554_116434" x1="31.8789" y1="39.957" x2="79.1739" y2="38.3817" gradientUnits="userSpaceOnUse">
<stop stop-color="#229AFA"/>
<stop offset="1" stop-color="#1168F8"/>
</linearGradient>
<linearGradient id="paint15_linear_10554_116434" x1="31.2715" y1="60.6328" x2="39.5573" y2="60.6071" gradientUnits="userSpaceOnUse">
<stop stop-color="#229AFA"/>
<stop offset="1" stop-color="#1168F8"/>
</linearGradient>
<linearGradient id="paint16_linear_10554_116434" x1="56.1191" y1="24.7539" x2="73.7042" y2="24.5604" gradientUnits="userSpaceOnUse">
<stop stop-color="#6FB3FF"/>
<stop offset="1" stop-color="#498EFF"/>
</linearGradient>
<linearGradient id="paint17_linear_10554_116434" x1="56.1191" y1="36.1133" x2="60.4641" y2="36.0934" gradientUnits="userSpaceOnUse">
<stop stop-color="#6FB3FF"/>
<stop offset="1" stop-color="#498EFF"/>
</linearGradient>
<linearGradient id="paint18_linear_10554_116434" x1="33.4805" y1="30.375" x2="58.0407" y2="29.8999" gradientUnits="userSpaceOnUse">
<stop stop-color="#6FB3FF"/>
<stop offset="1" stop-color="#498EFF"/>
</linearGradient>
<clipPath id="clip0_10554_116434">
<rect width="125" height="125" fill="white"/>
</clipPath>
</defs>
</svg>
