<svg width="110" height="110" viewBox="0 0 110 110" fill="none" xmlns="http://www.w3.org/2000/svg">
<path d="M49.329 11.3403C24.59 11.3403 4.53516 31.3952 4.53516 56.1341C4.53516 66.3715 7.96942 75.8067 13.7487 83.3506H84.9092C90.6885 75.8067 94.1228 66.3715 94.1228 56.1341C94.1228 31.3952 74.0679 11.3403 49.329 11.3403Z" fill="#003DA2" fill-opacity="0.14"/>
<path d="M13.5394 83.511L13.6185 83.6144H13.7487H84.9092H85.0394L85.1186 83.511C90.9319 75.9227 94.3865 66.4315 94.3865 56.1341C94.3865 31.2495 74.2136 11.0766 49.329 11.0766C24.4444 11.0766 4.27142 31.2495 4.27142 56.1341C4.27142 66.4315 7.72603 75.9227 13.5394 83.511Z" stroke="#003DA1" stroke-opacity="0.1" stroke-width="0.527473"/>
<path d="M8.65824 87.4849L15.3072 84.0301C15.4497 83.9561 15.6078 83.9175 15.7683 83.9175H83.5324C83.73 83.9175 83.9232 83.976 84.0875 84.0857L89.1672 87.4763C89.8108 87.9059 89.7435 88.8724 89.0466 89.2087L51.1009 107.518C50.8376 107.645 50.5319 107.65 50.2643 107.533L8.71724 89.2879C7.94819 88.9502 7.91292 87.8722 8.65824 87.4849Z" fill="url(#paint0_radial)"/>
<path d="M50.1705 67.1114L13.6714 48.8467C12.8592 61.5717 12.7165 69.1663 13.7148 83.3036C13.7587 83.9247 14.0909 84.4941 14.6135 84.8326C21.9717 89.5983 29.0196 93.2818 50.2849 102.558L50.1705 67.1114Z" fill="white"/>
<g opacity="0.8" filter="url(#filter0_d)">
<path d="M50.1705 67.1114L13.6714 48.8467C12.8592 61.5717 12.7165 69.1663 13.7148 83.3036C13.7587 83.9247 14.0909 84.4941 14.6135 84.8326C21.9717 89.5983 29.0196 93.2818 50.2849 102.558L50.1705 67.1114Z" fill="url(#paint1_linear)"/>
</g>
<path d="M85.9885 49.3965L49.6771 31.3777C49.3966 31.2385 49.0671 31.2387 48.7868 31.3783L13.6719 48.8646L50.2666 67.3745L85.9885 49.3965Z" fill="white"/>
<path opacity="0.9" d="M85.9885 49.3965L49.6771 31.3777C49.3966 31.2385 49.0671 31.2387 48.7868 31.3783L13.6719 48.8646L50.2666 67.3745L85.9885 49.3965Z" fill="url(#paint2_linear)"/>
<path d="M50.1699 67.111L50.2843 102.557C63.3117 96.7112 70.1136 94.2382 85.2223 85.2757C85.774 84.9485 86.1405 84.3689 86.1949 83.7297C87.2794 70.9851 87.1025 63.2194 85.9875 49.3032L50.1699 67.111Z" fill="white"/>
<g opacity="0.7" filter="url(#filter1_d)">
<path d="M50.1699 67.111L50.2843 102.557C63.5632 96.5983 70.3739 94.1441 86.1064 84.7495C87.2881 71.3908 87.1319 63.5867 85.9875 49.3032L50.1699 67.111Z" fill="url(#paint3_linear)"/>
</g>
<path d="M72.5152 55.9917L73.0326 92.2868L66.8239 95.3139L65.7891 59.6135L72.5152 55.9917Z" fill="#F4F6F9"/>
<path d="M65.7889 59.6134L30.1875 39.3679L36.4353 35.772L72.515 55.9916" fill="url(#paint4_linear)"/>
<path d="M62.6842 37.8828L68.3756 40.4697L33.71 59.0961L26.9844 55.4743L62.6842 37.8828Z" fill="url(#paint5_linear)"/>
<path d="M33.7103 59.0964L32.5644 95.3142L26.4668 92.1669L26.9842 55.4746" fill="#F4F6F9"/>
<path opacity="0.1" d="M71.137 48.8604C71.4434 50.6788 71.4434 52.8018 71.4434 52.8018C71.4434 52.8018 57.571 55.3794 50.5548 49.6196L49.6766 48.8832C49.6766 48.8832 41.1053 56.5886 30.7364 54.6202L29.0579 49.015C29.0579 49.015 30.5809 47.6512 33.3252 47.0466C33.3252 47.0466 30.2745 45.5327 28.9023 42.5005L37.5011 37.0771C37.5011 37.0771 44.1515 41.7368 44.4579 42.0414C44.7643 42.346 47.6596 43.2552 47.6596 43.2552C47.6596 43.2552 46.5939 42.9506 49.3382 39.3138C52.0825 35.677 58.4858 37.95 54.9777 43.7098C51.4696 49.4696 60.1598 48.4058 63.0596 48.5604C65.9549 48.7104 71.137 48.8604 71.137 48.8604Z" fill="black"/>
<path d="M62.9767 28.0761C65.4145 28.9899 62.1076 39.7912 49.7949 48.7105C49.7949 48.7105 63.649 30.8719 54.3093 25.1621C54.3093 25.1621 56.4315 26.785 59.0066 27.6488C60.2873 28.0807 62.1671 27.7715 62.9767 28.0761Z" fill="#E5E9F0"/>
<path d="M62.9802 28.0759C56.3802 31.0763 53.055 35.5086 51.4039 39.5046C49.3457 44.4916 49.8808 48.8012 49.8808 48.8012C47.3378 42.9687 47.2143 38.2544 48.1153 34.6131C49.7299 28.0532 54.6376 24.9482 54.6376 24.9482C54.6376 24.9482 56.737 26.112 58.2646 26.6166C59.7923 27.1258 62.9802 28.0759 62.9802 28.0759Z" fill="white"/>
<path d="M49.8808 48.8014C47.3378 42.9689 47.2143 38.2546 48.1153 34.6133C47.7448 36.609 50.7956 39.4502 51.4039 39.5048C49.3457 44.4918 49.8808 48.8014 49.8808 48.8014Z" fill="#F7F7F7"/>
<path d="M28.2981 36.7453C26.9854 37.1999 33.8507 48.5513 49.9506 48.6922C49.9506 48.6922 29.8761 37.3317 35.3464 29.7217C35.3464 29.7262 33.1143 35.0814 28.2981 36.7453Z" fill="#E5E9F0"/>
<path d="M28.3438 36.7495C29.7388 36.6995 31.1338 36.8086 32.5105 37.0405C32.945 37.1132 33.3795 37.1996 33.8095 37.2996C34.1479 37.3769 34.4864 37.4632 34.8203 37.5542C34.866 37.5633 34.9163 37.5769 34.9621 37.5905C35.017 37.6042 35.0673 37.6224 35.1221 37.636C37.8847 38.4134 40.4781 39.6453 42.6781 41.0091C44.0685 41.8683 45.2989 42.7866 46.3189 43.6822C49.2049 46.2098 49.8224 48.6828 49.8224 48.6828C49.795 46.7007 49.7812 45.7961 49.6303 44.4959C49.2232 40.9864 47.444 38.1542 45.276 35.9449C44.0548 34.7084 42.7193 33.6673 41.434 32.8127C41.1916 32.6536 40.9538 32.499 40.7159 32.349C40.565 32.2581 40.4186 32.1717 40.2723 32.0853C40.1899 32.0353 40.1122 31.9853 40.0299 31.9398C39.7966 31.8035 39.5679 31.6716 39.3438 31.5489C37.1026 30.3169 35.392 29.7305 35.392 29.7305C35.392 29.7305 33.9787 31.4898 31.9662 33.6991C30.0223 35.8403 28.3438 36.7495 28.3438 36.7495Z" fill="white"/>
<path d="M41.4335 32.813C42.7188 33.6676 44.0543 34.7087 45.2755 35.9452C44.5986 37.2454 43.2768 39.9593 42.6776 41.0095C40.8389 39.8684 38.7213 38.8228 36.4618 38.0546L36.4023 38.0318C37.747 37.95 40.8024 34.2814 41.4335 32.813Z" fill="white"/>
<path opacity="0.6" d="M34.1426 37.3909L34.8195 37.5546L35.1031 37.6455C35.1077 37.641 35.1168 37.641 35.1214 37.6364C36.8228 36.8545 40.0474 32.4903 40.2715 32.0857C40.1892 32.0357 40.1114 31.9857 40.0291 31.9403C39.7958 31.8039 39.5671 31.6721 39.343 31.5493C38.0166 34.2542 34.1426 37.3909 34.1426 37.3909Z" fill="white"/>
<path d="M12.1075 14.7422L13.165 19.4594L17.4104 20.6343L13.165 21.8092L12.1075 26.5263L11.0501 21.8092L6.80469 20.6343L11.0501 19.4594L12.1075 14.7422Z" fill="white"/>
<path d="M97.5251 71.4434L98.2035 74.621L100.927 75.4124L98.2035 76.2039L97.5251 79.3815L96.8467 76.2039L94.123 75.4124L96.8467 74.621L97.5251 71.4434Z" fill="white"/>
<path d="M3.52924 29.4844L4.23299 32.7808L7.05848 33.6018L4.23299 34.4229L3.52924 37.7193L2.8255 34.4229L0 33.6018L2.8255 32.7808L3.52924 29.4844Z" fill="white"/>
<path d="M93.7648 24.9482L95.0498 30.9676L100.209 32.4668L95.0498 33.966L93.7648 39.9854L92.4797 33.966L87.3203 32.4668L92.4797 30.9676L93.7648 24.9482Z" fill="white"/>
<path d="M81.2814 7.93799L82.4138 12.5718L86.5843 13.8301L82.4138 15.0883L81.2814 19.7221L80.149 15.0883L75.9785 13.8301L80.149 12.5718L81.2814 7.93799Z" fill="white"/>
<defs>
<filter id="filter0_d" x="10.3537" y="47.8034" width="42.5912" height="59.031" filterUnits="userSpaceOnUse" color-interpolation-filters="sRGB">
<feFlood flood-opacity="0" result="BackgroundImageFix"/>
<feColorMatrix in="SourceAlpha" type="matrix" values="0 0 0 0 0 0 0 0 0 0 0 0 0 0 0 0 0 0 127 0"/>
<feOffset dy="1.61677"/>
<feGaussianBlur stdDeviation="1.33"/>
<feColorMatrix type="matrix" values="0 0 0 0 0 0 0 0 0 0 0 0 0 0 0 0 0 0 0.04 0"/>
<feBlend mode="normal" in2="BackgroundImageFix" result="effect1_dropShadow"/>
<feBlend mode="normal" in="SourceGraphic" in2="effect1_dropShadow" result="shape"/>
</filter>
<filter id="filter1_d" x="47.5099" y="48.26" width="42.0724" height="58.5741" filterUnits="userSpaceOnUse" color-interpolation-filters="sRGB">
<feFlood flood-opacity="0" result="BackgroundImageFix"/>
<feColorMatrix in="SourceAlpha" type="matrix" values="0 0 0 0 0 0 0 0 0 0 0 0 0 0 0 0 0 0 127 0"/>
<feOffset dy="1.61677"/>
<feGaussianBlur stdDeviation="1.33"/>
<feColorMatrix type="matrix" values="0 0 0 0 0 0 0 0 0 0 0 0 0 0 0 0 0 0 0.04 0"/>
<feBlend mode="normal" in2="BackgroundImageFix" result="effect1_dropShadow"/>
<feBlend mode="normal" in="SourceGraphic" in2="effect1_dropShadow" result="shape"/>
</filter>
<radialGradient id="paint0_radial" cx="0" cy="0" r="1" gradientUnits="userSpaceOnUse" gradientTransform="translate(48.7138 83.9175) rotate(90) scale(25.5003 60.7137)">
<stop stop-color="#105FBB"/>
<stop offset="1" stop-color="#3781D8" stop-opacity="0"/>
</radialGradient>
<linearGradient id="paint1_linear" x1="13.0137" y1="48.8467" x2="49.2827" y2="48.4171" gradientUnits="userSpaceOnUse">
<stop stop-color="#229AFA"/>
<stop offset="1" stop-color="#1168F8"/>
</linearGradient>
<linearGradient id="paint2_linear" x1="13.6719" y1="31.1567" x2="83.9722" y2="28.7606" gradientUnits="userSpaceOnUse">
<stop stop-color="#229AFA"/>
<stop offset="1" stop-color="#1168F8"/>
</linearGradient>
<linearGradient id="paint3_linear" x1="50.1699" y1="49.3032" x2="85.9341" y2="48.8819" gradientUnits="userSpaceOnUse">
<stop stop-color="#229AFA"/>
<stop offset="1" stop-color="#1168F8"/>
</linearGradient>
<linearGradient id="paint4_linear" x1="51.3513" y1="35.772" x2="51.3513" y2="59.6134" gradientUnits="userSpaceOnUse">
<stop stop-color="#E4ECFF"/>
<stop offset="1" stop-color="white"/>
</linearGradient>
<linearGradient id="paint5_linear" x1="47.68" y1="37.8828" x2="47.68" y2="59.0961" gradientUnits="userSpaceOnUse">
<stop stop-color="#E4ECFF"/>
<stop offset="1" stop-color="white"/>
</linearGradient>
</defs>
</svg>
