<svg width="125" height="125" viewBox="0 0 125 125" fill="none" xmlns="http://www.w3.org/2000/svg">
<path d="M56.0564 12.8867C27.9439 12.8867 5.1543 35.6763 5.1543 63.7888C5.1543 75.4221 9.05686 86.144 15.6242 94.7166H96.4885C103.056 86.144 106.958 75.4221 106.958 63.7888C106.958 35.6763 84.1688 12.8867 56.0564 12.8867Z" fill="url(#paint0_linear_10554_116469)" fill-opacity="0.14"/>
<path d="M15.3866 94.8987L15.4765 95.016H15.6242H96.4885H96.6362L96.7261 94.8987C103.332 86.2756 107.258 75.4902 107.258 63.7888C107.258 35.511 84.3341 12.5874 56.0564 12.5874C27.7786 12.5874 4.85493 35.511 4.85493 63.7888C4.85493 75.4902 8.78059 86.2756 15.3866 94.8987Z" stroke="url(#paint1_linear_10554_116469)" stroke-opacity="0.1" stroke-width="0.598734"/>
<path d="M9.83639 99.4155L17.3947 95.4882C17.5564 95.4042 17.7359 95.3604 17.9181 95.3604H94.9233C95.1477 95.3604 95.3669 95.4268 95.5535 95.5513L101.328 99.4057C102.059 99.8934 101.982 100.99 101.191 101.372L58.0685 122.179C57.7697 122.323 57.4227 122.329 57.1188 122.196L9.90336 101.462C9.03041 101.079 8.99037 99.8551 9.83639 99.4155Z" fill="url(#paint2_radial_10554_116469)"/>
<path d="M57.0108 76.2632L15.5346 55.5078C14.6116 69.9685 14.4494 78.5988 15.584 94.6646C15.6338 95.3696 16.0109 96.016 16.6041 96.4002C24.966 101.816 32.9746 106.002 57.1407 116.543L57.0108 76.2632Z" fill="white"/>
<g opacity="0.9" filter="url(#filter0_d_10554_116469)">
<path d="M57.0108 76.2632L15.5346 55.5078C14.6116 69.9685 14.4494 78.5988 15.584 94.6646C15.6338 95.3696 16.0109 96.016 16.6041 96.4002C24.966 101.816 32.9746 106.002 57.1407 116.543L57.0108 76.2632Z" fill="url(#paint3_linear_10554_116469)"/>
</g>
<path d="M97.7112 56.1323L56.4477 35.6561C56.1293 35.4981 55.7553 35.4984 55.4371 35.6568L15.5332 55.5278L57.1181 76.5618L97.7112 56.1323Z" fill="white"/>
<path d="M97.7112 56.1323L56.4477 35.6561C56.1293 35.4981 55.7553 35.4984 55.4371 35.6568L15.5332 55.5278L57.1181 76.5618L97.7112 56.1323Z" fill="url(#paint4_linear_10554_116469)"/>
<path d="M57.0117 76.2625L57.1417 116.542C71.9459 109.899 79.6754 107.089 96.845 96.9036C97.4713 96.5321 97.8874 95.8742 97.9491 95.1487C99.1816 80.6654 98.9805 71.8406 97.7135 56.0264L57.0117 76.2625Z" fill="white"/>
<g opacity="0.8" filter="url(#filter1_d_10554_116469)">
<path d="M57.0117 76.2625L57.1417 116.542C72.2313 109.771 79.9707 106.982 97.8487 96.3062C99.1915 81.1259 99.0139 72.2575 97.7135 56.0264L57.0117 76.2625Z" fill="url(#paint5_linear_10554_116469)"/>
</g>
<path d="M82.4012 63.627L82.9891 104.871L75.9337 108.311L74.7578 67.7426L82.4012 63.627Z" fill="#F4F6F9"/>
<path d="M74.7588 67.7429L34.3027 44.7366L41.4025 40.6504L82.4022 63.6273" fill="url(#paint6_linear_10554_116469)"/>
<path d="M71.2301 43.0488L77.6976 45.9885L38.3049 67.1548L30.6621 63.0392L71.2301 43.0488Z" fill="url(#paint7_linear_10554_116469)"/>
<path d="M38.3055 67.1547L37.0033 108.311L30.0742 104.735L30.6622 63.0391" fill="#F4F6F9"/>
<path opacity="0.1" d="M80.8377 55.5229C81.1859 57.5893 81.1859 60.0018 81.1859 60.0018C81.1859 60.0018 65.4218 62.9308 57.4488 56.3856L56.4509 55.5487C56.4509 55.5487 46.7107 64.305 34.928 62.0681L33.0205 55.6985C33.0205 55.6985 34.7512 54.1488 37.8698 53.4617C37.8698 53.4617 34.403 51.7414 32.8438 48.2958L42.6151 42.1328C42.6151 42.1328 50.1723 47.4279 50.5205 47.774C50.8688 48.1201 54.1588 49.1533 54.1588 49.1533C54.1588 49.1533 52.9478 48.8072 56.0663 44.6744C59.1848 40.5417 66.4613 43.1247 62.4748 49.6699C58.4883 56.2151 68.3636 55.0063 71.6588 55.1819C74.9489 55.3524 80.8377 55.5229 80.8377 55.5229Z" fill="black"/>
<path d="M71.5613 31.9051C74.3316 32.9435 70.5738 45.2177 56.582 55.3533C56.582 55.3533 72.3253 35.0822 61.712 28.5938C61.712 28.5938 64.1236 30.438 67.0498 31.4195C68.5051 31.9103 70.6413 31.559 71.5613 31.9051Z" fill="#E5E9F0"/>
<path d="M71.567 31.9047C64.067 35.3143 60.2884 40.351 58.4121 44.8919C56.0732 50.5589 56.6813 55.4562 56.6813 55.4562C53.7915 48.8283 53.6512 43.4713 54.6751 39.3333C56.5098 31.8789 62.0867 28.3506 62.0867 28.3506C62.0867 28.3506 64.4724 29.6731 66.2084 30.2465C67.9444 30.8251 71.567 31.9047 71.567 31.9047Z" fill="white"/>
<path d="M56.6813 55.4569C53.7915 48.829 53.6512 43.4719 54.6751 39.334C54.2541 41.6018 57.7208 44.8305 58.4121 44.8925C56.0732 50.5596 56.6813 55.4569 56.6813 55.4569Z" fill="#F7F7F7"/>
<path d="M32.1555 41.7568C30.6638 42.2733 38.4653 55.1727 56.7606 55.3328C56.7606 55.3328 33.9487 42.4232 40.1649 33.7754C40.1649 33.7806 37.6285 39.866 32.1555 41.7568Z" fill="#E5E9F0"/>
<path d="M32.207 41.7613C33.7923 41.7045 35.3775 41.8285 36.942 42.092C37.4357 42.1746 37.9295 42.2728 38.4181 42.3864C38.8027 42.4742 39.1873 42.5724 39.5667 42.6757C39.6187 42.6861 39.6759 42.7015 39.7278 42.717C39.7902 42.7325 39.8474 42.7532 39.9098 42.7687C43.0491 43.6521 45.9961 45.052 48.4961 46.6018C50.0761 47.5782 51.4742 48.6217 52.6333 49.6394C55.9129 52.5116 56.6146 55.3219 56.6146 55.3219C56.5834 53.0696 56.5678 52.0415 56.3963 50.5641C55.9337 46.576 53.9119 43.3576 51.4483 40.847C50.0605 39.4418 48.5428 38.2588 47.0823 37.2877C46.8069 37.1068 46.5366 36.9312 46.2663 36.7607C46.0948 36.6574 45.9285 36.5593 45.7622 36.4611C45.6686 36.4043 45.5803 36.3475 45.4867 36.2958C45.2216 36.1408 44.9617 35.991 44.7071 35.8515C42.1603 34.4516 40.2164 33.7852 40.2164 33.7852C40.2164 33.7852 38.6104 35.7844 36.3235 38.295C34.1145 40.7282 32.207 41.7613 32.207 41.7613Z" fill="white"/>
<path d="M47.0825 37.2881C48.543 38.2593 50.0607 39.4423 51.4484 40.8474C50.6792 42.3249 49.1771 45.4089 48.4962 46.6023C46.4068 45.3056 44.0004 44.1174 41.4328 43.2444L41.3652 43.2186C42.8933 43.1256 46.3652 38.9567 47.0825 37.2881Z" fill="white"/>
<path opacity="0.6" d="M38.7969 42.4898L39.5661 42.6757L39.8884 42.7791C39.8936 42.7739 39.9039 42.7739 39.9091 42.7687C41.8426 41.8802 45.5069 36.9209 45.7616 36.4611C45.668 36.4043 45.5796 36.3475 45.4861 36.2958C45.221 36.1409 44.9611 35.991 44.7065 35.8516C43.1992 38.9253 38.7969 42.4898 38.7969 42.4898Z" fill="white"/>
<path d="M13.7584 16.7529L14.96 22.1133L19.7844 23.4485L14.96 24.7836L13.7584 30.144L12.5568 24.7836L7.73242 23.4485L12.5568 22.1133L13.7584 16.7529Z" fill="url(#paint8_linear_10554_116469)"/>
<path d="M110.825 81.1855L111.596 84.7965L114.691 85.6959L111.596 86.5952L110.825 90.2062L110.054 86.5952L106.959 85.6959L110.054 84.7965L110.825 81.1855Z" fill="url(#paint9_linear_10554_116469)"/>
<path d="M4.0105 33.5049L4.81021 37.2508L8.021 38.1838L4.81021 39.1168L4.0105 42.8627L3.21079 39.1168L0 38.1838L3.21079 37.2508L4.0105 33.5049Z" fill="url(#paint10_linear_10554_116469)"/>
<path d="M106.552 28.3506L108.012 35.1907L113.875 36.8944L108.012 38.5981L106.552 45.4382L105.091 38.5981L99.2285 36.8944L105.091 35.1907L106.552 28.3506Z" fill="url(#paint11_linear_10554_116469)"/>
<path d="M92.3658 9.02051L93.6527 14.2862L98.3918 15.716L93.6527 17.1458L92.3658 22.4116L91.079 17.1458L86.3398 15.716L91.079 14.2862L92.3658 9.02051Z" fill="url(#paint12_linear_10554_116469)"/>
<defs>
<filter id="filter0_d_10554_116469" x="11.7677" y="54.3236" width="48.3922" height="67.0739" filterUnits="userSpaceOnUse" color-interpolation-filters="sRGB">
<feFlood flood-opacity="0" result="BackgroundImageFix"/>
<feColorMatrix in="SourceAlpha" type="matrix" values="0 0 0 0 0 0 0 0 0 0 0 0 0 0 0 0 0 0 127 0" result="hardAlpha"/>
<feOffset dy="1.83519"/>
<feGaussianBlur stdDeviation="1.50968"/>
<feColorMatrix type="matrix" values="0 0 0 0 0 0 0 0 0 0 0 0 0 0 0 0 0 0 0.04 0"/>
<feBlend mode="normal" in2="BackgroundImageFix" result="effect1_dropShadow_10554_116469"/>
<feBlend mode="normal" in="SourceGraphic" in2="effect1_dropShadow_10554_116469" result="shape"/>
</filter>
<filter id="filter1_d_10554_116469" x="53.9924" y="54.8422" width="47.8024" height="66.5543" filterUnits="userSpaceOnUse" color-interpolation-filters="sRGB">
<feFlood flood-opacity="0" result="BackgroundImageFix"/>
<feColorMatrix in="SourceAlpha" type="matrix" values="0 0 0 0 0 0 0 0 0 0 0 0 0 0 0 0 0 0 127 0" result="hardAlpha"/>
<feOffset dy="1.83519"/>
<feGaussianBlur stdDeviation="1.50968"/>
<feColorMatrix type="matrix" values="0 0 0 0 0 0 0 0 0 0 0 0 0 0 0 0 0 0 0.04 0"/>
<feBlend mode="normal" in2="BackgroundImageFix" result="effect1_dropShadow_10554_116469"/>
<feBlend mode="normal" in="SourceGraphic" in2="effect1_dropShadow_10554_116469" result="shape"/>
</filter>
<linearGradient id="paint0_linear_10554_116469" x1="5.1543" y1="12.8867" x2="104.19" y2="10.7835" gradientUnits="userSpaceOnUse">
<stop stop-color="#229AFA"/>
<stop offset="1" stop-color="#1168F8"/>
</linearGradient>
<linearGradient id="paint1_linear_10554_116469" x1="5.1543" y1="12.8867" x2="104.19" y2="10.7835" gradientUnits="userSpaceOnUse">
<stop stop-color="#229AFA"/>
<stop offset="1" stop-color="#1168F8"/>
</linearGradient>
<radialGradient id="paint2_radial_10554_116469" cx="0" cy="0" r="1" gradientUnits="userSpaceOnUse" gradientTransform="translate(55.3565 95.3604) rotate(90) scale(28.9776 68.9929)">
<stop stop-color="#89B8F0"/>
<stop offset="1" stop-color="#E2F0FF" stop-opacity="0"/>
</radialGradient>
<linearGradient id="paint3_linear_10554_116469" x1="14.7871" y1="55.5078" x2="56.0019" y2="55.0196" gradientUnits="userSpaceOnUse">
<stop stop-color="#229AFA"/>
<stop offset="1" stop-color="#1168F8"/>
</linearGradient>
<linearGradient id="paint4_linear_10554_116469" x1="15.5332" y1="35.4053" x2="95.4199" y2="32.6824" gradientUnits="userSpaceOnUse">
<stop stop-color="#229AFA"/>
<stop offset="1" stop-color="#1168F8"/>
</linearGradient>
<linearGradient id="paint5_linear_10554_116469" x1="57.0117" y1="56.0264" x2="97.6528" y2="55.5476" gradientUnits="userSpaceOnUse">
<stop stop-color="#229AFA"/>
<stop offset="1" stop-color="#1168F8"/>
</linearGradient>
<linearGradient id="paint6_linear_10554_116469" x1="58.3525" y1="40.6504" x2="58.3525" y2="67.7429" gradientUnits="userSpaceOnUse">
<stop stop-color="#E4ECFF"/>
<stop offset="1" stop-color="white"/>
</linearGradient>
<linearGradient id="paint7_linear_10554_116469" x1="54.1798" y1="43.0488" x2="54.1798" y2="67.1548" gradientUnits="userSpaceOnUse">
<stop stop-color="#E4ECFF"/>
<stop offset="1" stop-color="white"/>
</linearGradient>
<linearGradient id="paint8_linear_10554_116469" x1="7.73242" y1="16.7529" x2="19.4592" y2="16.5728" gradientUnits="userSpaceOnUse">
<stop stop-color="#229AFA"/>
<stop offset="1" stop-color="#1168F8"/>
</linearGradient>
<linearGradient id="paint9_linear_10554_116469" x1="106.959" y1="81.1855" x2="114.482" y2="81.0755" gradientUnits="userSpaceOnUse">
<stop stop-color="#229AFA"/>
<stop offset="1" stop-color="#1168F8"/>
</linearGradient>
<linearGradient id="paint10_linear_10554_116469" x1="0" y1="33.5049" x2="7.80474" y2="33.3907" gradientUnits="userSpaceOnUse">
<stop stop-color="#229AFA"/>
<stop offset="1" stop-color="#1168F8"/>
</linearGradient>
<linearGradient id="paint11_linear_10554_116469" x1="99.2285" y1="28.3506" x2="113.48" y2="28.1421" gradientUnits="userSpaceOnUse">
<stop stop-color="#229AFA"/>
<stop offset="1" stop-color="#1168F8"/>
</linearGradient>
<linearGradient id="paint12_linear_10554_116469" x1="86.3398" y1="9.02051" x2="98.0666" y2="8.84034" gradientUnits="userSpaceOnUse">
<stop stop-color="#229AFA"/>
<stop offset="1" stop-color="#1168F8"/>
</linearGradient>
</defs>
</svg>
