<svg width="101" height="30" viewBox="0 0 101 30" fill="none" xmlns="http://www.w3.org/2000/svg">
<path d="M68.2096 8.35132H68.1468C67.0278 8.35132 66.0133 8.82426 65.2917 9.58743C64.5702 8.83502 63.5556 8.36208 62.4366 8.36208H62.3739C60.1776 8.36208 58.3789 10.1894 58.3789 12.4359V20.39H58.3894C58.4208 21.0027 58.9121 21.4972 59.5188 21.4972C60.1253 21.4972 60.6168 21.0027 60.6482 20.39H60.6587V12.4359C60.6587 11.4685 61.4326 10.6731 62.3843 10.6731H62.4471C63.3779 10.6731 64.1309 11.4147 64.1623 12.3606C64.1623 12.3821 64.1623 12.4036 64.1623 12.4251V20.39C64.1728 20.6265 64.2458 20.8307 64.3713 21.0134C64.5806 21.3144 64.9152 21.5079 65.2917 21.5079C65.8982 21.5079 66.3897 21.0134 66.4211 20.4008H66.4316V12.4466C66.4316 12.4251 66.4316 12.3929 66.4316 12.3714C66.463 11.4362 67.2264 10.6838 68.1468 10.6838H68.2096C69.1613 10.6838 69.9352 11.4685 69.9352 12.4466V20.3255C69.9352 20.3363 69.9352 20.3363 69.9352 20.347C69.9352 20.3578 69.9352 20.3685 69.9352 20.3685V20.4008C69.9666 21.0134 70.4579 21.5079 71.0646 21.5079C71.6711 21.5079 72.1627 21.0134 72.1941 20.4008H72.2045V12.4359C72.1941 10.1786 70.4059 8.35132 68.2096 8.35132Z" fill="black"/>
<path d="M54.7803 8.35132C54.1634 8.35132 53.6718 8.84578 53.6404 9.45846V17.4233C53.6404 18.3907 52.8561 19.1754 51.8938 19.1754H51.8313C50.869 19.1754 50.0952 18.3907 50.0952 17.4233V9.53369C50.0952 9.52294 50.0952 9.52293 50.0952 9.5122V9.49071V9.45846C50.0638 8.84578 49.5722 8.35132 48.9553 8.35132C48.3381 8.35132 47.8465 8.84578 47.8151 9.45846H47.8047V17.4233C47.8047 19.6698 49.614 21.4971 51.8415 21.4971H51.9043C54.132 21.4971 55.9413 19.6698 55.9413 17.4233V9.45846C55.889 8.84578 55.3974 8.35132 54.7803 8.35132Z" fill="black"/>
<path d="M81.6885 8.35132C81.0716 8.35132 80.58 8.84578 80.5486 9.45846H80.5381V17.4233C80.5381 18.3907 79.7538 19.1754 78.802 19.1754H78.7395C77.7772 19.1754 77.0034 18.3907 77.0034 17.4233V9.53369C77.0034 9.52294 77.0034 9.52293 77.0034 9.5122V9.49071V9.45846C76.972 8.84578 76.4804 8.35132 75.8635 8.35132C75.2463 8.35132 74.7548 8.84578 74.7234 9.45846H74.7129V17.4233C74.7129 19.6698 76.5222 21.4971 78.7499 21.4971H78.8125C81.0402 21.4971 82.8495 19.6698 82.8495 17.4233V9.45846H82.8391C82.8077 8.84578 82.3056 8.35132 81.6885 8.35132Z" fill="black"/>
<path d="M89.2613 8.35132H89.1986C86.9397 8.35132 85.1199 10.2216 85.1199 12.5111V17.3266C85.1199 17.4663 85.1094 17.6061 85.1199 17.7458V26.9146C85.1199 27.5488 85.6324 28.0647 86.26 28.0647C86.8874 28.0647 87.3999 27.5488 87.3999 26.9146V20.9167C87.8287 21.3037 88.5502 21.4971 89.1986 21.4971H89.2613C91.5204 21.4971 93.2461 19.5086 93.2461 17.2191V12.4036C93.2461 10.1034 91.5204 8.35132 89.2613 8.35132ZM91.0288 17.3374C91.0288 18.595 90.234 19.1324 89.2613 19.1324H89.1986C88.2261 19.1324 87.4313 18.595 87.4313 17.3374V12.5219C87.4313 11.533 88.2261 10.7268 89.1986 10.7268H89.2613C90.234 10.7268 91.0288 11.533 91.0288 12.5219V17.3374Z" fill="black"/>
<path d="M42.2084 13.543C40.922 13.0271 40.1376 12.6723 40.1376 11.8984C40.1376 11.2858 40.6187 10.6623 41.6958 10.6623C42.3758 10.6623 42.9404 10.9633 43.3482 11.533C43.6203 11.8984 43.9235 12.0812 44.2582 12.0812C44.9065 12.0812 45.4504 11.5437 45.4504 10.9095C45.4504 10.6623 45.3876 10.4366 45.2622 10.2539C44.5509 9.13598 43.0869 8.35132 41.6958 8.35132C39.7821 8.35132 37.8472 9.56594 37.8472 11.8984C37.8472 14.2954 39.7716 15.0586 41.3089 15.6713C42.543 16.1657 43.6098 16.5849 43.6098 17.6383C43.6098 18.4122 42.909 19.1969 41.5598 19.1969C41.1519 19.1969 40.3781 19.1002 39.8658 18.466C39.5937 18.1435 39.2696 17.9608 38.9559 17.9608C38.3387 17.9608 37.7637 18.5197 37.7637 19.1324C37.7637 19.3796 37.8367 19.6053 37.9832 19.8311C38.6943 20.9275 40.3153 21.5079 41.5496 21.5079C43.6619 21.5079 45.9001 20.1536 45.9001 17.6491C45.9001 15.0263 43.8503 14.2094 42.2084 13.543Z" fill="black"/>
<path d="M27.275 0H2.1021C0.941238 0 0 0.956646 0 2.13902V27.8611C0 29.0433 0.941238 30 2.1021 30H27.275C28.4358 30 29.3771 29.0433 29.3771 27.8611V2.13902C29.3667 0.956646 28.4358 0 27.275 0ZM18.4482 22.5833C15.886 25.2061 11.7864 25.3242 9.08816 22.9273C9.07772 22.9165 9.05679 22.9058 9.04635 22.8843C8.87901 22.7123 8.87901 22.4436 9.03588 22.2716L18.145 12.9631C18.3123 12.8019 18.5737 12.8019 18.7411 12.9739C21.1255 15.7363 21.021 19.9498 18.4482 22.5833ZM20.3412 7.71766L11.2321 17.0261C11.0648 17.1874 10.8033 17.1874 10.636 17.0154C8.25152 14.2637 8.34565 10.0502 10.9288 7.4167C13.4911 4.79398 17.5907 4.68649 20.2889 7.07273C20.2993 7.08349 20.3203 7.09423 20.3307 7.11572C20.4981 7.27697 20.4981 7.54568 20.3412 7.71766Z" fill="black"/>
<path d="M98.5488 8.35132C97.2938 8.35132 96.2793 9.39396 96.2793 10.6731C96.2793 11.9522 97.2938 12.9948 98.5488 12.9948C99.8038 12.9948 100.818 11.9522 100.818 10.6731C100.818 9.39396 99.8038 8.35132 98.5488 8.35132ZM98.5488 12.4359C97.5971 12.4359 96.8337 11.6512 96.8337 10.6731C96.8337 9.70568 97.6075 8.92101 98.5488 8.92101C99.5004 8.92101 100.264 9.70568 100.264 10.6731C100.264 11.6405 99.4899 12.4359 98.5488 12.4359Z" fill="black"/>
<path d="M98.799 10.7602C99.092 10.7065 99.2801 10.4807 99.2801 10.169C99.2801 9.77121 99.0083 9.51318 98.59 9.51318H98.0251C97.8996 9.51318 97.7949 9.5992 97.7949 9.74969V11.3838C97.7949 11.5558 97.8891 11.6418 98.0251 11.6418C98.1609 11.6418 98.2551 11.5558 98.2551 11.3838V10.7817H98.2656L98.8409 11.5235C98.9037 11.5988 98.9455 11.6418 99.0606 11.6418C99.2385 11.6418 99.3011 11.4913 99.3011 11.416C99.3011 11.3408 99.2697 11.2763 99.2071 11.2117L98.799 10.7602ZM98.569 10.427H98.2656V9.96471H98.569C98.7048 9.96471 98.8095 10.0507 98.8095 10.1905C98.8095 10.3195 98.7153 10.427 98.569 10.427Z" fill="black"/>
</svg>
