<svg width="41" height="40" viewBox="0 0 41 40" fill="none" xmlns="http://www.w3.org/2000/svg">
	<path d="M20.5003 36.6667C19.8503 36.6667 19.2337 36.4333 18.7337 36.0333C17.3003 34.8333 15.917 33.7 14.7003 32.7C7.43366 26.7167 2.16699 22.4 2.16699 15.9167C2.16699 9.68333 6.68366 5 12.6837 5C14.867 5 16.8503 5.66667 18.6003 6.96667C19.3337 7.51667 19.967 8.13333 20.4837 8.75C21.0003 8.13333 21.6337 7.51667 22.367 6.96667C24.1503 5.66667 26.1337 5 28.317 5C34.317 5 38.8337 9.68333 38.8337 15.9167C38.8337 22.4 33.567 26.7167 26.3003 32.6833C25.067 33.6833 23.7003 34.8167 22.267 36.0167C21.767 36.4333 21.1503 36.6667 20.5003 36.6667ZM12.6837 8.33333C8.58366 8.33333 5.50033 11.6 5.50033 15.9167C5.50033 20.8167 10.0003 24.5167 16.8337 30.1167C17.9503 31.0333 19.2003 32.0667 20.5003 33.15C21.8003 32.05 23.0503 31.0333 24.167 30.1167C31.0003 24.5167 35.5003 20.8167 35.5003 15.9167C35.5003 11.6 32.417 8.33333 28.317 8.33333C26.867 8.33333 25.5503 8.76667 24.3837 9.65C23.2003 10.5333 22.417 11.6667 21.9503 12.4833C21.3503 13.5167 19.6503 13.5167 19.0503 12.4833C18.6003 11.6667 17.8003 10.5167 16.617 9.65C15.4503 8.76667 14.1337 8.33333 12.6837 8.33333Z" fill="url(#paint0_linear_10430_115539)" />
	<defs>
		<linearGradient id="paint0_linear_10430_115539" x1="2.16699" y1="5" x2="37.8388" y2="4.29492" gradientUnits="userSpaceOnUse">
			<stop stop-color="#229AFA" />
			<stop offset="1" stop-color="#1168F8" />
		</linearGradient>
	</defs>
</svg>
