<svg width="41" height="40" viewBox="0 0 41 40" fill="none" xmlns="http://www.w3.org/2000/svg">
	<path fill-rule="evenodd" clip-rule="evenodd" d="M31.6792 5.48816C32.33 6.13903 32.33 7.1943 31.6792 7.84518L14.6673 24.857L4.32214 14.5118C3.67127 13.861 3.67127 12.8057 4.32214 12.1548C4.97301 11.5039 6.02829 11.5039 6.67916 12.1548L14.6673 20.143L29.3221 5.48816C29.973 4.83728 31.0283 4.83728 31.6792 5.48816Z" fill="url(#paint0_linear_10430_115544)" />
	<path d="M29.2862 19.5038C29.406 19.1353 29.9273 19.1353 30.0471 19.5038L31.6349 24.3906C31.6885 24.5554 31.842 24.667 32.0153 24.667H37.1536C37.5411 24.667 37.7022 25.1629 37.3887 25.3906L33.2318 28.4108C33.0916 28.5127 33.0329 28.6932 33.0865 28.858L34.6743 33.7448C34.794 34.1134 34.3722 34.4198 34.0587 34.1921L29.9018 31.1719C29.7616 31.07 29.5717 31.07 29.4316 31.1719L25.2746 34.1921C24.9611 34.4198 24.5393 34.1134 24.6591 33.7448L26.2469 28.858C26.3004 28.6932 26.2418 28.5127 26.1016 28.4108L21.9446 25.3906C21.6311 25.1629 21.7922 24.667 22.1797 24.667H27.318C27.4913 24.667 27.6449 24.5554 27.6984 24.3906L29.2862 19.5038Z" fill="url(#paint1_linear_10430_115544)" />
	<defs>
		<linearGradient id="paint0_linear_10430_115544" x1="3.83398" y1="5" x2="31.393" y2="4.32874" gradientUnits="userSpaceOnUse">
			<stop stop-color="#229AFA" />
			<stop offset="1" stop-color="#1168F8" />
		</linearGradient>
		<linearGradient id="paint1_linear_10430_115544" x1="20.5" y1="18.333" x2="38.3377" y2="18.0285" gradientUnits="userSpaceOnUse">
			<stop stop-color="#229AFA" />
			<stop offset="1" stop-color="#1168F8" />
		</linearGradient>
	</defs>
</svg>
