<svg width="41" height="40" viewBox="0 0 41 40" fill="none" xmlns="http://www.w3.org/2000/svg">
	<path d="M28.0007 17.5003V11.667C28.0007 7.50032 24.6673 4.16699 20.5007 4.16699C16.334 4.16699 13.0007 7.50032 13.0007 11.667V17.5003C10.6673 17.8337 8.83398 19.8337 8.83398 22.167V24.167C8.83398 30.667 14.0007 35.8337 20.5007 35.8337C27.0007 35.8337 32.1673 30.667 32.1673 24.167V22.167C32.1673 19.8337 30.334 17.8337 28.0007 17.5003ZM16.334 11.667C16.334 9.33366 18.1673 7.50032 20.5007 7.50032C22.834 7.50032 24.6673 9.33366 24.6673 11.667V17.5003H16.334V11.667ZM28.834 24.167C28.834 28.8337 25.1673 32.5003 20.5007 32.5003C15.834 32.5003 12.1673 28.8337 12.1673 24.167V22.167C12.1673 21.5003 12.834 20.8337 13.5007 20.8337H27.5007C28.1673 20.8337 28.834 21.5003 28.834 22.167V24.167ZM23.0007 25.8337C23.0007 27.167 21.834 28.3337 20.5007 28.3337C19.1673 28.3337 18.0007 27.167 18.0007 25.8337C18.0007 24.5003 19.1673 23.3337 20.5007 23.3337C21.834 23.3337 23.0007 24.5003 23.0007 25.8337Z" fill="url(#paint0_linear_10430_115549)" />
	<defs>
		<linearGradient id="paint0_linear_10430_115549" x1="8.83398" y1="4.16699" x2="31.5395" y2="3.8814" gradientUnits="userSpaceOnUse">
			<stop stop-color="#229AFA" />
			<stop offset="1" stop-color="#1168F8" />
		</linearGradient>
	</defs>
</svg>
