<svg width="156" height="52" viewBox="0 0 156 52" fill="none" xmlns="http://www.w3.org/2000/svg">
<path d="M38.7466 39.3648C37.3287 38.5368 36.0484 37.4391 34.9851 36.1482C33.919 34.86 33.0805 33.3707 32.5118 31.7783C32.3822 31.3762 32.2446 30.9742 32.1388 30.5668C32.0489 30.1541 31.9431 29.7441 31.869 29.3262C31.8134 28.9056 31.7526 28.4876 31.7103 28.0671L31.6521 26.8L31.7103 25.5329C31.7552 25.1124 31.8134 24.6918 31.8716 24.2738C31.9483 23.8585 32.0515 23.4459 32.1414 23.0332C32.2473 22.6232 32.3875 22.2238 32.5144 21.8217C33.0831 20.2293 33.9243 18.7427 34.9877 17.4544C36.0511 16.1662 37.3314 15.0685 38.7492 14.2405C39.2386 13.9548 39.7438 13.7035 40.2596 13.4813C38.3074 12.5317 36.1172 12 33.8 12C25.6263 12 19 18.6263 19 26.8C19 34.9737 25.6263 41.6 33.8 41.6C36.1146 41.6 38.3048 41.0683 40.2543 40.1213C39.7412 39.9018 39.2333 39.6505 38.7466 39.3648Z" fill="#6B00F2"/>
<path d="M44.8092 16.9094C44.0395 17.9225 43.3861 18.9912 42.8676 20.1181C41.8889 22.2316 41.3942 24.5118 41.3916 26.7999C41.3969 29.088 41.8915 31.3682 42.8703 33.4817C43.3887 34.6059 44.0421 35.6772 44.8119 36.6904C47.1688 34.069 48.6051 30.6037 48.6051 26.7999C48.6025 22.9961 47.1688 19.5308 44.8092 16.9094Z" fill="#6B00F2"/>
<path d="M41.4008 34.2806C40.0121 32.0745 39.2635 29.4372 39.2661 26.7999C39.2635 24.1653 40.0147 21.5253 41.4035 19.3219C42.1441 18.1395 43.0673 17.0814 44.1201 16.2005C43.189 15.2932 42.1362 14.5076 40.9935 13.8674C39.1048 15.0895 37.5097 16.6449 36.3088 18.4463C34.6396 20.9302 33.7588 23.8584 33.7588 26.7999C33.7614 29.7414 34.6423 32.667 36.3114 35.1509C37.5097 36.9523 39.1074 38.5076 40.9935 39.7297C42.1362 39.0922 43.1863 38.3066 44.1175 37.3993C43.0647 36.5237 42.1415 35.463 41.4008 34.2806Z" fill="#6B00F2"/>
<path d="M60.4717 16.0249H64.6695V33.9464H71.3214V37.5629H60.4717V16.0249Z" fill="#6B00F2"/>
<path d="M88.0202 16.0249V19.6415H80.2703V24.4528H87.6973V28.0694H80.2703V33.9464H88.0202V37.5629H76.0725V16.0249H88.0202Z" fill="#6B00F2"/>
<path d="M98.1416 37.5629H93.9438V16.0249H96.85L109.96 30.3944V16.0249H114.158V37.5629H111.252L98.1416 23.1612V37.5629Z" fill="#6B00F2"/>
<path d="M136.622 16.0249L126.16 33.9464H136.105V37.5629H119.185L129.647 19.6415H120.832V16.0249H136.622Z" fill="#6B00F2"/>
</svg>
