<svg width="156" height="52" viewBox="0 0 156 52" fill="none" xmlns="http://www.w3.org/2000/svg">
<path d="M38.4446 36.4288C38.4996 36.4681 38.4917 36.5466 38.4211 36.6643C38.3505 36.7742 38.2484 36.8998 38.115 37.0411C37.9894 37.1824 37.8481 37.3237 37.6911 37.465C37.5419 37.5984 37.4164 37.7122 37.3143 37.8064L36.9258 37.7358C36.6667 37.4924 36.3998 37.2923 36.1251 37.1353C35.8504 36.9704 35.5599 36.8448 35.2538 36.7585C34.9555 36.6721 34.6376 36.6133 34.3001 36.5819C33.9626 36.5426 33.6015 36.523 33.2168 36.523C33.0206 36.523 32.7733 36.5701 32.4751 36.6643C32.1846 36.7506 31.8746 36.8959 31.5449 37.0999C31.2231 37.2962 30.9012 37.5591 30.5794 37.8888C30.2576 38.2107 29.9632 38.611 29.6963 39.0898C29.4373 39.5608 29.2253 40.1142 29.0605 40.75C28.9035 41.378 28.825 42.1001 28.825 42.9165C28.825 44.0076 28.9702 44.9573 29.2607 45.7658C29.5511 46.5744 29.9318 47.2455 30.4028 47.7793C30.8738 48.3052 31.4036 48.7016 31.9923 48.9685C32.581 49.2275 33.1737 49.357 33.7702 49.357C34.3433 49.357 34.8692 49.3021 35.348 49.1922C35.8347 49.0744 36.2703 48.9096 36.6549 48.6977V44.7062C36.6549 44.6198 36.6157 44.5374 36.5372 44.4589C36.4666 44.3726 36.337 44.2901 36.1487 44.2116C35.9681 44.1331 35.7209 44.0546 35.4069 43.9762C35.1007 43.8977 34.7083 43.8192 34.2294 43.7407V43.2344H39.6574V43.7407C39.21 43.8506 38.8921 43.9958 38.7037 44.1763C38.5153 44.349 38.4211 44.5256 38.4211 44.7062V48.6035C37.8402 49.0823 37.3182 49.463 36.8551 49.7456C36.3998 50.0282 35.9799 50.2479 35.5953 50.4049C35.2106 50.5541 34.8456 50.6522 34.5002 50.6993C34.1549 50.7464 33.8056 50.7699 33.4523 50.7699C32.6595 50.7699 31.8785 50.6247 31.1092 50.3343C30.34 50.036 29.6492 49.5886 29.037 48.992C28.4325 48.3876 27.9419 47.638 27.5652 46.7431C27.1884 45.8404 27 44.7807 27 43.5641C27 42.261 27.2041 41.0954 27.6123 40.0671C28.0283 39.0309 28.5935 38.1557 29.3078 37.4414C30.0221 36.7192 30.8541 36.1698 31.8039 35.793C32.7616 35.4162 33.7781 35.2278 34.8535 35.2278C35.1125 35.2278 35.3951 35.2553 35.7012 35.3102C36.0152 35.3652 36.3331 35.4437 36.6549 35.5457C36.9768 35.6478 37.2908 35.7734 37.5969 35.9225C37.9109 36.0717 38.1935 36.2404 38.4446 36.4288Z" fill="#2E2739"/>
<path d="M40.9408 50.4167V49.9104C41.2783 49.8555 41.5609 49.8005 41.7886 49.7456C42.0162 49.6828 42.1967 49.6239 42.3302 49.569C42.4636 49.5062 42.5578 49.4434 42.6128 49.3806C42.6756 49.3178 42.707 49.255 42.707 49.1922V35.1572C42.707 34.804 42.6834 34.5292 42.6363 34.333C42.5892 34.1367 42.5029 33.9915 42.3773 33.8973C42.2517 33.7953 42.0829 33.7286 41.871 33.6972C41.659 33.6579 41.3882 33.6187 41.0585 33.5794V33.1084C41.6237 32.9986 42.1418 32.8769 42.6128 32.7434C43.0837 32.61 43.5626 32.4177 44.0492 32.1665L44.4731 32.5668V49.1922C44.4731 49.3099 44.6065 49.4316 44.8734 49.5572C45.1403 49.6828 45.5956 49.8005 46.2393 49.9104V50.4167H40.9408Z" fill="#2E2739"/>
<path d="M50.9254 49.2393C51.3964 49.2393 51.8949 49.1215 52.4208 48.886C52.9545 48.6427 53.5197 48.262 54.1163 47.7439V44.6944C53.4569 44.8043 52.9114 44.9102 52.4796 45.0123C52.0558 45.1143 51.7065 45.2203 51.4317 45.3302C51.157 45.4322 50.9372 45.5421 50.7724 45.6599C50.6075 45.7776 50.4623 45.9032 50.3367 46.0367C50.1326 46.2486 49.9678 46.4919 49.8422 46.7667C49.7166 47.0336 49.6538 47.3515 49.6538 47.7204C49.6538 48.0344 49.7009 48.2895 49.7951 48.4857C49.8893 48.682 50.0031 48.8389 50.1366 48.9567C50.27 49.0666 50.4074 49.1412 50.5487 49.1804C50.6978 49.2197 50.8234 49.2393 50.9254 49.2393ZM57.6839 49.4512C57.0167 49.9143 56.4633 50.2479 56.0237 50.452C55.592 50.664 55.2662 50.7699 55.0464 50.7699C54.7874 50.7699 54.5716 50.5894 54.3989 50.2283C54.2262 49.8672 54.132 49.3688 54.1163 48.733C53.763 49.0862 53.4098 49.3923 53.0566 49.6514C52.7034 49.9104 52.358 50.1223 52.0204 50.2872C51.6829 50.452 51.3611 50.5737 51.055 50.6522C50.7567 50.7307 50.4819 50.7699 50.2307 50.7699C49.9482 50.7699 49.6577 50.7228 49.3594 50.6286C49.0612 50.5345 48.7904 50.3853 48.547 50.1812C48.3115 49.9771 48.1153 49.7142 47.9583 49.3923C47.8013 49.0705 47.7228 48.682 47.7228 48.2267C47.7228 47.6301 47.8249 47.1317 48.0289 46.7313C48.2409 46.331 48.4921 45.9856 48.7825 45.6952C48.9709 45.5068 49.1828 45.3302 49.4183 45.1654C49.6617 44.9927 49.9796 44.8278 50.372 44.6708C50.7724 44.5138 51.2708 44.3647 51.8674 44.2234C52.4639 44.0821 53.2136 43.9448 54.1163 43.8113V42.1511C54.1163 41.8842 54.0849 41.637 54.0221 41.4093C53.9593 41.1739 53.8533 40.9737 53.7042 40.8089C53.555 40.6362 53.3509 40.5067 53.0919 40.4203C52.8407 40.3261 52.5228 40.2829 52.1382 40.2908C51.887 40.2986 51.6397 40.3418 51.3964 40.4203C51.1531 40.4988 50.9411 40.6087 50.7606 40.75C50.5801 40.8913 50.4388 41.06 50.3367 41.2563C50.2347 41.4447 50.1954 41.6566 50.219 41.8921C50.2268 41.9627 50.1444 42.0452 49.9717 42.1394C49.8069 42.2257 49.6067 42.3042 49.3712 42.3748C49.1436 42.4455 48.9159 42.5004 48.6883 42.5397C48.4685 42.5789 48.3115 42.5868 48.2173 42.5632L48.0525 42.104C48.233 41.7116 48.5078 41.3348 48.8767 40.9737C49.2456 40.6126 49.6656 40.2947 50.1366 40.02C50.6154 39.7452 51.1177 39.5255 51.6437 39.3606C52.1774 39.1958 52.6916 39.1134 53.1861 39.1134C54.0496 39.1134 54.7128 39.341 55.176 39.7963C55.6469 40.2437 55.8824 40.8717 55.8824 41.6802V48.3209C55.8824 48.6506 55.9256 48.886 56.0119 49.0273C56.0983 49.1686 56.2121 49.2393 56.3534 49.2393C56.4633 49.2393 56.6046 49.2197 56.7773 49.1804C56.95 49.1412 57.1933 49.0548 57.5073 48.9214L57.6839 49.4512Z" fill="#2E2739"/>
<path d="M66.0908 47.0846C66.0908 47.6419 66.0123 48.1207 65.8553 48.521C65.6983 48.9135 65.4942 49.2471 65.243 49.5219C64.9918 49.7966 64.7132 50.0164 64.407 50.1812C64.1009 50.3461 63.7987 50.4717 63.5004 50.558C63.2021 50.6443 62.9195 50.6993 62.6527 50.7228C62.3936 50.7542 62.1895 50.7699 62.0404 50.7699C61.6636 50.7699 61.2083 50.6993 60.6746 50.558C60.1487 50.4167 59.6227 50.2008 59.0968 49.9104C59.0419 49.8869 59.0026 49.7613 58.9791 49.5336C58.9634 49.2981 58.9594 49.0313 58.9673 48.733C58.983 48.4268 59.0065 48.1207 59.0379 47.8146C59.0772 47.5084 59.1243 47.2651 59.1792 47.0846L59.6855 47.2141C59.7012 47.5438 59.7876 47.8538 59.9446 48.1443C60.1016 48.4347 60.3096 48.6859 60.5686 48.8978C60.8355 49.1098 61.1416 49.2785 61.487 49.4041C61.8402 49.5297 62.2209 49.5925 62.6291 49.5925C62.9117 49.5925 63.1707 49.5493 63.4062 49.463C63.6417 49.3688 63.8458 49.2432 64.0185 49.0862C64.1912 48.9214 64.3246 48.7251 64.4188 48.4975C64.513 48.2699 64.5601 48.0187 64.5601 47.7439C64.5601 47.43 64.4738 47.1513 64.3011 46.908C64.1362 46.6646 63.9164 46.4448 63.6417 46.2486C63.367 46.0445 63.053 45.8561 62.6998 45.6834C62.3544 45.5029 62.0012 45.3184 61.6401 45.13C61.3104 44.9652 60.9925 44.7886 60.6864 44.6002C60.3802 44.4118 60.1055 44.1999 59.8621 43.9644C59.6267 43.7289 59.4343 43.4659 59.2852 43.1755C59.1439 42.8851 59.0733 42.5515 59.0733 42.1747C59.0733 41.688 59.1714 41.2563 59.3676 40.8795C59.5639 40.4949 59.8229 40.173 60.1447 39.914C60.4744 39.655 60.8473 39.4587 61.2633 39.3253C61.6872 39.184 62.1228 39.1134 62.5702 39.1134C62.8136 39.1134 63.0805 39.1369 63.3709 39.184C63.6692 39.2232 63.9596 39.2821 64.2422 39.3606C64.5326 39.4391 64.8034 39.5333 65.0546 39.6432C65.3058 39.7531 65.5099 39.8787 65.6669 40.02C65.714 40.0671 65.7179 40.173 65.6787 40.3379C65.6473 40.5027 65.5923 40.6833 65.5138 40.8795C65.4432 41.0757 65.3647 41.2602 65.2783 41.4329C65.192 41.6056 65.1253 41.7233 65.0782 41.7861L64.619 41.6919C64.2422 41.1268 63.8497 40.7343 63.4415 40.5145C63.0412 40.2869 62.6487 40.173 62.2641 40.173C62.0051 40.173 61.7735 40.2162 61.5694 40.3026C61.3653 40.3889 61.1887 40.5027 61.0396 40.644C60.8983 40.7775 60.7884 40.9266 60.7099 41.0914C60.6393 41.2563 60.6039 41.4211 60.6039 41.586C60.6039 41.8371 60.6785 42.0648 60.8276 42.2689C60.9768 42.4651 61.173 42.6535 61.4164 42.834C61.6597 43.0067 61.9344 43.1755 62.2406 43.3403C62.5545 43.4973 62.8764 43.6622 63.2061 43.8349C63.5436 44.0076 63.885 44.192 64.2304 44.3883C64.5758 44.5845 64.8859 44.8121 65.1606 45.0712C65.4353 45.3223 65.659 45.6128 65.8317 45.9425C66.0044 46.2643 66.0908 46.645 66.0908 47.0846Z" fill="#2E2739"/>
<path d="M67.8805 50.4167V49.9104C68.218 49.8555 68.5006 49.8005 68.7282 49.7456C68.9559 49.6828 69.1364 49.6239 69.2698 49.569C69.4033 49.5062 69.4975 49.4434 69.5524 49.3806C69.6152 49.3178 69.6466 49.255 69.6466 49.1922V35.1572C69.6466 34.804 69.6231 34.5292 69.576 34.333C69.5289 34.1367 69.4425 33.9915 69.3169 33.8973C69.1913 33.7953 69.0226 33.7286 68.8106 33.6972C68.5987 33.6579 68.3279 33.6187 67.9982 33.5794V33.1084C68.5634 32.9986 69.0814 32.8769 69.5524 32.7434C70.0234 32.61 70.5022 32.4177 70.9889 32.1665L71.4128 32.5668V49.1922C71.4128 49.3099 71.5462 49.4316 71.8131 49.5572C72.08 49.6828 72.5352 49.8005 73.1789 49.9104V50.4167H67.8805Z" fill="#2E2739"/>
<path d="M77.8651 49.2393C78.3361 49.2393 78.8345 49.1215 79.3604 48.886C79.8942 48.6427 80.4594 48.262 81.0559 47.7439V44.6944C80.3966 44.8043 79.851 44.9102 79.4193 45.0123C78.9954 45.1143 78.6461 45.2203 78.3714 45.3302C78.0967 45.4322 77.8769 45.5421 77.712 45.6599C77.5472 45.7776 77.402 45.9032 77.2764 46.0367C77.0723 46.2486 76.9075 46.4919 76.7819 46.7667C76.6563 47.0336 76.5935 47.3515 76.5935 47.7204C76.5935 48.0344 76.6406 48.2895 76.7348 48.4857C76.829 48.682 76.9428 48.8389 77.0762 48.9567C77.2097 49.0666 77.347 49.1412 77.4883 49.1804C77.6375 49.2197 77.7631 49.2393 77.8651 49.2393ZM84.6236 49.4512C83.9563 49.9143 83.403 50.2479 82.9634 50.452C82.5317 50.664 82.2059 50.7699 81.9861 50.7699C81.7271 50.7699 81.5112 50.5894 81.3385 50.2283C81.1658 49.8672 81.0716 49.3688 81.0559 48.733C80.7027 49.0862 80.3495 49.3923 79.9963 49.6514C79.643 49.9104 79.2976 50.1223 78.9601 50.2872C78.6226 50.452 78.3007 50.5737 77.9946 50.6522C77.6963 50.7307 77.4216 50.7699 77.1704 50.7699C76.8878 50.7699 76.5974 50.7228 76.2991 50.6286C76.0008 50.5345 75.73 50.3853 75.4867 50.1812C75.2512 49.9771 75.055 49.7142 74.898 49.3923C74.741 49.0705 74.6625 48.682 74.6625 48.2267C74.6625 47.6301 74.7645 47.1317 74.9686 46.7313C75.1805 46.331 75.4317 45.9856 75.7222 45.6952C75.9106 45.5068 76.1225 45.3302 76.358 45.1654C76.6013 44.9927 76.9192 44.8278 77.3117 44.6708C77.712 44.5138 78.2105 44.3647 78.807 44.2234C79.4036 44.0821 80.1532 43.9448 81.0559 43.8113V42.1511C81.0559 41.8842 81.0245 41.637 80.9617 41.4093C80.8989 41.1739 80.793 40.9737 80.6438 40.8089C80.4947 40.6362 80.2906 40.5067 80.0316 40.4203C79.7804 40.3261 79.4625 40.2829 79.0779 40.2908C78.8267 40.2986 78.5794 40.3418 78.3361 40.4203C78.0927 40.4988 77.8808 40.6087 77.7003 40.75C77.5197 40.8913 77.3784 41.06 77.2764 41.2563C77.1743 41.4447 77.1351 41.6566 77.1586 41.8921C77.1665 41.9627 77.0841 42.0452 76.9114 42.1394C76.7465 42.2257 76.5464 42.3042 76.3109 42.3748C76.0832 42.4455 75.8556 42.5004 75.628 42.5397C75.4082 42.5789 75.2512 42.5868 75.157 42.5632L74.9922 42.104C75.1727 41.7116 75.4474 41.3348 75.8164 40.9737C76.1853 40.6126 76.6052 40.2947 77.0762 40.02C77.555 39.7452 78.0574 39.5255 78.5833 39.3606C79.1171 39.1958 79.6312 39.1134 80.1258 39.1134C80.9892 39.1134 81.6525 39.341 82.1156 39.7963C82.5866 40.2437 82.8221 40.8717 82.8221 41.6802V48.3209C82.8221 48.6506 82.8653 48.886 82.9516 49.0273C83.0379 49.1686 83.1518 49.2393 83.2931 49.2393C83.403 49.2393 83.5442 49.2197 83.7169 49.1804C83.8896 49.1412 84.133 49.0548 84.4469 48.9214L84.6236 49.4512Z" fill="#2E2739"/>
<path d="M92.6772 50.4167V49.9104C93.2424 49.7613 93.6584 49.6318 93.9253 49.5219C94.1922 49.412 94.3256 49.3021 94.3256 49.1922V42.9636C94.3256 42.4847 94.2981 42.0962 94.2432 41.7979C94.1882 41.4996 94.1019 41.2641 93.9841 41.0914C93.8664 40.9188 93.7094 40.801 93.5132 40.7382C93.3248 40.6754 93.0932 40.644 92.8185 40.644C92.5752 40.644 92.3043 40.7029 92.0061 40.8206C91.7078 40.9384 91.3859 41.1268 91.0406 41.3858C90.703 41.6448 90.3459 41.9863 89.9691 42.4102C89.6002 42.8262 89.2273 43.3403 88.8505 43.9526V49.1922C88.8505 49.3099 88.9958 49.4316 89.2862 49.5572C89.5845 49.6828 89.9887 49.8005 90.4989 49.9104V50.4167H85.436V49.9104C85.9541 49.777 86.3583 49.6592 86.6487 49.5572C86.9392 49.4473 87.0844 49.3256 87.0844 49.1922V42.0452C87.0844 41.739 87.0726 41.4957 87.0491 41.3152C87.0255 41.1346 86.9588 40.9933 86.8489 40.8913C86.7469 40.7892 86.5859 40.7147 86.3662 40.6676C86.1464 40.6205 85.8363 40.5734 85.436 40.5263V40.0553C85.9698 39.969 86.4643 39.8473 86.9196 39.6903C87.3748 39.5255 87.8223 39.3331 88.2618 39.1134L88.6739 39.5255L88.8034 42.4573C89.1488 41.9313 89.5295 41.4643 89.9456 41.0561C90.3616 40.6401 90.7815 40.2908 91.2054 40.0082C91.6293 39.7178 92.0375 39.498 92.4299 39.3488C92.8303 39.1919 93.1835 39.1134 93.4896 39.1134C93.8272 39.1134 94.1529 39.1644 94.4669 39.2664C94.7809 39.3685 95.0556 39.5255 95.2911 39.7374C95.5344 39.9493 95.7268 40.2201 95.868 40.5498C96.0172 40.8717 96.0918 41.2524 96.0918 41.6919V49.1922C96.0918 49.3021 96.2095 49.412 96.445 49.5219C96.6883 49.6239 97.12 49.7534 97.7402 49.9104V50.4167H92.6772Z" fill="#2E2739"/>
<path d="M110.468 49.4277C110.107 49.671 109.785 49.879 109.503 50.0517C109.228 50.2165 108.985 50.35 108.773 50.452C108.569 50.5619 108.392 50.6404 108.243 50.6875C108.094 50.7425 107.964 50.7699 107.854 50.7699C107.595 50.7699 107.383 50.5933 107.218 50.2401C107.054 49.8869 106.944 49.2824 106.889 48.4268C106.591 48.7879 106.292 49.1137 105.994 49.4041C105.704 49.6945 105.401 49.9418 105.087 50.1459C104.781 50.3421 104.455 50.4952 104.11 50.6051C103.765 50.715 103.392 50.7699 102.992 50.7699C102.552 50.7699 102.101 50.6443 101.637 50.3932C101.174 50.1341 100.747 49.7652 100.354 49.2864C99.9694 48.8076 99.6515 48.2228 99.4003 47.532C99.157 46.8412 99.0353 46.0602 99.0353 45.1889C99.0353 44.7415 99.0942 44.2784 99.212 43.7995C99.3375 43.3207 99.5142 42.8576 99.7418 42.4102C99.9694 41.9627 100.248 41.5389 100.578 41.1385C100.907 40.7382 101.276 40.3889 101.685 40.0906C102.093 39.7845 102.54 39.5451 103.027 39.3724C103.514 39.1997 104.032 39.1134 104.581 39.1134C104.95 39.1134 105.315 39.1605 105.676 39.2546C106.045 39.341 106.441 39.5412 106.865 39.8551V35.4162C106.865 34.9845 106.853 34.643 106.83 34.3919C106.806 34.1328 106.74 33.9366 106.63 33.8031C106.52 33.6618 106.351 33.5676 106.123 33.5206C105.896 33.4656 105.574 33.4224 105.158 33.391V32.9318C105.802 32.8455 106.379 32.7317 106.889 32.5904C107.399 32.4412 107.858 32.2999 108.266 32.1665L108.631 32.5197V47.426C108.631 47.7008 108.635 47.9362 108.643 48.1325C108.659 48.3287 108.679 48.4936 108.702 48.627C108.726 48.7605 108.753 48.8703 108.784 48.9567C108.816 49.043 108.855 49.1137 108.902 49.1686C108.973 49.255 109.106 49.2824 109.303 49.251C109.507 49.2118 109.844 49.1019 110.315 48.9214L110.468 49.4277ZM106.865 47.3436V41.8215C106.606 41.374 106.241 41.0286 105.77 40.7853C105.299 40.5341 104.781 40.4085 104.216 40.4085C103.714 40.4085 103.254 40.5027 102.838 40.6911C102.422 40.8717 102.061 41.1464 101.755 41.5153C101.457 41.8842 101.221 42.3434 101.049 42.8929C100.884 43.4424 100.801 44.086 100.801 44.8239C100.801 45.4911 100.896 46.0995 101.084 46.6489C101.28 47.1905 101.528 47.6537 101.826 48.0383C102.124 48.4229 102.45 48.7212 102.803 48.9331C103.164 49.1372 103.506 49.2393 103.827 49.2393C104.094 49.2393 104.357 49.1843 104.616 49.0744C104.875 48.9645 105.131 48.8232 105.382 48.6506C105.633 48.47 105.88 48.2659 106.123 48.0383C106.375 47.8107 106.622 47.5791 106.865 47.3436Z" fill="#2E2739"/>
<path d="M111.469 50.4167V49.9104C112.003 49.8005 112.411 49.6828 112.694 49.5572C112.976 49.4237 113.117 49.3021 113.117 49.1922V42.5279C113.117 42.1276 113.11 41.8058 113.094 41.5624C113.078 41.3112 113.019 41.1189 112.917 40.9855C112.815 40.8442 112.65 40.7421 112.423 40.6793C112.203 40.6165 111.885 40.5655 111.469 40.5263V40.0553C111.712 40.0082 111.967 39.9533 112.234 39.8905C112.509 39.8198 112.78 39.7452 113.047 39.6667C113.314 39.5804 113.569 39.4901 113.812 39.3959C114.055 39.3017 114.279 39.2076 114.483 39.1134H114.884V49.1922C114.884 49.2864 115.013 49.4041 115.272 49.5454C115.539 49.6789 115.959 49.8005 116.532 49.9104V50.4167H111.469ZM115.237 35.5693C115.237 35.7891 115.201 35.9971 115.131 36.1933C115.06 36.3896 114.962 36.5623 114.836 36.7114C114.719 36.8527 114.577 36.9665 114.413 37.0528C114.248 37.1392 114.067 37.1824 113.871 37.1824C113.518 37.1824 113.263 37.0842 113.106 36.888C112.957 36.6918 112.882 36.4131 112.882 36.052C112.882 35.8322 112.917 35.6242 112.988 35.428C113.059 35.2318 113.157 35.063 113.282 34.9217C113.408 34.7726 113.549 34.6587 113.706 34.5802C113.871 34.4939 114.048 34.4507 114.236 34.4507C114.903 34.4507 115.237 34.8236 115.237 35.5693Z" fill="#2E2739"/>
<path d="M121.336 49.2393C121.807 49.2393 122.305 49.1215 122.831 48.886C123.365 48.6427 123.93 48.262 124.527 47.7439V44.6944C123.867 44.8043 123.322 44.9102 122.89 45.0123C122.466 45.1143 122.117 45.2203 121.842 45.3302C121.567 45.4322 121.348 45.5421 121.183 45.6599C121.018 45.7776 120.873 45.9032 120.747 46.0367C120.543 46.2486 120.378 46.4919 120.253 46.7667C120.127 47.0336 120.064 47.3515 120.064 47.7204C120.064 48.0344 120.111 48.2895 120.206 48.4857C120.3 48.682 120.414 48.8389 120.547 48.9567C120.68 49.0666 120.818 49.1412 120.959 49.1804C121.108 49.2197 121.234 49.2393 121.336 49.2393ZM128.094 49.4512C127.427 49.9143 126.874 50.2479 126.434 50.452C126.002 50.664 125.677 50.7699 125.457 50.7699C125.198 50.7699 124.982 50.5894 124.809 50.2283C124.637 49.8672 124.542 49.3688 124.527 48.733C124.174 49.0862 123.82 49.3923 123.467 49.6514C123.114 49.9104 122.768 50.1223 122.431 50.2872C122.093 50.452 121.772 50.5737 121.465 50.6522C121.167 50.7307 120.892 50.7699 120.641 50.7699C120.359 50.7699 120.068 50.7228 119.77 50.6286C119.472 50.5345 119.201 50.3853 118.957 50.1812C118.722 49.9771 118.526 49.7142 118.369 49.3923C118.212 49.0705 118.133 48.682 118.133 48.2267C118.133 47.6301 118.235 47.1317 118.439 46.7313C118.651 46.331 118.903 45.9856 119.193 45.6952C119.381 45.5068 119.593 45.3302 119.829 45.1654C120.072 44.9927 120.39 44.8278 120.783 44.6708C121.183 44.5138 121.681 44.3647 122.278 44.2234C122.874 44.0821 123.624 43.9448 124.527 43.8113V42.1511C124.527 41.8842 124.495 41.637 124.433 41.4093C124.37 41.1739 124.264 40.9737 124.115 40.8089C123.966 40.6362 123.761 40.5067 123.502 40.4203C123.251 40.3261 122.933 40.2829 122.549 40.2908C122.297 40.2986 122.05 40.3418 121.807 40.4203C121.564 40.4988 121.352 40.6087 121.171 40.75C120.991 40.8913 120.849 41.06 120.747 41.2563C120.645 41.4447 120.606 41.6566 120.629 41.8921C120.637 41.9627 120.555 42.0452 120.382 42.1394C120.217 42.2257 120.017 42.3042 119.782 42.3748C119.554 42.4455 119.326 42.5004 119.099 42.5397C118.879 42.5789 118.722 42.5868 118.628 42.5632L118.463 42.104C118.644 41.7116 118.918 41.3348 119.287 40.9737C119.656 40.6126 120.076 40.2947 120.547 40.02C121.026 39.7452 121.528 39.5255 122.054 39.3606C122.588 39.1958 123.102 39.1134 123.597 39.1134C124.46 39.1134 125.123 39.341 125.586 39.7963C126.057 40.2437 126.293 40.8717 126.293 41.6802V48.3209C126.293 48.6506 126.336 48.886 126.422 49.0273C126.509 49.1686 126.623 49.2393 126.764 49.2393C126.874 49.2393 127.015 49.2197 127.188 49.1804C127.36 49.1412 127.604 49.0548 127.918 48.9214L128.094 49.4512Z" fill="#2E2739"/>
<path d="M100.415 7.65957C100.173 5.54727 99.2942 3.35619 96.4436 2.15226L96.3571 2.11876C93.7619 1.20281 90.9856 0.848453 88.171 1.05877L64.6088 1.00581C62.5006 1.05498 60.4343 1.42603 58.4715 2.11876L58.3851 2.15226C55.5345 3.35629 54.6554 5.54727 54.4134 7.65957H51.291V10.7329H54.4101C54.5916 12.4769 55.0981 14.622 56.1002 16.5247C57.8391 19.8261 60.5922 21.5711 64.062 21.5711C66.6995 21.5711 69.5291 20.2103 71.8252 17.8376C73.7695 15.8286 75.119 13.297 75.6417 10.7329H79.187C79.7097 13.2969 81.0592 15.8285 83.0036 17.8376C85.2997 20.2103 88.1293 21.5711 90.7667 21.5711C94.2365 21.5711 96.9897 19.8261 98.7286 16.5247C99.7307 14.622 100.237 12.477 100.419 10.7329H103.538V7.65957H100.415ZM78.9954 7.65957H75.8331C75.7344 6.67702 75.4691 5.76998 75.0431 4.98157C74.8689 4.65908 74.6666 4.35686 74.4401 4.07402H80.3884C80.1619 4.35697 79.9596 4.65908 79.7853 4.98157C79.3595 5.76998 79.0941 6.67702 78.9954 7.65957Z" fill="#5768FF"/>
</svg>
