<svg width="156" height="52" viewBox="0 0 156 52" fill="none" xmlns="http://www.w3.org/2000/svg">
<g clip-path="url(#clip0_10566_112913)">
<path d="M33.2485 14.7874H40.9725C43.6501 14.7874 45.6298 15.4282 46.9114 16.7098C48.1472 17.9456 48.7651 19.582 48.7651 21.6188C48.7651 24.2507 48.0213 26.2532 46.5338 27.6263C45.092 28.9766 42.8263 29.6517 39.7367 29.6517H36.7157L35.7202 37.6846H30.4336L33.2485 14.7874ZM38.0202 19.1128L37.2307 25.3263H39.1188C40.675 25.3263 41.785 24.9945 42.4486 24.3308C43.0437 23.7586 43.3412 22.9691 43.3412 21.9621C43.3412 21.1153 43.0894 20.4516 42.586 19.971C41.9909 19.3989 40.9954 19.1128 39.5994 19.1128H38.0202Z" fill="#5930FF"/>
<path d="M65.355 19.2501H60.3773L58.1116 37.6846H52.825L55.0907 19.2501H50.1131L50.6623 14.7874H65.9043L65.355 19.2501Z" fill="#5930FF"/>
<path d="M68.7865 14.7874H74.0732L71.2582 37.6846H65.9716L68.7865 14.7874Z" fill="#5930FF"/>
<path d="M94.1096 31.2652L93.423 36.9637C91.7752 37.7876 89.9215 38.1996 87.8618 38.1996C84.5891 38.1996 81.9 37.1811 79.7945 35.1443C77.7348 33.0846 76.7049 30.4413 76.7049 27.2144C76.7049 23.3925 77.9179 20.2685 80.3438 17.8426C82.7239 15.4625 85.7792 14.2725 89.5095 14.2725C91.9583 14.2725 94.121 14.8217 95.9977 15.9202L95.3454 21.5158C93.8121 19.9825 91.9011 19.2158 89.6125 19.2158C87.3239 19.2158 85.516 19.9367 84.1886 21.3785C82.8154 22.8432 82.1289 24.6397 82.1289 26.7681C82.1289 28.7134 82.7239 30.2811 83.914 31.4711C85.104 32.6612 86.7175 33.2562 88.7543 33.2562C90.6767 33.2562 92.4618 32.5925 94.1096 31.2652Z" fill="#5930FF"/>
<path d="M100.065 14.7874H105.351L102.536 37.6846H97.2496L100.065 14.7874Z" fill="#5930FF"/>
<path d="M122.985 37.6846L121.817 33.3592H113.167L111.004 37.6846H105.305L117.389 14.7874H122.264L128.409 37.6846H122.985ZM115.158 29.3084H120.856L119.002 21.2412L115.158 29.3084Z" fill="#5930FF"/>
<path d="M136.158 37.6846H130.872L133.721 14.7874H138.321L148.86 29.686L150.714 14.7874H156L153.186 37.6846H148.585L137.978 22.7173L136.158 37.6846Z" fill="#5930FF"/>
<path fill-rule="evenodd" clip-rule="evenodd" d="M25.0571 34.8997L23.491 36.4658C17.4366 42.5202 7.62048 42.5202 1.56607 36.4658L0 34.8997L3.13214 31.7676L4.6982 33.3336C9.02278 37.6582 16.0343 37.6582 20.3589 33.3336L21.925 31.7676L25.0571 34.8997ZM21.925 19.239L20.3589 17.6729C16.0343 13.3484 9.02278 13.3484 4.6982 17.6729L3.13214 19.239L0 16.1069L1.56607 14.5408C7.62048 8.4864 17.4366 8.4864 23.491 14.5408L25.0571 16.1069L21.925 19.239Z" fill="#F0AE05"/>
<circle cx="12.5262" cy="25.5032" r="4.42951" fill="#5930FF"/>
</g>
<defs>
<clipPath id="clip0_10566_112913">
<rect width="156" height="52" fill="white"/>
</clipPath>
</defs>
</svg>
