<svg width="156" height="52" viewBox="0 0 156 52" fill="none" xmlns="http://www.w3.org/2000/svg">
<path d="M31.9096 15.2428C31.5745 14.1862 31.0239 13.3698 30.0664 12.7694C29.6834 12.5293 29.3482 11.977 29.2644 11.5208C28.6061 7.75074 28.9772 7.35453 32.6996 6.53809C39.2946 5.0733 45.9256 3.92068 52.8438 4.07677C59.4986 3.87266 66.0099 5.10932 72.3057 7.72673C75.8007 9.1795 79.547 9.25154 83.0061 7.75074C91.9112 3.89667 101.187 3.42842 110.607 4.49699C113.71 4.84639 116.787 5.45314 119.866 6.0602C121.442 6.37099 123.018 6.68186 124.599 6.95831C125.76 7.16242 126.335 7.70271 126.215 8.93938C126.176 9.32826 126.193 9.72218 126.209 10.1146C126.218 10.328 126.227 10.5409 126.227 10.7523C126.227 11.7489 125.952 12.5173 124.994 13.1056C124.408 13.4538 123.929 14.1862 123.689 14.8465C123.116 16.3979 122.579 17.9661 122.042 19.5349C121.469 21.2078 120.896 22.8814 120.278 24.5357C118.998 28.0056 116.376 30.0827 112.977 31.2714C110.392 32.1838 107.256 32.6041 104.467 32.6041C103.96 32.6041 103.461 32.5957 102.967 32.5781V31.0224C103.463 31.0513 103.959 31.07 104.455 31.0792C107.842 31.0192 111.002 30.659 114.03 29.4584C116.029 28.666 117.573 27.3933 118.567 25.4362C120.518 21.5822 121.2 17.4519 121.224 13.1897C121.236 9.9239 120.182 8.48313 117.106 7.4986C110.523 5.37346 103.761 4.86919 96.9024 5.56557C93.6348 5.90175 90.4271 6.49006 87.4467 7.99087C85.1845 9.13148 84.0834 10.9324 84.1911 13.4538C84.2511 15.0754 84.5162 16.6273 84.9469 18.1219H83.2264C83.1036 17.6744 82.9837 17.226 82.864 16.7781C82.7021 16.1723 82.5404 15.5673 82.3718 14.9666C81.6417 12.3492 80.8038 11.5928 78.1107 11.5688L78.1048 11.5687C77.5323 11.5567 76.9717 11.545 76.4111 11.6048C74.5559 11.7849 73.7779 12.5053 73.2273 14.2942C72.8053 15.6606 72.4024 16.9002 71.9899 18.1219H70.4929C70.885 16.6585 71.1282 15.1364 71.2285 13.5619C71.3841 11.0525 70.3068 9.1795 68.0327 8.0509C67.4582 7.76274 66.8836 7.4866 66.2852 7.25847C62.096 5.68563 57.7033 5.38547 53.3465 5.24139C48.1159 5.39748 42.9931 5.84171 38.0618 7.57064C35.2969 8.54316 34.2676 9.9239 34.1958 12.8775C34.1 16.6475 34.8062 20.3095 36.0869 23.8634C37.2479 27.0451 39.4742 29.0261 42.7178 29.9506C46.4694 31.0236 50.2054 31.3138 53.9328 30.9233V32.2544C50.6929 32.5498 47.4373 32.4707 44.1661 31.7636C39.4861 30.7431 36.1587 28.0776 34.6147 23.4071C34.2693 22.3587 33.9187 21.312 33.5682 20.2657C33.0076 18.5922 32.4473 16.9198 31.9096 15.2428Z" fill="#2716E0"/>
<path d="M64.1906 23.1967C63.717 23.1967 63.2713 23.2803 62.8534 23.4474C62.4449 23.6146 62.0873 23.87 61.7809 24.2135C61.4745 24.5571 61.2284 24.9936 61.0427 25.5229C60.8662 26.0429 60.778 26.6604 60.778 27.3754C60.778 28.0905 60.8662 28.7126 61.0427 29.2419C61.2284 29.762 61.4745 30.1938 61.7809 30.5374C62.0873 30.8809 62.4449 31.1363 62.8534 31.3035C63.2713 31.4706 63.717 31.5542 64.1906 31.5542C64.6642 31.5542 65.1053 31.4706 65.5139 31.3035C65.9318 31.1363 66.2939 30.8809 66.6004 30.5374C66.9068 30.1938 67.1482 29.762 67.3247 29.2419C67.5104 28.7126 67.6033 28.0905 67.6033 27.3754C67.6033 26.6604 67.5104 26.0429 67.3247 25.5229C67.1482 24.9936 66.9068 24.5571 66.6004 24.2135C66.2939 23.87 65.9318 23.6146 65.5139 23.4474C65.1053 23.2803 64.6642 23.1967 64.1906 23.1967ZM64.1906 22.2217C65.0264 22.2217 65.7832 22.3331 66.4611 22.556C67.1482 22.7788 67.7333 23.1085 68.2161 23.5449C68.7083 23.9814 69.089 24.52 69.3583 25.1607C69.6276 25.8015 69.7623 26.5397 69.7623 27.3754C69.7623 28.2112 69.6276 28.9494 69.3583 29.5902C69.089 30.2309 68.7083 30.7695 68.2161 31.2059C67.7333 31.6424 67.1482 31.972 66.4611 32.1949C65.7832 32.4178 65.0264 32.5292 64.1906 32.5292C63.3549 32.5292 62.5934 32.4178 61.9063 32.1949C61.2191 31.972 60.6294 31.6424 60.1373 31.2059C59.6544 30.7695 59.2783 30.2309 59.009 29.5902C58.749 28.9494 58.619 28.2112 58.619 27.3754C58.619 26.5397 58.749 25.8015 59.009 25.1607C59.2783 24.52 59.6544 23.9814 60.1373 23.5449C60.6294 23.1085 61.2191 22.7788 61.9063 22.556C62.5934 22.3331 63.3549 22.2217 64.1906 22.2217Z" fill="#2716E0"/>
<path d="M77.5977 22.5003C78.2941 22.5003 78.9163 22.5792 79.4642 22.7371C80.0213 22.8856 80.4903 23.1085 80.871 23.4057C81.2517 23.6935 81.5442 24.051 81.7485 24.4782C81.9528 24.8961 82.055 25.3743 82.055 25.9129C82.055 26.4515 81.9528 26.9344 81.7485 27.3615C81.5442 27.7794 81.2517 28.1369 80.871 28.4341C80.4903 28.7219 80.0213 28.9448 79.4642 29.1027C78.9163 29.2512 78.2941 29.3255 77.5977 29.3255H74.6029V32.2506H72.5832V22.5003H77.5977ZM74.6029 23.5449V28.2808H77.5977C78.3313 28.2808 78.8977 28.0905 79.297 27.7097C79.7056 27.3197 79.9099 26.7208 79.9099 25.9129C79.9099 25.105 79.7056 24.5107 79.297 24.13C78.8977 23.74 78.3313 23.5449 77.5977 23.5449H74.6029Z" fill="#2716E0"/>
<path d="M92.8797 23.5449H89.1188V32.2506H87.0991V23.5449H83.3382V22.5003H92.8797V23.5449Z" fill="#2716E0"/>
<path d="M97.1588 32.2506H95.1391V22.5003H97.1588V32.2506Z" fill="#2716E0"/>
<path d="M53.641 46.8574H53.7803L57.2765 38.291H59.3519L55.3821 48.0414H52.0391L48.0693 38.291H50.1448L53.641 46.8574Z" fill="#2716E0"/>
<path d="M63.631 48.0414H61.6113V38.291H63.631V48.0414Z" fill="#2716E0"/>
<path d="M75.7812 45.4645C75.7812 45.8638 75.6976 46.2399 75.5304 46.5927C75.3633 46.9363 75.0893 47.2381 74.7086 47.4981C74.3372 47.7489 73.8497 47.9485 73.2461 48.0971C72.6518 48.2457 71.9182 48.32 71.0453 48.32C70.5531 48.32 70.0702 48.2828 69.5966 48.2085C69.1323 48.1342 68.6866 48.0274 68.2594 47.8882C67.8416 47.7489 67.4516 47.5817 67.0894 47.3867C66.7365 47.1824 66.4301 46.9595 66.1701 46.7181L66.8665 45.8824C67.3958 46.3374 68.0134 46.6856 68.7191 46.927C69.4248 47.1592 70.2002 47.2753 71.0453 47.2753C71.9832 47.2753 72.6471 47.1453 73.0371 46.8853C73.4271 46.6252 73.6221 46.2677 73.6221 45.8127C73.6221 45.4598 73.4689 45.1627 73.1625 44.9213C72.856 44.6798 72.336 44.443 71.6024 44.2109L68.9559 43.3751C68.083 43.0965 67.4237 42.7437 66.978 42.3165C66.5322 41.8801 66.3094 41.3275 66.3094 40.659C66.3094 40.3154 66.3883 39.9857 66.5462 39.67C66.7133 39.345 66.9687 39.0617 67.3123 38.8203C67.6558 38.5696 68.0923 38.3746 68.6216 38.2353C69.1602 38.0867 69.8056 38.0124 70.5577 38.0124C71.0128 38.0124 71.4631 38.0496 71.9089 38.1239C72.3639 38.1981 72.7957 38.3049 73.2043 38.4442C73.6221 38.5835 74.0075 38.7553 74.3604 38.9596C74.7225 39.1546 75.0336 39.3728 75.2936 39.6143L74.5972 40.45C74.0679 39.995 73.4736 39.6514 72.8143 39.4193C72.1549 39.1778 71.4028 39.0571 70.5577 39.0571C69.8613 39.0571 69.3366 39.1778 68.9838 39.4193C68.6402 39.6607 68.4684 39.9579 68.4684 40.3107C68.4684 40.5057 68.5009 40.6775 68.5659 40.8261C68.6309 40.9654 68.7377 41.1 68.8863 41.23C69.0441 41.3508 69.2484 41.4668 69.4991 41.5783C69.7499 41.6804 70.0609 41.7919 70.4324 41.9126L73.065 42.7483C73.91 43.0176 74.574 43.3705 75.0568 43.8069C75.5397 44.2434 75.7812 44.7959 75.7812 45.4645Z" fill="#2716E0"/>
<path d="M80.3378 48.0414H78.318V38.291H80.3378V48.0414Z" fill="#2716E0"/>
<path d="M88.727 38.9875C88.2535 38.9875 87.8077 39.071 87.3899 39.2382C86.9813 39.4053 86.6237 39.6607 86.3173 40.0043C86.0109 40.3479 85.7648 40.7843 85.5791 41.3136C85.4026 41.8336 85.3144 42.4512 85.3144 43.1662C85.3144 43.8812 85.4026 44.5034 85.5791 45.0327C85.7648 45.5527 86.0109 45.9845 86.3173 46.3281C86.6237 46.6717 86.9813 46.927 87.3899 47.0942C87.8077 47.2613 88.2535 47.3449 88.727 47.3449C89.2006 47.3449 89.6417 47.2613 90.0503 47.0942C90.4682 46.927 90.8303 46.6717 91.1368 46.3281C91.4432 45.9845 91.6847 45.5527 91.8611 45.0327C92.0468 44.5034 92.1397 43.8812 92.1397 43.1662C92.1397 42.4512 92.0468 41.8336 91.8611 41.3136C91.6847 40.7843 91.4432 40.3479 91.1368 40.0043C90.8303 39.6607 90.4682 39.4053 90.0503 39.2382C89.6417 39.071 89.2006 38.9875 88.727 38.9875ZM88.727 38.0124C89.5628 38.0124 90.3196 38.1239 90.9975 38.3467C91.6847 38.5696 92.2697 38.8992 92.7526 39.3357C93.2447 39.7721 93.6254 40.3107 93.8947 40.9515C94.164 41.5922 94.2987 42.3304 94.2987 43.1662C94.2987 44.0019 94.164 44.7402 93.8947 45.3809C93.6254 46.0217 93.2447 46.5602 92.7526 46.9967C92.2697 47.4331 91.6847 47.7628 90.9975 47.9857C90.3196 48.2085 89.5628 48.32 88.727 48.32C87.8913 48.32 87.1298 48.2085 86.4427 47.9857C85.7555 47.7628 85.1658 47.4331 84.6737 46.9967C84.1908 46.5602 83.8147 46.0217 83.5454 45.3809C83.2854 44.7402 83.1554 44.0019 83.1554 43.1662C83.1554 42.3304 83.2854 41.5922 83.5454 40.9515C83.8147 40.3107 84.1908 39.7721 84.6737 39.3357C85.1658 38.8992 85.7555 38.5696 86.4427 38.3467C87.1298 38.1239 87.8913 38.0124 88.727 38.0124Z" fill="#2716E0"/>
<path d="M107.149 38.291V48.0414H104.502L99.2786 40.1018H99.1393V48.0414H97.1196V38.291H99.7661L104.99 46.2306H105.129V38.291H107.149Z" fill="#2716E0"/>
</svg>
