<svg width="27" height="26" viewBox="0 0 27 26" fill="none" xmlns="http://www.w3.org/2000/svg">
	<g clip-path="url(#clip0_10430_115232)">
		<path d="M19.0276 9.75098H8.19497C7.89599 9.75098 7.65332 9.99364 7.65332 10.2926V18.9587C7.65332 20.2673 8.58494 21.3603 9.81986 21.6127V24.3751C9.81986 25.2709 10.5489 25.9999 11.4448 25.9999C12.3406 25.9999 13.0696 25.2709 13.0696 24.3751V21.6669H14.1529V24.3751C14.1529 25.2709 14.8819 25.9999 15.7778 25.9999C16.6737 25.9999 17.4027 25.2709 17.4027 24.3751V21.6127C18.6376 21.3614 19.5692 20.2673 19.5692 18.9587V10.2926C19.5692 9.99258 19.3266 9.75098 19.0276 9.75098Z" fill="#50BB5B" />
		<path d="M16.4452 2.8865L17.3583 0.755704C17.4764 0.480539 17.3486 0.163177 17.0734 0.045068C16.8015 -0.0741077 16.4798 0.053751 16.3628 0.329983L15.4496 2.46184C14.8701 2.27335 14.2526 2.16829 13.6113 2.16829C12.97 2.16829 12.3526 2.27335 11.773 2.46184L10.8577 0.329983C10.7407 0.053751 10.419 -0.075174 10.1471 0.045068C9.8719 0.163127 9.74516 0.481605 9.86327 0.755704L10.7765 2.8865C8.91651 3.89611 7.65234 5.86655 7.65234 8.12621C7.65234 8.42519 7.89501 8.66786 8.19399 8.66786H19.0266C19.3256 8.66786 19.5682 8.42519 19.5682 8.12621C19.5682 5.86655 18.304 3.89611 16.4452 2.8865ZM11.4437 6.50132C11.1447 6.50132 10.9021 6.25866 10.9021 5.95967C10.9021 5.6607 11.1447 5.41803 11.4437 5.41803C11.7427 5.41803 11.9854 5.6607 11.9854 5.95967C11.9854 6.25866 11.7427 6.50132 11.4437 6.50132ZM15.7768 6.50132C15.4778 6.50132 15.2352 6.25866 15.2352 5.95967C15.2352 5.6607 15.4778 5.41803 15.7768 5.41803C16.0758 5.41803 16.3185 5.6607 16.3185 5.95967C16.3185 6.25866 16.0758 6.50132 15.7768 6.50132Z" fill="#50BB5B" />
		<path d="M22.2782 9.75098C21.3823 9.75098 20.6533 10.48 20.6533 11.3759V16.7922C20.6533 17.6881 21.3823 18.4171 22.2782 18.4171C23.1741 18.4171 23.9031 17.6881 23.9031 16.7922V11.3759C23.9031 10.48 23.1741 9.75098 22.2782 9.75098Z" fill="#50BB5B" />
		<path d="M4.94618 9.75098C4.05031 9.75098 3.32129 10.48 3.32129 11.3759V16.7922C3.32129 17.6881 4.05031 18.4171 4.94618 18.4171C5.84206 18.4171 6.57107 17.6881 6.57107 16.7922V11.3759C6.57107 10.48 5.84206 9.75098 4.94618 9.75098Z" fill="#50BB5B" />
	</g>
	<defs>
		<clipPath id="clip0_10430_115232">
			<rect width="26" height="26" fill="white" transform="translate(0.610352)" />
		</clipPath>
	</defs>
</svg>
