<svg width="30" height="30" viewBox="0 0 30 30" fill="none" xmlns="http://www.w3.org/2000/svg">
	<g clip-path="url(#clip0_10430_115079)">
		<path d="M3.86328 5.06118L8.48279 13.0463C8.923 11.1363 10.1888 9.5113 11.8639 8.63435C13.2886 7.88812 14.6056 7.93351 16.6441 7.93351C19.4553 7.9317 24.6447 7.93533 27.96 7.93351C23.2527 -1.24633 10.6565 -2.79688 3.86328 5.06118Z" fill="#ED402D" />
		<path d="M14.9468 9.69678C12.2672 9.69496 10.0898 11.8628 10.0898 14.5264C10.0898 17.1899 12.269 19.356 14.9468 19.356C17.6246 19.356 19.8038 17.1899 19.8038 14.5264C19.8038 11.8628 17.6246 9.69678 14.9468 9.69678Z" fill="#3F82F9" />
		<path d="M9.16543 17.7619C7.832 15.4742 4.30663 9.37181 2.70652 6.5957C-2.90485 15.1437 1.9302 26.791 12.1154 28.7791L16.8281 20.8484C14.1028 21.6528 10.9117 20.7613 9.16543 17.7619Z" fill="#2DA94F" />
		<path d="M28.723 9.69336L19.4566 9.69517C21.727 11.794 22.2221 15.1929 20.684 17.8274C19.526 19.8137 15.8271 26.0177 14.0352 29.0208C24.5291 29.6635 32.179 19.4415 28.723 9.69336Z" fill="#FCBD00" />
	</g>
	<defs>
		<clipPath id="clip0_10430_115079">
			<rect width="29.226" height="29.0503" fill="white" transform="translate(0.335938)" />
		</clipPath>
	</defs>
</svg>
