<svg width="22" height="23" viewBox="0 0 22 23" fill="none" xmlns="http://www.w3.org/2000/svg">
	<g clip-path="url(#clip0_10430_115115)">
		<path d="M19.8543 17.1816C19.561 17.335 19.2585 17.4702 18.9485 17.5864C17.9619 17.9555 16.9168 18.1436 15.8634 18.1415C11.7968 18.1415 8.25445 15.3443 8.25445 11.7547C8.25966 11.2732 8.39326 10.8019 8.64147 10.3893C8.88968 9.97673 9.2435 9.63787 9.66641 9.40771C5.98828 9.5624 5.04297 13.3952 5.04297 15.6408C5.04297 21.9898 10.8945 22.6335 12.1552 22.6335C12.8349 22.6335 13.8602 22.4358 14.4755 22.2416L14.588 22.2038C16.9558 21.3852 18.9744 19.785 20.3115 17.6663C20.3524 17.6018 20.3707 17.5255 20.3634 17.4494C20.3562 17.3733 20.3238 17.3018 20.2713 17.2462C20.2189 17.1906 20.1494 17.1541 20.0739 17.1424C19.9984 17.1307 19.9211 17.1445 19.8543 17.1816Z" fill="url(#paint0_linear_10430_115115)" />
		<path opacity="0.35" d="M19.8543 17.1816C19.561 17.335 19.2585 17.4702 18.9485 17.5864C17.9619 17.9555 16.9168 18.1436 15.8634 18.1415C11.7968 18.1415 8.25445 15.3443 8.25445 11.7547C8.25966 11.2732 8.39326 10.8019 8.64147 10.3893C8.88968 9.97673 9.2435 9.63787 9.66641 9.40771C5.98828 9.5624 5.04297 13.3952 5.04297 15.6408C5.04297 21.9898 10.8945 22.6335 12.1552 22.6335C12.8349 22.6335 13.8602 22.4358 14.4755 22.2416L14.588 22.2038C16.9558 21.3852 18.9744 19.785 20.3115 17.6663C20.3524 17.6018 20.3707 17.5255 20.3634 17.4494C20.3562 17.3733 20.3238 17.3018 20.2713 17.2462C20.2189 17.1906 20.1494 17.1541 20.0739 17.1424C19.9984 17.1307 19.9211 17.1445 19.8543 17.1816Z" fill="url(#paint1_radial_10430_115115)" />
		<path d="M9.08498 21.5544C8.31847 21.0786 7.65419 20.4552 7.13076 19.7205C6.53417 18.9031 6.12363 17.9651 5.92794 16.9723C5.73225 15.9794 5.75615 14.9558 5.99796 13.9732C6.23976 12.9906 6.69362 12.0727 7.3277 11.2841C7.96178 10.4955 8.76073 9.85511 9.6685 9.40794C9.93662 9.28161 10.3947 9.05301 11.004 9.06419C11.4332 9.06731 11.8559 9.1698 12.239 9.36363C12.622 9.55746 12.9549 9.83735 13.2117 10.1814C13.5587 10.6447 13.7501 11.2061 13.7583 11.785C13.7583 11.7669 15.8603 4.94434 6.88326 4.94434C3.1106 4.94434 0.0082611 8.5245 0.0082611 11.6655C-0.00661989 13.3271 0.348894 14.9711 1.04896 16.478C2.19307 18.9192 4.19381 20.8551 6.67125 21.9183C9.14868 22.9815 11.9303 23.0979 14.4879 22.2453C13.5924 22.5277 12.6463 22.6124 11.7148 22.4937C10.7834 22.375 9.88879 22.0557 9.09271 21.5578L9.08498 21.5544Z" fill="url(#paint2_linear_10430_115115)" />
		<path opacity="0.41" d="M9.08498 21.5544C8.31847 21.0786 7.65419 20.4552 7.13076 19.7205C6.53417 18.9031 6.12363 17.9651 5.92794 16.9723C5.73225 15.9794 5.75615 14.9558 5.99796 13.9732C6.23976 12.9906 6.69362 12.0727 7.3277 11.2841C7.96178 10.4955 8.76073 9.85511 9.6685 9.40794C9.93662 9.28161 10.3947 9.05301 11.004 9.06419C11.4332 9.06731 11.8559 9.1698 12.239 9.36363C12.622 9.55746 12.9549 9.83735 13.2117 10.1814C13.5587 10.6447 13.7501 11.2061 13.7583 11.785C13.7583 11.7669 15.8603 4.94434 6.88326 4.94434C3.1106 4.94434 0.0082611 8.5245 0.0082611 11.6655C-0.00661989 13.3271 0.348894 14.9711 1.04896 16.478C2.19307 18.9192 4.19381 20.8551 6.67125 21.9183C9.14868 22.9815 11.9303 23.0979 14.4879 22.2453C13.5924 22.5277 12.6463 22.6124 11.7148 22.4937C10.7834 22.375 9.88879 22.0557 9.09271 21.5578L9.08498 21.5544Z" fill="url(#paint3_radial_10430_115115)" />
		<path d="M13.0909 13.5998C13.0212 13.69 12.8073 13.8146 12.8073 14.0862C12.8073 14.3105 12.9534 14.5262 13.2129 14.7075C14.4487 15.5669 16.7784 15.4535 16.7845 15.4535C17.7001 15.4513 18.5985 15.2035 19.3858 14.7359C20.18 14.2721 20.8392 13.6088 21.2979 12.8116C21.7566 12.0145 21.999 11.1112 22.0009 10.1915C22.0232 8.26565 21.3134 6.98518 21.0263 6.41799C19.2053 2.85588 15.2745 0.807129 11 0.807129C8.10922 0.806843 5.33452 1.94451 3.27601 3.97407C1.2175 6.00364 0.0406515 8.76195 0 11.6524C0.04125 8.51228 3.1625 5.97627 6.875 5.97627C7.17578 5.97627 8.89109 6.00549 10.4844 6.84166C11.8886 7.579 12.6242 8.46932 13.1355 9.35189C13.6666 10.2688 13.7612 11.4273 13.7612 11.8888C13.7612 12.3503 13.5257 13.0343 13.0909 13.5998Z" fill="url(#paint4_radial_10430_115115)" />
		<path d="M13.0909 13.5998C13.0212 13.69 12.8073 13.8146 12.8073 14.0862C12.8073 14.3105 12.9534 14.5262 13.2129 14.7075C14.4487 15.5669 16.7784 15.4535 16.7845 15.4535C17.7001 15.4513 18.5985 15.2035 19.3858 14.7359C20.18 14.2721 20.8392 13.6088 21.2979 12.8116C21.7566 12.0145 21.999 11.1112 22.0009 10.1915C22.0232 8.26565 21.3134 6.98518 21.0263 6.41799C19.2053 2.85588 15.2745 0.807129 11 0.807129C8.10922 0.806843 5.33452 1.94451 3.27601 3.97407C1.2175 6.00364 0.0406515 8.76195 0 11.6524C0.04125 8.51228 3.1625 5.97627 6.875 5.97627C7.17578 5.97627 8.89109 6.00549 10.4844 6.84166C11.8886 7.579 12.6242 8.46932 13.1355 9.35189C13.6666 10.2688 13.7612 11.4273 13.7612 11.8888C13.7612 12.3503 13.5257 13.0343 13.0909 13.5998Z" fill="url(#paint5_radial_10430_115115)" />
	</g>
	<defs>
		<linearGradient id="paint0_linear_10430_115115" x1="5.04297" y1="16.0223" x2="20.3691" y2="16.0223" gradientUnits="userSpaceOnUse">
			<stop stop-color="#0C59A4" />
			<stop offset="1" stop-color="#114A8B" />
		</linearGradient>
		<radialGradient id="paint1_radial_10430_115115" cx="0" cy="0" r="1" gradientUnits="userSpaceOnUse" gradientTransform="translate(13.5078 16.1431) scale(8.19672 7.78688)">
			<stop offset="0.72" stop-opacity="0" />
			<stop offset="0.95" stop-opacity="0.53" />
			<stop offset="1" />
		</radialGradient>
		<linearGradient id="paint2_linear_10430_115115" x1="13.1249" y1="9.37442" x2="3.55231" y2="19.8012" gradientUnits="userSpaceOnUse">
			<stop stop-color="#1B9DE2" />
			<stop offset="0.16" stop-color="#1595DF" />
			<stop offset="0.67" stop-color="#0680D7" />
			<stop offset="1" stop-color="#0078D4" />
		</linearGradient>
		<radialGradient id="paint3_radial_10430_115115" cx="0" cy="0" r="1" gradientUnits="userSpaceOnUse" gradientTransform="translate(6.06552 17.9096) rotate(-81.3844) scale(12.3257 9.95791)">
			<stop offset="0.76" stop-opacity="0" />
			<stop offset="0.95" stop-opacity="0.5" />
			<stop offset="1" />
		</radialGradient>
		<radialGradient id="paint4_radial_10430_115115" cx="0" cy="0" r="1" gradientUnits="userSpaceOnUse" gradientTransform="translate(2.22256 4.87857) rotate(92.2906) scale(17.4102 37.0802)">
			<stop stop-color="#35C1F1" />
			<stop offset="0.11" stop-color="#34C1ED" />
			<stop offset="0.23" stop-color="#2FC2DF" />
			<stop offset="0.31" stop-color="#2BC3D2" />
			<stop offset="0.67" stop-color="#36C752" />
		</radialGradient>
		<radialGradient id="paint5_radial_10430_115115" cx="0" cy="0" r="1" gradientUnits="userSpaceOnUse" gradientTransform="translate(20.6312 7.45922) rotate(73.7398) scale(8.36516 6.80254)">
			<stop stop-color="#66EB6E" />
			<stop offset="1" stop-color="#66EB6E" stop-opacity="0" />
		</radialGradient>
		<clipPath id="clip0_10430_115115">
			<rect width="22" height="22" fill="white" transform="translate(0 0.807129)" />
		</clipPath>
	</defs>
</svg>
