<svg width="27" height="27" viewBox="0 0 27 27" fill="none" xmlns="http://www.w3.org/2000/svg">
	<g clip-path="url(#clip0_10430_115096)">
		<path d="M23.9848 5.74776C22.818 4.20028 21.3184 2.9348 19.5968 2.04488C17.8751 1.15497 15.9755 0.66336 14.0383 0.606408C10.9949 0.545462 8.89266 1.45997 7.70325 2.19524C9.29471 1.27222 11.5978 0.748613 13.6143 0.774499C18.8012 0.840031 24.3721 4.37256 25.1994 10.7397C26.1497 18.0485 21.0588 24.1486 13.8974 24.1673C6.01874 24.1873 1.22667 17.2114 2.47933 10.9455C2.50262 10.6382 2.54784 10.3331 2.61465 10.0323C2.76922 8.42637 3.23591 6.86612 3.98854 5.4391C3.08124 5.90864 1.9259 7.39361 1.35577 8.76914C0.525837 10.8678 0.233226 13.1406 0.504503 15.381C0.524163 15.5508 0.541857 15.7202 0.564138 15.8886C0.903892 17.8449 1.68304 19.6987 2.84293 21.3104C4.00281 22.922 5.51321 24.2495 7.2604 25.193C9.00759 26.1364 10.946 26.6712 12.9298 26.7571C14.9136 26.8429 16.891 26.4776 18.7132 25.6886C20.5353 24.8996 22.1548 23.7076 23.4495 22.2022C24.7443 20.6967 25.6807 18.9172 26.1882 16.9975C26.6957 15.0778 26.7611 13.068 26.3794 11.1194C25.9978 9.17078 25.179 7.33415 23.9848 5.74776Z" fill="url(#paint0_radial_10430_115096)" />
		<path opacity="0.67" d="M23.9848 5.74776C22.818 4.20028 21.3184 2.9348 19.5968 2.04488C17.8751 1.15497 15.9755 0.66336 14.0383 0.606408C10.9949 0.545462 8.89266 1.45997 7.70325 2.19524C9.29471 1.27222 11.5978 0.748613 13.6143 0.774499C18.8012 0.840031 24.3721 4.37256 25.1994 10.7397C26.1497 18.0485 21.0588 24.1486 13.8974 24.1673C6.01874 24.1873 1.22667 17.2114 2.47933 10.9455C2.50262 10.6382 2.54784 10.3331 2.61465 10.0323C2.76922 8.42637 3.23591 6.86612 3.98854 5.4391C3.08124 5.90864 1.9259 7.39361 1.35577 8.76914C0.525837 10.8678 0.233226 13.1406 0.504503 15.381C0.524163 15.5508 0.541857 15.7202 0.564138 15.8886C0.903892 17.8449 1.68304 19.6987 2.84293 21.3104C4.00281 22.922 5.51321 24.2495 7.2604 25.193C9.00759 26.1364 10.946 26.6712 12.9298 26.7571C14.9136 26.8429 16.891 26.4776 18.7132 25.6886C20.5353 24.8996 22.1548 23.7076 23.4495 22.2022C24.7443 20.6967 25.6807 18.9172 26.1882 16.9975C26.6957 15.0778 26.7611 13.068 26.3794 11.1194C25.9978 9.17078 25.179 7.33415 23.9848 5.74776Z" fill="url(#paint1_radial_10430_115096)" />
		<path d="M23.9848 5.74776C22.818 4.20028 21.3184 2.9348 19.5968 2.04488C17.8751 1.15497 15.9755 0.66336 14.0383 0.606408C10.9949 0.545462 8.89266 1.45997 7.70325 2.19524C9.29471 1.27222 11.5978 0.748613 13.6143 0.774499C18.8012 0.840031 24.3721 4.37256 25.1994 10.7397C26.1497 18.0485 21.0588 24.1486 13.8974 24.1673C6.01874 24.1873 1.22667 17.2114 2.47933 10.9455C2.50262 10.6382 2.54784 10.3331 2.61465 10.0323C2.76922 8.42637 3.23591 6.86612 3.98854 5.4391C3.08124 5.90864 1.9259 7.39361 1.35577 8.76914C0.525837 10.8678 0.233226 13.1406 0.504503 15.381C0.524163 15.5508 0.541857 15.7202 0.564138 15.8886C0.903892 17.8449 1.68304 19.6987 2.84293 21.3104C4.00281 22.922 5.51321 24.2495 7.2604 25.193C9.00759 26.1364 10.946 26.6712 12.9298 26.7571C14.9136 26.8429 16.891 26.4776 18.7132 25.6886C20.5353 24.8996 22.1548 23.7076 23.4495 22.2022C24.7443 20.6967 25.6807 18.9172 26.1882 16.9975C26.6957 15.0778 26.7611 13.068 26.3794 11.1194C25.9978 9.17078 25.179 7.33415 23.9848 5.74776Z" fill="url(#paint2_radial_10430_115096)" />
		<path d="M23.9848 5.74776C22.818 4.20028 21.3184 2.9348 19.5968 2.04488C17.8751 1.15497 15.9755 0.66336 14.0383 0.606408C10.9949 0.545462 8.89266 1.45997 7.70325 2.19524C9.29471 1.27222 11.5978 0.748613 13.6143 0.774499C18.8012 0.840031 24.3721 4.37256 25.1994 10.7397C26.1497 18.0485 21.0588 24.1486 13.8974 24.1673C6.01874 24.1873 1.22667 17.2114 2.47933 10.9455C2.50262 10.6382 2.54784 10.3331 2.61465 10.0323C2.76922 8.42637 3.23591 6.86612 3.98854 5.4391C3.08124 5.90864 1.9259 7.39361 1.35577 8.76914C0.525837 10.8678 0.233226 13.1406 0.504503 15.381C0.524163 15.5508 0.541857 15.7202 0.564138 15.8886C0.903892 17.8449 1.68304 19.6987 2.84293 21.3104C4.00281 22.922 5.51321 24.2495 7.2604 25.193C9.00759 26.1364 10.946 26.6712 12.9298 26.7571C14.9136 26.8429 16.891 26.4776 18.7132 25.6886C20.5353 24.8996 22.1548 23.7076 23.4495 22.2022C24.7443 20.6967 25.6807 18.9172 26.1882 16.9975C26.6957 15.0778 26.7611 13.068 26.3794 11.1194C25.9978 9.17078 25.179 7.33415 23.9848 5.74776Z" fill="url(#paint3_radial_10430_115096)" />
		<path d="M23.9848 5.74776C22.818 4.20028 21.3184 2.9348 19.5968 2.04488C17.8751 1.15497 15.9755 0.66336 14.0383 0.606408C10.9949 0.545462 8.89266 1.45997 7.70325 2.19524C9.29471 1.27222 11.5978 0.748613 13.6143 0.774499C18.8012 0.840031 24.3721 4.37256 25.1994 10.7397C26.1497 18.0485 21.0588 24.1486 13.8974 24.1673C6.01874 24.1873 1.22667 17.2114 2.47933 10.9455C2.50262 10.6382 2.54784 10.3331 2.61465 10.0323C2.76922 8.42637 3.23591 6.86612 3.98854 5.4391C3.08124 5.90864 1.9259 7.39361 1.35577 8.76914C0.525837 10.8678 0.233226 13.1406 0.504503 15.381C0.524163 15.5508 0.541857 15.7202 0.564138 15.8886C0.903892 17.8449 1.68304 19.6987 2.84293 21.3104C4.00281 22.922 5.51321 24.2495 7.2604 25.193C9.00759 26.1364 10.946 26.6712 12.9298 26.7571C14.9136 26.8429 16.891 26.4776 18.7132 25.6886C20.5353 24.8996 22.1548 23.7076 23.4495 22.2022C24.7443 20.6967 25.6807 18.9172 26.1882 16.9975C26.6957 15.0778 26.7611 13.068 26.3794 11.1194C25.9978 9.17078 25.179 7.33415 23.9848 5.74776Z" fill="url(#paint4_radial_10430_115096)" />
		<path d="M25.1993 10.7397C25.3022 11.5268 25.3351 12.3214 25.2976 13.1143C25.7323 13.0487 26.1678 12.9909 26.604 12.9406C26.4659 10.3358 25.5539 7.8314 23.9847 5.74776C22.8179 4.20028 21.3183 2.9348 19.5966 2.04488C17.875 1.15497 15.9754 0.66336 14.0382 0.606408C10.9948 0.545462 8.89254 1.45997 7.70312 2.19524C9.29458 1.27222 11.5977 0.748613 13.6142 0.774499C18.8011 0.840686 24.372 4.37158 25.1993 10.7397Z" fill="url(#paint5_linear_10430_115096)" />
		<path d="M25.5175 10.3767C24.78 3.72253 18.8457 0.731625 13.6132 0.774876C11.5964 0.791259 9.29363 1.2726 7.70218 2.19562C7.28106 2.44533 6.88972 2.74213 6.5357 3.08031C6.57797 3.04525 6.70412 2.94138 6.91317 2.79786L6.93381 2.78378L6.95216 2.77132C7.72444 2.24918 8.57533 1.85404 9.47254 1.60091C10.8781 1.21242 12.3349 1.0419 13.7921 1.09533C16.4967 1.25684 19.0441 2.42018 20.9373 4.35839C22.8305 6.29659 23.9336 8.87061 24.0316 11.5782C24.1518 15.9057 20.6101 19.356 16.5274 19.5558C13.5582 19.7013 10.7606 18.2645 9.39423 15.3903C9.07459 14.7357 8.85754 14.0358 8.7507 13.3152C8.10324 8.94088 11.0407 5.21044 13.7344 4.28676C12.2813 3.0174 8.63995 3.10357 5.92985 5.0974C3.97829 6.53322 2.71221 8.71774 2.2928 11.323C1.99106 13.322 2.25672 15.3655 3.05953 17.2209C3.89341 19.1885 5.2561 20.8866 6.99639 22.1269C8.73669 23.3671 10.7866 24.1009 12.9186 24.247C13.2438 24.2719 13.5697 24.2842 13.8963 24.284C22.5669 24.284 26.3285 17.7023 25.5175 10.3767Z" fill="url(#paint6_radial_10430_115096)" />
		<path d="M25.5175 10.3767C24.78 3.72253 18.8457 0.731625 13.6132 0.774876C11.5964 0.791259 9.29363 1.2726 7.70218 2.19562C7.28106 2.44533 6.88972 2.74213 6.5357 3.08031C6.57797 3.04525 6.70412 2.94138 6.91317 2.79786L6.93381 2.78378L6.95216 2.77132C7.72444 2.24918 8.57533 1.85404 9.47254 1.60091C10.8781 1.21242 12.3349 1.0419 13.7921 1.09533C16.4967 1.25684 19.0441 2.42018 20.9373 4.35839C22.8305 6.29659 23.9336 8.87061 24.0316 11.5782C24.1518 15.9057 20.6101 19.356 16.5274 19.5558C13.5582 19.7013 10.7606 18.2645 9.39423 15.3903C9.07459 14.7357 8.85754 14.0358 8.7507 13.3152C8.10324 8.94088 11.0407 5.21044 13.7344 4.28676C12.2813 3.0174 8.63995 3.10357 5.92985 5.0974C3.97829 6.53322 2.71221 8.71774 2.2928 11.323C1.99106 13.322 2.25672 15.3655 3.05953 17.2209C3.89341 19.1885 5.2561 20.8866 6.99639 22.1269C8.73669 23.3671 10.7866 24.1009 12.9186 24.247C13.2438 24.2719 13.5697 24.2842 13.8963 24.284C22.5669 24.284 26.3285 17.7023 25.5175 10.3767Z" fill="url(#paint7_radial_10430_115096)" />
		<path style="mix-blend-mode:multiply" opacity="0.53" d="M25.5175 10.3767C24.78 3.72253 18.8457 0.731625 13.6132 0.774876C11.5964 0.791259 9.29363 1.2726 7.70218 2.19562C7.28106 2.44533 6.88972 2.74213 6.5357 3.08031C6.57797 3.04525 6.70412 2.94138 6.91317 2.79786L6.93381 2.78378L6.95216 2.77132C7.72444 2.24918 8.57533 1.85404 9.47254 1.60091C10.8781 1.21242 12.3349 1.0419 13.7921 1.09533C16.4967 1.25684 19.0441 2.42018 20.9373 4.35839C22.8305 6.29659 23.9336 8.87061 24.0316 11.5782C24.1518 15.9057 20.6101 19.356 16.5274 19.5558C13.5582 19.7013 10.7606 18.2645 9.39423 15.3903C9.07459 14.7357 8.85754 14.0358 8.7507 13.3152C8.10324 8.94088 11.0407 5.21044 13.7344 4.28676C12.2813 3.0174 8.63995 3.10357 5.92985 5.0974C3.97829 6.53322 2.71221 8.71774 2.2928 11.323C1.99106 13.322 2.25672 15.3655 3.05953 17.2209C3.89341 19.1885 5.2561 20.8866 6.99639 22.1269C8.73669 23.3671 10.7866 24.1009 12.9186 24.247C13.2438 24.2719 13.5697 24.2842 13.8963 24.284C22.5669 24.284 26.3285 17.7023 25.5175 10.3767Z" fill="url(#paint8_radial_10430_115096)" />
		<path style="mix-blend-mode:multiply" opacity="0.53" d="M25.5175 10.3767C24.78 3.72253 18.8457 0.731625 13.6132 0.774876C11.5964 0.791259 9.29363 1.2726 7.70218 2.19562C7.28106 2.44533 6.88972 2.74213 6.5357 3.08031C6.57797 3.04525 6.70412 2.94138 6.91317 2.79786L6.93381 2.78378L6.95216 2.77132C7.72444 2.24918 8.57533 1.85404 9.47254 1.60091C10.8781 1.21242 12.3349 1.0419 13.7921 1.09533C16.4967 1.25684 19.0441 2.42018 20.9373 4.35839C22.8305 6.29659 23.9336 8.87061 24.0316 11.5782C24.1518 15.9057 20.6101 19.356 16.5274 19.5558C13.5582 19.7013 10.7606 18.2645 9.39423 15.3903C9.07459 14.7357 8.85754 14.0358 8.7507 13.3152C8.10324 8.94088 11.0407 5.21044 13.7344 4.28676C12.2813 3.0174 8.63995 3.10357 5.92985 5.0974C3.97829 6.53322 2.71221 8.71774 2.2928 11.323C1.99106 13.322 2.25672 15.3655 3.05953 17.2209C3.89341 19.1885 5.2561 20.8866 6.99639 22.1269C8.73669 23.3671 10.7866 24.1009 12.9186 24.247C13.2438 24.2719 13.5697 24.2842 13.8963 24.284C22.5669 24.284 26.3285 17.7023 25.5175 10.3767Z" fill="url(#paint9_radial_10430_115096)" />
		<path d="M16.5252 19.5552C22.1282 19.2145 24.5267 14.5748 24.6771 11.2834C24.9117 6.14074 21.8609 0.596687 13.7899 1.09473C12.3326 1.04163 10.8758 1.21247 9.47031 1.6013C8.57712 1.86517 7.72782 2.25957 6.94993 2.77171L6.93158 2.78416L6.91093 2.79825C6.78555 2.88563 6.66289 2.97759 6.54297 3.07414C8.63206 1.90597 11.0459 1.45306 13.4163 1.78446C18.0501 2.3926 22.2868 5.99722 22.2868 10.7536C22.2868 14.4132 19.4588 17.2085 16.1471 17.0077C11.2272 16.7128 9.98703 11.6668 12.5464 9.4865C11.8563 9.33807 10.5595 9.62903 9.65642 10.979C8.84611 12.1914 8.89198 14.0623 9.39199 15.3897C10.0152 16.7279 11.0323 17.8438 12.307 18.5882C13.5818 19.3326 15.0535 19.67 16.5252 19.5552Z" fill="url(#paint10_radial_10430_115096)" />
		<path d="M23.9847 5.74787C23.6336 5.28823 23.2525 4.85235 22.8438 4.44311C22.5193 4.09998 22.1714 3.77964 21.8028 3.48437C22.0149 3.66908 22.2172 3.86486 22.4087 4.07089C23.1259 4.83626 23.6713 5.74607 24.0083 6.73937C24.6928 8.81315 24.6482 11.4086 23.3412 13.447C22.6155 14.5892 21.602 15.5203 20.4025 16.147C19.2031 16.7736 17.8599 17.0736 16.5078 17.0168C16.3895 17.0168 16.2702 17.0168 16.1503 17.008C11.2304 16.7131 9.99024 11.6671 12.5499 9.48682C11.8596 9.33839 10.5627 9.62936 9.65963 10.9793C8.84932 12.1917 8.8952 14.0626 9.39521 15.39C9.07568 14.7354 8.85874 14.0355 8.75201 13.3149C8.10422 8.94061 11.0417 5.21017 13.7354 4.28649C12.2822 3.01713 8.64093 3.1033 5.93083 5.09713C4.33688 6.28862 3.1762 7.9686 2.6257 9.881C2.80114 8.32914 3.26323 6.82334 3.98845 5.44019C3.08115 5.90973 1.92581 7.3947 1.35568 8.77023C0.525909 10.8686 0.233301 13.141 0.504412 15.3811C0.524072 15.5509 0.541766 15.7203 0.564047 15.8887C0.903801 17.845 1.68295 19.6988 2.84284 21.3105C4.00272 22.9221 5.51311 24.2496 7.2603 25.1931C9.00749 26.1365 10.9459 26.6713 12.9297 26.7572C14.9135 26.843 16.8909 26.4777 18.7131 25.6887C20.5352 24.8998 22.1547 23.7077 23.4495 22.2023C24.7442 20.6968 25.6806 18.9173 26.1881 16.9976C26.6956 15.0779 26.761 13.0681 26.3793 11.1195C25.9977 9.17089 25.1789 7.33425 23.9847 5.74787Z" fill="url(#paint11_linear_10430_115096)" />
		<path d="M24.0068 6.73976C23.6698 5.74642 23.1244 4.83659 22.4071 4.07127C21.5547 3.18306 20.5442 2.46157 19.4274 1.94376C18.495 1.48415 17.5118 1.13564 16.4981 0.9054C14.7111 0.514247 12.8619 0.503084 11.0703 0.872633C9.20823 1.26583 7.5709 2.07155 6.53516 3.07878C7.36102 2.61222 8.2462 2.25952 9.16661 2.03026C10.9552 1.58082 12.828 1.58833 14.6129 2.05211C16.3977 2.5159 18.0373 3.42106 19.3808 4.68433C19.9254 5.20072 20.402 5.78427 20.7993 6.42094C22.4032 9.02881 22.2515 12.3074 21.0008 14.2409C20.0719 15.6774 18.0823 17.0261 16.2261 17.0103C17.6232 17.1158 19.0226 16.8402 20.2754 16.2129C21.5281 15.5856 22.5872 14.6301 23.3397 13.4483C24.6467 11.4089 24.6913 8.81353 24.0068 6.73976Z" fill="url(#paint12_linear_10430_115096)" />
		<path d="M24.0068 6.73976C23.6698 5.74642 23.1244 4.83659 22.4071 4.07127C21.5547 3.18306 20.5442 2.46157 19.4274 1.94376C18.495 1.48415 17.5118 1.13564 16.4981 0.9054C14.7111 0.514247 12.8619 0.503084 11.0703 0.872633C9.20823 1.26583 7.5709 2.07155 6.53516 3.07878C7.36102 2.61222 8.2462 2.25952 9.16661 2.03026C10.9552 1.58082 12.828 1.58833 14.6129 2.05211C16.3977 2.5159 18.0373 3.42106 19.3808 4.68433C19.9254 5.20072 20.402 5.78427 20.7993 6.42094C22.4032 9.02881 22.2515 12.3074 21.0008 14.2409C20.0719 15.6774 18.0823 17.0261 16.2261 17.0103C17.6232 17.1158 19.0226 16.8402 20.2754 16.2129C21.5281 15.5856 22.5872 14.6301 23.3397 13.4483C24.6467 11.4089 24.6913 8.81353 24.0068 6.73976Z" fill="url(#paint13_linear_10430_115096)" />
	</g>
	<defs>
		<radialGradient id="paint0_radial_10430_115096" cx="0" cy="0" r="1" gradientUnits="userSpaceOnUse" gradientTransform="translate(23.8495 5.97221) scale(29.7452)">
			<stop stop-color="#FFF36E" />
			<stop offset="0.5" stop-color="#FC4055" />
			<stop offset="1" stop-color="#E31587" />
		</radialGradient>
		<radialGradient id="paint1_radial_10430_115096" cx="0" cy="0" r="1" gradientUnits="userSpaceOnUse" gradientTransform="translate(2.58352 7.20258) scale(17.604)">
			<stop offset="0.001" stop-color="#C60084" />
			<stop offset="1" stop-color="#FC4055" stop-opacity="0" />
		</radialGradient>
		<radialGradient id="paint2_radial_10430_115096" cx="0" cy="0" r="1" gradientUnits="userSpaceOnUse" gradientTransform="translate(26.3921 4.27951) scale(34.9285)">
			<stop stop-color="#FFDE67" stop-opacity="0.6" />
			<stop offset="0.093" stop-color="#FFD966" stop-opacity="0.581" />
			<stop offset="0.203" stop-color="#FFCA65" stop-opacity="0.525" />
			<stop offset="0.321" stop-color="#FEB262" stop-opacity="0.432" />
			<stop offset="0.446" stop-color="#FE8F5E" stop-opacity="0.302" />
			<stop offset="0.573" stop-color="#FD6459" stop-opacity="0.137" />
			<stop offset="0.664" stop-color="#FC4055" stop-opacity="0" />
		</radialGradient>
		<radialGradient id="paint3_radial_10430_115096" cx="0" cy="0" r="1" gradientUnits="userSpaceOnUse" gradientTransform="translate(14.2667 15.153) scale(45.0605)">
			<stop offset="0.153" stop-color="#810220" />
			<stop offset="0.167" stop-color="#920B27" stop-opacity="0.861" />
			<stop offset="0.216" stop-color="#CB2740" stop-opacity="0.398" />
			<stop offset="0.253" stop-color="#EF394F" stop-opacity="0.11" />
			<stop offset="0.272" stop-color="#FC4055" stop-opacity="0" />
		</radialGradient>
		<radialGradient id="paint4_radial_10430_115096" cx="0" cy="0" r="1" gradientUnits="userSpaceOnUse" gradientTransform="translate(10.8567 14.5865) scale(45.0605)">
			<stop offset="0.113" stop-color="#810220" />
			<stop offset="0.133" stop-color="#920B27" stop-opacity="0.861" />
			<stop offset="0.204" stop-color="#CB2740" stop-opacity="0.398" />
			<stop offset="0.257" stop-color="#EF394F" stop-opacity="0.11" />
			<stop offset="0.284" stop-color="#FC4055" stop-opacity="0" />
		</radialGradient>
		<linearGradient id="paint5_linear_10430_115096" x1="15.4284" y1="3.15497" x2="23.1475" y2="16.5249" gradientUnits="userSpaceOnUse">
			<stop stop-color="#FFBD4F" />
			<stop offset="0.508" stop-color="#FF9640" stop-opacity="0" />
		</linearGradient>
		<radialGradient id="paint6_radial_10430_115096" cx="0" cy="0" r="1" gradientUnits="userSpaceOnUse" gradientTransform="translate(23.1686 4.56574) scale(27.9233 27.9815)">
			<stop stop-color="#FF9640" />
			<stop offset="0.8" stop-color="#FC4055" />
		</radialGradient>
		<radialGradient id="paint7_radial_10430_115096" cx="0" cy="0" r="1" gradientUnits="userSpaceOnUse" gradientTransform="translate(23.1686 4.56574) scale(27.9233 27.9815)">
			<stop offset="0.084" stop-color="#FFDE67" />
			<stop offset="0.147" stop-color="#FFDC66" stop-opacity="0.968" />
			<stop offset="0.246" stop-color="#FFD562" stop-opacity="0.879" />
			<stop offset="0.369" stop-color="#FFCB5D" stop-opacity="0.734" />
			<stop offset="0.511" stop-color="#FFBC55" stop-opacity="0.533" />
			<stop offset="0.667" stop-color="#FFAA4B" stop-opacity="0.28" />
			<stop offset="0.822" stop-color="#FF9640" stop-opacity="0" />
		</radialGradient>
		<radialGradient id="paint8_radial_10430_115096" cx="0" cy="0" r="1" gradientUnits="userSpaceOnUse" gradientTransform="translate(16.7729 13.269) rotate(75.728) scale(13.7194 14.2907)">
			<stop offset="0.363" stop-color="#FC4055" />
			<stop offset="0.443" stop-color="#FD604D" stop-opacity="0.633" />
			<stop offset="0.545" stop-color="#FE8644" stop-opacity="0.181" />
			<stop offset="0.59" stop-color="#FF9640" stop-opacity="0" />
		</radialGradient>
		<radialGradient id="paint9_radial_10430_115096" cx="0" cy="0" r="1" gradientUnits="userSpaceOnUse" gradientTransform="translate(14.4137 14.3978) scale(13.693)">
			<stop offset="0.216" stop-color="#FC4055" stop-opacity="0.8" />
			<stop offset="0.267" stop-color="#FD5251" stop-opacity="0.633" />
			<stop offset="0.41" stop-color="#FE8345" stop-opacity="0.181" />
			<stop offset="0.474" stop-color="#FF9640" stop-opacity="0" />
		</radialGradient>
		<radialGradient id="paint10_radial_10430_115096" cx="0" cy="0" r="1" gradientUnits="userSpaceOnUse" gradientTransform="translate(28.7392 1.40434) scale(47.1955 47.294)">
			<stop offset="0.054" stop-color="#FFF36E" />
			<stop offset="0.457" stop-color="#FF9640" />
			<stop offset="0.639" stop-color="#FF9640" />
		</radialGradient>
		<linearGradient id="paint11_linear_10430_115096" x1="19.7605" y1="2.9244" x2="6.36007" y2="26.135" gradientUnits="userSpaceOnUse">
			<stop stop-color="#FFF36E" stop-opacity="0.8" />
			<stop offset="0.094" stop-color="#FFF36E" stop-opacity="0.699" />
			<stop offset="0.752" stop-color="#FFF36E" stop-opacity="0" />
		</linearGradient>
		<linearGradient id="paint12_linear_10430_115096" x1="13.708" y1="0.384417" x2="20.8232" y2="20.9855" gradientUnits="userSpaceOnUse">
			<stop stop-color="#B833E1" />
			<stop offset="0.371" stop-color="#9059FF" />
			<stop offset="0.614" stop-color="#5B6DF8" />
			<stop offset="1" stop-color="#0090ED" />
		</linearGradient>
		<linearGradient id="paint13_linear_10430_115096" x1="9.48936" y1="0.710113" x2="22.7141" y2="13.9349" gradientUnits="userSpaceOnUse">
			<stop offset="0.805" stop-color="#722291" stop-opacity="0" />
			<stop offset="1" stop-color="#592ACB" stop-opacity="0.5" />
		</linearGradient>
		<clipPath id="clip0_10430_115096">
			<rect width="26.213" height="26.213" fill="white" transform="translate(0.410156 0.603516)" />
		</clipPath>
	</defs>
</svg>
