<svg width="30" height="29" viewBox="0 0 30 29" fill="none" xmlns="http://www.w3.org/2000/svg">
	<g clip-path="url(#clip0_10430_115249)">
		<path d="M10.9463 28.4021C6.71923 28.3778 3.22266 19.7488 3.22266 15.3543C3.22266 8.17591 8.60769 6.60437 10.683 6.60437C11.6183 6.60437 12.617 6.97165 13.4979 7.29667C14.1138 7.52339 14.7509 7.75743 15.1052 7.75743C15.3173 7.75743 15.817 7.55833 16.2582 7.38365C17.1992 7.00904 18.3702 6.54346 19.7337 6.54346C19.7361 6.54346 19.7394 6.54346 19.7418 6.54346C20.7599 6.54346 23.847 6.7669 25.703 9.55409L26.1377 10.2074L25.512 10.6795C24.6182 11.354 22.9873 12.5842 22.9873 15.0212C22.9873 17.9075 24.8343 19.0175 25.7217 19.5514C26.1133 19.7871 26.5188 20.03 26.5188 20.5615C26.5188 20.9085 23.7495 28.3591 19.728 28.3591C18.7439 28.3591 18.0484 28.0633 17.4348 27.8025C16.814 27.5384 16.2785 27.3109 15.3936 27.3109C14.945 27.3109 14.3778 27.5229 13.7773 27.748C12.9567 28.0543 12.0279 28.4021 10.9739 28.4021H10.9463Z" fill="#5F626F" />
		<path d="M20.1591 0C20.2639 3.77638 17.5631 6.39625 14.8656 6.23194C14.4211 3.21826 17.5628 0 20.1591 0Z" fill="#5F626F" />
	</g>
	<defs>
		<clipPath id="clip0_10430_115249">
			<rect width="28.4021" height="28.4021" fill="white" transform="translate(0.667969)" />
		</clipPath>
	</defs>
</svg>
