<svg width="25" height="29" viewBox="0 0 25 29" fill="none" xmlns="http://www.w3.org/2000/svg">
	<g clip-path="url(#clip0_10430_115142)">
		<path d="M12.5678 4.33643C12.2964 4.52288 12.069 4.78255 11.9577 5.09299C11.8171 5.48347 11.8708 5.9208 12.0065 6.31324C12.1451 6.71543 12.3765 7.0981 12.7269 7.33922C12.9017 7.46027 13.1047 7.54227 13.3156 7.56766C13.5264 7.59304 13.7461 7.55887 13.9345 7.46027C14.1639 7.3402 14.3396 7.13129 14.448 6.89603C14.5563 6.66076 14.6032 6.40109 14.6178 6.1424C14.6364 5.81245 14.6042 5.47761 14.4958 5.1662C14.3777 4.82746 14.1649 4.51507 13.8642 4.31983C13.7139 4.22221 13.543 4.15583 13.3654 4.13045C13.1877 4.10605 13.0042 4.12459 12.8363 4.18902C12.7416 4.22709 12.6518 4.27883 12.5678 4.33643Z" fill="url(#paint0_radial_10430_115142)" />
		<path d="M12.0889 -0.000182768C11.389 -0.00799238 10.6812 0.133557 10.0652 0.466441C9.41021 0.81885 8.87428 1.38407 8.54334 2.04984C8.21339 2.71561 8.08355 3.42726 8.06403 4.21017C8.02693 5.69888 8.09722 7.25982 8.20948 8.67434C8.23975 9.10484 8.29246 9.3567 8.23779 9.79892C8.05329 10.739 7.23133 11.3716 6.79302 12.1974C6.3098 13.1082 6.10577 14.1381 5.74067 15.1026C5.40681 15.9851 4.93726 16.8129 4.62097 17.7022C4.17875 18.9459 4.04599 20.3116 4.33885 21.5983C4.56142 22.5793 5.02707 23.4989 5.65477 24.2857C5.56398 24.4497 5.47612 24.6147 5.38241 24.7768C5.0915 25.2795 4.73616 25.7559 4.57021 26.3123C4.48723 26.5906 4.45502 26.8873 4.50871 27.1724C4.5624 27.4574 4.70688 27.7308 4.93335 27.9114C5.08174 28.0295 5.26136 28.1056 5.44586 28.1486C5.63134 28.1915 5.82267 28.2023 6.01206 28.1974C6.73347 28.1818 7.4334 27.9621 8.13139 27.7796C8.5453 27.6712 8.96214 27.5746 9.38093 27.4877C10.8687 27.1831 12.5292 27.3042 13.9105 27.5053C14.3781 27.5755 14.8428 27.6683 15.3026 27.7796C16.023 27.9543 16.7405 28.1769 17.4814 28.1974C17.6767 28.2032 17.8729 28.1945 18.0633 28.1525C18.2536 28.1105 18.4381 28.0324 18.5904 27.9114C18.8179 27.7298 18.9623 27.4564 19.016 27.1704C19.0697 26.8844 19.0365 26.5866 18.9526 26.3084C18.7847 25.751 18.4264 25.2766 18.1287 24.7758C18.0115 24.5786 17.9022 24.3765 17.786 24.1784C18.6812 23.1729 19.4016 22.0112 19.8185 20.7343C20.2734 19.3403 20.3564 17.8399 20.165 16.3873C19.9737 14.9337 19.5129 13.5251 18.9057 12.1906C18.1443 10.5174 17.5049 9.91314 17.0412 8.44396C16.5404 6.85568 16.9543 4.97747 16.5814 3.53659C16.4486 3.04654 16.2368 2.57894 15.9634 2.15136C15.6442 1.6496 15.2391 1.20054 14.7569 0.851064C13.9896 0.296582 13.0378 0.0105554 12.0889 -0.000182768Z" fill="#020204" />
		<path d="M9.34405 8.38339C9.24155 8.51127 9.17517 8.66551 9.13515 8.82366C9.09512 8.98278 9.08048 9.14678 9.07365 9.30981C9.06096 9.63684 9.08146 9.9707 8.99458 10.287C8.90184 10.6248 8.69391 10.9176 8.49086 11.2027C8.13942 11.6966 7.78311 12.2033 7.60935 12.7841C7.50392 13.1355 7.46877 13.5085 7.50685 13.8736C7.11246 14.4524 6.77177 15.0665 6.48965 15.7069C6.06109 16.6772 5.76726 17.711 5.66476 18.7663C5.53785 20.0588 5.7038 21.3884 6.21436 22.5832C6.58336 23.4472 7.13394 24.2369 7.84363 24.8529C8.20483 25.1653 8.60507 25.4328 9.03362 25.6436C10.5184 26.3738 12.3537 26.3748 13.8141 25.5968C14.5775 25.1897 15.2218 24.5952 15.8426 23.9938C16.2165 23.6317 16.5884 23.2607 16.8745 22.8243C17.4241 21.9858 17.6154 20.9657 17.7345 19.9709C17.9424 18.2303 17.9493 16.3912 17.1859 14.8127C16.9233 14.2689 16.5728 13.7681 16.1531 13.3347C16.0408 12.5752 15.8202 11.8313 15.5 11.1343C15.2686 10.6306 14.9855 10.1523 14.7708 9.64172C14.6829 9.43183 14.6058 9.21804 14.5082 9.01207C14.4105 8.80706 14.2895 8.60987 14.1255 8.45173C13.9576 8.29065 13.7477 8.17644 13.5261 8.10322C13.3055 8.03001 13.0722 7.99682 12.8398 7.9851C12.3752 7.96167 11.9085 8.0222 11.4429 8.00365C11.0729 7.98901 10.7029 7.9236 10.3329 7.94605C10.1475 7.95679 9.96297 7.98998 9.79115 8.05929C9.61739 8.13056 9.45925 8.23794 9.34405 8.38339Z" fill="#FDFDFB" />
		<path opacity="0.25" d="M7.7056 13.048C7.80517 13.1964 7.64409 13.7098 9.95476 13.3818C9.95476 13.3818 9.54866 13.4267 9.14842 13.5185C8.52658 13.7264 7.98479 13.9597 7.566 14.2682C7.15209 14.5728 6.84849 14.9711 6.46875 15.3128C6.46875 15.3128 7.08376 14.1882 7.238 13.8494C7.39126 13.5107 7.21261 13.5263 7.33366 13.0284C7.45471 12.5306 7.75245 12.0513 7.75245 12.0513C7.75245 12.0513 7.51036 12.7541 7.7056 13.048Z" fill="url(#paint1_radial_10430_115142)" />
		<path opacity="0.42" d="M15.1364 12.9132C14.6649 13.2412 14.3896 13.2021 13.8176 13.2665C13.2465 13.331 11.6992 13.3075 11.6992 13.3075C11.6992 13.3075 11.9228 13.3036 12.4197 13.3954C12.9156 13.4881 13.9279 13.576 14.498 13.7927C15.0681 14.0094 15.276 14.0719 15.6226 14.2906C16.1155 14.602 16.4777 15.0911 16.9492 15.4327C16.9492 15.4327 16.9717 14.9798 16.7813 14.641C16.591 14.3023 16.0794 13.7693 15.9291 13.2704C15.7788 12.7716 15.7075 11.7935 15.7075 11.7935C15.7075 11.7935 15.6079 12.5852 15.1364 12.9132Z" fill="url(#paint2_radial_10430_115142)" />
		<path opacity="0.2" d="M10.7076 12.2119C10.69 12.3544 10.6676 12.496 10.6393 12.6356C10.6256 12.7049 10.611 12.7742 10.5846 12.8396C10.5592 12.905 10.5221 12.9675 10.4694 13.0153C10.4235 13.0563 10.3679 13.0856 10.3113 13.111C10.0916 13.2115 9.85733 13.2779 9.61719 13.3082C9.71286 13.315 9.80852 13.3238 9.90419 13.3345C9.96471 13.3414 10.0243 13.3482 10.0828 13.3638C10.1414 13.3785 10.198 13.4019 10.2468 13.438C10.3005 13.4771 10.3425 13.5308 10.3737 13.5893C10.4362 13.7055 10.4567 13.8392 10.4684 13.971C10.4831 14.1389 10.4841 14.3088 10.4714 14.4767C10.4831 14.3644 10.5065 14.2522 10.5417 14.1448C10.6051 13.9505 10.7076 13.769 10.8462 13.6186C10.9009 13.5591 10.9614 13.5044 11.0278 13.4575C11.2308 13.315 11.4886 13.2516 11.7346 13.2857C11.4847 13.2965 11.2318 13.2184 11.0327 13.068C10.9312 12.9909 10.8423 12.8962 10.7808 12.7849C10.6861 12.6122 10.6588 12.4032 10.7076 12.2119Z" fill="url(#paint3_radial_10430_115142)" />
		<path opacity="0.11" d="M10.1066 15.5352C9.9865 15.992 9.90353 16.4586 9.8596 16.9292C9.79712 17.594 9.81274 18.2636 9.77662 18.9304C9.74636 19.4966 9.67998 20.0686 9.77857 20.626C9.82543 20.8925 9.90938 21.1522 10.0275 21.3943C10.0461 21.3016 10.0597 21.2079 10.0685 21.1132C10.1105 20.6602 10.0343 20.2063 10.008 19.7523C9.96307 18.9567 10.0734 18.1621 10.1173 17.3665C10.1534 16.7583 10.1495 16.1453 10.1066 15.5352Z" fill="black" />
		<path opacity="0.25" d="M7.96502 11.0375C7.95331 10.8969 7.75319 10.8764 7.66436 10.9458C7.58919 11.0043 7.51793 11.2064 7.58333 11.2855C7.68876 11.4134 7.98064 11.2289 7.96502 11.0375Z" fill="#7C7C7C" />
		<path opacity="0.75" d="M18.0611 14.8661C18.1772 14.8485 18.8928 15.4567 18.7942 15.6822C18.6966 15.9087 18.513 15.772 18.3812 15.774C18.2495 15.7759 17.8902 15.9389 17.8297 15.8355C17.7692 15.732 17.9888 15.4918 18.103 15.2907C18.1967 15.1287 17.9449 14.8837 18.0611 14.8661Z" fill="#7C7C7C" />
		<path d="M13.6923 1.26004C13.4424 1.43673 13.5517 1.65735 13.6591 1.87797C13.7665 2.0986 13.4229 2.73703 13.419 2.76436C13.4151 2.7917 14.0964 2.44124 14.2819 2.21281C14.5016 1.94338 15.0551 2.57693 15.0248 2.48029C15.0258 2.30946 13.9432 1.08335 13.6923 1.26004Z" fill="#7C7C7C" />
		<path d="M15.5909 8.68024C15.38 8.87255 15.6895 9.1615 15.8369 9.50024C15.9286 9.7111 16.1815 10.0088 16.4255 9.96101C16.6091 9.92489 16.7233 9.66034 16.7067 9.47389C16.6735 9.11367 16.3689 9.02972 16.1483 8.90574C15.9735 8.80812 15.7393 8.54552 15.5909 8.68024Z" fill="#838384" />
		<path opacity="0.2588" d="M9.11639 10.119C9.28234 10.6012 9.61718 11.0122 10.0135 11.3334C10.1453 11.4398 10.2849 11.5384 10.4401 11.6087C10.5944 11.678 10.7652 11.718 10.9341 11.7034C11.099 11.6897 11.2572 11.6243 11.4017 11.5423C11.5461 11.4603 11.6809 11.3617 11.8205 11.2728C12.0606 11.1206 12.3183 10.9976 12.5682 10.8609C12.8689 10.6959 13.1608 10.5104 13.4136 10.2791C13.5298 10.1736 13.6381 10.0575 13.766 9.96669C13.8939 9.87591 14.0472 9.80953 14.2043 9.82026C14.3215 9.82807 14.4318 9.87786 14.547 9.90324C14.6046 9.91593 14.6641 9.92179 14.7227 9.913C14.7813 9.90422 14.8379 9.87981 14.8789 9.83686C14.9287 9.78512 14.9511 9.70995 14.9482 9.63771C14.9453 9.56548 14.9209 9.49617 14.8867 9.43174C14.8193 9.30385 14.7178 9.19354 14.6719 9.05688C14.6319 8.93485 14.6397 8.80306 14.6436 8.67518C14.6475 8.54632 14.6446 8.41258 14.5851 8.29837C14.5402 8.21149 14.464 8.14218 14.3781 8.09727C14.2912 8.05139 14.1946 8.02796 14.097 8.01918C13.9017 8.00063 13.7075 8.0387 13.5122 8.04944C13.2525 8.06408 12.9929 8.03187 12.7332 8.04749C12.4101 8.06701 12.0928 8.16073 11.7697 8.1617C11.3997 8.16268 11.0307 8.04163 10.6656 8.09922C10.5094 8.12363 10.3601 8.18123 10.2088 8.23101C10.0584 8.2808 9.9032 8.3257 9.74408 8.32277C9.56446 8.31985 9.38972 8.25737 9.2101 8.24468C9.12029 8.23784 9.02853 8.24468 8.9436 8.27592C8.85867 8.30715 8.7835 8.36573 8.74153 8.44578C8.7181 8.49166 8.70638 8.5434 8.70345 8.59416C8.7015 8.6459 8.70834 8.69763 8.72103 8.74742C8.74641 8.84797 8.79131 8.94071 8.82938 9.03735C8.96605 9.38683 8.99436 9.76755 9.11639 10.119Z" fill="black" />
		<path opacity="0.3" d="M8.65277 8.74536C8.97589 8.94451 9.26583 9.18954 9.5089 9.4697C9.7344 9.72937 9.92671 10.0232 10.2215 10.2145C10.4295 10.3502 10.6794 10.4264 10.9332 10.4498C11.2309 10.4771 11.5326 10.4332 11.8196 10.3551C12.0861 10.2829 12.3428 10.1814 12.579 10.0476C13.0281 9.79283 13.403 9.41894 13.8979 9.25104C14.0063 9.21492 14.1185 9.18856 14.223 9.14268C14.3274 9.09777 14.425 9.02944 14.4748 8.93475C14.5227 8.84298 14.5207 8.73658 14.5363 8.63603C14.5529 8.52767 14.59 8.42322 14.6105 8.31584C14.631 8.20845 14.6339 8.09326 14.5832 7.99467C14.5412 7.91267 14.4651 7.84824 14.3782 7.80724C14.2913 7.76623 14.1927 7.74769 14.0951 7.74281C13.8989 7.73402 13.7056 7.7799 13.5103 7.7965C13.2516 7.81797 12.991 7.78771 12.7313 7.79454C12.4082 7.80333 12.09 7.87069 11.7678 7.88533C11.3998 7.90095 11.0327 7.84824 10.6637 7.83555C10.5046 7.83066 10.3436 7.83262 10.1874 7.858C10.0302 7.88338 9.87595 7.93219 9.74319 8.01321C9.61433 8.09229 9.5089 8.19869 9.39078 8.29143C9.33221 8.33731 9.26875 8.38027 9.20042 8.41248C9.13111 8.44469 9.05594 8.46715 8.97882 8.47008C8.9388 8.47203 8.89878 8.4691 8.85973 8.47398C8.79335 8.48374 8.73282 8.51791 8.69377 8.56867C8.6557 8.62041 8.64008 8.68484 8.65277 8.74536Z" fill="black" />
		<path d="M18.3693 14.3996C18.9628 14.877 19.3406 15.5994 19.4568 16.352C19.5476 16.9397 19.489 17.542 19.3563 18.1219C19.2235 18.7017 19.0195 19.2621 18.8164 19.8204C18.7354 20.043 18.6544 20.2685 18.6222 20.5028C18.5899 20.7381 18.6104 20.986 18.7237 21.1949C18.8535 21.4341 19.0956 21.5981 19.3563 21.6752C19.613 21.7514 19.8912 21.7504 20.1519 21.685C20.4125 21.6206 20.8508 21.5356 21.0626 21.3716C21.6015 20.9538 21.7284 20.2275 21.8563 19.5901C21.9891 18.9253 21.9246 18.2283 21.8075 17.5566C21.6484 16.641 21.3799 15.7458 21.0382 14.8809C20.7874 14.2454 20.4652 13.6372 20.0825 13.0729C19.7067 12.5194 19.1737 12.088 18.7803 11.5462C18.6436 11.3578 18.4786 11.1625 18.3449 10.9722C18.055 10.5622 18.1204 10.6393 17.9408 10.3737C17.81 10.1814 17.604 10.1151 17.3873 10.0311C17.1705 9.94715 16.9275 9.92177 16.7029 9.98522C16.4081 10.0682 16.167 10.3005 16.0391 10.5788C15.9112 10.857 15.8888 11.1762 15.9386 11.4788C16.003 11.8693 16.1817 12.2305 16.3827 12.5712C16.6102 12.9558 16.8728 13.3258 17.2164 13.6108C17.5737 13.9115 18.0062 14.1077 18.3693 14.3996Z" fill="#020204" />
		<path d="M7.1771 11.4308C6.48692 12.2156 5.77625 12.9751 5.38577 13.8234C5.19248 14.2539 5.10169 14.7225 4.96991 15.1755C4.81957 15.6899 4.61554 16.1878 4.38711 16.673C4.17625 17.121 3.94294 17.5574 3.70963 17.9947C3.53977 18.312 3.36698 18.6371 3.30841 18.9924C3.26155 19.2736 3.28889 19.5625 3.36015 19.8388C3.43141 20.1141 3.5466 20.3767 3.67644 20.6305C4.22995 21.7121 5.05972 22.6434 6.04275 23.356C6.48887 23.6792 6.96721 23.9593 7.468 24.1887C7.73939 24.3127 8.02542 24.423 8.32413 24.4289C8.47349 24.4318 8.62383 24.4064 8.76049 24.3469C8.89716 24.2864 9.01919 24.1907 9.10021 24.0648C9.19979 23.9105 9.23395 23.7192 9.21345 23.5366C9.19295 23.3541 9.12267 23.1803 9.027 23.0232C8.79369 22.6405 8.42468 22.3632 8.07032 22.0889C7.30498 21.4964 6.56502 20.8706 5.8563 20.2107C5.65617 20.0243 5.45605 19.832 5.31646 19.5977C5.18076 19.3692 5.10657 19.1086 5.05679 18.847C4.92012 18.1295 4.95526 17.3749 5.19931 16.6866C5.29498 16.4172 5.42091 16.1605 5.54294 15.9018C5.7538 15.4537 5.95392 14.9968 6.23116 14.5868C6.57673 14.0763 7.03848 13.6438 7.31962 13.0952C7.55684 12.6325 7.65348 12.1122 7.74525 11.5997C7.81748 11.1994 7.95513 10.807 8.02541 10.4058C7.8907 10.6635 7.44848 11.0911 7.1771 11.4308Z" fill="#020204" />
		<path d="M18.4214 14.3147C18.0554 14.0443 17.6366 13.852 17.2344 13.6333C17.5878 13.9203 18.0075 14.1146 18.3629 14.3996C18.9564 14.877 19.3342 15.5994 19.4504 16.352C19.5411 16.9397 19.4826 17.542 19.3498 18.1219C19.217 18.7017 19.013 19.2621 18.81 19.8205C18.7289 20.043 18.6479 20.2685 18.6157 20.5028C18.5972 20.6375 18.5972 20.7771 18.6206 20.9109C18.6772 20.6678 18.7553 20.4306 18.8383 20.1953C19.0843 19.5003 19.3664 18.8189 19.5607 18.1053C19.7549 17.3917 19.7334 16.8792 19.6319 16.2661C19.505 15.4969 19.0569 14.7852 18.4214 14.3147Z" fill="#838384" />
		<path opacity="0.95" d="M5.85592 20.2087C5.65579 20.0222 5.45567 19.8299 5.31608 19.5956C5.18038 19.3672 5.10619 19.1065 5.05641 18.8449C4.91974 18.1274 4.95488 17.3728 5.19893 16.6846C5.2946 16.4152 5.42053 16.1584 5.54256 15.8997C5.75341 15.4516 5.95354 14.9948 6.23078 14.5848C6.34597 14.4139 6.47483 14.2519 6.60564 14.0918C6.56366 14.1035 6.52461 14.1221 6.49045 14.1474C6.44261 14.1826 6.40454 14.2314 6.38014 14.2861C6.15366 14.495 5.95744 14.7361 5.7993 15.0006C5.53865 15.436 5.38539 15.9251 5.196 16.3956C5.05543 16.7461 4.89045 17.0975 4.87093 17.4753C4.86117 17.6686 4.88948 17.8629 4.89631 18.0561C4.90314 18.2504 4.8846 18.4515 4.7899 18.6204C4.71083 18.7619 4.57807 18.8732 4.42578 18.9269C4.63274 18.9962 4.81626 19.13 4.94707 19.3047C5.05543 19.4511 5.12572 19.622 5.22041 19.7782C5.29753 19.9051 5.39124 20.0222 5.50741 20.114C5.62358 20.2057 5.7622 20.2721 5.90961 20.2907C5.92327 20.2926 5.93596 20.2926 5.94963 20.2936C5.91839 20.2643 5.88715 20.237 5.85592 20.2087Z" fill="#7C7C7C" />
		<path opacity="0.2" d="M22.3658 24.4235C22.3199 24.5748 22.2506 24.7212 22.1608 24.854C21.9626 25.1478 21.6746 25.3694 21.3866 25.5734C20.8956 25.9219 20.3841 26.2412 19.9272 26.6365C19.6207 26.902 19.3415 27.1988 19.0828 27.5112C18.8612 27.7787 18.6533 28.0598 18.4014 28.298C18.1466 28.5382 17.8469 28.7324 17.5238 28.8379C17.1314 28.9667 16.7165 28.9599 16.3377 28.8632C16.0722 28.7949 15.8145 28.6768 15.6495 28.463C15.4845 28.2482 15.4308 27.9602 15.4123 27.6771C15.3781 27.1764 15.4387 26.6648 15.4923 26.1562C15.5372 25.7335 15.5792 25.3118 15.5968 24.8901C15.628 24.1238 15.5773 23.3633 15.4738 22.6185C15.4562 22.4935 15.4377 22.3676 15.4484 22.2387C15.4592 22.1099 15.5021 21.9761 15.5919 21.8766C15.6749 21.7848 15.792 21.7301 15.9082 21.7038C16.0244 21.6774 16.1415 21.6755 16.2587 21.6725C16.533 21.6657 16.8092 21.6491 17.0806 21.6735C17.2515 21.6891 17.4184 21.7194 17.5892 21.736C17.8733 21.7633 18.1691 21.7487 18.4541 21.6657C18.7616 21.5759 19.0545 21.407 19.3659 21.3601C19.4938 21.3406 19.6227 21.3435 19.7466 21.3611C19.8735 21.3787 20.0004 21.4138 20.0981 21.4919C20.1723 21.5505 20.2269 21.6315 20.2689 21.7184C20.3323 21.8473 20.3714 21.9888 20.3929 22.1343C20.4124 22.2631 20.4192 22.3959 20.4524 22.5208C20.5071 22.7258 20.6311 22.9006 20.7804 23.0421C20.9298 23.1837 21.1035 23.2959 21.2773 23.4063C21.4511 23.5166 21.6248 23.6259 21.8103 23.7167C21.8972 23.7596 21.986 23.7977 22.07 23.8465C22.153 23.8953 22.2301 23.9559 22.2857 24.0359C22.358 24.1433 22.3882 24.2848 22.3658 24.4235Z" fill="url(#paint4_linear_10430_115142)" />
		<path d="M24.037 25.2522C23.7813 25.5558 23.4249 25.7569 23.0706 25.9375C22.4663 26.245 21.8406 26.5154 21.2724 26.8864C20.8917 27.1343 20.5403 27.4262 20.2123 27.7396C19.9311 28.008 19.6646 28.295 19.3503 28.5225C19.032 28.7519 18.665 28.9179 18.2774 28.9764C17.8059 29.0467 17.3188 28.9559 16.8815 28.7656C16.5749 28.6318 16.2801 28.4415 16.1044 28.1574C15.9277 27.8723 15.8867 27.5238 15.8867 27.189C15.8857 26.5955 15.9961 26.0088 16.0995 25.425C16.1854 24.9398 16.2674 24.4537 16.3202 23.9626C16.4158 23.0714 16.4158 22.1713 16.3514 21.2771C16.3407 21.1278 16.328 20.9764 16.3504 20.8281C16.3729 20.6797 16.4334 20.5313 16.5476 20.4337C16.653 20.3429 16.7936 20.3029 16.9322 20.296C17.0709 20.2882 17.2085 20.3107 17.3461 20.3302C17.6693 20.3771 17.9953 20.4141 18.3116 20.4981C18.5108 20.5508 18.705 20.6211 18.9042 20.6748C19.2361 20.7646 19.5846 20.8076 19.9262 20.7675C20.2943 20.7246 20.6516 20.586 21.0215 20.5957C21.1738 20.5996 21.3242 20.6279 21.4696 20.6738C21.618 20.7207 21.7635 20.7871 21.8718 20.8983C21.9548 20.9823 22.0124 21.0887 22.0553 21.198C22.1198 21.3611 22.1539 21.5358 22.1696 21.7105C22.1822 21.8658 22.1803 22.022 22.2096 22.1752C22.2584 22.4261 22.3902 22.6555 22.5542 22.8517C22.7182 23.0479 22.9144 23.2149 23.1106 23.3798C23.3058 23.5439 23.5021 23.7069 23.7129 23.8514C23.8115 23.9187 23.914 23.9822 24.0077 24.0564C24.1015 24.1306 24.1874 24.2174 24.2469 24.3219C24.326 24.4634 24.3504 24.6352 24.2996 24.7983C24.2489 24.9613 24.1532 25.1146 24.037 25.2522Z" fill="url(#paint5_linear_10430_115142)" />
		<path d="M24.0089 24.4818C23.9483 24.6331 23.8634 24.7737 23.758 24.8976C23.5237 25.172 23.1986 25.3516 22.8755 25.5136C22.3239 25.7899 21.7529 26.033 21.2335 26.3668C20.887 26.5894 20.5658 26.852 20.2651 27.1341C20.0084 27.3752 19.7653 27.6339 19.4773 27.838C19.1864 28.0449 18.8506 28.1943 18.4972 28.246C18.0667 28.3095 17.6226 28.2275 17.2223 28.0556C16.9431 27.9365 16.6737 27.7657 16.5126 27.509C16.3516 27.2532 16.3145 26.9398 16.3135 26.6382C16.3125 26.1052 16.4131 25.5771 16.5077 25.0519C16.5868 24.6155 16.662 24.1782 16.7088 23.7379C16.7957 22.9365 16.7918 22.1272 16.7372 21.3228C16.7284 21.1881 16.7176 21.0524 16.7381 20.9186C16.7586 20.7849 16.8143 20.6521 16.9168 20.5643C17.0124 20.4813 17.1413 20.4452 17.2682 20.4384C17.3951 20.4315 17.521 20.452 17.646 20.4706C17.9408 20.5135 18.2385 20.5467 18.5275 20.6209C18.7101 20.6678 18.8867 20.7312 19.0693 20.78C19.3729 20.8611 19.6902 20.8991 20.0025 20.864C20.3384 20.8249 20.6654 20.701 21.0031 20.7088C21.1418 20.7117 21.2794 20.738 21.4122 20.779C21.5469 20.821 21.6806 20.8796 21.7802 20.9801C21.8554 21.0563 21.9071 21.151 21.9481 21.2496C22.0096 21.396 22.0487 21.5522 22.0526 21.7103C22.0555 21.8753 22.0194 22.0413 22.0418 22.2053C22.0604 22.338 22.116 22.464 22.1883 22.5772C22.2605 22.6904 22.3474 22.793 22.4343 22.8955C22.6022 23.0936 22.7701 23.2957 22.98 23.447C23.2191 23.6198 23.5032 23.7213 23.7512 23.8834C23.8253 23.9312 23.8966 23.9859 23.9483 24.0571C24.0362 24.1782 24.0596 24.3422 24.0089 24.4818Z" fill="#CD8907" />
		<path d="M23.9759 24.3111C23.9085 24.4634 23.8216 24.605 23.7182 24.7309C23.478 25.0228 23.1539 25.2239 22.8122 25.3527C22.25 25.5655 21.6359 25.5938 21.0834 25.8359C20.7466 25.9833 20.444 26.2059 20.1375 26.4158C19.8895 26.5857 19.6367 26.7487 19.3643 26.8678C19.0568 27.0015 18.7298 27.0767 18.4018 27.1294C18.1929 27.1626 17.982 27.188 17.7711 27.1763C17.5603 27.1646 17.3484 27.1148 17.163 27.0074C17.0224 26.9264 16.8955 26.8082 16.8193 26.6559C16.7354 26.4871 16.7207 26.2879 16.7227 26.0966C16.7276 25.586 16.8369 25.0804 16.834 24.5698C16.8311 24.1256 16.7432 23.6863 16.7178 23.2422C16.669 22.389 16.8525 21.5202 16.6915 20.6835C16.6661 20.5498 16.6309 20.4161 16.6329 20.2784C16.6339 20.2101 16.6436 20.1408 16.668 20.0783C16.6924 20.0149 16.7305 19.9573 16.7822 19.9172C16.8252 19.884 16.8769 19.8635 16.9297 19.8538C16.9824 19.845 17.0361 19.846 17.0898 19.8548C17.1952 19.8713 17.2967 19.9123 17.3992 19.9436C17.694 20.0314 18.0054 20.0295 18.3051 20.0959C18.4935 20.1379 18.6751 20.2052 18.8616 20.256C19.1739 20.3409 19.5 20.378 19.8202 20.3399C20.1648 20.2999 20.5016 20.1749 20.8481 20.1837C20.9907 20.1876 21.1312 20.214 21.2679 20.255C21.4046 20.296 21.5422 20.3536 21.6457 20.458C21.7199 20.5332 21.7745 20.6299 21.8175 20.7304C21.8809 20.8759 21.9259 21.035 21.9239 21.1961C21.9229 21.28 21.9102 21.363 21.9034 21.446C21.8956 21.5289 21.8936 21.6148 21.9132 21.6959C21.9337 21.7769 21.9747 21.8511 22.0225 21.9175C22.0703 21.9838 22.125 22.0454 22.1738 22.1098C22.3124 22.2923 22.411 22.5051 22.5194 22.7101C22.6277 22.9151 22.7488 23.1182 22.9186 23.2656C23.151 23.4667 23.4517 23.5467 23.7103 23.7059C23.7865 23.7527 23.8597 23.8074 23.9124 23.8816C23.9554 23.9411 23.9837 24.0124 23.9944 24.0866C24.0061 24.1627 23.9993 24.2399 23.9759 24.3111Z" fill="#F5C021" />
		<path d="M16.6289 20.5693C16.9491 20.4824 17.2214 20.7254 17.4528 20.908C17.6031 21.0359 17.8189 21.0037 18.0034 21.0095C18.3079 20.9988 18.6115 21.0603 18.9161 21.0232C19.5155 20.9724 20.1041 20.825 20.7065 20.7996C20.9944 20.7811 21.3176 20.7645 21.5665 20.9334C21.667 21.0037 21.8154 21.2985 21.915 21.1872C21.874 20.8768 21.6436 20.5761 21.3351 20.4941C21.094 20.456 20.848 20.5224 20.604 20.5009C19.8796 20.4833 19.1602 20.3486 18.4339 20.3877C17.9282 20.3916 17.4235 20.3682 16.9188 20.3486C16.7206 20.3086 16.6504 20.4843 16.543 20.5517" fill="url(#paint6_linear_10430_115142)" />
		<path d="M3.96445 19.824C4.12064 19.7596 4.29636 19.7478 4.46231 19.7781C4.62826 19.8084 4.78543 19.8806 4.92503 19.9753C5.20422 20.1657 5.41215 20.4419 5.61032 20.7153C6.06621 21.343 6.5055 21.9843 6.90281 22.6511C7.22593 23.1919 7.52172 23.7503 7.89463 24.2569C8.13771 24.5878 8.413 24.8953 8.65705 25.2253C8.90207 25.5553 9.11879 25.9145 9.22715 26.3108C9.36772 26.8263 9.31305 27.3934 9.06803 27.8679C8.89524 28.2017 8.63069 28.4878 8.30952 28.682C7.98737 28.8763 7.60958 28.9759 7.23374 28.9622C6.63729 28.9397 6.09159 28.641 5.53711 28.4204C4.40667 27.9704 3.17861 27.8288 2.01302 27.4784C1.65476 27.371 1.30235 27.2431 0.942131 27.1435C0.782034 27.0996 0.619009 27.0606 0.467697 26.9922C0.316386 26.9239 0.174837 26.8214 0.090884 26.6779C0.0254785 26.5676 -0.0018551 26.4368 9.7297e-05 26.3079C0.0020497 26.1791 0.032312 26.0531 0.0752648 25.9321C0.163123 25.691 0.303696 25.4723 0.399363 25.2331C0.555556 24.8436 0.582889 24.4141 0.562389 23.9953C0.540913 23.5765 0.473555 23.1616 0.445245 22.7428C0.432554 22.5564 0.427673 22.367 0.462816 22.1825C0.49796 21.998 0.578008 21.8193 0.712724 21.6885C0.836701 21.5685 1.00168 21.4972 1.17154 21.462C1.3414 21.4269 1.51516 21.425 1.68697 21.4289C1.85976 21.4328 2.03255 21.4415 2.20436 21.4279C2.37617 21.4142 2.54896 21.3752 2.69929 21.2893C2.84182 21.2082 2.95799 21.0872 3.05463 20.9544C3.15127 20.8217 3.22937 20.6762 3.30942 20.5337C3.38947 20.3902 3.47244 20.2477 3.5769 20.1207C3.68428 19.9968 3.81314 19.8874 3.96445 19.824Z" fill="url(#paint7_linear_10430_115142)" />
		<path d="M4.21186 20.0938C4.35438 20.0362 4.5135 20.0303 4.66286 20.0645C4.81222 20.0987 4.95084 20.1709 5.07189 20.2646C5.31399 20.4511 5.48189 20.7146 5.64297 20.9743C6.03052 21.602 6.40928 22.2365 6.76755 22.8847C7.03893 23.3719 7.29665 23.8697 7.63051 24.3178C7.85113 24.6146 8.10397 24.8869 8.32947 25.1808C8.55497 25.4746 8.75607 25.7938 8.85564 26.1501C8.9845 26.6099 8.93179 27.1176 8.70921 27.5393C8.54912 27.8429 8.30409 28.1006 8.00733 28.2724C7.71056 28.4442 7.36498 28.5311 7.02234 28.5155C6.47567 28.4901 5.97683 28.2177 5.46237 28.0323C4.47641 27.674 3.40747 27.6262 2.39515 27.347C2.03298 27.2484 1.67862 27.1176 1.31449 27.0258C1.15342 26.9848 0.989418 26.9516 0.836154 26.8872C0.682891 26.8227 0.538413 26.7222 0.455436 26.5787C0.393935 26.4713 0.368554 26.3454 0.372459 26.2224C0.376364 26.0994 0.407602 25.9773 0.451531 25.8622C0.539389 25.6308 0.67801 25.4219 0.766844 25.1915C0.90156 24.843 0.918155 24.4594 0.892774 24.0855C0.867393 23.7116 0.802963 23.3426 0.780511 22.9697C0.770749 22.8027 0.768796 22.6339 0.802963 22.4699C0.83713 22.3059 0.908393 22.1467 1.02651 22.0296C1.15537 21.9017 1.33304 21.8324 1.51266 21.8051C1.69228 21.7777 1.87483 21.7894 2.05445 21.806C2.23505 21.8217 2.41662 21.8422 2.59722 21.8314C2.77879 21.8207 2.96232 21.7768 3.11168 21.6743C3.24835 21.5825 3.35085 21.4478 3.42797 21.3033C3.50606 21.1598 3.56171 21.0046 3.62125 20.8523C3.6808 20.7 3.74523 20.5477 3.83797 20.412C3.93364 20.2744 4.05859 20.1553 4.21186 20.0938Z" fill="#D99A03" />
		<path d="M4.07993 19.7393C4.21757 19.671 4.37962 19.6573 4.53093 19.6876C4.68224 19.7188 4.82184 19.792 4.94094 19.8887C5.17815 20.081 5.32946 20.3563 5.47004 20.6257C5.79218 21.2446 6.09285 21.8772 6.47943 22.459C6.7596 22.8817 7.08272 23.2751 7.36582 23.6959C7.75044 24.266 8.06283 24.8937 8.19168 25.5663C8.27857 26.0182 8.27564 26.5064 8.05794 26.9144C7.91444 27.1829 7.68211 27.4025 7.40779 27.5401C7.13348 27.6778 6.81817 27.7334 6.51067 27.7061C6.02745 27.6632 5.58816 27.4259 5.13227 27.26C4.32495 26.9661 3.45125 26.8959 2.62051 26.6733C2.27005 26.5796 1.92643 26.4585 1.57109 26.3843C1.41392 26.3511 1.2548 26.3277 1.10447 26.2711C0.955107 26.2145 0.812582 26.1208 0.736438 25.9831C0.682747 25.8855 0.664199 25.7713 0.672985 25.661C0.680795 25.5506 0.713986 25.4433 0.756938 25.3408C0.84382 25.1358 0.971703 24.9483 1.03906 24.7375C1.13766 24.427 1.09763 24.0893 1.02344 23.772C0.94925 23.4547 0.841868 23.1433 0.809653 22.8192C0.79501 22.6748 0.79501 22.5274 0.828201 22.3868C0.861392 22.2452 0.92875 22.1095 1.03418 22.008C1.16987 21.8772 1.36023 21.8128 1.54961 21.7942C1.739 21.7757 1.92936 21.8011 2.11776 21.8274C2.30617 21.8548 2.49555 21.884 2.68493 21.8753C2.87529 21.8665 3.06858 21.8167 3.21696 21.7005C3.36437 21.5853 3.45711 21.4145 3.50982 21.2368C3.56254 21.0591 3.58011 20.8746 3.60159 20.6911C3.62306 20.5076 3.6504 20.3221 3.72166 20.1513C3.79097 19.9804 3.91202 19.8223 4.07993 19.7393Z" fill="#F5BD0C" />
		<path d="M5.80078 21.2837C6.05557 21.7435 6.21079 22.2716 6.46265 22.7363C6.69498 23.1629 6.95855 23.6022 7.1948 23.9966C7.30023 24.1723 7.54428 24.4407 7.79223 24.8595C8.01676 25.2383 8.24324 25.7674 8.37014 25.945C8.29693 25.7371 8.14757 25.1787 7.96892 24.7814C7.80199 24.4095 7.60773 24.1977 7.48766 23.9975C7.25142 23.6041 6.9976 23.2498 6.75551 22.8749C6.42165 22.3556 6.16588 21.7767 5.80078 21.2837Z" fill="url(#paint8_linear_10430_115142)" />
		<path opacity="0.35" d="M20.9415 21.2518C20.8868 21.1444 20.7863 21.0634 20.675 21.0175C20.5637 20.9706 20.4407 20.956 20.3206 20.957C20.0795 20.9589 19.8393 21.0214 19.5982 21.0009C19.3952 20.9833 19.2019 20.9072 19.0037 20.8584C18.7987 20.8086 18.582 20.7891 18.379 20.8447C18.1613 20.9042 17.9699 21.0487 17.8499 21.2401C17.7444 21.408 17.6937 21.6061 17.678 21.8043C17.6624 22.0025 17.679 22.2016 17.6995 22.3988C17.7142 22.5413 17.7298 22.6848 17.7649 22.8244C17.7991 22.964 17.8528 23.0997 17.9377 23.2169C18.0588 23.3848 18.2384 23.5039 18.4326 23.5751C18.7489 23.6923 19.1091 23.6864 19.4215 23.5576C19.9741 23.3174 20.4417 22.8879 20.7267 22.3568C20.8292 22.1665 20.9083 21.9644 20.959 21.7545C20.9795 21.6715 20.9952 21.5866 20.9961 21.5007C20.9952 21.4158 20.9795 21.3279 20.9415 21.2518Z" fill="url(#paint9_radial_10430_115142)" />
		<path opacity="0.35" d="M20.9415 20.9441C20.8868 20.8661 20.7863 20.8085 20.675 20.7743C20.5637 20.7411 20.4407 20.7304 20.3206 20.7304C20.0795 20.7313 19.8393 20.7772 19.5982 20.7626C19.3952 20.7499 19.2019 20.6942 19.0037 20.6601C18.7987 20.624 18.582 20.6103 18.379 20.6503C18.1613 20.6933 17.9699 20.7977 17.8499 20.9354C17.7444 21.0564 17.6937 21.1999 17.678 21.3434C17.6624 21.4869 17.679 21.6304 17.6995 21.7729C17.7142 21.8764 17.7298 21.9799 17.7649 22.0804C17.7991 22.181 17.8528 22.2796 17.9377 22.3635C18.0588 22.4846 18.2384 22.5715 18.4326 22.6232C18.7489 22.7081 19.1091 22.7033 19.4215 22.6105C19.9741 22.4368 20.4417 22.1263 20.7267 21.7427C20.8292 21.605 20.9083 21.4586 20.959 21.3073C20.9795 21.2468 20.9952 21.1853 20.9961 21.1238C20.9952 21.0623 20.9795 20.9988 20.9415 20.9441Z" fill="url(#paint10_radial_10430_115142)" />
		<path d="M21.4018 20.2451C21.3618 20.1377 21.2925 20.042 21.2075 19.9649C21.1226 19.8878 21.0221 19.8292 20.9166 19.7843C20.7058 19.6945 20.4754 19.6613 20.2499 19.6184C20.0371 19.5783 19.8262 19.5295 19.6124 19.4934C19.3908 19.4553 19.1614 19.4319 18.9418 19.4807C18.7495 19.5237 18.5728 19.6232 18.4273 19.756C18.2819 19.8888 18.1686 20.0547 18.0876 20.2334C17.9441 20.5487 17.8992 20.904 17.9265 21.2486C17.947 21.5053 18.0124 21.7709 18.1813 21.9651C18.318 22.1223 18.5123 22.2209 18.7114 22.2795C19.056 22.381 19.4309 22.3761 19.7716 22.2639C20.3348 22.0754 20.8337 21.7006 21.1704 21.2115C21.2817 21.0504 21.3764 20.8747 21.4194 20.6844C21.4516 20.5409 21.4535 20.3847 21.4018 20.2451Z" fill="#020204" />
		<path d="M19.0613 19.3795C19.0076 19.3824 18.9559 19.3882 18.9032 19.398C18.5644 19.4585 18.254 19.6723 18.0792 19.9681C17.9562 20.177 17.8996 20.425 17.9172 20.6671C17.924 20.4972 17.9689 20.3303 18.0519 20.1819C18.1915 19.93 18.4453 19.7397 18.7294 19.6879C18.9041 19.6557 19.0838 19.6752 19.2604 19.6967C19.4293 19.7182 19.6002 19.7397 19.7671 19.7758C20.0248 19.8314 20.2796 19.9173 20.4963 20.0687C20.5471 20.1038 20.5939 20.1438 20.634 20.1907C20.674 20.2375 20.7042 20.2922 20.716 20.3527C20.7335 20.4406 20.7082 20.5333 20.6642 20.6124C20.6203 20.6905 20.5607 20.7598 20.4963 20.8233C20.4446 20.875 20.3899 20.9238 20.3343 20.9726C20.5842 20.9238 20.837 20.8555 21.0449 20.71C21.1328 20.6485 21.2128 20.5753 21.2646 20.4816C21.3163 20.3879 21.3388 20.2746 21.3134 20.1702C21.2958 20.0999 21.2578 20.0355 21.2099 19.9808C21.1621 19.9261 21.1045 19.8822 21.0449 19.8402C20.7833 19.6567 20.4778 19.5396 20.1605 19.5015C19.9575 19.4644 19.7525 19.4322 19.5475 19.4068C19.3864 19.3863 19.2224 19.3707 19.0613 19.3795Z" fill="url(#paint11_radial_10430_115142)" />
		<path d="M19.0613 19.3795C19.0076 19.3824 18.9559 19.3882 18.9032 19.398C18.5644 19.4585 18.254 19.6723 18.0792 19.9681C17.9562 20.177 17.8996 20.425 17.9172 20.6671C17.924 20.4972 17.9689 20.3303 18.0519 20.1819C18.1915 19.93 18.4453 19.7397 18.7294 19.6879C18.9041 19.6557 19.0838 19.6752 19.2604 19.6967C19.4293 19.7182 19.6002 19.7397 19.7671 19.7758C20.0248 19.8314 20.2796 19.9173 20.4963 20.0687C20.5471 20.1038 20.5939 20.1438 20.634 20.1907C20.674 20.2375 20.7042 20.2922 20.716 20.3527C20.7335 20.4406 20.7082 20.5333 20.6642 20.6124C20.6203 20.6905 20.5607 20.7598 20.4963 20.8233C20.4446 20.875 20.3899 20.9238 20.3343 20.9726C20.5842 20.9238 20.837 20.8555 21.0449 20.71C21.1328 20.6485 21.2128 20.5753 21.2646 20.4816C21.3163 20.3879 21.3388 20.2746 21.3134 20.1702C21.2958 20.0999 21.2578 20.0355 21.2099 19.9808C21.1621 19.9261 21.1045 19.8822 21.0449 19.8402C20.7833 19.6567 20.4778 19.5396 20.1605 19.5015C19.9575 19.4644 19.7525 19.4322 19.5475 19.4068C19.3864 19.3863 19.2224 19.3707 19.0613 19.3795Z" fill="url(#paint12_linear_10430_115142)" />
		<path d="M9.4949 4.33585C9.32114 4.34561 9.15519 4.42566 9.0273 4.54475C8.9004 4.66385 8.81059 4.81907 8.75494 4.98404C8.64463 5.314 8.66904 5.67226 8.69442 6.01979C8.71687 6.33413 8.7403 6.6553 8.85842 6.94718C8.91699 7.09361 8.99997 7.23125 9.11028 7.34352C9.22059 7.45578 9.35921 7.54266 9.51248 7.58073C9.65598 7.61685 9.80924 7.60904 9.94981 7.56511C10.0904 7.52119 10.2192 7.44016 10.3257 7.33668C10.4799 7.18537 10.5834 6.98818 10.6429 6.78123C10.7025 6.57427 10.7191 6.35658 10.7161 6.14084C10.7122 5.87141 10.6771 5.60003 10.5922 5.34426C10.5072 5.0885 10.3725 4.8464 10.1851 4.65214C10.0943 4.55842 9.98984 4.47544 9.87269 4.41785C9.75653 4.3622 9.62571 4.32901 9.4949 4.33585Z" fill="url(#paint13_radial_10430_115142)" />
		<path d="M9.07593 5.77617C9.03981 5.99582 9.03786 6.22523 9.11401 6.43413C9.16379 6.57178 9.24579 6.69771 9.34537 6.80509C9.41077 6.87537 9.48496 6.9398 9.57185 6.9808C9.65873 7.0218 9.75928 7.04035 9.85202 7.01692C9.93792 6.99545 10.0131 6.9398 10.0687 6.87049C10.1244 6.80118 10.1615 6.71918 10.1878 6.63425C10.2659 6.38435 10.2532 6.11101 10.1761 5.8611C10.1195 5.67855 10.0268 5.50284 9.88033 5.37984C9.81102 5.32126 9.72901 5.27538 9.64116 5.25391C9.55232 5.23243 9.45665 5.23731 9.37368 5.27538C9.28191 5.31736 9.21065 5.39643 9.16379 5.48624C9.11693 5.57703 9.09253 5.6766 9.07593 5.77617Z" fill="#020204" />
		<path d="M9.53943 5.61819C9.56286 5.6797 9.64193 5.70215 9.68586 5.75291C9.72784 5.80172 9.77274 5.85151 9.7952 5.91106C9.83913 6.02625 9.75127 6.19611 9.84401 6.27713C9.87329 6.30251 9.93089 6.30349 9.96018 6.27713C10.0724 6.17561 10.0471 5.9706 10.0031 5.82613C9.9631 5.69531 9.86353 5.57036 9.74151 5.50788C9.68489 5.4786 9.59996 5.45517 9.55115 5.49617C9.52088 5.52253 9.52479 5.58012 9.53943 5.61819Z" fill="url(#paint14_linear_10430_115142)" />
		<path d="M8.67676 5.44213C8.80855 5.28789 8.94619 5.1395 9.11898 5.03603C9.38158 4.87984 9.70079 4.84372 10.0044 4.87203C10.1391 4.88472 10.2728 4.9101 10.4046 4.94036C10.3412 4.83786 10.2699 4.74024 10.185 4.65336C10.0942 4.55964 9.98975 4.47666 9.87261 4.41907C9.75546 4.36147 9.62465 4.32828 9.49384 4.33609C9.32007 4.34585 9.15412 4.4259 9.02624 4.545C8.89836 4.66409 8.80952 4.81931 8.75388 4.98429C8.70507 5.13267 8.68359 5.28593 8.67676 5.44213Z" fill="url(#paint15_linear_10430_115142)" />
		<path d="M10.2094 4.14277C10.4535 4.37218 10.636 4.6543 10.758 4.95399C10.7044 4.62404 10.6194 4.35851 10.4047 4.14277C10.2729 4.01879 10.1225 3.91043 9.95366 3.83429C9.80528 3.76791 9.6403 3.72593 9.54561 3.72398C9.45092 3.72203 9.42847 3.72398 9.40894 3.72496C9.38942 3.72593 9.3738 3.72691 9.4353 3.73374C9.4968 3.74058 9.63347 3.77767 9.78087 3.84405C9.92828 3.91043 10.0776 4.01879 10.2094 4.14277Z" fill="url(#paint16_linear_10430_115142)" />
		<path d="M12.5717 4.33594C12.3003 4.5224 12.0729 4.78206 11.9616 5.0925C11.821 5.48298 11.8747 5.92032 12.0104 6.31275C12.149 6.71494 12.3804 7.09761 12.7308 7.33874C12.9056 7.45978 13.1086 7.54178 13.3195 7.56717C13.5303 7.59255 13.75 7.55838 13.9384 7.45978C14.1678 7.33971 14.3435 7.1308 14.4519 6.89554C14.5602 6.66028 14.6071 6.40061 14.6217 6.14191C14.6403 5.81196 14.6081 5.47712 14.4997 5.16571C14.3816 4.82697 14.1688 4.51459 13.8681 4.31935C13.7178 4.22173 13.5469 4.15534 13.3693 4.12996C13.1916 4.10556 13.0081 4.12411 12.8402 4.18853C12.7455 4.22661 12.6557 4.27835 12.5717 4.33594Z" fill="url(#paint17_radial_10430_115142)" />
		<path d="M13.1972 5.15625C13.0947 5.16308 12.9961 5.19823 12.9092 5.25289C12.8223 5.30756 12.7491 5.38175 12.6905 5.46571C12.5743 5.63459 12.5236 5.84155 12.5158 6.04557C12.5099 6.19884 12.5265 6.35503 12.5773 6.49951C12.628 6.64398 12.7139 6.7787 12.8321 6.87632C12.9531 6.97687 13.1073 7.03642 13.2635 7.04423C13.4207 7.05204 13.5798 7.00615 13.7087 6.91634C13.8112 6.84508 13.8942 6.74648 13.9537 6.63617C14.0123 6.52586 14.0484 6.40384 14.065 6.27888C14.0933 6.05924 14.0611 5.83081 13.9596 5.63361C13.858 5.4374 13.6862 5.27535 13.4783 5.19823C13.3895 5.16699 13.2928 5.14942 13.1972 5.15625Z" fill="#020204" />
		<path d="M13.4415 5.82476C13.3566 5.85795 13.2228 5.83745 13.1857 5.92043C13.1642 5.96924 13.1945 6.05027 13.2443 6.07077C13.3448 6.11177 13.501 6.03758 13.542 5.93605C13.5596 5.89212 13.5332 5.82281 13.4893 5.80426C13.4737 5.79841 13.4571 5.81891 13.4415 5.82476Z" fill="#141413" />
		<path d="M13.8303 6.04453C13.9435 5.93129 13.7492 5.63062 13.5979 5.50762C13.4886 5.41878 13.1694 5.32507 13.183 5.42171C13.1967 5.51836 13.3402 5.64331 13.4359 5.738C13.555 5.85515 13.7766 6.0992 13.8303 6.04453Z" fill="url(#paint18_linear_10430_115142)" />
		<path d="M12.3407 4.89579C12.9352 4.71227 13.6098 4.78451 14.1349 5.11837C14.2911 5.21794 14.4337 5.33801 14.5781 5.45418C14.5586 5.35656 14.5332 5.26089 14.501 5.16718C14.3829 4.82843 14.1701 4.51605 13.8694 4.32081C13.7191 4.22319 13.5483 4.15681 13.3706 4.13143C13.1929 4.10702 13.0094 4.12557 12.8415 4.19C12.7458 4.22709 12.657 4.27883 12.573 4.33643C12.3173 4.51215 12.1015 4.75424 11.9844 5.04222C12.0996 4.98463 12.2177 4.93386 12.3407 4.89579Z" fill="url(#paint19_linear_10430_115142)" />
		<path d="M13.5166 3.53271C13.4697 3.59129 13.4277 3.65474 13.3945 3.72503C13.6044 3.76993 13.8045 3.85681 13.9832 3.97493C14.3297 4.20434 14.5923 4.54113 14.7759 4.91404C14.8188 4.86621 14.8579 4.81544 14.892 4.75882C14.7065 4.36932 14.4391 4.01789 14.0808 3.77969C13.909 3.66548 13.7167 3.57957 13.5166 3.53271Z" fill="url(#paint20_linear_10430_115142)" />
		<path d="M10.3105 6.63038C10.4833 6.43612 10.6014 6.19988 10.7664 5.99976C10.8494 5.90018 10.9451 5.80842 11.0573 5.74399C11.1696 5.67956 11.3004 5.64247 11.4302 5.65321C11.5737 5.6659 11.7085 5.73716 11.8139 5.83575C11.9193 5.93435 11.9974 6.0593 12.0599 6.19011C12.1194 6.31507 12.1673 6.44783 12.2532 6.55619C12.3449 6.67138 12.4738 6.75045 12.59 6.84124C12.6485 6.88712 12.7042 6.93593 12.7501 6.99353C12.7959 7.05112 12.8321 7.11848 12.8467 7.19072C12.8613 7.26393 12.8545 7.34203 12.8282 7.41232C12.8028 7.4826 12.7588 7.54606 12.7052 7.59779C12.5968 7.70225 12.4504 7.75789 12.302 7.77839C12.0052 7.82037 11.7055 7.73153 11.4058 7.74032C11.1022 7.7491 10.8064 7.85551 10.5028 7.84477C10.3515 7.83891 10.1973 7.80182 10.0733 7.71591C10.0108 7.67296 9.95715 7.61732 9.91712 7.55191C9.87807 7.48651 9.85367 7.41232 9.85172 7.33617C9.84977 7.26393 9.86636 7.19169 9.89467 7.12531C9.92396 7.05893 9.96398 6.99841 10.0099 6.94179C10.1026 6.83245 10.2149 6.73874 10.3105 6.63038Z" fill="url(#paint21_radial_10430_115142)" />
		<path d="M8.66797 8.50183C8.67383 8.53111 8.68456 8.55845 8.70018 8.58383C8.72654 8.62776 8.76364 8.6629 8.80464 8.69219C8.84564 8.72245 8.88957 8.74686 8.93252 8.77419C9.15997 8.91769 9.34643 9.11879 9.51043 9.3316C9.73203 9.61665 9.92727 9.93294 10.2231 10.1409C10.432 10.2873 10.6819 10.3713 10.9347 10.3966C11.2324 10.4269 11.5341 10.3781 11.8211 10.2941C12.0876 10.216 12.3443 10.1057 12.5806 9.96028C13.0296 9.68304 13.4045 9.27791 13.8994 9.09536C14.0078 9.05534 14.12 9.02703 14.2245 8.97822C14.329 8.92941 14.4266 8.85619 14.4764 8.75174C14.5242 8.65216 14.5222 8.53697 14.5379 8.42764C14.5545 8.31049 14.5916 8.19725 14.6121 8.08011C14.6326 7.96394 14.6355 7.83899 14.5847 7.7316C14.5427 7.64277 14.4666 7.57248 14.3797 7.52855C14.2928 7.48365 14.1942 7.46412 14.0966 7.45924C13.9004 7.44948 13.7071 7.50024 13.5119 7.51782C13.2532 7.54124 12.9925 7.50805 12.7329 7.51586C12.4097 7.52563 12.0915 7.59786 11.7694 7.61446C11.4013 7.63203 11.0343 7.57541 10.6653 7.56077C10.5062 7.55393 10.3451 7.55589 10.1879 7.58322C10.0307 7.61056 9.87553 7.66327 9.74472 7.75406C9.61684 7.84289 9.51434 7.96296 9.39719 8.06449C9.33862 8.11525 9.27517 8.16211 9.20488 8.19628C9.13459 8.23044 9.05747 8.25094 8.98035 8.24997C8.94033 8.24899 8.89933 8.24216 8.86126 8.25485C8.83783 8.26266 8.81635 8.2773 8.79878 8.29487C8.78121 8.31245 8.76657 8.33295 8.75192 8.35345C8.72068 8.39835 8.69237 8.44911 8.66797 8.50183Z" fill="url(#paint22_radial_10430_115142)" />
		<path d="M10.1117 8.8992C10.0736 9.05539 10.097 9.22428 10.1741 9.36485C10.2522 9.50542 10.383 9.61476 10.5353 9.66552C10.7286 9.72995 10.9463 9.69871 11.1259 9.60402C11.2304 9.54935 11.3261 9.47223 11.3866 9.37168C11.4168 9.32092 11.4373 9.2643 11.4452 9.20573C11.453 9.14716 11.4471 9.08663 11.4276 9.03099C11.4051 8.97046 11.3651 8.91677 11.3153 8.8748C11.2655 8.83282 11.2079 8.80256 11.1464 8.78206C11.0234 8.74106 10.8916 8.74106 10.7628 8.74691C10.5666 8.75668 10.3723 8.78108 10.18 8.82013" fill="#D9B30D" />
		<path d="M9.4796 7.68713C9.34879 7.76425 9.22286 7.84918 9.09888 7.93704C9.03445 7.98292 8.96905 8.03173 8.93488 8.10299C8.91048 8.15278 8.9056 8.21037 8.90462 8.26602C8.90364 8.32166 8.90755 8.3773 8.89974 8.43295C8.89486 8.47102 8.88509 8.50812 8.88314 8.54619C8.88217 8.56474 8.88314 8.58426 8.889 8.60281C8.89388 8.62135 8.90267 8.63893 8.91633 8.65259C8.93293 8.67016 8.95636 8.68188 8.97979 8.68871C9.00322 8.69555 9.02762 8.69945 9.05202 8.70531C9.16624 8.73264 9.26679 8.80293 9.35367 8.88102C9.44055 8.95912 9.51963 9.04795 9.61139 9.12312C9.85934 9.32422 10.1864 9.40817 10.5056 9.41305C10.8248 9.41793 11.1401 9.35155 11.4525 9.28127C11.6975 9.2266 11.9416 9.169 12.1778 9.08212C12.539 8.94838 12.8748 8.74728 13.1657 8.49445C13.2975 8.38023 13.4215 8.2543 13.5689 8.16059C13.6997 8.07859 13.8462 8.02392 13.9799 7.94582C13.9916 7.93899 14.0033 7.93118 14.0141 7.9224C14.0248 7.91361 14.0346 7.90287 14.0404 7.89116C14.0512 7.86968 14.0512 7.8443 14.0443 7.82087C14.0375 7.79842 14.0238 7.77792 14.0092 7.75937C13.9926 7.73887 13.974 7.72032 13.9535 7.70275C13.8149 7.58365 13.6255 7.5407 13.443 7.52606C13.2604 7.51141 13.0759 7.52215 12.8953 7.49189C12.7255 7.46358 12.5644 7.40013 12.4004 7.34741C12.2286 7.29177 12.0529 7.24882 11.8742 7.21953C11.4554 7.1512 11.023 7.16389 10.6071 7.25077C10.2098 7.33277 9.82811 7.48115 9.4796 7.68713Z" fill="#604405" />
		<path d="M9.43721 7.24558C9.2488 7.37249 9.07894 7.52673 8.93544 7.70342C8.85344 7.80397 8.77925 7.9133 8.73727 8.0363C8.70506 8.13295 8.69335 8.23545 8.67285 8.336C8.66504 8.37309 8.65625 8.41116 8.65625 8.44923C8.65625 8.46876 8.65918 8.48731 8.66504 8.50585C8.67089 8.5244 8.68065 8.541 8.69335 8.55467C8.71482 8.57712 8.74606 8.58981 8.7773 8.59664C8.80854 8.60348 8.83978 8.60445 8.87199 8.60738C9.01354 8.62398 9.14435 8.69231 9.26247 8.77333C9.38059 8.85436 9.48895 8.94905 9.60902 9.02519C9.87552 9.19408 10.1938 9.26924 10.5101 9.28096C10.8254 9.29267 11.1407 9.24484 11.4501 9.18334C11.6961 9.13453 11.9412 9.07596 12.1755 8.98419C12.5327 8.84362 12.8549 8.62593 13.1634 8.39652C13.303 8.29207 13.4416 8.18468 13.5665 8.06266C13.6095 8.02166 13.6505 7.97871 13.6964 7.94063C13.7423 7.90256 13.793 7.87035 13.8496 7.8518C13.9355 7.82447 14.0293 7.83228 14.1181 7.84692C14.1855 7.85766 14.2528 7.87328 14.3202 7.87035C14.3543 7.86937 14.3885 7.86351 14.4197 7.85082C14.451 7.83813 14.4803 7.81861 14.5017 7.79225C14.53 7.75809 14.5447 7.71318 14.5447 7.66827C14.5447 7.62337 14.531 7.57944 14.5086 7.54039C14.4637 7.46327 14.3846 7.41153 14.3026 7.37444C14.1903 7.32465 14.0693 7.30025 13.9502 7.27096C13.5841 7.1831 13.2297 7.05229 12.892 6.88536C12.7241 6.80238 12.562 6.70964 12.3971 6.62179C12.2272 6.531 12.0554 6.44412 11.8709 6.3875C11.4599 6.26254 11.0099 6.30355 10.6038 6.44509C10.1547 6.60226 9.74667 6.88146 9.43721 7.24558Z" fill="url(#paint23_linear_10430_115142)" />
		<path d="M12.3271 7.33563C12.3047 7.30732 12.2734 7.2878 12.2393 7.27804C12.2051 7.26827 12.169 7.2673 12.1338 7.27316C12.0636 7.28487 12.0011 7.32294 11.9415 7.36297C11.7746 7.47816 11.6272 7.61971 11.4983 7.7759C11.3275 7.98285 11.1879 8.22202 11.1401 8.4856C11.1323 8.5305 11.1264 8.57541 11.1323 8.62031C11.1381 8.66522 11.1547 8.70915 11.1869 8.74136C11.2152 8.76967 11.2533 8.78626 11.2924 8.79212C11.3314 8.79798 11.3724 8.79212 11.4095 8.77943C11.4847 8.75405 11.5471 8.70134 11.6057 8.64862C11.9318 8.35674 12.2256 8.00726 12.3437 7.58652C12.3554 7.54454 12.3652 7.50061 12.3652 7.45766C12.3662 7.41568 12.3545 7.3698 12.3271 7.33563Z" fill="#F6DA4A" />
		<path opacity="0.8" d="M11.5442 6.73093C11.5666 6.80317 11.6838 6.79146 11.7511 6.8266C11.8107 6.85686 11.8575 6.92422 11.9249 6.92617C11.9883 6.92812 12.0869 6.90372 12.0957 6.84124C12.1065 6.75827 11.9854 6.70457 11.9063 6.67431C11.8058 6.63526 11.6769 6.61476 11.5822 6.66748C11.5608 6.67919 11.5373 6.7075 11.5442 6.73093Z" fill="url(#paint24_radial_10430_115142)" />
		<path opacity="0.8" d="M10.431 6.68997C10.3441 6.66166 10.2006 6.81492 10.2475 6.89302C10.2601 6.91449 10.2992 6.94183 10.3265 6.92718C10.3666 6.90571 10.3988 6.82663 10.4427 6.79637C10.471 6.77587 10.4642 6.70071 10.431 6.68997Z" fill="url(#paint25_radial_10430_115142)" />
		<path d="M14.5719 7.83288C14.5504 8.02324 14.4079 8.17748 14.2546 8.17748C14.1004 8.17748 13.993 8.02324 14.0145 7.83288C14.0359 7.64252 14.1785 7.48828 14.3317 7.48828C14.486 7.48828 14.5933 7.64252 14.5719 7.83288Z" fill="url(#paint26_linear_10430_115142)" />
	</g>
	<defs>
		<radialGradient id="paint0_radial_10430_115142" cx="0" cy="0" r="1" gradientUnits="userSpaceOnUse" gradientTransform="translate(13.2992 5.82413) rotate(-1.80935) scale(1.54537 1.77621)">
			<stop stop-color="#FEFEFC" />
			<stop offset="0.7573" stop-color="#FEFEFC" />
			<stop offset="1" stop-color="#D4D4D4" />
		</radialGradient>
		<radialGradient id="paint1_radial_10430_115142" cx="0" cy="0" r="1" gradientUnits="userSpaceOnUse" gradientTransform="translate(6.8554 13.7286) rotate(180) scale(2.15572 2.04128)">
			<stop />
			<stop offset="1" stop-opacity="0.2489" />
		</radialGradient>
		<radialGradient id="paint2_radial_10430_115142" cx="0" cy="0" r="1" gradientUnits="userSpaceOnUse" gradientTransform="translate(14.1697 14.908) scale(2.67393 2.04128)">
			<stop />
			<stop offset="1" stop-opacity="0.2489" />
		</radialGradient>
		<radialGradient id="paint3_radial_10430_115142" cx="0" cy="0" r="1" gradientUnits="userSpaceOnUse" gradientTransform="translate(10.5988 14.4405) scale(1.05873 1.13199)">
			<stop />
			<stop offset="1" stop-opacity="0.2489" />
		</radialGradient>
		<linearGradient id="paint4_linear_10430_115142" x1="18.5809" y1="23.7491" x2="18.9326" y2="26.4445" gradientUnits="userSpaceOnUse">
			<stop />
			<stop offset="1" stop-opacity="0" />
		</linearGradient>
		<linearGradient id="paint5_linear_10430_115142" x1="16.8072" y1="28.4865" x2="21.5011" y2="20.8761" gradientUnits="userSpaceOnUse">
			<stop stop-color="#3E2A06" />
			<stop offset="1" stop-color="#AD780A" />
		</linearGradient>
		<linearGradient id="paint6_linear_10430_115142" x1="19.2624" y1="20.5649" x2="19.1244" y2="21.8074" gradientUnits="userSpaceOnUse">
			<stop stop-color="#F3CD0C" />
			<stop offset="1" stop-color="#F3CD0C" stop-opacity="0" />
		</linearGradient>
		<linearGradient id="paint7_linear_10430_115142" x1="2.09543" y1="22.101" x2="6.75482" y2="29.9184" gradientUnits="userSpaceOnUse">
			<stop stop-color="#B98309" />
			<stop offset="1" stop-color="#382605" />
		</linearGradient>
		<linearGradient id="paint8_linear_10430_115142" x1="7.25804" y1="23.8315" x2="8.72488" y2="26.5926" gradientUnits="userSpaceOnUse">
			<stop stop-color="#EBC40C" />
			<stop offset="1" stop-color="#EBC40C" stop-opacity="0" />
		</linearGradient>
		<radialGradient id="paint9_radial_10430_115142" cx="0" cy="0" r="1" gradientUnits="userSpaceOnUse" gradientTransform="translate(19.1546 22.0361) rotate(14.9987) scale(2.22718 2.33788)">
			<stop stop-color="#110800" />
			<stop offset="0.5907" stop-color="#A65A00" stop-opacity="0.8" />
			<stop offset="1" stop-color="#FF921E" stop-opacity="0" />
		</radialGradient>
		<radialGradient id="paint10_radial_10430_115142" cx="0" cy="0" r="1" gradientUnits="userSpaceOnUse" gradientTransform="translate(19.1541 21.5111) rotate(10.9625) scale(2.19129 1.71777)">
			<stop stop-color="#110800" />
			<stop offset="0.5907" stop-color="#A65A00" stop-opacity="0.8" />
			<stop offset="1" stop-color="#FF921E" stop-opacity="0" />
		</radialGradient>
		<radialGradient id="paint11_radial_10430_115142" cx="0" cy="0" r="1" gradientUnits="userSpaceOnUse" gradientTransform="translate(20.8486 20.0145) rotate(23.5184) scale(0.787802 0.364088)">
			<stop stop-color="#7C7C7C" />
			<stop offset="1" stop-color="#7C7C7C" stop-opacity="0.3294" />
		</radialGradient>
		<linearGradient id="paint12_linear_10430_115142" x1="18.7214" y1="20.2161" x2="19.0142" y2="20.2039" gradientUnits="userSpaceOnUse">
			<stop stop-color="#7C7C7C" />
			<stop offset="1" stop-color="#7C7C7C" stop-opacity="0.3294" />
		</linearGradient>
		<radialGradient id="paint13_radial_10430_115142" cx="0" cy="0" r="1" gradientUnits="userSpaceOnUse" gradientTransform="translate(9.72496 5.82384) rotate(-2.40933) scale(1.16068 1.77553)">
			<stop stop-color="#FEFEFC" />
			<stop offset="0.7573" stop-color="#FEFEFC" />
			<stop offset="1" stop-color="#D4D4D4" />
		</radialGradient>
		<linearGradient id="paint14_linear_10430_115142" x1="9.49242" y1="5.27527" x2="10.0619" y2="6.29343" gradientUnits="userSpaceOnUse">
			<stop stop-color="#757574" stop-opacity="0" />
			<stop offset="0.2629" stop-color="#757574" />
			<stop offset="0.5" stop-color="#757574" />
			<stop offset="1" stop-color="#757574" stop-opacity="0" />
		</linearGradient>
		<linearGradient id="paint15_linear_10430_115142" x1="8.66533" y1="4.53447" x2="10.1178" y2="5.47021" gradientUnits="userSpaceOnUse">
			<stop offset="0.2939" stop-color="#C8C8C8" />
			<stop offset="1" stop-color="#797978" />
		</linearGradient>
		<linearGradient id="paint16_linear_10430_115142" x1="9.51169" y1="3.56296" x2="10.8197" y2="4.82271" gradientUnits="userSpaceOnUse">
			<stop stop-color="#646464" stop-opacity="0" />
			<stop offset="0.3063" stop-color="#646464" stop-opacity="0.5825" />
			<stop offset="0.47" stop-color="#646464" />
			<stop offset="0.7283" stop-color="#646464" stop-opacity="0.2573" />
			<stop offset="1" stop-color="#646464" stop-opacity="0" />
		</linearGradient>
		<radialGradient id="paint17_radial_10430_115142" cx="0" cy="0" r="1" gradientUnits="userSpaceOnUse" gradientTransform="translate(13.3031 5.82364) rotate(-1.80935) scale(1.54537 1.77621)">
			<stop stop-color="#FEFEFC" />
			<stop offset="0.7573" stop-color="#FEFEFC" />
			<stop offset="1" stop-color="#D4D4D4" />
		</radialGradient>
		<linearGradient id="paint18_linear_10430_115142" x1="13.2831" y1="5.35207" x2="13.9389" y2="6.12862" gradientUnits="userSpaceOnUse">
			<stop stop-color="#949494" stop-opacity="0.3922" />
			<stop offset="0.5" stop-color="#949494" />
			<stop offset="1" stop-color="#949494" stop-opacity="0.3922" />
		</linearGradient>
		<linearGradient id="paint19_linear_10430_115142" x1="12.8884" y1="5.29455" x2="14.6635" y2="4.25649" gradientUnits="userSpaceOnUse">
			<stop stop-color="#C8C8C8" />
			<stop offset="1" stop-color="#797978" />
		</linearGradient>
		<linearGradient id="paint20_linear_10430_115142" x1="13.4958" y1="3.50425" x2="14.885" y2="4.81577" gradientUnits="userSpaceOnUse">
			<stop stop-color="#646464" stop-opacity="0" />
			<stop offset="0.3063" stop-color="#646464" stop-opacity="0.5825" />
			<stop offset="0.47" stop-color="#646464" />
			<stop offset="0.7283" stop-color="#646464" stop-opacity="0.2573" />
			<stop offset="1" stop-color="#646464" stop-opacity="0" />
		</linearGradient>
		<radialGradient id="paint21_radial_10430_115142" cx="0" cy="0" r="1" gradientUnits="userSpaceOnUse" gradientTransform="translate(10.9859 6.81092) rotate(-36.0117) scale(1.29537 1.17574)">
			<stop stop-color="#020204" />
			<stop offset="0.7345" stop-color="#020204" />
			<stop offset="1" stop-color="#5C5C5C" />
		</radialGradient>
		<radialGradient id="paint22_radial_10430_115142" cx="0" cy="0" r="1" gradientUnits="userSpaceOnUse" gradientTransform="translate(12.363 7.99928) rotate(-22.4276) scale(3.076 2.15994)">
			<stop stop-color="#D2940A" />
			<stop offset="0.7514" stop-color="#D89C08" />
			<stop offset="0.8658" stop-color="#B67E07" />
			<stop offset="1" stop-color="#946106" />
		</radialGradient>
		<linearGradient id="paint23_linear_10430_115142" x1="8.77495" y1="7.81563" x2="14.2885" y2="7.77249" gradientUnits="userSpaceOnUse">
			<stop stop-color="#AD780A" />
			<stop offset="0.1197" stop-color="#D89E08" />
			<stop offset="0.2551" stop-color="#EDB80B" />
			<stop offset="0.3919" stop-color="#EBC80D" />
			<stop offset="0.5274" stop-color="#F5D838" />
			<stop offset="0.7691" stop-color="#F6D811" />
			<stop offset="1" stop-color="#F5CD31" />
		</linearGradient>
		<radialGradient id="paint24_radial_10430_115142" cx="0" cy="0" r="1" gradientUnits="userSpaceOnUse" gradientTransform="translate(11.7808 6.76317) scale(0.315323 0.183928)">
			<stop stop-color="#3A2903" />
			<stop offset="0.5547" stop-color="#735208" />
			<stop offset="1" stop-color="#AC8C04" />
		</radialGradient>
		<radialGradient id="paint25_radial_10430_115142" cx="0" cy="0" r="1" gradientUnits="userSpaceOnUse" gradientTransform="translate(10.3624 6.78362) scale(0.149848 0.161101)">
			<stop stop-color="#3A2903" />
			<stop offset="0.5547" stop-color="#735208" />
			<stop offset="1" stop-color="#AC8C04" />
		</radialGradient>
		<linearGradient id="paint26_linear_10430_115142" x1="14.2926" y1="7.64485" x2="14.3765" y2="8.03459" gradientUnits="userSpaceOnUse">
			<stop stop-color="#F5CE2D" />
			<stop offset="1" stop-color="#D79B08" />
		</linearGradient>
		<clipPath id="clip0_10430_115142">
			<rect width="24.322" height="29" fill="white" />
		</clipPath>
	</defs>
</svg>
