<svg width="24" height="23" viewBox="0 0 24 23" fill="none" xmlns="http://www.w3.org/2000/svg">
	<g clip-path="url(#clip0_10430_115126)">
		<path opacity="0.53" d="M22.1124 11.7839C22.1124 13.1085 21.843 14.4201 21.3194 15.6439C20.7959 16.8676 20.0286 17.9796 19.0612 18.9162C18.0938 19.8528 16.9454 20.5958 15.6815 21.1027C14.4176 21.6096 13.0629 21.8705 11.6949 21.8705C10.3268 21.8705 8.97218 21.6096 7.70827 21.1027C6.44435 20.5958 5.29593 19.8528 4.32857 18.9162C3.36121 17.9796 2.59386 16.8676 2.07033 15.6439C1.5468 14.4201 1.27734 13.1085 1.27734 11.7839C1.27734 9.10875 2.3749 6.54317 4.32857 4.65157C6.28224 2.75996 8.93199 1.69727 11.6949 1.69727C13.0629 1.69727 14.4176 1.95816 15.6815 2.46506C16.9454 2.97196 18.0938 3.71494 19.0612 4.65157C20.0286 5.5882 20.7959 6.70014 21.3194 7.9239C21.843 9.14767 22.1124 10.4593 22.1124 11.7839Z" fill="black" />
		<path d="M22.5074 10.8933C22.5074 12.3213 22.2277 13.7352 21.6843 15.0545C21.1408 16.3738 20.3442 17.5725 19.34 18.5822C18.3358 19.5919 17.1437 20.3929 15.8316 20.9394C14.5196 21.4858 13.1133 21.7671 11.6932 21.7671C8.82505 21.7671 6.0744 20.6214 4.04633 18.5822C2.01826 16.543 0.878906 13.7772 0.878906 10.8933C0.878906 8.0094 2.01826 5.24361 4.04633 3.20439C6.0744 1.16516 8.82505 0.019532 11.6932 0.0195313C13.1133 0.0195312 14.5196 0.300791 15.8316 0.847249C17.1437 1.39371 18.3358 2.19466 19.34 3.20439C20.3442 4.21411 21.1408 5.41282 21.6843 6.73209C22.2277 8.05135 22.5074 9.46534 22.5074 10.8933Z" fill="url(#paint0_linear_10430_115126)" stroke="#CDCDCD" stroke-width="0.0809892" stroke-linecap="round" stroke-linejoin="round" />
		<path d="M21.6603 10.8933C21.6603 13.5512 20.6102 16.1003 18.7411 17.9797C16.8719 19.8591 14.3368 20.915 11.6934 20.915C9.05006 20.915 6.51494 19.8591 4.64579 17.9797C2.77664 16.1003 1.72656 13.5512 1.72656 10.8933C1.72656 8.23537 2.77664 5.68631 4.64579 3.80687C6.51494 1.92744 9.05006 0.871582 11.6934 0.871582C14.3368 0.871582 16.8719 1.92744 18.7411 3.80687C20.6102 5.68631 21.6603 8.23537 21.6603 10.8933Z" fill="url(#paint1_radial_10430_115126)" />
		<path d="M11.6919 1.39453C11.6114 1.39453 11.5466 1.45969 11.5466 1.54064V3.226C11.5466 3.30695 11.6114 3.37211 11.6919 3.37211C11.7724 3.37211 11.8372 3.30695 11.8372 3.226V1.54064C11.8372 1.45969 11.7724 1.39453 11.6919 1.39453ZM10.7412 1.45495C10.7316 1.4539 10.7217 1.4539 10.7117 1.45507C10.6316 1.46347 10.5739 1.53504 10.5823 1.61555L10.6555 2.32063C10.6638 2.40114 10.735 2.4592 10.8151 2.45079C10.8952 2.44239 10.9529 2.37081 10.9446 2.2903L10.8714 1.58523C10.864 1.51478 10.8086 1.46152 10.7412 1.45495H10.7412ZM12.6492 1.45564C12.5818 1.46217 12.5263 1.51542 12.519 1.58585L12.4452 2.29087C12.4368 2.37138 12.4945 2.44302 12.5746 2.45149C12.6547 2.45996 12.7258 2.40196 12.7343 2.32146L12.808 1.61638C12.8164 1.53587 12.7587 1.46429 12.6786 1.45582C12.6686 1.45478 12.6588 1.45478 12.6492 1.45564V1.45564ZM9.7647 1.59733C9.75503 1.59741 9.7452 1.59837 9.73536 1.60046C9.6566 1.61722 9.60661 1.69449 9.62328 1.77369L9.97042 3.42246C9.98709 3.50166 10.0639 3.55192 10.1427 3.53516C10.2215 3.51839 10.2714 3.44118 10.2548 3.36199L9.90763 1.71315C9.89303 1.64385 9.83241 1.59671 9.76471 1.59724L9.7647 1.59733ZM13.6256 1.59872C13.5579 1.59803 13.4973 1.64522 13.4827 1.7145L13.1343 3.36309C13.1176 3.44227 13.1675 3.51956 13.2463 3.53638C13.325 3.55321 13.4019 3.50299 13.4186 3.42381L13.7669 1.77522C13.7837 1.69604 13.7337 1.61875 13.655 1.60193C13.6452 1.59985 13.6353 1.59881 13.6257 1.59881L13.6256 1.59872ZM8.83274 1.86155C8.81393 1.85982 8.7945 1.8619 8.77536 1.86829C8.69879 1.89332 8.65716 1.97538 8.68204 2.05236L8.89992 2.72661C8.92481 2.8036 9.00648 2.84545 9.08305 2.82044C9.15961 2.79541 9.20119 2.71329 9.1763 2.6363L8.95843 1.96206C8.93979 1.90432 8.88918 1.86637 8.83274 1.86154V1.86155ZM14.5523 1.8619C14.4959 1.86673 14.4453 1.90468 14.4266 1.96242L14.2086 2.6366C14.1838 2.71358 14.2254 2.79571 14.3019 2.82073C14.3785 2.84576 14.4601 2.80394 14.485 2.72697L14.703 2.05272C14.7279 1.97574 14.6863 1.89361 14.6098 1.86859C14.5907 1.86234 14.5711 1.86029 14.5523 1.86189V1.8619ZM7.91114 2.20066C7.89226 2.20101 7.87316 2.20518 7.85477 2.2134C7.78124 2.24628 7.74831 2.33227 7.78101 2.40624L8.46179 3.9463C8.49448 4.02027 8.58 4.05334 8.65357 4.02046C8.72709 3.98759 8.76009 3.90159 8.72739 3.82762L8.04655 2.28756C8.02203 2.23208 7.96777 2.19956 7.91114 2.20066ZM15.4843 2.20583C15.4277 2.20479 15.3734 2.23711 15.3488 2.29254L14.666 3.83166C14.6332 3.90558 14.666 3.99164 14.7395 4.02462C14.813 4.0576 14.8986 4.02464 14.9314 3.95072L15.6142 2.41161C15.647 2.33768 15.6142 2.25162 15.5407 2.21864C15.5224 2.21041 15.5032 2.20625 15.4843 2.20583V2.20583ZM7.05571 2.65577C7.02781 2.65369 6.99906 2.65993 6.97292 2.67514C6.9032 2.71561 6.87949 2.80463 6.91974 2.87473L7.27226 3.48869C7.31252 3.55879 7.40104 3.58263 7.47076 3.54216C7.54048 3.50168 7.56419 3.41268 7.52394 3.34257L7.17142 2.72862C7.14625 2.6848 7.10221 2.65905 7.05571 2.65578V2.65577ZM16.328 2.65577C16.2816 2.6589 16.2376 2.68479 16.2124 2.72861L15.8598 3.34256C15.8196 3.41267 15.8434 3.50167 15.9131 3.54215C15.9828 3.58262 16.0713 3.55878 16.1116 3.48868L16.4641 2.87472C16.5043 2.80462 16.4806 2.7156 16.4109 2.67513C16.3848 2.65996 16.356 2.65382 16.328 2.65576V2.65577ZM6.22504 3.17671C6.19707 3.17775 6.16908 3.18678 6.14464 3.20459C6.07948 3.25212 6.06507 3.34313 6.11236 3.40865L7.09655 4.77284C7.14382 4.83836 7.2344 4.85285 7.29956 4.80533C7.36472 4.7578 7.37913 4.66679 7.33184 4.60126L6.34759 3.23708C6.31803 3.19612 6.27162 3.17513 6.22504 3.17673V3.17671ZM17.1691 3.18414C17.1225 3.18241 17.0761 3.20341 17.0465 3.2443L16.0604 4.60716C16.0131 4.67262 16.0274 4.76367 16.0925 4.81129C16.1576 4.85891 16.2481 4.84458 16.2955 4.77915L17.2815 3.41629C17.3289 3.35083 17.3145 3.25978 17.2495 3.21216C17.2251 3.19431 17.1971 3.18515 17.1691 3.18414ZM5.48255 3.80282C5.44546 3.80074 5.40761 3.8132 5.37769 3.84028C5.31786 3.89444 5.31305 3.98646 5.36692 4.04662L5.83867 4.57355C5.89253 4.63372 5.98404 4.63855 6.04387 4.58438C6.1037 4.53022 6.10852 4.43815 6.05465 4.37798L5.58296 3.85111C5.55604 3.82102 5.51965 3.80477 5.48255 3.80281V3.80282ZM17.9023 3.80387C17.8652 3.80595 17.8288 3.82209 17.8019 3.85217L17.3301 4.37898C17.2762 4.43914 17.281 4.53121 17.3409 4.58538C17.4007 4.63954 17.4922 4.63468 17.5461 4.57455L18.0179 4.04774C18.0717 3.98758 18.0669 3.8955 18.0071 3.84134C17.9772 3.81427 17.9394 3.80193 17.9023 3.80388L17.9023 3.80387ZM4.77092 4.49015C4.73383 4.49224 4.6975 4.50838 4.67057 4.53846C4.61671 4.59862 4.62153 4.69063 4.68135 4.74479L5.92706 5.87237C5.9869 5.92653 6.0784 5.92169 6.13226 5.86155C6.18613 5.80139 6.18138 5.70937 6.12153 5.65521L4.87575 4.52763C4.84582 4.50055 4.80799 4.48821 4.77089 4.49017L4.77092 4.49015ZM18.6174 4.49508C18.5803 4.493 18.5424 4.50543 18.5124 4.53248L17.266 5.65918C17.2061 5.71329 17.2012 5.80531 17.255 5.86551C17.3088 5.92571 17.4004 5.9306 17.4603 5.87648L18.7068 4.74978C18.7666 4.69566 18.7715 4.60365 18.7177 4.54345C18.6908 4.51335 18.6544 4.49706 18.6173 4.49508H18.6174ZM4.17914 5.25528C4.13255 5.25354 4.08611 5.27465 4.05653 5.31557C4.00921 5.38105 4.02357 5.47205 4.08871 5.51963L4.6591 5.93633C4.72423 5.98391 4.81472 5.96955 4.86204 5.90405C4.90937 5.83856 4.89505 5.7475 4.82994 5.69992L4.25954 5.28322C4.23513 5.26538 4.2071 5.25628 4.17915 5.25527L4.17914 5.25528ZM19.2086 5.26059C19.1806 5.26163 19.1526 5.27062 19.1282 5.28846L18.5575 5.70479C18.4924 5.75233 18.4779 5.8434 18.5252 5.90892C18.5725 5.97444 18.663 5.98887 18.7282 5.94134L19.2989 5.52501C19.364 5.47748 19.3784 5.38647 19.3311 5.32095C19.3016 5.28 19.2552 5.259 19.2086 5.2606V5.26059ZM3.62612 6.07142C3.57962 6.07455 3.53563 6.10044 3.51047 6.14426C3.47022 6.21436 3.49394 6.30337 3.56365 6.34384L5.0152 7.18652C5.08492 7.22699 5.17344 7.20314 5.2137 7.13304C5.25395 7.06294 5.23023 6.97393 5.16051 6.93346L3.70896 6.09078C3.68283 6.07561 3.65402 6.06946 3.62612 6.07141V6.07142ZM19.7576 6.07142C19.7297 6.06934 19.7009 6.07559 19.6748 6.09079L18.2233 6.93347C18.1535 6.97394 18.1298 7.06296 18.1701 7.13306C18.2103 7.20316 18.2988 7.227 18.3686 7.18653L19.8202 6.34386C19.8899 6.30338 19.9136 6.21437 19.8733 6.14427C19.8482 6.10045 19.8041 6.0747 19.7576 6.07144V6.07142ZM3.20799 6.94134C3.15136 6.93995 3.09706 6.97255 3.07246 7.02798C3.03966 7.10191 3.07244 7.18797 3.14596 7.22095L3.78992 7.50977C3.86345 7.54274 3.94904 7.50979 3.98184 7.43586C4.01463 7.36193 3.98179 7.27587 3.90827 7.2429L3.26437 6.95408C3.24601 6.94582 3.22686 6.94172 3.20799 6.94134ZM20.1786 6.94735C20.1597 6.94769 20.1405 6.95186 20.1221 6.96008L19.4781 7.24839C19.4045 7.28134 19.3716 7.36734 19.4044 7.4413C19.4371 7.51525 19.5227 7.54832 19.5963 7.5154L20.2404 7.22702C20.3139 7.19411 20.3467 7.10807 20.314 7.03412C20.2894 6.97865 20.2352 6.94621 20.1786 6.94735ZM2.83534 7.85056C2.7789 7.85532 2.7283 7.89323 2.7096 7.95096C2.68467 8.02792 2.72616 8.11007 2.80272 8.13515L4.39639 8.65729C4.47293 8.68236 4.55464 8.64059 4.57958 8.56365C4.6045 8.48668 4.563 8.40453 4.48644 8.37945L2.89279 7.8573C2.87366 7.85102 2.85415 7.84898 2.83534 7.85057V7.85056ZM20.5506 7.85681C20.5317 7.85508 20.5123 7.85716 20.4932 7.86354L18.8991 8.38455C18.8226 8.40958 18.781 8.4917 18.8059 8.56868C18.8308 8.64567 18.9124 8.68748 18.989 8.66246L20.583 8.14145C20.6595 8.11642 20.7012 8.0343 20.6763 7.95732C20.6576 7.89958 20.607 7.86162 20.5506 7.8568V7.85681ZM2.60317 8.80499C2.53547 8.80429 2.47475 8.85154 2.46011 8.92083C2.44336 9.00001 2.49332 9.07729 2.57206 9.09412L3.26174 9.24149C3.34049 9.25833 3.41734 9.2081 3.43408 9.12893C3.45082 9.04975 3.40087 8.97246 3.32214 8.95564L2.63252 8.80827C2.62268 8.80618 2.61283 8.80514 2.60317 8.80514V8.80499ZM20.7809 8.80638C20.7712 8.80646 20.7615 8.80776 20.7516 8.8095L20.062 8.95681C19.9832 8.97365 19.9333 9.05086 19.95 9.13004C19.9667 9.20922 20.0436 9.25948 20.1223 9.24266L20.812 9.09536C20.8907 9.07852 20.9407 9.00125 20.924 8.92207C20.9093 8.85278 20.8486 8.80565 20.7809 8.80623L20.7809 8.80638ZM2.42744 9.76502C2.36005 9.77151 2.30458 9.82468 2.29718 9.89511C2.28872 9.97561 2.34631 10.0473 2.42637 10.0558L4.09322 10.233C4.17328 10.2415 4.24456 10.1835 4.25302 10.103C4.26148 10.0225 4.20382 9.95085 4.12376 9.94235L2.45691 9.76515C2.4469 9.76411 2.43707 9.76411 2.42744 9.76503V9.76502ZM20.9579 9.77762C20.9483 9.77658 20.9383 9.77658 20.9283 9.77774L19.2613 9.95268C19.1812 9.96108 19.1235 10.0327 19.1319 10.1132C19.1402 10.1937 19.2114 10.2517 19.2915 10.2433L20.9585 10.0684C21.0386 10.06 21.0963 9.98841 21.0879 9.9079C21.0806 9.83745 21.0253 9.78421 20.9579 9.77762L20.9579 9.77762ZM2.39921 10.7477C2.3187 10.7477 2.25391 10.8129 2.25391 10.8939C2.25391 10.9748 2.3187 11.04 2.39921 11.04H3.10427C3.18477 11.04 3.24963 10.9748 3.24963 10.8939C3.24963 10.8129 3.18477 10.7477 3.10427 10.7477H2.39921ZM20.2795 10.7477C20.199 10.7477 20.1342 10.8129 20.1342 10.8939C20.1342 10.9748 20.199 11.04 20.2795 11.04H20.9845C21.065 11.04 21.1299 10.9748 21.1299 10.8939C21.1299 10.8129 21.065 10.7477 20.9845 10.7477H20.2795ZM4.12182 11.5443C4.11219 11.5432 4.10235 11.5432 4.09233 11.5444L2.42523 11.7193C2.34516 11.7277 2.28745 11.7993 2.2958 11.8798C2.30415 11.9603 2.37533 12.0184 2.4554 12.01L4.12251 11.835C4.20258 11.8266 4.26029 11.7551 4.25195 11.6745C4.24463 11.6041 4.18919 11.5508 4.12181 11.5443H4.12182ZM19.2611 11.5546C19.1937 11.5611 19.1382 11.6143 19.1308 11.6847C19.1223 11.7652 19.1799 11.8369 19.26 11.8454L20.9269 12.0226C21.0069 12.0311 21.0782 11.9731 21.0866 11.8926C21.0951 11.8121 21.0374 11.7404 20.9574 11.7319L19.2906 11.5547C19.2806 11.5537 19.2707 11.5537 19.261 11.5546L19.2611 11.5546ZM3.29084 12.5417C3.28117 12.5418 3.27134 12.5427 3.2615 12.5448L2.57181 12.6921C2.49306 12.709 2.44314 12.7862 2.45986 12.8654C2.47661 12.9446 2.55346 12.9948 2.63221 12.978L3.3219 12.8307C3.40064 12.8139 3.45056 12.7366 3.43384 12.6574C3.4192 12.5882 3.35854 12.541 3.29085 12.5416L3.29084 12.5417ZM20.0927 12.5431C20.025 12.5424 19.9644 12.5896 19.9497 12.6589C19.933 12.738 19.9829 12.8153 20.0616 12.8322L20.7513 12.9795C20.8301 12.9964 20.9069 12.9462 20.9236 12.867C20.9404 12.7878 20.8904 12.7105 20.8117 12.6937L20.1221 12.5463C20.1122 12.5442 20.1024 12.5432 20.0927 12.5432L20.0927 12.5431ZM4.4522 13.1186C4.43339 13.1168 4.41396 13.1189 4.39482 13.1253L2.80078 13.6463C2.72422 13.6713 2.68263 13.7535 2.70752 13.8304C2.73241 13.9074 2.81408 13.9492 2.89065 13.9242L4.48463 13.4032C4.5612 13.3782 4.60283 13.2961 4.57794 13.2191C4.55927 13.1613 4.50864 13.1234 4.4522 13.1186V13.1186ZM18.93 13.1237C18.8736 13.1285 18.8229 13.1664 18.8042 13.2241C18.7793 13.3011 18.8208 13.3833 18.8974 13.4083L20.491 13.9305C20.5676 13.9555 20.6493 13.9138 20.6742 13.8368C20.6992 13.7599 20.6577 13.6777 20.5811 13.6526L18.9874 13.1305C18.9683 13.1242 18.9488 13.1222 18.93 13.1238V13.1237ZM3.84393 14.2597C3.82504 14.2601 3.80593 14.2642 3.78754 14.2724L3.14339 14.5608C3.06985 14.5937 3.03702 14.6797 3.06976 14.7537C3.10252 14.8276 3.18807 14.8606 3.26161 14.8277L3.90576 14.5394C3.9793 14.5065 4.01213 14.4204 3.97939 14.3465C3.95485 14.291 3.90056 14.2586 3.84393 14.2597V14.2597ZM19.5375 14.2653C19.4809 14.2639 19.4266 14.2965 19.402 14.3519C19.3692 14.4258 19.402 14.5119 19.4755 14.5449L20.1194 14.8337C20.1929 14.8667 20.2785 14.8337 20.3113 14.7598C20.3441 14.6859 20.3113 14.5998 20.2378 14.5668L19.5939 14.278C19.5755 14.2697 19.5564 14.2656 19.5375 14.2653V14.2653ZM5.09805 14.5819C5.07015 14.5798 5.04135 14.5861 5.0152 14.6013L3.56365 15.4439C3.49394 15.4844 3.47022 15.5734 3.51047 15.6435C3.55072 15.7136 3.63924 15.7375 3.70896 15.697L5.16051 14.8544C5.23023 14.8139 5.25395 14.7248 5.2137 14.6547C5.18853 14.6109 5.14455 14.5852 5.09805 14.5819V14.5819ZM18.2858 14.5819C18.2393 14.585 18.1952 14.6109 18.1701 14.6547C18.1298 14.7248 18.1535 14.8139 18.2233 14.8544L19.6748 15.697C19.7445 15.7375 19.8331 15.7136 19.8733 15.6435C19.9136 15.5734 19.8899 15.4844 19.8202 15.4439L18.3686 14.6013C18.3424 14.5861 18.3137 14.5799 18.2858 14.5819V14.5819ZM4.73599 15.8185C4.70802 15.8195 4.68003 15.8286 4.65559 15.8465L4.08494 16.2628C4.01978 16.3103 4.00536 16.4013 4.05263 16.4668C4.0999 16.5324 4.19042 16.5469 4.25558 16.4993L4.82629 16.083C4.89145 16.0354 4.90586 15.9444 4.8586 15.8789C4.82905 15.838 4.78257 15.8169 4.73599 15.8185V15.8185ZM18.6443 15.8234C18.5977 15.8217 18.5513 15.8428 18.5217 15.8837C18.4744 15.9492 18.4887 16.0403 18.5539 16.0879L19.1243 16.5046C19.1894 16.5521 19.2799 16.5377 19.3272 16.4722C19.3746 16.4067 19.3602 16.3157 19.2951 16.2681L18.7247 15.8514C18.7003 15.8336 18.6723 15.8244 18.6443 15.8234L18.6443 15.8234ZM6.02842 15.8739C5.99134 15.8718 5.9535 15.8842 5.92357 15.9113L4.67704 17.038C4.61717 17.0921 4.6123 17.1841 4.66613 17.2443C4.71994 17.3045 4.81146 17.3094 4.87134 17.2553L6.11786 16.1286C6.17773 16.0745 6.1826 15.9825 6.12878 15.9222C6.10188 15.8922 6.06552 15.8759 6.02842 15.8739ZM17.3519 15.8779C17.3148 15.88 17.2784 15.8961 17.2515 15.9262C17.1976 15.9864 17.2024 16.0784 17.2622 16.1325L18.508 17.2601C18.5678 17.3143 18.6594 17.3094 18.7132 17.2493C18.7671 17.1891 18.7623 17.0971 18.7025 17.043L17.4567 15.9154C17.4267 15.8883 17.389 15.876 17.3519 15.8779V15.8779ZM7.21099 16.9483C7.16441 16.9466 7.11791 16.9675 7.08831 17.0085L6.10231 18.3713C6.05495 18.4368 6.0692 18.5278 6.13427 18.5754C6.19937 18.6231 6.28992 18.6087 6.33728 18.5433L7.3233 17.1804C7.37065 17.1149 7.35641 17.0239 7.29133 16.9763C7.26692 16.9584 7.23894 16.9493 7.21099 16.9483ZM16.1647 16.9544C16.1367 16.9554 16.1087 16.9644 16.0843 16.9823C16.0191 17.0298 16.0047 17.1208 16.052 17.1863L17.0361 18.5505C17.0834 18.6161 17.1739 18.6305 17.2391 18.583C17.3043 18.5355 17.3187 18.4445 17.2714 18.379L16.2872 17.0148C16.2577 16.9738 16.2113 16.9528 16.1647 16.9544V16.9544ZM5.93811 17.1649C5.90102 17.167 5.86465 17.1831 5.83771 17.2132L5.36597 17.74C5.31209 17.8002 5.31686 17.8922 5.3767 17.9464C5.43653 18.0006 5.52803 17.9957 5.5819 17.9356L6.05371 17.4087C6.10759 17.3486 6.10276 17.2565 6.04294 17.2023C6.01301 17.1753 5.97523 17.1629 5.93814 17.1649L5.93811 17.1649ZM17.4448 17.1656C17.4077 17.1635 17.3699 17.176 17.34 17.2031C17.2801 17.2572 17.2753 17.3492 17.3292 17.4094L17.8008 17.9363C17.8547 17.9965 17.9462 18.0013 18.0061 17.9472C18.0659 17.893 18.0707 17.8009 18.0168 17.7408L17.5451 17.2139C17.5182 17.1838 17.4818 17.1675 17.4447 17.1656L17.4448 17.1656ZM8.58791 17.75C8.53128 17.7487 8.47704 17.7812 8.45245 17.8367L7.76954 19.3758C7.73674 19.4497 7.76952 19.5358 7.84304 19.5688C7.91656 19.6017 8.00215 19.5688 8.03495 19.4949L8.71785 17.9557C8.75065 17.8818 8.71787 17.7958 8.64435 17.7628C8.62598 17.7545 8.60679 17.7504 8.58791 17.75ZM14.7866 17.7543C14.7678 17.7546 14.7486 17.7587 14.7302 17.7669C14.6567 17.7998 14.6237 17.8858 14.6564 17.9598L15.3372 19.4998C15.3699 19.5738 15.4555 19.6069 15.5291 19.574C15.6026 19.5411 15.6355 19.4551 15.6028 19.3812L14.922 17.8411C14.8975 17.7857 14.8433 17.7532 14.7866 17.7543ZM7.38791 18.2259C7.34141 18.229 7.29742 18.2549 7.27226 18.2987L6.91974 18.9127C6.87949 18.9828 6.9032 19.0718 6.97292 19.1123C7.04264 19.1528 7.13117 19.1289 7.17142 19.0588L7.52394 18.4449C7.56419 18.3747 7.54048 18.2857 7.47076 18.2453C7.44463 18.2301 7.41581 18.224 7.38791 18.2259V18.2259ZM15.9958 18.2259C15.968 18.2238 15.9392 18.2301 15.9131 18.2453C15.8434 18.2857 15.8196 18.3748 15.8599 18.4449L16.2124 19.0588C16.2527 19.1289 16.3412 19.1528 16.4109 19.1123C16.4806 19.0718 16.5043 18.9828 16.4641 18.9127L16.1116 18.2988C16.0864 18.2549 16.0423 18.2292 15.9958 18.2259V18.2259ZM10.1082 18.2479C10.0405 18.2472 9.97983 18.2944 9.9652 18.3637L9.61688 20.0123C9.60013 20.0915 9.65009 20.1688 9.72883 20.1856C9.80758 20.2024 9.88444 20.1522 9.90117 20.073L10.2495 18.4244C10.2662 18.3452 10.2163 18.268 10.1375 18.2511C10.1277 18.2491 10.1179 18.248 10.1082 18.248L10.1082 18.2479ZM13.2704 18.249C13.2608 18.249 13.251 18.25 13.2411 18.2521C13.1624 18.2688 13.1124 18.346 13.1291 18.4252L13.4762 20.0741C13.4929 20.1533 13.5697 20.2035 13.6485 20.1868C13.7272 20.17 13.7772 20.0927 13.7606 20.0136L13.4134 18.3648C13.3988 18.2955 13.3381 18.2484 13.2704 18.2489L13.2704 18.249ZM11.6919 18.4152C11.6114 18.4152 11.5466 18.4804 11.5466 18.5614V20.2467C11.5466 20.3277 11.6114 20.3928 11.6919 20.3928C11.7724 20.3928 11.8372 20.3277 11.8372 20.2467V18.5614C11.8372 18.4804 11.7724 18.4152 11.6919 18.4152ZM9.02447 18.9598C8.96803 18.9647 8.91739 19.0026 8.89873 19.0604L8.68079 19.7346C8.6559 19.8116 8.6975 19.8937 8.77405 19.9187C8.85061 19.9438 8.93229 19.9019 8.95718 19.8249L9.17511 19.1507C9.20001 19.0737 9.1584 18.9916 9.08185 18.9666C9.06273 18.9603 9.04328 18.9583 9.02447 18.9599V18.9598ZM14.3582 18.9602C14.3393 18.9584 14.3199 18.9605 14.3008 18.9669C14.2242 18.9919 14.1826 19.074 14.2075 19.151L14.4253 19.8253C14.4502 19.9023 14.5319 19.944 14.6085 19.919C14.685 19.894 14.7267 19.8119 14.7018 19.735L14.4838 19.0607C14.4652 19.003 14.4146 18.965 14.3582 18.9602V18.9602ZM10.7797 19.3357C10.7124 19.3422 10.6568 19.3954 10.6495 19.4659L10.5758 20.1709C10.5674 20.2514 10.6251 20.323 10.7051 20.3315C10.7852 20.34 10.8564 20.282 10.8649 20.2015L10.9385 19.4964C10.947 19.4159 10.8893 19.3443 10.8092 19.3358C10.7992 19.3348 10.7894 19.3348 10.7797 19.3357L10.7797 19.3357ZM12.5982 19.3364C12.5885 19.3354 12.5786 19.3354 12.5686 19.3365C12.4886 19.3449 12.4308 19.4165 12.4392 19.497L12.5124 20.2022C12.5208 20.2827 12.592 20.3407 12.672 20.3322C12.7521 20.3238 12.8099 20.2523 12.8015 20.1718L12.7283 19.4667C12.721 19.3962 12.6655 19.343 12.5982 19.3364L12.5982 19.3364Z" fill="#F4F2F3" />
		<g opacity="0.409" filter="url(#filter0_f_10430_115126)">
			<path d="M18.5045 5.04932L10.5541 9.69391L5.52734 17.651L12.8811 12.1742L18.5045 5.04932Z" fill="black" />
		</g>
		<path d="M12.8338 12.093L10.555 9.69342L18.6388 4.2255L12.8338 12.093Z" fill="#FF5150" />
		<path d="M12.8353 12.0933L10.5565 9.69368L4.75144 17.5612L12.8353 12.0933Z" fill="#F1F1F1" />
		<path opacity="0.243" d="M4.75 17.561L12.8338 12.0931L18.6389 4.22559L4.75 17.561Z" fill="black" />
	</g>
	<defs>
		<filter id="filter0_f_10430_115126" x="4.94105" y="4.46303" width="14.1491" height="13.7741" filterUnits="userSpaceOnUse" color-interpolation-filters="sRGB">
			<feFlood flood-opacity="0" result="BackgroundImageFix" />
			<feBlend mode="normal" in="SourceGraphic" in2="BackgroundImageFix" result="shape" />
			<feGaussianBlur stdDeviation="0.293145" result="effect1_foregroundBlur_10430_115126" />
		</filter>
		<linearGradient id="paint0_linear_10430_115126" x1="11.6932" y1="21.7671" x2="11.6932" y2="0.0195312" gradientUnits="userSpaceOnUse">
			<stop stop-color="#BDBDBD" />
			<stop offset="1" stop-color="white" />
		</linearGradient>
		<radialGradient id="paint1_radial_10430_115126" cx="0" cy="0" r="1" gradientUnits="userSpaceOnUse" gradientTransform="translate(11.7388 9.43213) scale(10.8143 10.8738)">
			<stop stop-color="#06C2E7" />
			<stop offset="0.25" stop-color="#0DB8EC" />
			<stop offset="0.5" stop-color="#12AEF1" />
			<stop offset="0.75" stop-color="#1F86F9" />
			<stop offset="1" stop-color="#107DDD" />
		</radialGradient>
		<clipPath id="clip0_10430_115126">
			<rect width="22.8422" height="22.8422" fill="white" transform="translate(0.273438)" />
		</clipPath>
	</defs>
</svg>
