<svg width="48" height="49" viewBox="0 0 48 49" fill="none" xmlns="http://www.w3.org/2000/svg">
<path d="M10.8206 11.6377C10.7444 11.708 10.6687 11.7789 10.5936 11.8503L10.628 11.8176C10.6918 11.7573 10.756 11.6973 10.8206 11.6377Z" fill="#1B84F9"/>
<path d="M20.5013 9.54443C20.3325 9.581 20.1641 9.62013 19.9962 9.66184L19.9873 9.66405" fill="#1B84F9"/>
<path d="M43.6791 26.4738C43.6791 37.3566 34.9194 46.2355 24.154 46.2355C13.3885 46.2355 4.62891 37.3566 4.62891 26.4738C4.62891 21.0522 6.8719 15.8219 10.8016 12.0825L12.185 13.6255C8.6636 16.9714 6.67906 21.6224 6.67906 26.4738C6.67906 36.213 14.5206 44.1086 24.154 44.1086C33.7878 44.1086 41.6289 36.1785 41.6289 26.4738C41.6289 16.769 33.7878 8.83896 24.154 8.83896C22.8319 8.83896 21.5097 8.98809 20.2145 9.2864L19.7263 7.24059C21.1697 6.8932 22.645 6.74609 24.154 6.74609C34.9201 6.74609 43.6791 15.5916 43.6791 26.4738Z" fill="#1B84F9"/>
<path fill-rule="evenodd" clip-rule="evenodd" d="M24.1537 33.2367C20.5906 33.2367 17.6953 30.2811 17.6953 26.6437C17.6953 23.0064 20.5906 20.0508 24.1537 20.0508C27.7168 20.0508 30.6121 23.0064 30.6121 26.6437C30.6121 30.3141 27.7178 33.2367 24.1537 33.2367ZM24.1537 22.1777C21.7168 22.1777 19.7455 24.1901 19.7455 26.6778C19.7455 29.1655 21.7168 31.1779 24.1537 31.1779C26.5906 31.1779 28.562 29.1655 28.562 26.6778C28.562 24.1901 26.5906 22.1777 24.1537 22.1777Z" fill="#1B84F9"/>
<path fill-rule="evenodd" clip-rule="evenodd" d="M15.6553 16.8017C12.7294 16.8017 10.2969 14.0228 10.2969 10.515C10.2969 8.91648 11.3142 7.23914 12.4525 5.87433C13.5747 4.52878 14.76 3.55067 15.0115 3.34515L15.6553 2.8457L16.299 3.34514C16.5506 3.55065 17.7358 4.52877 18.8581 5.87433C19.9963 7.23914 21.0137 8.91648 21.0137 10.515C21.0137 14.0228 18.5811 16.8017 15.6553 16.8017ZM15.8644 5.72409L15.6553 5.52707L15.4462 5.72409C14.7869 6.34536 14.0221 7.16003 13.4193 7.99788C13.1179 8.41689 12.8525 8.84783 12.6616 9.26825C12.4718 9.68603 12.347 10.1117 12.347 10.515C12.347 12.7585 13.7539 14.7089 15.6553 14.7089C17.5566 14.7089 18.9635 12.7585 18.9635 10.515C18.9635 10.1117 18.8388 9.68603 18.649 9.26825C18.458 8.84783 18.1927 8.41689 17.8912 7.99788C17.2885 7.16003 16.5237 6.34536 15.8644 5.72409Z" fill="#1B84F9"/>
</svg>
