<svg width="74" height="74" viewBox="0 0 74 74" fill="none" xmlns="http://www.w3.org/2000/svg">
<g clip-path="url(#clip0)">
<path d="M24.4004 16.0612L34.9901 9.94726L36.0876 11.8482L25.4979 17.9622L24.4004 16.0612Z" fill="#1B84F9"/>
<path fill-rule="evenodd" clip-rule="evenodd" d="M35.5899 35.5012C30.2509 38.5837 23.3753 36.7421 20.2752 31.3727C17.1757 26.0041 19.0343 19.158 24.3742 16.075C29.7428 12.9755 36.5888 14.8341 39.6718 20.174C42.7553 25.5148 40.9576 32.4022 35.5899 35.5012ZM25.4717 17.976C21.1768 20.4557 19.6965 25.9802 22.1762 30.2751C24.6559 34.5701 30.1804 36.0504 34.4753 33.5707C38.7703 31.091 40.2506 25.5665 37.7709 21.2715C35.2915 16.9771 29.7969 15.4789 25.4717 17.976Z" fill="#1B84F9"/>
<path d="M39.0111 32.6355L37.9102 30.7286C40.0255 29.6633 42.6086 30.3813 43.7502 32.3587C44.8919 34.3361 44.2222 36.9322 42.242 38.2315L41.141 36.3245C42.0598 35.6509 42.4024 34.4143 41.8493 33.4562C41.2961 32.4982 40.0539 32.1766 39.0111 32.6355Z" fill="#1B84F9"/>
<path fill-rule="evenodd" clip-rule="evenodd" d="M48.1837 57.3117C42.8447 60.3942 35.969 58.5527 32.869 53.1832C29.7695 47.8147 31.6281 40.9686 36.968 37.8856C42.3365 34.7861 49.1826 36.6447 52.2656 41.9846C55.3491 47.3254 53.5513 54.2127 48.1837 57.3117ZM38.0655 39.7865C33.7705 42.2663 32.2902 47.7907 34.7699 52.0857C37.2496 56.3807 42.7741 57.861 47.0691 55.3812C51.3641 52.9015 52.8444 47.3771 50.3646 43.0821C47.8853 38.7877 42.3906 37.2894 38.0655 39.7865Z" fill="#1B84F9"/>
</g>
<defs>
<clipPath id="clip0">
<rect width="53.501" height="53.501" fill="white" transform="translate(0 26.75) rotate(-30)"/>
</clipPath>
</defs>
</svg>
