<svg width="61" height="61" viewBox="0 0 61 61" fill="none" xmlns="http://www.w3.org/2000/svg">
<g clip-path="url(#clip0)">
<path d="M5.24414 34.6842L8.79822 28.5283L42.3897 47.9224L38.8356 54.0782L36.9007 52.9611L39.3376 48.7402L33.3584 45.2881L31.3784 48.7176L29.4434 47.6004L31.4234 44.171L25.4443 40.7189L23.0074 44.9398L21.0724 43.8226L23.5093 39.6017L17.5302 36.1497L15.5502 39.5791L13.6152 38.462L15.5952 35.0325L9.61604 31.5805L7.17912 35.8013L5.24414 34.6842Z" fill="#1B84F9"/>
<path fill-rule="evenodd" clip-rule="evenodd" d="M49.7329 34.2193L49.8322 34.1989L49.732 34.2141L49.7324 34.2168C49.6588 33.8593 49.5297 33.295 49.3522 32.6327C48.9963 31.3042 48.4503 29.5156 47.6038 27.5186L47.6034 27.5175C46.0001 23.6094 43.1309 18.8746 38.4366 16.1644C33.7422 13.4541 28.2072 13.3366 23.9674 13.8719L23.9668 13.872C21.856 14.1263 19.9929 14.5588 18.6919 14.9296L18.6904 14.9301C18.0283 15.1075 17.5163 15.2667 17.1282 15.3929L17.1309 15.3919L17.0941 15.2975L17.1254 15.3938L17.1282 15.3929C16.9427 15.4652 16.8142 15.4997 16.6893 15.5331L16.5279 15.5764L16.5331 15.5743L16.4963 15.48L16.5225 15.5778L16.5279 15.5764L15.7021 15.899L15.6876 15.8172L15.5879 15.8349L15.6248 15.9292L15.7021 15.899L15.8601 16.7923L15.859 16.7881L15.8588 16.7876L15.8587 16.7872C15.8192 16.7513 15.7749 16.7432 15.7499 16.7511L15.7611 16.8141L15.8609 16.7966L15.8601 16.7923L15.8701 16.8296C15.8752 16.8484 15.8769 16.8647 15.8779 16.8769C15.8784 16.8839 15.8787 16.8879 15.8789 16.8909C15.8791 16.8945 15.8792 16.8966 15.8797 16.9004L15.8797 16.9009C15.8802 16.9048 15.8809 16.9106 15.8902 16.9249L15.9051 16.9473L15.9068 16.9742C15.9131 17.0714 15.943 17.1847 15.9998 17.3969L16.0006 17.3998L16.0012 17.4027C16.0748 17.76 16.204 18.3254 16.3819 18.9893C16.7379 20.3178 17.2839 22.1065 18.1303 24.1034L18.1308 24.1045C19.734 28.0126 22.6032 32.7474 27.2976 35.4577C31.9919 38.1679 37.5269 38.2854 41.7667 37.7501L41.7662 37.7502L41.7794 37.8504L41.7667 37.7501C43.8939 37.4693 45.7425 37.0629 47.0702 36.7072C47.7323 36.5298 48.2442 36.3705 48.6324 36.2443L48.6296 36.2454L48.6664 36.3397L48.6351 36.2434L48.6324 36.2443C48.8178 36.172 48.9464 36.1376 49.0713 36.1041L49.1901 36.0723L49.184 36.0748L49.2226 36.1683L49.1964 36.0706L49.1901 36.0723L50.0323 35.7246L50.0465 35.8048L50.1459 35.7872L50.1076 35.6935L50.0323 35.7246L49.874 34.8297L49.8749 34.8329L49.9112 34.8539C49.9025 34.8489 49.8915 34.8393 49.8839 34.824L49.8837 34.8236C49.8774 34.8105 49.8759 34.7981 49.8761 34.7892L49.8762 34.7866C49.8768 34.7779 49.8788 34.7715 49.8801 34.7679C49.8809 34.7659 49.8817 34.764 49.8825 34.7624L49.8838 34.7598L49.8845 34.7585L49.8849 34.7578L49.8668 34.7891L49.874 34.8297L49.864 34.7924C49.859 34.7736 49.8572 34.7573 49.8562 34.7451C49.855 34.7298 49.8553 34.7287 49.8545 34.7216L49.8544 34.7211C49.854 34.7172 49.8533 34.7114 49.8439 34.6972L49.8291 34.6747L49.8273 34.6479C49.8246 34.6052 49.8112 34.5535 49.7908 34.4775L49.7904 34.4761C49.7712 34.4044 49.748 34.3176 49.7324 34.2168L49.7329 34.2193ZM37.3194 18.0993C33.2292 15.7378 28.2997 15.5821 24.2082 16.0749C22.2089 16.2974 20.4863 16.7143 19.2359 17.0493L19.2331 17.0501C18.9023 17.1387 18.5664 17.2287 18.2978 17.3233L18.2093 17.3545L18.2336 17.4451C18.2632 17.5556 18.2921 17.6798 18.3244 17.8189L18.3353 17.8659C18.3719 18.0235 18.413 18.1979 18.4637 18.3869C18.799 19.6385 19.3144 21.3117 20.1056 23.1795L20.1058 23.1799C21.7136 26.9282 24.3133 31.1195 28.4036 33.4811C32.4936 35.8424 37.4492 36.0137 41.4734 35.5166C43.471 35.2943 45.1924 34.8779 46.4426 34.543C46.8036 34.4686 47.1429 34.3779 47.4313 34.2547L47.5121 34.2202L47.4894 34.1353C47.4598 34.0249 47.431 33.9008 47.3987 33.7618L47.3877 33.7145C47.3511 33.5569 47.31 33.3825 47.2593 33.1935C46.924 31.9419 46.4086 30.2687 45.6174 28.4009L45.6172 28.4005C44.0094 24.6522 41.4097 20.4609 37.3194 18.0993Z" fill="#1B84F9"/>
<path fill-rule="evenodd" clip-rule="evenodd" d="M27.5567 22.1119C29.3564 18.9947 33.3307 17.9298 36.4479 19.7295C39.5382 21.5137 40.5887 25.5142 38.8039 28.6055C37.019 31.6972 33.0555 32.8024 29.9391 31.0032C26.8219 29.2035 25.757 25.2291 27.5567 22.1119ZM35.3308 21.6645C33.2774 20.479 30.6772 21.1757 29.4917 23.2291C28.3061 25.2825 29.0029 27.8827 31.0562 29.0682C33.0843 30.2391 35.6985 29.5142 36.8947 27.5048L36.8954 27.5036C38.0809 25.4503 37.3841 22.85 35.3308 21.6645Z" fill="#1B84F9"/>
</g>
<defs>
<clipPath id="clip0">
<rect width="44.3384" height="44.3384" fill="white" transform="translate(22.1699) rotate(30)"/>
</clipPath>
</defs>
</svg>
