<svg width="30" height="24" viewBox="0 0 30 24" fill="none" xmlns="http://www.w3.org/2000/svg">
	<path d="M0 15.9292C0 12.8142 0.791367 9.84071 2.3741 7.00886C4.02878 4.177 6.15108 1.84071 8.74101 0L12.7338 3.18584C11.0072 4.31859 9.46043 5.84071 8.09352 7.75221C6.72662 9.59292 5.97122 11.3628 5.82734 13.062H6.36691C6.72662 12.9912 7.01439 12.9558 7.23022 12.9558C8.74101 12.9558 9.96403 13.4867 10.8993 14.5487C11.9065 15.5398 12.4101 16.8142 12.4101 18.3717C12.4101 19.9292 11.8345 21.2743 10.6835 22.4071C9.60432 23.469 8.27338 24 6.69065 24C4.82014 24 3.23741 23.292 1.94245 21.8761C0.647482 20.3894 0 18.4071 0 15.9292ZM17.2662 15.9292C17.2662 12.8142 18.0576 9.84071 19.6403 7.00886C21.295 4.177 23.4173 1.84071 26.0072 0L30 3.18584C28.2734 4.31859 26.7266 5.84071 25.3597 7.75221C24.0647 9.59292 23.3094 11.3628 23.0935 13.062H23.6331C23.9928 12.9912 24.2806 12.9558 24.4964 12.9558C26.0072 12.9558 27.2662 13.4867 28.2734 14.5487C29.2806 15.5398 29.7842 16.8142 29.7842 18.3717C29.7842 19.9292 29.2086 21.2743 28.0576 22.4071C26.9065 23.469 25.5396 24 23.9568 24C22.0863 24 20.5036 23.292 19.2086 21.8761C17.9137 20.3894 17.2662 18.4071 17.2662 15.9292Z" fill="#313134" />
</svg>
