<svg width="23" height="23" viewBox="0 0 23 23" fill="none" xmlns="http://www.w3.org/2000/svg">
	<path d="M11.5 0C5.14873 0 0 5.14873 0 11.5C0 17.8513 5.14873 23 11.5 23C17.8513 23 23 17.8513 23 11.5C22.9926 5.15179 17.8482 0.00739331 11.5 0Z" fill="white" fill-opacity="0.1" />
	<path d="M17.7901 7.58244L11.3234 16.6089C11.1692 16.8194 10.9392 16.9573 10.6852 16.9916C10.4311 17.026 10.1743 16.9539 9.97244 16.7916L5.35459 12.994C4.94709 12.6586 4.88111 12.0469 5.20721 11.6278C5.53331 11.2086 6.12801 11.1408 6.5355 11.4762L10.3862 14.645L16.2691 6.43287C16.462 6.13513 16.7984 5.97051 17.1447 6.00438C17.491 6.03825 17.7912 6.26512 17.9261 6.59493C18.061 6.92474 18.0087 7.30412 17.7901 7.58244Z" fill="white" />
</svg>
