<svg width="103" height="34" viewBox="0 0 103 34" fill="none" xmlns="http://www.w3.org/2000/svg">
<path d="M4.10708 19.2654C4.84951 18.9787 5.59194 18.9309 6.35017 19.0902C7.1084 19.2495 7.80345 19.6319 8.4669 20.2373C9.13035 20.8427 9.57265 21.4959 9.8096 22.2288C10.0465 22.9617 10.0623 23.7105 9.85699 24.4912C9.65163 25.2559 9.24092 25.9888 8.62486 26.6898L6.55553 29L0 23.0414L2.06934 20.7312C2.6854 20.0302 3.36464 19.5363 4.10708 19.2654ZM8.32473 23.599C8.29314 22.882 7.92982 22.2129 7.25057 21.5915C6.57132 20.9702 5.86048 20.6834 5.14964 20.6993C4.42301 20.7312 3.75956 21.0976 3.1277 21.7827L2.29049 22.7227L6.61871 26.658L7.45593 25.718C8.07199 25.017 8.37212 24.3159 8.32473 23.599Z" fill="#1B84F9"/>
<path d="M14.5631 11L20 18.0192L18.4369 19L13 11.9808L14.5631 11Z" fill="#1B84F9"/>
<path d="M27.1603 13C26.6055 13 26.116 12.8572 25.6918 12.6034C25.2675 12.3496 24.9412 11.9689 24.7127 11.4771L26.5239 10.7474C26.6871 11.0806 26.9319 11.2868 27.2256 11.3978C27.5356 11.5089 27.8783 11.4771 28.2699 11.3185C28.6615 11.1599 28.9389 10.9378 29.0858 10.6681C29.2326 10.3984 29.2489 10.1129 29.1184 9.81151C29.0205 9.57356 28.8573 9.39907 28.6289 9.30389C28.4004 9.20871 28.172 9.16112 27.8946 9.16112C27.6172 9.16112 27.2745 9.19285 26.8177 9.24044C26.1976 9.30389 25.6918 9.33561 25.2838 9.31975C24.8759 9.30389 24.4843 9.19285 24.109 8.98663C23.7337 8.7804 23.44 8.41555 23.2115 7.90793C22.9994 7.41617 22.9505 6.95614 23.0484 6.49611C23.1463 6.03608 23.3747 5.62364 23.75 5.24292C24.1253 4.87807 24.5985 4.56081 25.1696 4.33872C26.0344 3.98974 26.834 3.91042 27.5519 4.10078C28.2699 4.29114 28.8084 4.75117 29.1837 5.44914L27.3235 6.19471C27.1929 5.92504 26.9645 5.73468 26.6545 5.6395C26.3445 5.54432 26.0018 5.57605 25.6265 5.73468C25.3001 5.86159 25.0717 6.05194 24.9412 6.30575C24.8106 6.5437 24.8106 6.82924 24.9575 7.1465C25.0554 7.36859 25.2022 7.51135 25.4144 7.60653C25.6265 7.68585 25.8549 7.73344 26.116 7.73344C26.3771 7.73344 26.7361 7.71757 27.1766 7.66998C27.7967 7.60653 28.3025 7.57481 28.7105 7.59067C29.1184 7.60653 29.5263 7.71757 29.9016 7.93966C30.2769 8.14588 30.5869 8.51073 30.7991 9.01835C30.9949 9.46252 31.0438 9.90669 30.9622 10.3826C30.897 10.8585 30.6685 11.2868 30.3259 11.6992C29.9669 12.0958 29.4774 12.4289 28.8736 12.6827C28.2862 12.889 27.7151 13 27.1603 13Z" fill="#1B84F9"/>
<path d="M38.3366 2.67368C38.6437 1.94946 39.1286 1.3512 39.759 0.894623C40.4055 0.43805 41.149 0.154661 42.0056 0.0444533C43.0077 -0.0814978 43.9129 0.0601972 44.7372 0.469538C45.5615 0.878879 46.1757 1.50863 46.5798 2.3588L44.5109 2.61071C44.2523 2.21711 43.929 1.94946 43.525 1.77628C43.1209 1.61884 42.6845 1.55587 42.1996 1.61884C41.6824 1.68182 41.2298 1.855 40.8581 2.13839C40.4863 2.42178 40.2115 2.79963 40.0337 3.25621C39.8721 3.72852 39.8236 4.24807 39.8883 4.83059C39.9691 5.41312 40.1469 5.90118 40.4217 6.31052C40.6964 6.71986 41.0682 7.01899 41.5046 7.20792C41.941 7.39685 42.4259 7.45982 42.9431 7.39685C43.428 7.33387 43.8482 7.17643 44.1876 6.92453C44.5271 6.67263 44.7857 6.31052 44.9311 5.86969L47 5.61779C46.8222 6.54668 46.3858 7.30239 45.6908 7.88491C45.012 8.46743 44.1553 8.82954 43.1532 8.95549C42.2966 9.0657 41.5046 8.97124 40.7611 8.6721C40.0176 8.37297 39.4195 7.9164 38.9347 7.28664C38.4498 6.65689 38.1588 5.91692 38.0457 5.06675C37.9326 4.20084 38.0295 3.41365 38.3366 2.67368Z" fill="#1B84F9"/>
<path d="M56.6372 7.99521C56.0255 7.50823 55.5706 6.89559 55.2882 6.15728C55.0059 5.41896 54.9274 4.61782 55.0686 3.76954C55.2098 2.92127 55.5235 2.19866 56.0412 1.58602C56.5431 0.973375 57.1706 0.533529 57.9078 0.26648C58.6451 -0.000570006 59.4137 -0.0634052 60.2294 0.0622652C61.0451 0.203644 61.751 0.51782 62.3785 1.00479C62.9902 1.49177 63.4294 2.10441 63.7118 2.84272C63.9941 3.58104 64.0726 4.36648 63.9314 5.21475C63.7902 6.06302 63.4765 6.80134 62.9745 7.41398C62.4726 8.02662 61.8451 8.46647 61.1079 8.73352C60.3706 9.00057 59.602 9.06341 58.7863 8.93773C57.9706 8.79636 57.249 8.48218 56.6372 7.99521ZM60.4647 7.25689C60.9039 7.0841 61.2647 6.80134 61.5628 6.39291C61.8608 6.00019 62.049 5.49751 62.1432 4.91628C62.2373 4.33506 62.2059 3.81667 62.0647 3.3454C61.9079 2.87414 61.6569 2.49713 61.2961 2.19866C60.9353 1.90019 60.4961 1.71169 59.9784 1.63314C59.4608 1.5546 58.9745 1.58602 58.5353 1.75882C58.0961 1.9159 57.7353 2.21437 57.4372 2.60709C57.1392 2.99981 56.951 3.48678 56.8568 4.06801C56.7627 4.64923 56.7941 5.16762 56.9353 5.6546C57.0921 6.12586 57.3431 6.51858 57.7039 6.81705C58.0647 7.11551 58.5039 7.30402 59.0216 7.39827C59.5549 7.46111 60.0255 7.42969 60.4647 7.25689Z" fill="#1B84F9"/>
<path d="M82 7.62519L75.0127 14L73 13.0937L73.9327 4L75.7 4.79877L74.8164 11.9724L80.2164 6.84178L82 7.62519Z" fill="#1B84F9"/>
<path d="M90.3651 15.2292L88.8849 16.9089L91.2533 18.8085L90.3158 19.876L87.9474 17.9765L86.3849 19.7504L89.0493 21.9011L88.0789 23L84 19.719L89.9211 13L94 16.281L93.0296 17.3799L90.3651 15.2292Z" fill="#1B84F9"/>
<path d="M95.6953 32.2632L97.3798 28.5083L96.8825 27.797L94.0428 29.8977L93 28.3925L100.268 23L102.225 25.812C102.626 26.391 102.867 26.9534 102.963 27.5158C103.043 28.0782 102.995 28.5744 102.802 29.0376C102.61 29.4842 102.305 29.8647 101.888 30.1789C101.407 30.5263 100.877 30.7083 100.284 30.7083C99.69 30.7083 99.1285 30.4767 98.5991 30.0135L96.8985 34L95.6953 32.2632ZM97.9734 26.9865L98.8558 28.2436C99.1446 28.6571 99.4494 28.8887 99.7863 28.9383C100.123 29.0045 100.444 28.9053 100.797 28.6571C101.134 28.409 101.326 28.1113 101.359 27.7805C101.391 27.4496 101.278 27.0692 101.006 26.6556L100.123 25.3985L97.9734 26.9865Z" fill="#1B84F9"/>
</svg>
