<svg width="31" height="30" viewBox="0 0 31 30" fill="none" xmlns="http://www.w3.org/2000/svg">
<path d="M30.0317 14.9997C30.0317 23.2838 23.3089 29.9994 15.0158 29.9994C6.72282 29.9994 0 23.2838 0 14.9997C0 6.7156 6.72282 0 15.0158 0C23.3089 0 30.0317 6.7156 30.0317 14.9997Z" fill="#34CFFD"/>
<path d="M22.5234 27.9927C27.0116 25.3992 30.0312 20.5517 30.0312 14.9998C30.0312 9.44782 27.0116 4.60038 22.5234 2.00684C18.0352 4.60038 15.0156 9.44782 15.0156 14.9998C15.0156 20.5517 18.0352 25.3992 22.5234 27.9927Z" fill="#0248F5"/>
<path d="M22.6211 27.9761C24.2368 29.0521 27.0718 29.9994 30.0322 29.9994V0C27.0717 0 24.947 0.674488 22.6211 2.15201C26.8107 4.81329 30.0319 9.67302 30.0319 14.9999C30.0319 20.3267 26.8105 25.3148 22.6211 27.9761Z" fill="#3763E0"/>
</svg>
