<svg width="27" height="27" viewBox="0 0 27 27" fill="none" xmlns="http://www.w3.org/2000/svg">
	<path d="M15.2292 6.99291C14.7954 6.559 14.0918 6.559 13.6579 6.99291C13.224 7.42684 13.224 8.13035 13.6579 8.56427L17.3167 12.223H6.6658C6.05215 12.223 5.55469 12.7205 5.55469 13.3341C5.55469 13.9478 6.05214 14.4453 6.6658 14.4453H17.3167L13.6579 18.104C13.224 18.5379 13.224 19.2415 13.6579 19.6754C14.0918 20.1093 14.7954 20.1093 15.2292 19.6754L20.7848 14.1198C21.2187 13.6859 21.2187 12.9824 20.7848 12.5485L15.2292 6.99291Z" fill="url(#paint0_linear_10464_101049)" />
	<defs>
		<linearGradient id="paint0_linear_10464_101049" x1="5.55469" y1="6.66748" x2="20.6881" y2="6.36609" gradientUnits="userSpaceOnUse">
			<stop stop-color="#229AFA" />
			<stop offset="1" stop-color="#1168F8" />
		</linearGradient>
	</defs>
</svg>
