<svg width="42" height="42" viewBox="0 0 42 42" fill="none" xmlns="http://www.w3.org/2000/svg">
<path d="M38.6608 0.489258H2.9796C1.33415 0.489258 0 1.80465 0 3.43041V38.7983C0 40.4238 1.33415 41.7393 2.9796 41.7393H38.6608C40.3062 41.7393 41.6404 40.4238 41.6404 38.7983V3.43041C41.6256 1.80465 40.3062 0.489258 38.6608 0.489258ZM26.1493 31.5413C22.5175 35.1476 16.7065 35.3101 12.8819 32.0142C12.8671 31.9995 12.8375 31.9847 12.8227 31.9551C12.5855 31.7187 12.5855 31.3492 12.8078 31.1127L25.7195 18.3135C25.9566 18.0918 26.3272 18.0918 26.5644 18.3283C29.9442 22.1267 29.796 27.9203 26.1493 31.5413ZM28.8325 11.101L15.9208 23.9002C15.6837 24.1219 15.3131 24.1219 15.0759 23.8855C11.6961 20.1019 11.8295 14.3082 15.491 10.6872C19.1228 7.08098 24.9338 6.93318 28.7584 10.2143C28.7732 10.2291 28.8028 10.2438 28.8177 10.2734C29.0548 10.4951 29.0548 10.8646 28.8325 11.101Z" fill="black"/>
</svg>
