<svg width="72" height="72" viewBox="0 0 72 72" fill="none" xmlns="http://www.w3.org/2000/svg">
	<g opacity="0.15" clip-path="url(#clip0_10108_92162)">
		<path d="M28.2923 25.6316L26.6113 19.3581L23.8106 20.1086L25.4916 26.3821L19.2181 28.0631L19.9685 30.8637L26.242 29.1827L28.0131 35.7923L30.8137 35.0419L29.0427 28.4323L35.6523 26.6613L34.9018 23.8606L28.2923 25.6316Z" fill="white" />
		<path d="M49.0437 4.94248L9.27415 15.5987C8.32192 15.8538 7.78886 16.7771 8.04401 17.7294L20.6514 64.7806C20.9065 65.7328 21.8298 66.2659 22.782 66.0108L51.3489 58.3563C58.4626 56.4502 62.686 49.1349 60.7799 42.0212L51.1743 6.17262C50.9192 5.22039 49.9959 4.68733 49.0437 4.94248ZM55.9081 35.0418L23.4203 43.7469L24.1707 46.5475L56.6585 37.8425L57.9793 42.7716C58.0093 42.8837 58.0243 42.9397 58.0543 43.0517L25.5665 51.7568L26.317 54.5574L58.3006 45.9875C58.0929 50.3656 55.0795 54.3549 50.5984 55.5556L23.1519 62.9099L11.1449 18.0992L48.6738 8.04332L55.9081 35.0418Z" fill="white" />
	</g>
	<defs>
		<clipPath id="clip0_10108_92162">
			<rect width="57.9894" height="57.9894" fill="white" transform="translate(0.121094 15.0493) rotate(-15)" />
		</clipPath>
	</defs>
</svg>
