<svg width="132" height="143" viewBox="0 0 132 143" fill="none" xmlns="http://www.w3.org/2000/svg">
<circle cx="66" cy="77.5038" r="65.4961" fill="#F4F6F9"/>
<path d="M7.05352 90.603L8.35954 96.4292L13.6031 97.8804L8.35954 99.3315L7.05352 105.158L5.7475 99.3315L0.503906 97.8804L5.7475 96.4292L7.05352 90.603Z" fill="url(#paint0_linear)"/>
<path d="M118.036 33.8397L119.123 37.846L123.13 38.9339L119.123 40.0217L118.036 44.028L116.948 40.0217L112.941 38.9339L116.948 37.846L118.036 33.8397Z" fill="url(#paint1_linear)"/>
<path d="M49.6808 20.9472C51.5641 30.3637 60.7591 36.4568 70.0649 34.5735C79.3706 32.6902 85.6852 23.3844 83.8019 13.9679C81.9186 4.55133 72.7236 -1.54173 63.4179 0.341583C54.0013 2.22489 47.7975 11.5306 49.6808 20.9472Z" fill="#313134"/>
<path d="M54.3318 80.9411C46.6236 77.8721 39.7361 74.301 36.3282 67.4942C32.3267 59.5014 32.7294 47.8343 36.4005 38.9494C43.198 22.4979 62.3013 14.5597 79.0606 21.3474C95.8199 28.0201 103.789 48.9651 96.9919 65.4166C90.1944 81.8682 71.0911 87.6138 54.3318 80.9411Z" fill="#313134"/>
<path d="M92.4398 66.9487C93.4369 58.5292 91.1047 51.1204 91.1047 51.1204C91.1047 51.1204 91.1104 30.6119 67.0706 30.7227C40.815 30.7227 42.8023 51.1204 42.8023 51.1204C42.8023 51.1204 40.1503 58.4184 41.2582 66.7272V66.6164C41.2582 66.6164 36.4945 62.8498 32.9494 67.3919C27.6319 74.0388 36.6053 86.0034 44.6924 80.4642C47.3512 87.4436 51.8933 93.6474 59.0942 96.5278L56.9893 118.463L28.6289 128.544C28.6289 128.544 37.7131 141.506 66.849 141.506C95.9849 141.506 99.4192 130.317 99.4192 130.317L76.5979 119.127L75.2685 96.9709C82.5802 94.3121 86.9007 87.7759 89.5595 80.4642C97.6466 86.2249 106.731 74.2604 101.413 67.5026C98.2005 63.5145 93.4369 66.284 92.4398 66.9487Z" fill="#F4D8C8"/>
<path d="M70.6164 98.3C70.1733 98.6323 57.7656 109.378 57.7656 109.378L58.9842 96.5275C63.5263 98.0784 66.0743 98.5216 70.6164 98.3Z" fill="#CAB59F"/>
<path d="M36.3867 71.1589C36.3867 71.1589 39.0455 70.3834 41.9259 75.9226" stroke="#B7A089" stroke-width="0.7" stroke-miterlimit="10" stroke-linecap="round" stroke-linejoin="round"/>
<path d="M97.754 71.1589C97.754 71.1589 95.0952 70.3834 92.2148 75.9226" stroke="#B7A089" stroke-width="0.7" stroke-miterlimit="10" stroke-linecap="round" stroke-linejoin="round"/>
<path d="M69.3964 72.3772V75.9222H67.4023" stroke="#B7A089" stroke-width="0.7" stroke-miterlimit="10" stroke-linecap="round" stroke-linejoin="round"/>
<path d="M62.1965 55.9815C62.1965 55.9815 62.8612 58.4188 58.9838 58.6403C55.9926 58.6403 52.3368 59.4158 50.6751 59.8589C49.7888 59.9697 48.681 59.7482 48.2378 58.9727C47.9055 58.308 47.9055 57.7541 48.5702 57.3109C49.678 56.4247 53.5554 54.0982 57.2112 54.0982C61.5318 53.6551 62.1965 55.9815 62.1965 55.9815Z" fill="#313134"/>
<path d="M74.1605 56.0924C74.1605 56.0924 73.4958 58.5296 77.3732 58.7512C80.3644 58.7512 84.0202 59.5267 85.6819 59.9698C86.5682 60.0806 87.676 59.859 88.1192 59.0835C88.4515 58.4188 88.4515 57.8649 87.7868 57.4218C86.679 56.5355 82.8016 54.2091 79.1457 54.2091C74.7144 53.7659 74.1605 56.0924 74.1605 56.0924Z" fill="#313134"/>
<path d="M68.29 84.8956C61.7538 84.8956 60.5352 80.5751 60.5352 80.5751H75.8232C75.934 80.5751 74.7154 84.7848 68.29 84.8956Z" fill="white"/>
<path d="M75.9336 67.9461C75.9336 67.9461 78.26 65.2873 81.9159 67.9461" stroke="#313134" stroke-width="0.8957" stroke-miterlimit="10" stroke-linecap="round" stroke-linejoin="round"/>
<path d="M54.4375 67.9461C54.4375 67.9461 56.7639 65.2873 60.4198 67.9461" stroke="#313134" stroke-width="0.8957" stroke-miterlimit="10" stroke-linecap="round" stroke-linejoin="round"/>
<path d="M74.8261 26.4024C74.8261 26.4024 65.9634 52.8795 40.7049 51.3286C40.7049 51.3286 35.2766 17.5398 74.8261 26.4024Z" fill="#313134"/>
<path d="M60.7617 26.4023C60.7617 26.4023 69.6243 52.8794 94.8828 51.3285C94.9936 51.3285 93.4427 16.3211 60.7617 26.4023Z" fill="#313134"/>
<path d="M79.2568 75.9224C83.968 75.9224 87.7871 72.1032 87.7871 67.3921C87.7871 62.681 83.968 58.8618 79.2568 58.8618C74.5457 58.8618 70.7266 62.681 70.7266 67.3921C70.7266 72.1032 74.5457 75.9224 79.2568 75.9224Z" stroke="#313134" stroke-width="1.5"/>
<path d="M57.2139 75.9224C61.925 75.9224 65.7442 72.1032 65.7442 67.3921C65.7442 62.681 61.925 58.8618 57.2139 58.8618C52.5027 58.8618 48.6836 62.681 48.6836 67.3921C48.6836 72.1032 52.5027 75.9224 57.2139 75.9224Z" stroke="#313134" stroke-width="1.5"/>
<path d="M70.5027 66.9491H66.293" stroke="#313134" stroke-width="1.5"/>
<path d="M51.0054 119.239L66.1827 118.242L83.2433 120.458C83.2433 120.458 97.2306 122.747 106.933 128.263C86.1922 145.729 48.5319 147.912 25.0625 128.263C33.0644 123.308 51.0054 119.239 51.0054 119.239Z" fill="url(#paint2_linear)"/>
<path d="M54.5489 110.487L47.0156 117.798C52.444 124.778 57.9831 128.655 61.7497 128.655L66.1811 117.134C61.639 117.245 58.7586 114.253 54.5489 110.487Z" fill="white"/>
<path d="M77.8119 110.487L85.3451 117.798C79.9168 124.778 74.3776 128.655 70.611 128.655L66.1797 117.134C70.7218 117.244 73.6021 114.253 77.8119 110.487Z" fill="white"/>
<path d="M95.6072 65.717C95.4 66.9856 95.1064 63.4976 95.1337 63.0675C95.4666 57.8367 95.0227 52.5027 93.3758 47.5064C89.7581 36.5314 80.1042 28.9332 68.5272 28.3089C47.3369 27.1662 36.6778 46.5921 38.9333 65.6268C39.0289 66.4337 37.9929 63.3314 37.9064 62.605C37.2402 57.0129 37.4865 51.2669 39.1354 45.8587C42.7067 34.1446 53.1983 25.894 65.432 25.2287C87.98 24.0023 98.8422 45.9153 95.6072 65.717Z" fill="url(#paint3_linear)"/>
<path fill-rule="evenodd" clip-rule="evenodd" d="M92.4549 65.8864C92.4549 65.8864 92.455 65.8866 92.9596 65.8409C93.4643 65.7951 93.4643 65.7955 93.4643 65.7958L93.4645 65.797L93.4648 65.8009L93.4659 65.8145L93.4699 65.8647C93.4732 65.9082 93.4776 65.9716 93.4825 66.0536C93.4923 66.2178 93.5038 66.4566 93.5112 66.76C93.526 67.3668 93.5242 68.2328 93.4588 69.2773C93.328 71.3639 92.9423 74.1758 91.9178 77.0598C90.8929 79.9448 89.2234 82.9167 86.5169 85.3001C83.8057 87.6876 80.081 89.4606 74.9904 89.984L74.8867 88.9758C79.7844 88.4723 83.3065 86.7768 85.8471 84.5395C88.3924 82.298 89.9795 79.4885 90.9628 76.7205C91.9465 73.9515 92.3204 71.2388 92.4473 69.2139C92.5107 68.2028 92.5122 67.3664 92.4981 66.7847C92.491 66.4939 92.48 66.267 92.4709 66.1139C92.4663 66.0374 92.4622 65.9793 92.4593 65.941L92.456 65.8985L92.4551 65.8887L92.455 65.8867L92.4549 65.8864Z" fill="#313134"/>
<path d="M73.6403 91.1322H70.4965C69.7548 91.1322 69.1523 90.529 69.1523 89.7996C69.1523 89.0702 69.7548 88.467 70.4965 88.467H73.6403C74.3821 88.467 74.9845 89.0702 74.9845 89.7996C74.9845 90.5312 74.3923 91.1322 73.6403 91.1322Z" fill="#313134" stroke="#313134"/>
<path d="M90.2517 72.749C90.8718 67.3012 94.6476 63.2544 98.6678 63.712C102.701 64.171 105.458 68.9612 104.838 74.4091C104.218 79.8569 100.442 83.9036 96.4218 83.4461C92.3902 82.9744 89.6317 78.1968 90.2517 72.749Z" fill="url(#paint4_linear)"/>
<path d="M44.4966 73.6159C44.4966 79.0989 41.2027 83.5467 37.1565 83.5467C33.0974 83.5467 29.8164 79.0989 29.8164 73.6159C29.8164 68.1329 33.1104 63.6852 37.1565 63.6852C41.2156 63.698 44.4966 68.1329 44.4966 73.6159Z" fill="url(#paint5_linear)"/>
<defs>
<linearGradient id="paint0_linear" x1="0.503906" y1="90.603" x2="13.2497" y2="90.4072" gradientUnits="userSpaceOnUse">
<stop stop-color="#229AFA"/>
<stop offset="1" stop-color="#1168F8"/>
</linearGradient>
<linearGradient id="paint1_linear" x1="112.941" y1="33.8397" x2="122.854" y2="33.6705" gradientUnits="userSpaceOnUse">
<stop stop-color="#229AFA"/>
<stop offset="1" stop-color="#1168F8"/>
</linearGradient>
<linearGradient id="paint2_linear" x1="25.0625" y1="118.242" x2="104.472" y2="113.609" gradientUnits="userSpaceOnUse">
<stop stop-color="#229AFA"/>
<stop offset="1" stop-color="#1168F8"/>
</linearGradient>
<linearGradient id="paint3_linear" x1="37.5625" y1="25.1794" x2="94.5656" y2="23.7822" gradientUnits="userSpaceOnUse">
<stop stop-color="#229AFA"/>
<stop offset="1" stop-color="#1168F8"/>
</linearGradient>
<linearGradient id="paint4_linear" x1="103.715" y1="84.2761" x2="89.5009" y2="82.8398" gradientUnits="userSpaceOnUse">
<stop stop-color="#229AFA"/>
<stop offset="1" stop-color="#1168F8"/>
</linearGradient>
<linearGradient id="paint5_linear" x1="29.8164" y1="63.6852" x2="44.1016" y2="63.5049" gradientUnits="userSpaceOnUse">
<stop stop-color="#229AFA"/>
<stop offset="1" stop-color="#1168F8"/>
</linearGradient>
</defs>
</svg>
