<svg width="174" height="174" viewBox="0 0 174 174" fill="none" xmlns="http://www.w3.org/2000/svg">
<path d="M25.9961 53.3333L27.1925 58.6706L31.9961 59.9999L27.1925 61.3293L25.9961 66.6666L24.7997 61.3293L19.9961 59.9999L24.7997 58.6706L25.9961 53.3333Z" fill="url(#paint0_linear)"/>
<path d="M124.66 30.6663L125.941 35.9093L130.66 37.333L125.941 38.7566L124.66 43.9996L123.379 38.7566L118.66 37.333L123.379 35.9093L124.66 30.6663Z" fill="url(#paint1_linear)"/>
<path d="M57.9948 21.3333L58.9913 25.0034L62.6615 25.9999L58.9913 26.9965L57.9948 30.6666L56.9982 26.9965L53.3281 25.9999L56.9982 25.0034L57.9948 21.3333Z" fill="url(#paint2_linear)"/>
<path d="M149.999 66.6662L150.995 70.3363L154.665 71.3329L150.995 72.3294L149.999 75.9996L149.002 72.3294L145.332 71.3329L149.002 70.3363L149.999 66.6662Z" fill="url(#paint3_linear)"/>
<path d="M33.9948 138.667L34.9913 142.337L38.6615 143.333L34.9913 144.33L33.9948 148L32.9982 144.33L29.3281 143.333L32.9982 142.337L33.9948 138.667Z" fill="url(#paint4_linear)"/>
<path d="M131.328 126.666L132.609 131.385L137.328 132.666L132.609 133.948L131.328 138.666L130.047 133.948L125.328 132.666L130.047 131.385L131.328 126.666Z" fill="url(#paint5_linear)"/>
<circle cx="82.6575" cy="92.0004" r="57.3333" fill="url(#paint6_radial)"/>
<circle cx="82.6562" cy="92.0001" r="48" fill="url(#paint7_linear)"/>
<path opacity="0.6" d="M67.3318 82.2628L34.5234 92.313L53.1189 118.878L100.539 78.191L67.3318 82.2628Z" fill="url(#paint8_linear)"/>
<path opacity="0.6" d="M111.565 68.6866L35.8326 105.233L37.1845 98.9546L28.7422 94.0347L111.565 68.6866Z" fill="url(#paint9_linear)"/>
<path opacity="0.6" d="M111.566 68.6866L51.125 112.298L61.7606 124.346L73.6945 124.602L111.566 68.6866Z" fill="url(#paint10_linear)"/>
<path d="M111.565 68.6866L65.3047 90.5354L69.6937 104.747L111.565 68.6866Z" fill="url(#paint11_linear)"/>
<path d="M111.565 68.6866L65.3047 90.5354L69.6937 104.747L111.565 68.6866Z" fill="url(#paint12_linear)"/>
<path d="M111.559 68.6866L65.2993 90.5354L57.5959 91.0649L53.0391 86.8221L111.559 68.6866Z" fill="url(#paint13_linear)"/>
<path d="M111.57 68.6866L74.0882 95.6684L69.6992 104.747L111.57 68.6866Z" fill="url(#paint14_linear)"/>
<path d="M111.57 68.6866L74.0882 95.6684L69.6992 104.747L111.57 68.6866Z" fill="url(#paint15_linear)"/>
<path d="M111.564 68.6866L74.082 95.6684L79.9278 102.137L87.1044 104.768L111.564 68.6866Z" fill="url(#paint16_linear)"/>
<path d="M87.0996 104.768L79.923 102.137L74.0772 95.6682L69.6883 104.747L65.2993 90.5352L57.5959 91.0647L53.0391 86.8219L57.766 90.9382L65.4321 90.4813L69.7302 104.151L74.0772 95.6682L79.9463 101.863L87.0996 104.768Z" fill="white"/>
<path d="M35.5948 81.942C35.9307 81.7912 36.0807 81.3967 35.9299 81.0608C35.7791 80.7249 35.3846 80.5749 35.0487 80.7257L35.5948 81.942ZM35.0487 80.7257C34.19 81.1112 33.3633 81.5227 32.5687 81.9579L33.2091 83.1273C33.9727 82.7092 34.7678 82.3133 35.5948 81.942L35.0487 80.7257ZM27.9638 85.0073C26.4709 86.1939 25.1405 87.476 23.971 88.8267L24.979 89.6995C26.0942 88.4115 27.3648 87.1866 28.7934 86.0512L27.9638 85.0073ZM20.7772 93.3465C19.8399 95.0046 19.106 96.7134 18.5729 98.4333L19.8465 98.828C20.3511 97.2 21.047 95.5788 21.938 94.0026L20.7772 93.3465ZM17.5514 103.893C17.4273 105.803 17.5533 107.676 17.9273 109.455L19.2321 109.181C18.8844 107.526 18.7653 105.775 18.8819 103.979L17.5514 103.893ZM19.9276 114.691C20.8794 116.309 22.1094 117.749 23.6118 118.939L24.4398 117.894C23.0716 116.81 21.9487 115.497 21.0767 114.015L19.9276 114.691ZM28.5646 121.572C30.2253 122.115 32.06 122.436 34.0626 122.503L34.1071 121.171C32.2204 121.108 30.5108 120.805 28.9784 120.305L28.5646 121.572ZM39.576 122.092C41.2755 121.798 43.0656 121.347 44.9448 120.725L44.5255 119.459C42.7036 120.063 40.9777 120.497 39.3488 120.778L39.576 122.092ZM50.0021 118.723C51.5696 118.007 53.1899 117.18 54.8625 116.237L54.2077 115.076C52.5656 116.002 50.9787 116.811 49.4477 117.511L50.0021 118.723ZM59.5188 113.394C60.9718 112.44 62.4601 111.404 63.9833 110.28L63.1917 109.207C61.6872 110.317 60.2189 111.34 58.7873 112.279L59.5188 113.394ZM68.2783 106.952C68.9856 106.378 69.6999 105.786 70.4211 105.176L69.5598 104.158C68.8456 104.763 68.1384 105.349 67.4383 105.916L68.2783 106.952Z" fill="url(#paint17_linear)"/>
<defs>
<linearGradient id="paint0_linear" x1="19.9961" y1="53.3333" x2="31.6723" y2="53.1539" gradientUnits="userSpaceOnUse">
<stop stop-color="#229AFA"/>
<stop offset="1" stop-color="#1168F8"/>
</linearGradient>
<linearGradient id="paint1_linear" x1="118.66" y1="30.6663" x2="130.336" y2="30.4869" gradientUnits="userSpaceOnUse">
<stop stop-color="#229AFA"/>
<stop offset="1" stop-color="#1168F8"/>
</linearGradient>
<linearGradient id="paint2_linear" x1="53.3281" y1="21.3333" x2="62.4091" y2="21.1782" gradientUnits="userSpaceOnUse">
<stop stop-color="#229AFA"/>
<stop offset="1" stop-color="#1168F8"/>
</linearGradient>
<linearGradient id="paint3_linear" x1="145.332" y1="66.6662" x2="154.413" y2="66.5112" gradientUnits="userSpaceOnUse">
<stop stop-color="#229AFA"/>
<stop offset="1" stop-color="#1168F8"/>
</linearGradient>
<linearGradient id="paint4_linear" x1="29.3281" y1="138.667" x2="38.4091" y2="138.512" gradientUnits="userSpaceOnUse">
<stop stop-color="#229AFA"/>
<stop offset="1" stop-color="#1168F8"/>
</linearGradient>
<linearGradient id="paint5_linear" x1="125.328" y1="126.666" x2="137.004" y2="126.467" gradientUnits="userSpaceOnUse">
<stop stop-color="#229AFA"/>
<stop offset="1" stop-color="#1168F8"/>
</linearGradient>
<radialGradient id="paint6_radial" cx="0" cy="0" r="1" gradientUnits="userSpaceOnUse" gradientTransform="translate(82.6575 92.0004) rotate(41.894) scale(60.9007 61.3569)">
<stop stop-color="#229AFA"/>
<stop offset="1" stop-color="#0060FF" stop-opacity="0"/>
</radialGradient>
<linearGradient id="paint7_linear" x1="34.6563" y1="44.0001" x2="128.061" y2="42.4057" gradientUnits="userSpaceOnUse">
<stop stop-color="#229AFA"/>
<stop offset="1" stop-color="#1168F8"/>
</linearGradient>
<linearGradient id="paint8_linear" x1="49.1341" y1="109.58" x2="83.0704" y2="89.6545" gradientUnits="userSpaceOnUse">
<stop stop-color="white" stop-opacity="0"/>
<stop offset="1" stop-color="white"/>
</linearGradient>
<linearGradient id="paint9_linear" x1="35.1914" y1="94.9698" x2="69.2752" y2="63.0228" gradientUnits="userSpaceOnUse">
<stop stop-color="white" stop-opacity="0"/>
<stop offset="1" stop-color="white"/>
</linearGradient>
<linearGradient id="paint10_linear" x1="56.4484" y1="114.229" x2="61.7173" y2="79.4184" gradientUnits="userSpaceOnUse">
<stop stop-color="white" stop-opacity="0"/>
<stop offset="1" stop-color="white"/>
</linearGradient>
<linearGradient id="paint11_linear" x1="93.88" y1="98.8699" x2="86.9775" y2="74.7069" gradientUnits="userSpaceOnUse">
<stop stop-color="#D4D1D8"/>
<stop offset="1" stop-color="white"/>
</linearGradient>
<linearGradient id="paint12_linear" x1="89.6418" y1="84.5336" x2="87.5135" y2="79.8752" gradientUnits="userSpaceOnUse">
<stop stop-color="#E6F0FF"/>
<stop offset="1" stop-color="#CDE5FF"/>
</linearGradient>
<linearGradient id="paint13_linear" x1="43.4336" y1="55.2913" x2="82.14" y2="78.1841" gradientUnits="userSpaceOnUse">
<stop stop-color="#D4D1D8"/>
<stop offset="1" stop-color="white"/>
</linearGradient>
<linearGradient id="paint14_linear" x1="70.9276" y1="89.4466" x2="90.6844" y2="86.7376" gradientUnits="userSpaceOnUse">
<stop stop-color="#D4D1D8"/>
<stop offset="1" stop-color="white"/>
</linearGradient>
<linearGradient id="paint15_linear" x1="89.7087" y1="106.262" x2="90.2315" y2="95.3382" gradientUnits="userSpaceOnUse">
<stop stop-color="white"/>
<stop offset="1" stop-color="#DEDFE0"/>
</linearGradient>
<linearGradient id="paint16_linear" x1="120.664" y1="101.666" x2="90.3949" y2="82.1225" gradientUnits="userSpaceOnUse">
<stop stop-color="#D4D1D8"/>
<stop offset="1" stop-color="white"/>
</linearGradient>
<linearGradient id="paint17_linear" x1="19.9948" y1="102.667" x2="59.9948" y2="113.334" gradientUnits="userSpaceOnUse">
<stop stop-color="#1168F8"/>
<stop offset="1" stop-color="white"/>
</linearGradient>
</defs>
</svg>
