<svg xmlns="http://www.w3.org/2000/svg" xmlns:xlink="http://www.w3.org/1999/xlink" width="111" height="95" viewBox="0 0 111 95"><defs><path id="937ia" d="M856.15 5731.9l100.18-40.7a2.66 2.66 0 0 1 3.62 2.98l-16.3 82.94a5.27 5.27 0 0 1-5.13 4.18c-1.07 0-2.1-.33-2.97-.94l-19.64-13.57-13.86 15.32a2.65 2.65 0 0 1-2.88.74 2.68 2.68 0 0 1-1.81-2.36l-1.44-26.96-39.2-11.83a5.18 5.18 0 0 1-3.71-4.69 5.26 5.26 0 0 1 3.14-5.12zm55.33 31.82l-10.04-6.93.9 17.02zm41.33-60.95l-50.13 48.4 35.75 24.7zm-94.21 33.92l39.15 11.8 49.56-47.86z"/></defs><g><g transform="translate(-851 -5689)"><use fill="#ff6873" xlink:href="#937ia"/></g></g></svg>