<svg width="110" height="110" viewBox="0 0 110 110" fill="none" xmlns="http://www.w3.org/2000/svg">
<rect width="110" height="110" fill="white"/>
<path d="M28.092 73.219L53.9828 74.4509L70.7089 78.7776L70.7902 78.7989L70.8377 78.7481L89.3143 59.0161L53.9828 39.094L19.7441 58.9654L28.092 73.219Z" fill="url(#paint0_linear_9118_69663)"/>
<path d="M28.092 73.219L53.9828 74.4509L70.7089 78.7776L70.7902 78.7989L70.8377 78.7481L89.3143 59.0161L53.9828 39.094L19.7441 58.9654L28.092 73.219Z" fill="black" fill-opacity="0.2"/>
<mask id="mask0_9118_69663" style="mask-type:alpha" maskUnits="userSpaceOnUse" x="6" y="13" width="98" height="63">
<path opacity="0.6" d="M54.1702 75.6524L19.7436 58.9657L6.44531 13.7625H104.001L89.2936 58.9657L54.1702 75.6524Z" fill="url(#paint1_linear_9118_69663)"/>
</mask>
<g mask="url(#mask0_9118_69663)">
<path opacity="0.6" d="M54.1702 75.6524L19.7436 58.9657L6.44531 13.7625H104.001L89.2936 58.9657L54.1702 75.6524Z" fill="url(#paint2_linear_9118_69663)"/>
</g>
<rect x="24.5195" y="27.2762" width="60.3584" height="61.4762" rx="2.70421" fill="white"/>
<rect opacity="0.5" x="50.3887" y="33.1483" width="28.2322" height="3.31191" rx="1.65596" fill="#A5CEFF"/>
<rect opacity="0.5" x="50.3887" y="40.2063" width="21.1741" height="3.3119" rx="1.65595" fill="#A5CEFF"/>
<rect opacity="0.5" x="31.5664" y="53.1463" width="45.8773" height="3.3119" rx="1.65595" fill="#A5CEFF"/>
<rect opacity="0.5" x="31.5664" y="60.2042" width="45.8773" height="3.31191" rx="1.65596" fill="#A5CEFF"/>
<rect opacity="0.5" x="31.5664" y="67.2622" width="29.4085" height="3.3119" rx="1.65595" fill="#A5CEFF"/>
<path fill-rule="evenodd" clip-rule="evenodd" d="M44.9613 40.0736C44.9638 39.9987 44.965 39.9235 44.965 39.8479C44.965 39.7724 44.9638 39.6972 44.9613 39.6223V33.1487C43.7419 33.1487 42.5986 33.4745 41.6138 34.0439C40.6287 33.4745 39.4853 33.1486 38.2657 33.1486C34.5658 33.1486 31.5664 36.148 31.5664 39.8479C31.5664 43.5479 34.5658 46.5473 38.2657 46.5473C39.4853 46.5473 40.6287 46.2214 41.6137 45.652C42.5986 46.2214 43.7419 46.5473 44.9613 46.5473V40.0736Z" fill="url(#paint3_linear_9118_69663)"/>
<path opacity="0.5" d="M44.965 39.848C44.965 43.5479 41.9657 46.5473 38.2657 46.5473C34.5658 46.5473 31.5664 43.5479 31.5664 39.848C31.5664 36.148 34.5658 33.1487 38.2657 33.1487C41.9657 33.1487 44.965 36.148 44.965 39.848Z" fill="white"/>
<path d="M41.6133 45.7095C43.6158 44.5394 44.963 42.3524 44.963 39.8476C44.963 37.3427 43.6158 35.1558 41.6133 33.9857C39.6109 35.1558 38.2637 37.3427 38.2637 39.8476C38.2637 42.3524 39.6109 44.5394 41.6133 45.7095Z" fill="url(#paint4_linear_9118_69663)"/>
<path opacity="0.5" d="M41.6133 45.6433C42.3436 46.1239 43.6249 46.547 44.9629 46.547V33.1483C43.6249 33.1483 42.6645 33.4496 41.6133 34.1095C43.5069 35.2981 44.9628 37.4686 44.9628 39.8478C44.9628 42.2269 43.5068 44.4547 41.6133 45.6433Z" fill="white"/>
<path d="M19.7441 58.9655L54.5191 81.5968L89.2941 58.9655V94.2282C89.2941 99.751 84.817 104.228 79.2941 104.228H29.7441C24.2213 104.228 19.7441 99.751 19.7441 94.2282V58.9655Z" fill="url(#paint5_linear_9118_69663)"/>
<path opacity="0.2" d="M19.7441 93.1885V58.9655L54.5191 81.5968L89.2941 58.9655V93.1885C89.2941 95.928 88.2963 98.4345 86.6442 100.364L54.5191 81.5968L22.3941 100.364C20.742 98.4345 19.7441 95.928 19.7441 93.1885Z" fill="white"/>
<path d="M10.1169 30.5462L11.0582 34.7453L14.8373 35.7911L11.0582 36.837L10.1169 41.036L9.17563 36.837L5.39648 35.7911L9.17563 34.7453L10.1169 30.5462Z" fill="url(#paint6_linear_9118_69663)"/>
<path d="M77.2497 8.51764L78.2577 12.6425L81.9701 13.7625L78.2577 14.8826L77.2497 19.0075L76.2417 14.8826L72.5293 13.7625L76.2417 12.6425L77.2497 8.51764Z" fill="url(#paint7_linear_9118_69663)"/>
<path d="M28.9996 5.37054L29.7836 8.25796L32.671 9.04198L29.7836 9.826L28.9996 12.7134L28.2155 9.826L25.3281 9.04198L28.2155 8.25796L28.9996 5.37054Z" fill="url(#paint8_linear_9118_69663)"/>
<path d="M95.1324 43.2809L95.9164 46.1684L98.8038 46.9524L95.9164 47.7364L95.1324 50.6238L94.3484 47.7364L91.4609 46.9524L94.3484 46.1684L95.1324 43.2809Z" fill="url(#paint9_linear_9118_69663)"/>
<defs>
<linearGradient id="paint0_linear_9118_69663" x1="19.7441" y1="39.094" x2="87.3926" y2="37.0706" gradientUnits="userSpaceOnUse">
<stop stop-color="#229AFA"/>
<stop offset="1" stop-color="#1168F8"/>
</linearGradient>
<linearGradient id="paint1_linear_9118_69663" x1="54.5819" y1="18.1899" x2="55.2243" y2="75.6524" gradientUnits="userSpaceOnUse">
<stop stop-color="white" stop-opacity="0"/>
<stop offset="1" stop-color="white"/>
</linearGradient>
<linearGradient id="paint2_linear_9118_69663" x1="6.44531" y1="13.7625" x2="101.322" y2="11.2096" gradientUnits="userSpaceOnUse">
<stop stop-color="#229AFA"/>
<stop offset="1" stop-color="#1168F8"/>
</linearGradient>
<linearGradient id="paint3_linear_9118_69663" x1="31.5664" y1="33.1486" x2="44.6028" y2="32.9261" gradientUnits="userSpaceOnUse">
<stop stop-color="#229AFA"/>
<stop offset="1" stop-color="#1168F8"/>
</linearGradient>
<linearGradient id="paint4_linear_9118_69663" x1="38.2637" y1="33.9857" x2="44.7831" y2="33.9221" gradientUnits="userSpaceOnUse">
<stop stop-color="#229AFA"/>
<stop offset="1" stop-color="#1168F8"/>
</linearGradient>
<linearGradient id="paint5_linear_9118_69663" x1="19.7441" y1="58.9655" x2="87.3869" y2="57.1912" gradientUnits="userSpaceOnUse">
<stop stop-color="#229AFA"/>
<stop offset="1" stop-color="#1168F8"/>
</linearGradient>
<linearGradient id="paint6_linear_9118_69663" x1="5.39648" y1="30.5462" x2="14.5826" y2="30.4051" gradientUnits="userSpaceOnUse">
<stop stop-color="#229AFA"/>
<stop offset="1" stop-color="#1168F8"/>
</linearGradient>
<linearGradient id="paint7_linear_9118_69663" x1="72.5293" y1="8.51764" x2="81.7154" y2="8.37651" gradientUnits="userSpaceOnUse">
<stop stop-color="#229AFA"/>
<stop offset="1" stop-color="#1168F8"/>
</linearGradient>
<linearGradient id="paint8_linear_9118_69663" x1="25.3281" y1="5.37054" x2="32.4725" y2="5.24859" gradientUnits="userSpaceOnUse">
<stop stop-color="#229AFA"/>
<stop offset="1" stop-color="#1168F8"/>
</linearGradient>
<linearGradient id="paint9_linear_9118_69663" x1="91.4609" y1="43.2809" x2="98.6053" y2="43.159" gradientUnits="userSpaceOnUse">
<stop stop-color="#229AFA"/>
<stop offset="1" stop-color="#1168F8"/>
</linearGradient>
</defs>
</svg>
