<svg width="825" height="1303" viewBox="0 0 825 1303" fill="none" xmlns="http://www.w3.org/2000/svg">
<circle cx="71.9607" cy="615.618" r="13.1365" transform="rotate(-33.7736 71.9607 615.618)" stroke="#6674FF" stroke-width="2"/>
<circle cx="423.023" cy="68.6799" r="8.135" transform="rotate(-33.7736 423.023 68.6799)" stroke="#6674FF" stroke-width="2"/>
<circle cx="38.2025" cy="38.2025" r="27.5402" transform="rotate(-33.7736 38.2025 38.2025)" stroke="#6674FF" stroke-width="2"/>
<circle cx="95.1677" cy="15.8249" r="4.635" transform="rotate(-33.7736 95.1677 15.8249)" stroke="#6674FF" stroke-width="2"/>
<circle cx="60.1677" cy="425.825" r="4.635" transform="rotate(-33.7736 60.1677 425.825)" stroke="#6674FF" stroke-width="2"/>
<circle cx="732.386" cy="1290.04" r="9.11776" transform="rotate(-33.7736 732.386 1290.04)" stroke="url(#paint0_linear_10459_110224)" stroke-width="2"/>
<circle cx="781.99" cy="779.647" r="6.66934" transform="rotate(-33.7736 781.99 779.647)" stroke="url(#paint1_linear_10459_110224)" stroke-width="2"/>
<ellipse cx="799.228" cy="1181.88" rx="18.3758" ry="18.3758" transform="rotate(-33.7736 799.228 1181.88)" stroke="url(#paint2_linear_10459_110224)" stroke-width="2"/>
<circle cx="762.619" cy="1066.28" r="33.0755" transform="rotate(-33.7736 762.619 1066.28)" stroke="url(#paint3_linear_10459_110224)" stroke-width="2"/>
<defs>
<linearGradient id="paint0_linear_10459_110224" x1="723.268" y1="1280.92" x2="741.011" y2="1280.62" gradientUnits="userSpaceOnUse">
<stop stop-color="#229AFA"/>
<stop offset="1" stop-color="#1168F8"/>
</linearGradient>
<linearGradient id="paint1_linear_10459_110224" x1="775.32" y1="772.977" x2="788.298" y2="772.756" gradientUnits="userSpaceOnUse">
<stop stop-color="#229AFA"/>
<stop offset="1" stop-color="#1168F8"/>
</linearGradient>
<linearGradient id="paint2_linear_10459_110224" x1="780.852" y1="1163.51" x2="816.61" y2="1162.9" gradientUnits="userSpaceOnUse">
<stop stop-color="#229AFA"/>
<stop offset="1" stop-color="#1168F8"/>
</linearGradient>
<linearGradient id="paint3_linear_10459_110224" x1="729.544" y1="1033.2" x2="793.906" y2="1032.1" gradientUnits="userSpaceOnUse">
<stop stop-color="#229AFA"/>
<stop offset="1" stop-color="#1168F8"/>
</linearGradient>
</defs>
</svg>
