<svg width="148" height="321" viewBox="0 0 148 321" fill="none" xmlns="http://www.w3.org/2000/svg">
	<g clip-path="url(#clip0_10564_112821)">
		<path d="M52.2341 22.5562C54.262 32.6961 64.1633 39.2572 74.1839 37.2292C84.2045 35.2012 91.0041 25.1807 88.9762 15.0408C86.9482 4.90094 77.0469 -1.66015 67.0263 0.367822C56.8865 2.39579 50.2061 12.4164 52.2341 22.5562Z" fill="#313134" />
		<path d="M55.6915 39.3764C57.3616 47.6076 65.3542 52.8564 73.4661 51.1863C81.578 49.5162 86.9462 41.5236 85.2761 33.2925C83.606 25.0613 75.6134 19.8124 67.5015 21.4825C59.3896 23.0333 54.0214 31.0259 55.6915 39.3764Z" fill="url(#paint0_linear_10564_112821)" />
		<path d="M58.0758 90.1952C41.017 83.2763 32.9051 63.7123 39.8241 46.6534C46.743 29.5946 66.1877 21.3634 83.2465 28.4017C100.305 35.3207 108.417 54.8846 101.498 71.9435C94.5793 89.0023 75.1347 97.1142 58.0758 90.1952Z" fill="#313134" />
		<path d="M98.2789 74.0902C99.3525 65.024 98.8754 57.6278 98.8754 57.6278C98.8754 57.6278 96.8474 34.9622 70.9609 35.0815C42.6886 35.0815 42.45 57.6278 42.45 57.6278C42.45 57.6278 41.9728 64.9047 43.1658 73.8516V73.7323C43.1658 73.7323 38.0362 69.6764 34.2188 74.5674C28.4928 81.7249 38.1555 94.6085 46.8638 88.6439C49.7268 96.1593 54.6178 102.84 62.3719 105.941L60.1053 129.561L29.5664 140.417C29.5664 140.417 39.3484 154.374 70.7223 154.374C102.096 154.374 105.794 142.326 105.794 142.326L81.2201 130.277L79.7886 106.418C87.6619 103.555 92.3143 96.5172 95.1773 88.6439C103.886 94.8471 113.668 81.9635 107.942 74.6866C104.482 70.3921 99.3525 73.3744 98.2789 74.0902Z" fill="#F4D8C8" />
		<path d="M37.918 78.6239C37.918 78.6239 40.781 77.7889 43.8826 83.7535" stroke="#B7A089" stroke-width="0.7" stroke-miterlimit="10" stroke-linecap="round" stroke-linejoin="round" />
		<path d="M104.004 78.6239C104.004 78.6239 101.141 77.7889 98.0391 83.7535" stroke="#B7A089" stroke-width="0.7" stroke-miterlimit="10" stroke-linecap="round" stroke-linejoin="round" />
		<path d="M73.4637 79.936V83.7534H71.3164" stroke="#B7A089" stroke-width="0.7" stroke-miterlimit="10" stroke-linecap="round" stroke-linejoin="round" />
		<path d="M65.7112 62.2808C65.7112 62.2808 66.427 64.9052 62.2518 65.1438C59.0309 65.1438 55.0942 65.9789 53.3048 66.456C52.3505 66.5753 51.1576 66.3367 50.6804 65.5017C50.3225 64.7859 50.3225 64.1895 51.0383 63.7123C52.2312 62.758 56.4064 60.2528 60.3431 60.2528C64.9955 59.7756 65.7112 62.2808 65.7112 62.2808Z" fill="#313134" />
		<path d="M78.5974 62.3999C78.5974 62.3999 77.8817 65.0244 82.0569 65.263C85.2778 65.263 89.2145 66.098 91.0039 66.5752C91.9582 66.6945 93.1511 66.4559 93.6283 65.6208C93.9862 64.9051 93.9862 64.3086 93.2704 63.8314C92.0775 62.8771 87.9023 60.372 83.9656 60.372C79.1939 59.8948 78.5974 62.3999 78.5974 62.3999Z" fill="#313134" />
		<path d="M72.2724 93.4161C65.2341 93.4161 63.9219 88.7637 63.9219 88.7637H80.3842C80.5035 88.7637 79.1913 93.2968 72.2724 93.4161Z" fill="white" />
		<path d="M80.5039 75.1645C80.5039 75.1645 83.0091 72.3015 86.9457 75.1645" stroke="#313134" stroke-width="0.8957" stroke-miterlimit="10" stroke-linecap="round" stroke-linejoin="round" />
		<path d="M57.3594 75.1645C57.3594 75.1645 59.8645 72.3015 63.8012 75.1645" stroke="#313134" stroke-width="0.8957" stroke-miterlimit="10" stroke-linecap="round" stroke-linejoin="round" />
		<path d="M79.3101 30.4296C79.3101 30.4296 69.7667 58.9405 42.568 57.2704C42.568 57.2704 36.7227 20.8862 79.3101 30.4296Z" fill="#313134" />
		<path d="M64.1641 30.4293C64.1641 30.4293 73.7075 58.9403 100.906 57.2702C101.025 57.2702 99.3554 19.5737 64.1641 30.4293Z" fill="#313134" />
		<path d="M84.084 83.7529C89.157 83.7529 93.2695 79.6404 93.2695 74.5674C93.2695 69.4943 89.157 65.3818 84.084 65.3818C79.0109 65.3818 74.8984 69.4943 74.8984 74.5674C74.8984 79.6404 79.0109 83.7529 84.084 83.7529Z" stroke="#313134" stroke-width="1.5" />
		<path d="M60.3457 83.7529C65.4187 83.7529 69.5312 79.6404 69.5312 74.5674C69.5312 69.4943 65.4187 65.3818 60.3457 65.3818C55.2727 65.3818 51.1602 69.4943 51.1602 74.5674C51.1602 79.6404 55.2727 83.7529 60.3457 83.7529Z" stroke="#313134" stroke-width="1.5" />
		<path d="M74.6581 74.0908H70.125" stroke="#313134" stroke-width="1.5" />
		<g filter="url(#filter0_f_10564_112821)">
			<path d="M71.4839 40.6355C71.4839 40.6355 76.3694 48.5252 85.9995 51.8732C86.0074 51.929 69.4541 51.0627 71.4839 40.6355Z" fill="#4E4E51" />
		</g>
		<g filter="url(#filter1_f_10564_112821)">
			<path d="M67 30.1602C67 30.1602 48.2184 39.701 39.0025 60.46C38.8742 60.4684 43.5768 24.0037 67 30.1602Z" fill="#4E4E51" />
		</g>
		<path d="M101.383 214.26L99.832 198.513C99.832 198.513 113.67 192.191 116.533 195.292L117.607 213.663L101.383 214.26Z" fill="#F4D8C8" />
		<g style="mix-blend-mode:multiply">
			<path d="M117.065 201.46L117.065 213.76L108.288 213.76L104.5 201.46C109.976 199.586 112.758 199.478 117.065 201.46Z" fill="url(#paint1_linear_10564_112821)" fill-opacity="0.5" />
		</g>
		<mask id="mask0_10564_112821" style="mask-type:alpha" maskUnits="userSpaceOnUse" x="5" y="129" width="114" height="192">
			<path d="M53.6653 130.397L70.0084 129.323L88.3795 131.709C88.3795 131.709 103.052 137.077 113.669 143.4C121.185 147.933 117.01 187.777 118.322 201.734C107.824 198.871 99.9508 204.358 99.9508 204.358L97.3264 175.728C95.1404 201.463 101.645 266.014 111.048 306.924C97.3264 322.904 40.8057 327.774 20.6213 306.924C29.9872 254.895 34.3238 211.702 32.9084 175.728L26.1088 202.211C26.1088 202.211 15.611 195.411 5.11328 196.366C6.06762 193.145 17.5197 149.961 20.6213 143.4C23.7229 136.839 53.6653 130.397 53.6653 130.397Z" fill="url(#paint2_linear_10564_112821)" />
		</mask>
		<g mask="url(#mask0_10564_112821)">
			<path d="M53.6653 130.397L70.0084 129.323L88.3795 131.709C88.3795 131.709 103.052 137.077 113.669 143.4C121.185 147.933 117.01 187.777 118.322 201.734C107.824 198.871 99.9508 204.358 99.9508 204.358L97.3264 175.728C95.1404 201.463 101.645 266.014 111.048 306.924C97.3264 322.904 40.8057 327.774 20.6213 306.924C29.9872 254.895 34.3238 211.702 32.9084 175.728L26.1088 202.211C26.1088 202.211 15.611 195.411 5.11328 196.366C6.06762 193.145 17.5197 149.961 20.6213 143.4C23.7229 136.839 53.6653 130.397 53.6653 130.397Z" fill="url(#paint3_linear_10564_112821)" />
			<g style="mix-blend-mode:multiply">
				<path d="M15.8281 311.224L34.3561 180.305C34.3561 184.674 40.9982 241.657 34.3561 324.858C35.3865 333.33 18.45 315.652 15.8281 311.224Z" fill="url(#paint4_linear_10564_112821)" fill-opacity="0.3" />
			</g>
			<g style="mix-blend-mode:multiply">
				<path d="M115.307 311.224L96.7787 180.305C96.7787 184.674 90.1365 241.657 96.7787 324.858C95.7483 333.33 112.685 315.652 115.307 311.224Z" fill="url(#paint5_linear_10564_112821)" fill-opacity="0.3" />
			</g>
			<g filter="url(#filter2_f_10564_112821)">
				<path d="M53.5078 131.46C59.2584 151.533 65.0089 169.066 70.0407 185.27C73.9942 165.802 81.1824 146.938 88.3706 131.46" stroke="#313134" stroke-opacity="0.1" stroke-width="2.20666" stroke-miterlimit="10" stroke-linejoin="bevel" />
			</g>
			<g style="mix-blend-mode:multiply" filter="url(#filter3_f_10564_112821)">
				<path d="M79.0073 207.361L60.5911 208.868C59.7201 203.305 59.969 195.541 60.5911 186.965L79.0073 185.459C79.0073 192.528 78.2607 199.481 79.0073 207.361Z" fill="url(#paint6_linear_10564_112821)" fill-opacity="0.12" />
			</g>
			<g style="mix-blend-mode:multiply">
				<path d="M57.4388 130.46H83.308L88.7266 132.907C84.9394 137.277 78.9382 142.87 73.1701 143.395C72.7215 141.451 70.7378 136.948 70.1738 134.703C70.0533 137.194 67.2395 142.485 66.1784 143.395C60.3054 143.395 52.0202 136.986 48 132.033L57.4388 130.46Z" fill="url(#paint7_linear_10564_112821)" fill-opacity="0.22" />
			</g>
			<g style="mix-blend-mode:multiply">
				<path d="M17 199.46L28 203.96L33 174.46L17 199.46Z" fill="url(#paint8_linear_10564_112821)" fill-opacity="0.12" />
			</g>
			<g style="mix-blend-mode:multiply" filter="url(#filter4_f_10564_112821)">
				<path d="M68.6796 270.46C56.24 270.46 78.3055 237.127 90.8932 220.46L102 265.07C96.0764 266.866 81.1192 270.46 68.6796 270.46Z" fill="url(#paint9_linear_10564_112821)" fill-opacity="0.21" />
			</g>
			<g style="mix-blend-mode:multiply">
				<path d="M110.5 200.96C112.498 176.001 110.611 162.006 105 136.96L121.5 144.96L119 200.96H110.5Z" fill="url(#paint10_linear_10564_112821)" fill-opacity="0.12" />
			</g>
		</g>
		<path d="M127.026 252.553L69.7659 261.858C68.573 262.096 66.6643 259.591 67.1414 258.398L83.0073 217.6C83.2459 217.004 83.7231 216.646 84.3196 216.646L143.966 210.323C145.159 210.204 147.903 212.471 147.306 213.544L128.219 251.718C127.981 252.076 127.504 252.434 127.026 252.553Z" fill="url(#paint11_linear_10564_112821)" />
		<path d="M126.559 253.395L69.7761 262.581C68.5831 262.819 67.6288 261.626 68.106 260.434L83.9719 219.636C84.2105 219.039 84.6876 218.681 85.2841 218.681L144.93 212.359C146.123 212.239 147.078 213.552 146.481 214.625L127.752 252.441C127.514 252.918 127.036 253.276 126.559 253.395Z" fill="url(#paint12_linear_10564_112821)" />
		<path opacity="0.6" d="M136.936 218.273C136.936 217.121 137.87 215.722 139.023 215.722C140.175 215.722 141.109 216.077 141.109 217.23C141.109 218.382 140.175 220.36 139.023 220.36C137.87 220.36 136.936 219.426 136.936 218.273Z" fill="white" />
		<g clip-path="url(#clip1_10564_112821)">
			<path d="M114.03 243.248L119.756 226.667C114.984 227.024 109.735 231.08 108.184 235.613C106.633 240.147 109.258 243.606 114.03 243.248Z" fill="white" fill-opacity="0.4" />
			<path d="M112.337 240.981C116.864 237.464 118.665 232.209 116.361 229.243C114.057 226.278 108.519 226.725 103.993 230.242C99.4663 233.759 97.6649 239.014 99.9692 241.98C102.273 244.945 107.811 244.498 112.337 240.981Z" fill="white" fill-opacity="0.4" />
		</g>
		<path d="M52.707 131.232C58.4331 151.034 64.1591 168.332 69.1694 184.317C73.1061 165.111 80.2636 146.501 87.4212 131.232" stroke="#313134" stroke-miterlimit="10" stroke-linejoin="bevel" />
		<path d="M78.5903 205.313L60.935 206.864C60.1 201.138 60.3386 193.145 60.935 184.317L78.5903 182.767C78.5903 190.043 77.8746 197.201 78.5903 205.313Z" fill="white" />
		<circle cx="68.8057" cy="190.506" r="3.10926" transform="rotate(-2 68.8057 190.506)" fill="url(#paint13_linear_10564_112821)" />
		<g style="mix-blend-mode:multiply">
			<path fill-rule="evenodd" clip-rule="evenodd" d="M71.8014 187.291C70.0859 187.352 68.7439 188.791 68.8038 190.507C68.8638 192.223 70.3035 193.566 72.0197 193.506C72.0411 193.505 72.0625 193.504 72.0839 193.503L72.0184 193.505L71.8014 187.291ZM75.0204 190.379C75.0202 190.349 75.0196 190.32 75.0185 190.29C75.0175 190.26 75.0161 190.23 75.0142 190.201L75.0204 190.379Z" fill="url(#paint14_linear_10564_112821)" />
		</g>
		<path d="M75.7298 197.32L62.4883 198.632V196.366L75.7298 194.934V197.32Z" fill="#E5E9F0" />
		<path d="M75.7298 201.375L62.4883 202.807V200.54L75.7298 199.109V201.375Z" fill="#E5E9F0" />
		<path d="M57.483 120.973L49.3711 128.846C55.2164 136.362 61.1811 140.537 65.237 140.537L70.0087 128.131C65.1177 128.25 62.0161 125.029 57.483 120.973Z" fill="white" />
		<path d="M82.5335 120.973L90.6454 128.846C84.8001 136.361 78.8355 140.537 74.7795 140.537L70.0078 128.13C74.8988 128.25 78.0004 125.029 82.5335 120.973Z" fill="white" />
		<mask id="mask1_10564_112821" style="mask-type:alpha" maskUnits="userSpaceOnUse" x="0" y="196" width="98" height="57">
			<path d="M97 242.46C95.4492 239.716 83.9638 245.157 74.0625 240.504L76.2098 235.136C70.3644 233.585 59.986 238.715 56.2879 241.459C48.4146 240.623 16.6828 224.519 16.6828 224.519C16.6828 224.519 22.1703 205.671 23.9596 201.018C20.858 198.155 8.09374 195.531 6.30435 196.127C6.30435 196.127 -5.50561 237.164 3.20274 240.981C12.0304 244.799 46.3866 251.002 55.8107 251.002C65.2349 251.002 79.4307 253.03 84.7988 251.718C87.8958 250.927 93.5 247.96 94 246.96C94.5 245.96 94.0487 245.455 94.5 244.96C95.5218 243.838 97.4815 243.275 97 242.46Z" fill="#F4D8C8" />
		</mask>
		<g mask="url(#mask1_10564_112821)">
			<path d="M97 242.46C95.4492 239.716 83.9638 245.157 74.0625 240.504L76.2098 235.136C70.3644 233.585 59.986 238.715 56.2879 241.459C48.4146 240.623 16.6828 224.519 16.6828 224.519C16.6828 224.519 22.1703 205.671 23.9596 201.018C20.858 198.155 8.09374 195.531 6.30435 196.127C6.30435 196.127 -5.50561 237.164 3.20274 240.981C12.0304 244.799 46.3866 251.002 55.8107 251.002C65.2349 251.002 79.4307 253.03 84.7988 251.718C87.8958 250.927 93.5 247.96 94 246.96C94.5 245.96 94.0487 245.455 94.5 244.96C95.5218 243.838 97.4815 243.275 97 242.46Z" fill="#F4D8C8" />
			<g style="mix-blend-mode:multiply">
				<path d="M27 195.96L16 224.46H12.5L16 195.46L27 195.96Z" fill="url(#paint15_linear_10564_112821)" fill-opacity="0.6" />
			</g>
			<g style="mix-blend-mode:multiply">
				<path d="M77.5 235.46L71 240.96C74.2 242.56 79 242.127 81 241.96L77.5 235.46Z" fill="url(#paint16_linear_10564_112821)" fill-opacity="0.6" />
			</g>
			<g style="mix-blend-mode:multiply">
				<path d="M82.5 246.46C85.5 246.429 92.5 244.793 95.5 243.96L94.5 244.96L94 245.96C92.6667 246.127 85.5 247.46 82.5 246.46Z" fill="url(#paint17_linear_10564_112821)" fill-opacity="0.6" />
			</g>
			<g style="mix-blend-mode:multiply">
				<path d="M93.0003 247.96C92.675 248.165 92.3068 248.355 91.9004 248.531C89.8019 250.077 86.4884 255.897 54.5003 251.96C53.1669 252.127 54.5002 249.039 59.0002 246.96C58.3793 249.742 83.4337 252.197 91.9004 248.531C91.9339 248.506 91.9672 248.482 92.0003 248.46L93.0003 247.96Z" fill="url(#paint18_linear_10564_112821)" fill-opacity="0.6" />
			</g>
		</g>
		<mask id="mask2_10564_112821" style="mask-type:alpha" maskUnits="userSpaceOnUse" x="29" y="35" width="81" height="120">
			<path d="M98.2789 74.0902C99.3525 65.024 98.8754 57.6278 98.8754 57.6278C98.8754 57.6278 96.8474 34.9622 70.9609 35.0815C42.6886 35.0815 42.45 57.6278 42.45 57.6278C42.45 57.6278 41.9728 64.9047 43.1658 73.8516V73.7323C43.1658 73.7323 38.0362 69.6764 34.2188 74.5674C28.4928 81.7249 38.1555 94.6085 46.8638 88.6439C49.7268 96.1593 54.6178 102.84 62.3719 105.941L60.1053 129.561L29.5664 140.417C29.5664 140.417 39.3484 154.374 70.7223 154.374C102.096 154.374 105.794 142.326 105.794 142.326L81.2201 130.277L79.7886 106.418C87.6619 103.555 92.3143 96.5172 95.1773 88.6439C103.886 94.8471 113.668 81.9635 107.942 74.6866C104.482 70.3921 99.3525 73.3744 98.2789 74.0902Z" fill="#F4D8C8" />
		</mask>
		<g mask="url(#mask2_10564_112821)">
			<g style="mix-blend-mode:multiply">
				<path d="M65.2315 107.19C65.5953 107.508 70.6577 123.206 75.2226 127.782C77.5687 130.134 81.051 122.994 81.051 122.994L80.8761 106.515C74.6984 108.035 71.2191 107.974 65.2315 107.19Z" fill="url(#paint19_linear_10564_112821)" fill-opacity="0.6" />
			</g>
			<g style="mix-blend-mode:multiply" filter="url(#filter5_f_10564_112821)">
				<path d="M55.8034 56.345C52.9261 77.236 56.1012 100.399 63.6487 106.272C43.5005 100.96 41.9441 63.5658 40.5005 51.9597C41.8635 51.2999 51.37 55.0852 55.8034 56.345Z" fill="url(#paint20_linear_10564_112821)" fill-opacity="0.3" />
			</g>
			<g style="mix-blend-mode:multiply" filter="url(#filter6_f_10564_112821)">
				<path d="M86.845 56.3451C89.7223 77.236 86.5473 100.399 78.9997 106.272C99.1479 100.96 99.7043 63.5658 101.148 51.9597C99.785 51.3 91.2785 55.0852 86.845 56.3451Z" fill="url(#paint21_linear_10564_112821)" fill-opacity="0.5" />
			</g>
			<g style="mix-blend-mode:multiply" filter="url(#filter7_f_10564_112821)">
				<path d="M33.0603 72.9126C33.3892 67.9899 39.2961 71.1091 43.5619 75.212L46.8416 89.6525C46.568 90.8011 45.8238 92.8677 41.754 94.5736C36.6669 96.7061 35.0271 89.3217 32.4019 86.86C29.7768 84.3982 32.7314 77.8353 33.0603 72.9126Z" fill="url(#paint22_linear_10564_112821)" fill-opacity="0.2" />
			</g>
			<g style="mix-blend-mode:multiply" filter="url(#filter8_f_10564_112821)">
				<path d="M109.489 72.1596C109.356 67.2278 103.33 70.1099 98.9049 74.0402L95.0544 88.3392C95.2822 89.4978 95.9438 91.5922 99.9426 93.4584C104.941 95.7912 106.873 88.4777 109.594 86.1222C112.314 83.7666 109.623 77.0915 109.489 72.1596Z" fill="url(#paint23_linear_10564_112821)" fill-opacity="0.3" />
			</g>
		</g>
		<g style="mix-blend-mode:multiply" filter="url(#filter9_f_10564_112821)">
			<path d="M135.324 233.726C131.864 233.774 129.045 232.778 129.028 231.501C129.011 230.225 131.802 229.15 135.262 229.102C138.723 229.054 138.69 229.76 138.707 231.037C138.74 233.476 138.785 233.678 135.324 233.726Z" fill="url(#paint24_linear_10564_112821)" fill-opacity="0.3" />
			<path d="M133.168 237.613C129.674 237.661 126.829 236.775 126.814 235.632C126.799 234.49 129.619 233.524 133.113 233.476C136.607 233.427 135.438 232.873 135.262 235.393C135.11 237.586 136.662 237.564 133.168 237.613Z" fill="url(#paint25_linear_10564_112821)" fill-opacity="0.3" />
			<path d="M131.436 241.828C127.942 241.876 125.096 240.935 125.08 239.725C125.064 238.516 127.883 237.496 131.377 237.447C134.871 237.398 133.79 237.402 133.637 239.427C133.483 241.451 134.93 241.779 131.436 241.828Z" fill="url(#paint26_linear_10564_112821)" fill-opacity="0.3" />
			<path d="M130.564 245.879C128.046 245.914 125.992 245.004 125.977 243.847C125.962 242.689 127.99 241.723 130.508 241.688C133.025 241.653 132.893 240.925 132.527 243.299C132.543 244.456 131.436 245.867 130.564 245.879Z" fill="url(#paint27_linear_10564_112821)" fill-opacity="0.3" />
		</g>
		<path d="M136.366 233.353C133.099 233.397 130.438 232.475 130.422 231.293C130.406 230.11 133.041 229.115 136.308 229.071C139.574 229.026 142.236 229.949 142.252 231.131C142.283 233.39 139.633 233.308 136.366 233.353Z" fill="url(#paint28_linear_10564_112821)" />
		<path d="M134.332 236.952C131.034 236.997 128.348 236.176 128.334 235.118C128.319 234.06 130.982 233.165 134.28 233.12C137.579 233.075 140.444 232.621 140.279 234.955C140.134 236.986 137.631 236.907 134.332 236.952Z" fill="url(#paint29_linear_10564_112821)" />
		<path d="M132.697 240.855C129.398 240.9 126.712 240.028 126.697 238.908C126.681 237.788 129.343 236.843 132.641 236.798C135.94 236.753 138.786 236.87 138.641 238.745C138.497 240.62 135.995 240.81 132.697 240.855Z" fill="url(#paint30_linear_10564_112821)" />
		<path d="M131.873 244.607C129.496 244.64 127.558 243.797 127.543 242.725C127.529 241.653 129.444 240.758 131.82 240.726C134.197 240.693 136.496 240.41 136.15 242.608C136.165 243.68 134.25 244.575 131.873 244.607Z" fill="url(#paint31_linear_10564_112821)" />
	</g>
	<defs>
		<filter id="filter0_f_10564_112821" x="62.2105" y="31.5357" width="32.8895" height="29.4397" filterUnits="userSpaceOnUse" color-interpolation-filters="sRGB">
			<feFlood flood-opacity="0" result="BackgroundImageFix" />
			<feBlend mode="normal" in="SourceGraphic" in2="BackgroundImageFix" result="shape" />
			<feGaussianBlur stdDeviation="4.55" result="effect1_foregroundBlur_10564_112821" />
		</filter>
		<filter id="filter1_f_10564_112821" x="29.9" y="20.36" width="46.2" height="49.2" filterUnits="userSpaceOnUse" color-interpolation-filters="sRGB">
			<feFlood flood-opacity="0" result="BackgroundImageFix" />
			<feBlend mode="normal" in="SourceGraphic" in2="BackgroundImageFix" result="shape" />
			<feGaussianBlur stdDeviation="4.55" result="effect1_foregroundBlur_10564_112821" />
		</filter>
		<filter id="filter2_f_10564_112821" x="51.3125" y="129.86" width="39.1933" height="56.8716" filterUnits="userSpaceOnUse" color-interpolation-filters="sRGB">
			<feFlood flood-opacity="0" result="BackgroundImageFix" />
			<feBlend mode="normal" in="SourceGraphic" in2="BackgroundImageFix" result="shape" />
			<feGaussianBlur stdDeviation="0.567378" result="effect1_foregroundBlur_10564_112821" />
		</filter>
		<filter id="filter3_f_10564_112821" x="58.8926" y="184.324" width="21.25" height="25.6782" filterUnits="userSpaceOnUse" color-interpolation-filters="sRGB">
			<feFlood flood-opacity="0" result="BackgroundImageFix" />
			<feBlend mode="normal" in="SourceGraphic" in2="BackgroundImageFix" result="shape" />
			<feGaussianBlur stdDeviation="0.567378" result="effect1_foregroundBlur_10564_112821" />
		</filter>
		<filter id="filter4_f_10564_112821" x="62.7305" y="218.19" width="41.539" height="54.539" filterUnits="userSpaceOnUse" color-interpolation-filters="sRGB">
			<feFlood flood-opacity="0" result="BackgroundImageFix" />
			<feBlend mode="normal" in="SourceGraphic" in2="BackgroundImageFix" result="shape" />
			<feGaussianBlur stdDeviation="1.13476" result="effect1_foregroundBlur_10564_112821" />
		</filter>
		<filter id="filter5_f_10564_112821" x="39.5731" y="50.9564" width="25.0023" height="56.2421" filterUnits="userSpaceOnUse" color-interpolation-filters="sRGB">
			<feFlood flood-opacity="0" result="BackgroundImageFix" />
			<feBlend mode="normal" in="SourceGraphic" in2="BackgroundImageFix" result="shape" />
			<feGaussianBlur stdDeviation="0.463474" result="effect1_foregroundBlur_10564_112821" />
		</filter>
		<filter id="filter6_f_10564_112821" x="78.0731" y="50.9564" width="24.0023" height="56.2426" filterUnits="userSpaceOnUse" color-interpolation-filters="sRGB">
			<feFlood flood-opacity="0" result="BackgroundImageFix" />
			<feBlend mode="normal" in="SourceGraphic" in2="BackgroundImageFix" result="shape" />
			<feGaussianBlur stdDeviation="0.463474" result="effect1_foregroundBlur_10564_112821" />
		</filter>
		<filter id="filter7_f_10564_112821" x="30.7063" y="69.7751" width="16.7535" height="25.7984" filterUnits="userSpaceOnUse" color-interpolation-filters="sRGB">
			<feFlood flood-opacity="0" result="BackgroundImageFix" />
			<feBlend mode="normal" in="SourceGraphic" in2="BackgroundImageFix" result="shape" />
			<feGaussianBlur stdDeviation="0.308982" result="effect1_foregroundBlur_10564_112821" />
		</filter>
		<filter id="filter8_f_10564_112821" x="94.4367" y="68.9328" width="16.9859" height="25.5968" filterUnits="userSpaceOnUse" color-interpolation-filters="sRGB">
			<feFlood flood-opacity="0" result="BackgroundImageFix" />
			<feBlend mode="normal" in="SourceGraphic" in2="BackgroundImageFix" result="shape" />
			<feGaussianBlur stdDeviation="0.308982" result="effect1_foregroundBlur_10564_112821" />
		</filter>
		<filter id="filter9_f_10564_112821" x="124.513" y="228.533" width="14.7695" height="17.915" filterUnits="userSpaceOnUse" color-interpolation-filters="sRGB">
			<feFlood flood-opacity="0" result="BackgroundImageFix" />
			<feBlend mode="normal" in="SourceGraphic" in2="BackgroundImageFix" result="shape" />
			<feGaussianBlur stdDeviation="0.283689" result="effect1_foregroundBlur_10564_112821" />
		</filter>
		<linearGradient id="paint0_linear_10564_112821" x1="60.1227" y1="22.8526" x2="83.3808" y2="53.2481" gradientUnits="userSpaceOnUse">
			<stop stop-color="#34CFFD" />
			<stop offset="1" stop-color="#6290E8" />
		</linearGradient>
		<linearGradient id="paint1_linear_10564_112821" x1="117.148" y1="207.343" x2="108.891" y2="204.677" gradientUnits="userSpaceOnUse">
			<stop stop-color="#E8BF95" />
			<stop offset="0.0001" stop-color="#E4BF98" stop-opacity="0.984375" />
			<stop offset="1" stop-color="#F4BA7E" stop-opacity="0" />
		</linearGradient>
		<linearGradient id="paint2_linear_10564_112821" x1="33.3143" y1="326.789" x2="113.032" y2="87.7444" gradientUnits="userSpaceOnUse">
			<stop stop-color="#6898F5" />
			<stop offset="0.8289" stop-color="#34CFFD" />
		</linearGradient>
		<linearGradient id="paint3_linear_10564_112821" x1="33.3143" y1="326.789" x2="113.032" y2="87.7444" gradientUnits="userSpaceOnUse">
			<stop stop-color="#6898F5" />
			<stop offset="0.8289" stop-color="#34CFFD" />
		</linearGradient>
		<linearGradient id="paint4_linear_10564_112821" x1="15.8281" y1="308.777" x2="32.4334" y2="310.35" gradientUnits="userSpaceOnUse">
			<stop stop-color="#002197" />
			<stop offset="1" stop-color="#002197" stop-opacity="0" />
		</linearGradient>
		<linearGradient id="paint5_linear_10564_112821" x1="115.307" y1="308.777" x2="98.7014" y2="310.35" gradientUnits="userSpaceOnUse">
			<stop stop-color="#002197" />
			<stop offset="1" stop-color="#002197" stop-opacity="0" />
		</linearGradient>
		<linearGradient id="paint6_linear_10564_112821" x1="74.9317" y1="205.367" x2="60.0012" y2="185.46" gradientUnits="userSpaceOnUse">
			<stop stop-color="#002197" />
			<stop offset="1" stop-color="#002197" stop-opacity="0" />
		</linearGradient>
		<linearGradient id="paint7_linear_10564_112821" x1="69.3247" y1="131.684" x2="69.3247" y2="147.764" gradientUnits="userSpaceOnUse">
			<stop stop-color="#006ACB" />
			<stop offset="1" stop-color="#002197" stop-opacity="0" />
		</linearGradient>
		<linearGradient id="paint8_linear_10564_112821" x1="26.5" y1="195.46" x2="20.7951" y2="192.19" gradientUnits="userSpaceOnUse">
			<stop stop-color="#3B4878" />
			<stop offset="1" stop-color="#002197" stop-opacity="0" />
		</linearGradient>
		<linearGradient id="paint9_linear_10564_112821" x1="98.5" y1="265.96" x2="70.9857" y2="252.935" gradientUnits="userSpaceOnUse">
			<stop stop-color="#227AFF" stop-opacity="0.51" />
			<stop offset="1" stop-color="#002197" stop-opacity="0" />
		</linearGradient>
		<linearGradient id="paint10_linear_10564_112821" x1="122" y1="189.46" x2="106.71" y2="184.775" gradientUnits="userSpaceOnUse">
			<stop stop-color="#3B4878" />
			<stop offset="1" stop-color="#002197" stop-opacity="0" />
		</linearGradient>
		<linearGradient id="paint11_linear_10564_112821" x1="77.6974" y1="185.078" x2="151.078" y2="195.911" gradientUnits="userSpaceOnUse">
			<stop stop-color="#A3D5FE" />
			<stop offset="1" stop-color="#5488DC" />
		</linearGradient>
		<linearGradient id="paint12_linear_10564_112821" x1="87.8061" y1="261.642" x2="95.6304" y2="196.295" gradientUnits="userSpaceOnUse">
			<stop stop-color="#6898F5" />
			<stop offset="0.8289" stop-color="#34CFFD" />
		</linearGradient>
		<linearGradient id="paint13_linear_10564_112821" x1="65.6965" y1="190.52" x2="71.9417" y2="190.52" gradientUnits="userSpaceOnUse">
			<stop stop-color="#33EBF7" />
			<stop offset="1" stop-color="#3EA9F5" />
		</linearGradient>
		<linearGradient id="paint14_linear_10564_112821" x1="68.831" y1="190.519" x2="75.0723" y2="190.301" gradientUnits="userSpaceOnUse">
			<stop stop-color="#3D6EF9" />
			<stop offset="0.0001" stop-color="#3D6EF9" />
			<stop offset="1" stop-color="#3D9FF9" />
		</linearGradient>
		<linearGradient id="paint15_linear_10564_112821" x1="25.4484" y1="204.604" x2="16.4872" y2="202.08" gradientUnits="userSpaceOnUse">
			<stop stop-color="#E8C7A5" />
			<stop offset="0.0001" stop-color="#E4BF98" stop-opacity="0.984375" />
			<stop offset="1" stop-color="#E8C7A5" stop-opacity="0" />
		</linearGradient>
		<linearGradient id="paint16_linear_10564_112821" x1="76" y1="240.46" x2="73.759" y2="237.797" gradientUnits="userSpaceOnUse">
			<stop stop-color="#E8C7A5" />
			<stop offset="0.0001" stop-color="#E4BF98" stop-opacity="0.984375" />
			<stop offset="1" stop-color="#E8C7A5" stop-opacity="0" />
		</linearGradient>
		<linearGradient id="paint17_linear_10564_112821" x1="94.5" y1="243.96" x2="90.8134" y2="239.699" gradientUnits="userSpaceOnUse">
			<stop stop-color="#E8C7A5" />
			<stop offset="0.0001" stop-color="#E4BF98" stop-opacity="0.984375" />
			<stop offset="1" stop-color="#E8C7A5" stop-opacity="0" />
		</linearGradient>
		<linearGradient id="paint18_linear_10564_112821" x1="87.5002" y1="248.96" x2="58.5002" y2="251.46" gradientUnits="userSpaceOnUse">
			<stop stop-color="#E8C7A5" />
			<stop offset="0.0001" stop-color="#E4BF98" stop-opacity="0.984375" />
			<stop offset="1" stop-color="#E8C7A5" stop-opacity="0" />
		</linearGradient>
		<linearGradient id="paint19_linear_10564_112821" x1="79.8808" y1="107.941" x2="70.2505" y2="113.054" gradientUnits="userSpaceOnUse">
			<stop stop-color="#E8C7A5" />
			<stop offset="0.0001" stop-color="#E4BF98" stop-opacity="0.984375" />
			<stop offset="1" stop-color="#E8C7A5" stop-opacity="0" />
		</linearGradient>
		<linearGradient id="paint20_linear_10564_112821" x1="44.4532" y1="80.7895" x2="55.3132" y2="79.5087" gradientUnits="userSpaceOnUse">
			<stop stop-color="#E8C7A5" />
			<stop offset="0.0001" stop-color="#E4BF98" stop-opacity="0.984375" />
			<stop offset="1" stop-color="#E8C7A5" stop-opacity="0" />
		</linearGradient>
		<linearGradient id="paint21_linear_10564_112821" x1="98.1953" y1="80.7895" x2="87.3352" y2="79.5087" gradientUnits="userSpaceOnUse">
			<stop stop-color="#E8C7A5" />
			<stop offset="0.0001" stop-color="#E4BF98" stop-opacity="0.984375" />
			<stop offset="1" stop-color="#E8C7A5" stop-opacity="0" />
		</linearGradient>
		<linearGradient id="paint22_linear_10564_112821" x1="45.0376" y1="82.5963" x2="33.0552" y2="79.802" gradientUnits="userSpaceOnUse">
			<stop stop-color="#E8C7A5" />
			<stop offset="0.0001" stop-color="#E4BF98" stop-opacity="0.984375" />
			<stop offset="1" stop-color="#E8C7A5" stop-opacity="0" />
		</linearGradient>
		<linearGradient id="paint23_linear_10564_112821" x1="97.1371" y1="81.3602" x2="109.221" y2="79.0438" gradientUnits="userSpaceOnUse">
			<stop stop-color="#E8C7A5" />
			<stop offset="0.0001" stop-color="#E4BF98" stop-opacity="0.984375" />
			<stop offset="1" stop-color="#E8C7A5" stop-opacity="0" />
		</linearGradient>
		<linearGradient id="paint24_linear_10564_112821" x1="132.686" y1="239.75" x2="125.308" y2="237.031" gradientUnits="userSpaceOnUse">
			<stop stop-color="#3B4878" />
			<stop offset="1" stop-color="#002197" stop-opacity="0" />
		</linearGradient>
		<linearGradient id="paint25_linear_10564_112821" x1="132.686" y1="239.75" x2="125.308" y2="237.031" gradientUnits="userSpaceOnUse">
			<stop stop-color="#3B4878" />
			<stop offset="1" stop-color="#002197" stop-opacity="0" />
		</linearGradient>
		<linearGradient id="paint26_linear_10564_112821" x1="132.686" y1="239.75" x2="125.308" y2="237.031" gradientUnits="userSpaceOnUse">
			<stop stop-color="#3B4878" />
			<stop offset="1" stop-color="#002197" stop-opacity="0" />
		</linearGradient>
		<linearGradient id="paint27_linear_10564_112821" x1="132.686" y1="239.75" x2="125.308" y2="237.031" gradientUnits="userSpaceOnUse">
			<stop stop-color="#3B4878" />
			<stop offset="1" stop-color="#002197" stop-opacity="0" />
		</linearGradient>
		<linearGradient id="paint28_linear_10564_112821" x1="142.252" y1="231.132" x2="130.422" y2="231.293" gradientUnits="userSpaceOnUse">
			<stop stop-color="#FFE6D8" />
			<stop offset="1" stop-color="#F3CAAF" />
		</linearGradient>
		<linearGradient id="paint29_linear_10564_112821" x1="140.288" y1="234.941" x2="128.334" y2="235.104" gradientUnits="userSpaceOnUse">
			<stop stop-color="#FFE6D8" />
			<stop offset="1" stop-color="#F3CAAF" />
		</linearGradient>
		<linearGradient id="paint30_linear_10564_112821" x1="138.649" y1="238.745" x2="126.697" y2="238.908" gradientUnits="userSpaceOnUse">
			<stop stop-color="#FFE6D8" />
			<stop offset="1" stop-color="#F3CAAF" />
		</linearGradient>
		<linearGradient id="paint31_linear_10564_112821" x1="136.191" y1="242.603" x2="127.543" y2="242.721" gradientUnits="userSpaceOnUse">
			<stop stop-color="#FFE6D8" />
			<stop offset="1" stop-color="#F3CAAF" />
		</linearGradient>
		<clipPath id="clip0_10564_112821">
			<rect width="147.39" height="320.795" fill="white" />
		</clipPath>
		<clipPath id="clip1_10564_112821">
			<rect width="20.7569" height="17.2974" fill="white" transform="translate(98.9961 226.667)" />
		</clipPath>
	</defs>
</svg>
