<svg width="503" height="614" viewBox="0 0 503 614" fill="none" xmlns="http://www.w3.org/2000/svg">
	<path opacity="0.3" d="M48.4509 467.251C90.2846 436.745 146.661 409.512 195.956 357.766C202.788 350.594 249.72 376.475 224.825 400.251C194.594 429.121 133.23 447.553 67.6797 481.14C5.92431 512.783 3.4678 568.337 5.41979 604.785C5.41982 604.785 5.41986 604.786 5.41989 604.786C9.37419 614.232 5.99256 613.859 5.8567 611.866C5.70226 609.601 5.55105 607.236 5.41979 604.785C-4.3846 581.364 -6.43499 507.274 48.4509 467.251Z" fill="url(#paint0_linear_10108_92496)" />
	<path d="M291.357 222.043C290.445 221.001 236.787 196.12 188.339 233.116C143.667 267.117 128.299 331.21 134.16 332.643C141.453 334.467 161.249 303.983 199.409 287.178C212.954 281.186 234.443 287.178 234.443 287.178L291.357 222.043Z" fill="#1461F7" />
	<path d="M291.357 222.043C290.445 221.001 236.787 196.12 188.339 233.116C143.667 267.117 128.299 331.21 134.16 332.643C141.453 334.467 161.249 303.983 199.409 287.178C212.954 281.186 234.443 287.178 234.443 287.178L291.357 222.043Z" fill="url(#paint1_linear_10108_92496)" />
	<path opacity="0.1" d="M234.573 287.179C234.573 287.179 225.196 284.573 215.037 284.573C223.503 266.987 239.131 234.159 249.29 212.794C273.253 213.055 290.835 221.392 291.356 221.913L234.573 287.179Z" fill="url(#paint2_linear_10108_92496)" />
	<path d="M379.657 326.13C380.569 327.172 396.327 384.23 351.916 426.047C311.022 464.476 245.382 469.296 244.861 463.174C244.21 455.748 277.551 441.158 300.342 406.246C308.417 393.87 306.073 371.594 306.073 371.594L379.657 326.13Z" fill="#1461F7" />
	<path d="M379.657 326.13C380.569 327.172 396.327 384.23 351.916 426.047C311.022 464.476 245.382 469.296 244.861 463.174C244.21 455.748 277.551 441.158 300.342 406.246C308.417 393.87 306.073 371.594 306.073 371.594L379.657 326.13Z" fill="url(#paint3_linear_10108_92496)" />
	<path opacity="0.1" d="M381.741 369.509C358.949 376.153 323.915 386.314 305.291 391.785C306.984 381.494 305.942 371.593 305.942 371.593L379.527 326.129C380.178 326.781 385.648 345.67 381.741 369.509Z" fill="url(#paint4_linear_10108_92496)" />
	<path d="M254.891 395.693L202.535 333.945C202.535 333.945 229.885 260.733 294.743 211.621C327.173 187.131 365.072 168.762 399.194 156.647C446.08 139.842 485.411 134.892 491.533 142.057C497.654 149.222 486.323 187.261 462.099 230.771C444.517 262.296 420.162 296.818 390.729 324.826C331.601 380.712 254.891 395.693 254.891 395.693Z" fill="#9BE3FF" />
	<path d="M382.003 298.382C362.337 315.057 332.904 312.581 316.233 292.911C299.563 273.24 302.037 243.799 321.703 227.124C341.369 210.45 370.803 212.925 387.473 232.596C404.144 252.266 401.669 281.707 382.003 298.382Z" fill="black" fill-opacity="0.19" />
	<path d="M384.609 294.082C364.943 310.757 335.509 308.282 318.839 288.611C302.168 268.94 304.643 239.499 324.309 222.824C343.975 206.15 373.408 208.625 390.079 228.296C406.749 247.967 404.275 277.408 384.609 294.082Z" fill="#1461F7" />
	<path d="M384.609 294.082C364.943 310.757 335.509 308.282 318.839 288.611C302.168 268.94 304.643 239.499 324.309 222.824C343.975 206.15 373.408 208.625 390.079 228.296C406.749 247.967 404.275 277.408 384.609 294.082Z" fill="url(#paint5_linear_10108_92496)" />
	<path d="M375.36 283.139C361.686 294.733 341.368 293.039 329.777 279.361C318.186 265.682 319.879 245.36 333.554 233.766C347.229 222.172 367.546 223.866 379.137 237.544C390.729 251.092 389.035 271.545 375.36 283.139Z" fill="white" fill-opacity="0.93" />
	<path fill-rule="evenodd" clip-rule="evenodd" d="M378.339 280.274C379.394 279.09 380.319 277.831 381.091 276.496L325.038 271.943C323.847 269.361 323.018 266.667 322.547 263.931C322.602 264.218 322.668 264.5 322.745 264.771L384.738 269.852C384.868 269.396 385.031 268.94 385.194 268.484C385.308 268.166 385.421 267.848 385.523 267.531C384.166 272.164 381.76 276.54 378.339 280.274ZM385.642 267.115C388.427 257.121 386.364 245.991 379.137 237.544C372.671 229.914 363.49 226.013 354.261 226.068C363.446 226.05 372.572 229.95 379.008 237.545C380.18 238.717 381.092 240.02 381.873 241.323L330.1 237.159C323.654 244.5 321.03 254.154 322.459 263.391C322.389 262.885 322.354 262.378 322.354 261.905L385.642 267.115ZM367.895 287.902C366.93 288.324 365.945 288.691 364.942 289.002L339.065 286.931C347.925 291.744 358.631 292.16 367.895 287.902Z" fill="white" />
	<path d="M364.662 270.48C357.684 276.336 347.272 275.404 341.407 268.398C335.542 261.392 336.444 250.965 343.423 245.109C350.401 239.253 360.813 240.185 366.678 247.191C372.543 254.197 371.641 264.624 364.662 270.48Z" fill="#34CFFD" />
	<path d="M348.408 273.323C353.767 275.281 359.986 274.406 364.663 270.481C369.339 266.556 371.287 260.579 370.298 254.954C364.939 252.995 358.72 253.871 354.043 257.796C349.366 261.721 347.419 267.698 348.408 273.323Z" fill="#0248F5" />
	<path d="M348.493 273.394C348.729 275.519 349.936 278.584 352.03 281.084L377.3 259.878C375.206 257.378 373.135 256.06 370.246 255.139C370.967 260.56 369.151 266.716 364.664 270.481C360.177 274.247 353.697 275.051 348.493 273.394Z" fill="#3763E0" />
	<path d="M462.098 230.771L399.193 156.517C446.079 139.712 485.411 134.762 491.532 141.927C497.653 149.222 486.322 187.261 462.098 230.771Z" fill="#1461F7" />
	<path d="M462.098 230.771L399.193 156.517C446.079 139.712 485.411 134.762 491.532 141.927C497.653 149.222 486.322 187.261 462.098 230.771Z" fill="url(#paint6_linear_10108_92496)" />
	<path d="M428.888 176.058C427.716 176.97 426.023 176.839 425.112 175.797C424.2 174.625 424.33 172.931 425.372 172.019C426.544 171.107 428.237 171.238 429.149 172.28C430.191 173.322 430.061 175.146 428.888 176.058Z" fill="white" />
	<path d="M440.09 189.215C438.918 190.126 437.224 189.996 436.313 188.954C435.401 187.782 435.531 186.088 436.573 185.176C437.745 184.264 439.438 184.395 440.35 185.437C441.392 186.609 441.132 188.303 440.09 189.215Z" fill="white" />
	<path d="M451.289 202.503C450.117 203.415 448.424 203.285 447.512 202.242C446.6 201.07 446.731 199.376 447.772 198.465C448.945 197.553 450.638 197.683 451.549 198.725C452.591 199.767 452.331 201.461 451.289 202.503Z" fill="white" />
	<path d="M462.49 215.66C461.318 216.572 459.625 216.441 458.713 215.399C457.802 214.227 457.932 212.533 458.974 211.622C460.146 210.71 461.839 210.84 462.751 211.882C463.662 212.924 463.532 214.748 462.49 215.66Z" fill="white" />
	<path d="M217.642 332.513C216.47 333.425 214.777 333.295 213.866 332.253C212.954 331.08 213.084 329.387 214.126 328.475C215.298 327.563 216.991 327.693 217.903 328.735C218.945 329.908 218.815 331.601 217.642 332.513Z" fill="#1461F7" />
	<path d="M228.844 345.8C227.671 346.712 225.978 346.582 225.067 345.54C224.155 344.367 224.285 342.674 225.327 341.762C226.499 340.85 228.192 340.98 229.104 342.022C230.146 343.064 230.016 344.758 228.844 345.8Z" fill="#1461F7" />
	<path d="M240.045 358.959C238.873 359.871 237.18 359.741 236.268 358.698C235.356 357.526 235.486 355.833 236.528 354.921C237.7 354.009 239.394 354.139 240.305 355.181C241.347 356.223 241.217 357.917 240.045 358.959Z" fill="#1461F7" />
	<path d="M251.244 372.116C250.072 373.028 248.379 372.897 247.467 371.855C246.555 370.683 246.686 368.989 247.728 368.077C248.9 367.165 250.593 367.296 251.504 368.338C252.546 369.51 252.416 371.204 251.244 372.116Z" fill="#1461F7" />
	<path d="M262.445 385.402C261.273 386.314 259.58 386.184 258.668 385.142C257.757 383.969 257.887 382.276 258.929 381.364C260.101 380.452 261.794 380.582 262.706 381.624C263.748 382.667 263.617 384.36 262.445 385.402Z" fill="#1461F7" />
	<g opacity="0.1" filter="url(#filter0_f_10108_92496)">
		<path d="M490.637 144.243C454.431 146.849 417.92 192.854 323.525 192.854C323.525 192.854 365.332 169.309 399.324 157.194C441.26 142.083 480.287 131.716 490.637 144.243Z" fill="white" />
	</g>
	<g opacity="0.56" filter="url(#filter1_f_10108_92496)">
		<path d="M292.096 233.845C310.888 227.036 321.782 217.231 329.135 194.354C327.592 196.079 316.934 203.342 286.649 218.593C256.364 233.845 218.38 301.387 202.766 333.796L212.57 345.235C213.267 330.044 229.155 303.014 247.022 279.327C251.425 285.682 257.943 308.74 256.418 322.903L270.036 325.354L274.666 288.587L258.325 265.099C271.839 248.961 284.923 236.443 292.096 233.845Z" fill="url(#paint7_linear_10108_92496)" />
	</g>
	<g style="mix-blend-mode:multiply" opacity="0.3" filter="url(#filter2_f_10108_92496)">
		<path d="M489.82 148.056C479.756 182.933 440.131 239.659 375.706 293.489C328.103 333.314 250.103 343.273 211.753 352.044L246.763 395.83C246.763 395.83 324.03 384.401 385.563 331.022C416.252 304.383 437.756 270.995 456.663 240.258C480.151 202.372 491.546 160.006 489.82 148.056Z" fill="url(#paint8_linear_10108_92496)" />
	</g>
	<path d="M231.578 405.726L188.99 355.572L205.53 337.464L252.156 392.438L231.578 405.726Z" fill="#1461F7" />
	<path d="M231.578 405.726L188.99 355.572L205.53 337.464L252.156 392.438L231.578 405.726Z" fill="url(#paint9_linear_10108_92496)" />
	<path opacity="0.1" d="M252.156 392.437L242.127 398.951L199.279 344.368L205.531 337.463L252.156 392.437Z" fill="url(#paint10_linear_10108_92496)" />
	<path d="M472.312 254.952L452.777 253.65L443.66 272.148L444.572 251.565L426.859 243.358L446.525 243.489L455.381 226.163L454.991 245.703L472.312 254.952Z" fill="#FCFCFC" />
	<path d="M368.717 386.575L357.777 385.793L352.697 396.085L353.218 384.621L343.32 380.061L354.26 380.192L359.34 370.421L358.949 381.364L368.717 386.575Z" fill="#FCFCFC" />
	<path d="M142.717 257.8L131.777 257.019L126.697 267.44L127.218 255.846L117.32 251.287L128.26 251.417L133.209 241.647L132.949 252.59L142.717 257.8Z" fill="#FCFCFC" />
	<path d="M188.468 424.875L180.654 426.308L178.96 434.515L177.267 426.308L169.453 424.875L177.267 422.921L178.96 415.235L180.784 422.921L188.468 424.875Z" fill="white" />
	<path d="M67.7381 480.76L63.31 481.542L62.3984 486.101L61.3564 481.542L57.0586 480.76L61.3564 479.718L62.3984 475.419L63.31 479.718L67.7381 480.76Z" fill="white" />
	<path d="M117.304 450.801L112.876 451.583L111.965 456.273L111.053 451.583L106.625 450.801L110.923 449.759L111.965 445.46L113.007 449.759L117.304 450.801Z" fill="white" />
	<path d="M182.738 399.34L178.44 400.122L177.398 404.681L176.487 400.122L172.059 399.34L176.487 398.298L177.398 393.999L178.44 398.298L182.738 399.34Z" fill="white" />
	<path d="M14.3572 547.758L10.0594 548.539L9.01749 553.099L8.10582 548.539L3.67773 547.758L8.10582 546.715L9.01749 542.417L10.0594 546.715L14.3572 547.758Z" fill="white" />
	<path d="M15.7444 519.539C14.1816 519.539 14.1816 522.014 15.7444 522.014C17.4375 522.014 17.4375 519.539 15.7444 519.539Z" fill="white" />
	<path d="M206.051 393.219C204.488 393.219 204.488 395.694 206.051 395.694C207.614 395.694 207.744 393.219 206.051 393.219Z" fill="white" />
	<path d="M82.1975 462.891C80.6347 462.891 80.6347 465.366 82.1975 465.366C83.8906 465.366 83.8906 462.891 82.1975 462.891Z" fill="white" />
	<path d="M16.5393 509.19C15.3671 509.19 15.3671 511.014 16.5393 511.014C17.7114 510.883 17.7114 509.19 16.5393 509.19Z" fill="white" />
	<path d="M129.293 432.932C128.121 432.932 128.121 434.756 129.293 434.756C130.335 434.756 130.335 432.932 129.293 432.932Z" fill="white" />
	<path d="M38.7036 478.687C35.578 478.687 35.578 483.507 38.7036 483.507C41.8293 483.507 41.8293 478.687 38.7036 478.687Z" fill="white" />
	<path d="M138.383 415.502C135.258 415.502 135.258 420.322 138.383 420.322C141.509 420.322 141.509 415.502 138.383 415.502Z" fill="white" />
	<path d="M243.017 206.888C244.917 206.603 249.571 203.278 251.186 202.993C252.42 202.803 260.114 175.002 261.253 174.812C262.678 169.492 273.221 110.08 273.221 110.08L288.227 113.12C288.227 113.12 275.215 157.715 273.221 172.63C271.511 185.456 265.433 200.238 263.723 203.278C263.723 203.373 263.723 203.468 263.723 203.468C263.438 207.933 261.253 206.508 261.253 206.508L257.739 207.363C257.739 207.363 245.202 208.598 244.442 208.883C243.587 209.263 241.118 207.173 243.017 206.888Z" fill="#FAD7C3" />
	<path d="M287.942 87.7402C270.846 87.7402 268.451 126.99 268.451 126.99C268.451 126.99 283.193 132.742 287.942 129.987C287.942 129.987 298.105 102.859 300.099 103.714L287.942 87.7402Z" fill="url(#paint11_linear_10108_92496)" />
	<path d="M287.942 87.7402C270.846 87.7402 268.451 126.99 268.451 126.99C268.451 126.99 283.193 132.742 287.942 129.987C287.942 129.987 298.105 102.859 300.099 103.714L287.942 87.7402Z" fill="url(#paint12_linear_10108_92496)" />
	<path d="M295.776 18.7749C296.605 25.0748 302.426 29.5071 308.674 28.6792C314.922 27.8512 319.519 21.9902 318.69 15.6903C317.861 9.39043 312.041 4.95812 305.793 5.78608C299.471 6.60909 294.947 12.475 295.776 18.7749Z" fill="#313134" />
	<path d="M297.361 29.0758C298.043 34.1495 302.709 37.6698 307.731 36.9879C312.753 36.3061 316.358 31.667 315.675 26.5933C314.993 21.5196 310.327 17.9993 305.305 18.6812C300.288 19.2905 296.683 23.9296 297.361 29.0758Z" fill="url(#paint13_linear_10108_92496)" />
	<path d="M296.28 60.8145C286.06 55.8565 281.874 43.5014 286.841 33.3089C291.808 23.1164 304.124 18.8664 314.339 23.8978C324.559 28.8559 328.745 41.2109 323.778 51.4034C318.811 61.596 306.5 65.7726 296.28 60.8145Z" fill="#313134" />
	<path d="M321.901 52.4825C322.938 46.9569 322.95 42.3931 322.95 42.3931C322.95 42.3931 322.639 28.3838 306.691 27.3832C289.279 26.2104 288.199 40.0525 288.199 40.0525C288.199 40.0525 287.604 44.5034 287.969 50.0497L287.974 49.9764C287.974 49.9764 284.982 47.2718 282.429 50.1183C278.606 54.2782 284.024 62.5945 289.634 59.2912C291.086 64.0272 293.822 68.3344 298.469 70.5616L296.096 84.9791L293.457 91.136C293.457 91.136 282.286 99.3626 301.608 100.664C320.93 101.965 323.706 94.7165 323.706 94.7165L309.07 86.2948L309.176 71.5772C314.143 70.1449 317.3 66.0137 319.389 61.2953C324.495 65.4676 331.053 57.958 327.828 53.2498C325.875 50.4678 322.592 52.0873 321.901 52.4825Z" fill="#FAD7C3" />
	<mask id="mask0_10108_92496" style="mask-type:alpha" maskUnits="userSpaceOnUse" x="281" y="27" width="48" height="74">
		<path d="M321.901 52.4825C322.938 46.9569 322.95 42.3931 322.95 42.3931C322.95 42.3931 322.639 28.3838 306.691 27.3832C289.279 26.2104 288.199 40.0525 288.199 40.0525C288.199 40.0525 287.604 44.5034 287.969 50.0497L287.974 49.9764C287.974 49.9764 284.982 47.2718 282.429 50.1183C278.606 54.2782 284.024 62.5945 289.634 59.2912C291.086 64.0272 293.822 68.3344 298.469 70.5616L296.096 84.9791L296.096 90.0466C296.096 90.0466 282.286 99.3626 301.608 100.664C320.93 101.965 323.706 94.7165 323.706 94.7165L309.07 86.2948L309.176 71.5772C314.143 70.1449 317.3 66.0137 319.389 61.2953C324.495 65.4676 331.053 57.958 327.828 53.2498C325.875 50.4678 322.592 52.0873 321.901 52.4825Z" fill="#FAD7C3" />
	</mask>
	<g mask="url(#mask0_10108_92496)">
		<g style="mix-blend-mode:multiply" filter="url(#filter3_f_10108_92496)">
			<path d="M304.457 34.0901C305.001 33.4148 304.408 32.9121 306.139 31.32C309.461 33.2524 317.426 38.146 322.702 42.2604C314.316 42.4645 307.729 37.8346 304.457 34.0901Z" fill="url(#paint14_linear_10108_92496)" fill-opacity="0.5" />
		</g>
		<g style="mix-blend-mode:multiply">
			<path d="M308.484 72.5867C308.22 72.7553 303.45 82.3453 300.077 84.8416C298.343 86.1246 296.798 81.2034 296.798 81.2034L298.505 70.6392C302.324 72.2131 304.564 72.5108 308.484 72.5867Z" fill="url(#paint15_linear_10108_92496)" fill-opacity="0.6" />
		</g>
		<g filter="url(#filter4_f_10108_92496)">
			<path d="M319.937 42.0732C320.563 55.6138 315.502 66.6925 312.256 70.4963C320.412 66.0905 323.61 49.9027 324.508 42.3811C323.967 41.9531 321.786 41.2579 319.937 42.0732Z" fill="#FFEEE4" />
		</g>
		<g filter="url(#filter5_f_10108_92496)">
			<path d="M325.324 50.8761C330.337 57.2999 324.126 60.7256 321.481 63.538C330.593 61.8318 327.394 61.1055 330.545 54.2168C330.161 53.6442 327.333 50.6641 325.324 50.8761Z" fill="#FFEEE4" />
		</g>
		<g style="mix-blend-mode:multiply" filter="url(#filter6_f_10108_92496)">
			<path d="M297.329 38.4169C293.993 51.6975 294.403 66.8734 298.859 71.198C286.769 65.426 287.863 47.0746 287.753 39.4812C288.679 39.1518 294.557 37.2899 297.329 38.4169Z" fill="url(#paint16_linear_10108_92496)" fill-opacity="0.64" />
		</g>
		<g style="mix-blend-mode:multiply" filter="url(#filter7_f_10108_92496)">
			<path d="M281.199 48.0075C281.627 44.8325 285.318 47.1105 287.903 49.9544L289.399 59.4529C289.172 60.1851 288.599 61.4916 285.889 62.4196C282.5 63.5796 281.759 58.7241 280.165 57.0149C278.572 55.3057 280.772 51.1824 281.199 48.0075Z" fill="url(#paint17_linear_10108_92496)" fill-opacity="0.3" />
		</g>
		<path d="M311.833 24.5476C311.833 24.5476 304.829 41.6738 288.301 39.5297C288.301 39.5297 286.24 16.9333 311.833 24.5476Z" fill="#313134" />
		<path d="M302.599 24.168C302.599 24.168 307.27 42.3135 324.057 42.3997C324.13 42.4047 324.685 18.8664 302.599 24.168Z" fill="#313134" />
		<path d="M284.467 52.7657C284.467 52.7657 286.272 52.3637 287.939 56.2157" stroke="#D0A173" stroke-width="0.841189" stroke-miterlimit="10" stroke-linecap="round" stroke-linejoin="round" />
		<path d="M325.03 55.4994C325.03 55.4994 323.295 54.859 321.126 58.4527" stroke="#DEB388" stroke-width="0.841189" stroke-miterlimit="10" stroke-linecap="round" stroke-linejoin="round" />
		<path d="M306.531 55.1532L306.376 57.4579L304.993 57.3648" stroke="#DEB388" stroke-width="0.841189" stroke-miterlimit="10" stroke-linecap="round" stroke-linejoin="round" />
		<path d="M302.189 43.5878C302.189 43.5878 302.516 45.1548 299.993 45.1253C298.054 44.9947 295.651 45.3245 294.554 45.5315C293.975 45.5628 293.266 45.3746 293.012 44.8658C292.825 44.4319 292.848 44.0823 293.298 43.8317C294.054 43.3208 296.667 42.022 299.037 42.1817C301.857 42.0907 302.189 43.5878 302.189 43.5878Z" fill="#313134" />
		<path d="M310.08 44.1201C310.08 44.1201 309.546 45.629 312.05 45.9382C313.989 46.0688 316.326 46.7178 317.385 47.07C317.955 47.1786 318.682 47.0872 319.003 46.6171C319.246 46.2122 319.27 45.8626 318.858 45.554C318.177 44.9463 315.762 43.3089 313.392 43.1493C310.538 42.6761 310.08 44.1201 310.08 44.1201Z" fill="#313134" />
		<path d="M305.153 62.9316C300.819 62.6397 300.197 59.8196 300.197 59.8196L310.334 60.5023C310.407 60.5073 309.418 63.1476 305.153 62.9316Z" fill="white" />
		<path d="M310.866 52.668C310.866 52.668 312.619 50.7024 315.014 52.9474" stroke="#313134" stroke-width="1.07636" stroke-miterlimit="10" stroke-linecap="round" stroke-linejoin="round" />
		<path d="M296.577 51.7068C296.577 51.7068 298.33 49.7412 300.725 51.9862" stroke="#313134" stroke-width="1.07636" stroke-miterlimit="10" stroke-linecap="round" stroke-linejoin="round" />
		<path d="M313.06 57.9091C316.242 58.1235 318.996 55.7176 319.21 52.5354C319.424 49.3532 317.018 46.5997 313.836 46.3854C310.654 46.1711 307.9 48.577 307.686 51.7592C307.472 54.9414 309.878 57.6948 313.06 57.9091Z" stroke="#313134" stroke-width="1.80255" />
		<path d="M298.31 56.9162C301.492 57.1306 304.246 54.7246 304.46 51.5424C304.674 48.3603 302.268 45.6068 299.086 45.3925C295.904 45.1781 293.15 47.5841 292.936 50.7663C292.722 53.9485 295.128 56.7019 298.31 56.9162Z" stroke="#313134" stroke-width="1.80255" />
		<path d="M307.24 51.4978L304.475 51.3115" stroke="#313134" stroke-width="1.80255" />
	</g>
	<mask id="mask1_10108_92496" style="mask-type:alpha" maskUnits="userSpaceOnUse" x="284" y="5" width="42" height="58">
		<path d="M297.416 23.3531C296.573 22.0041 295.998 20.4583 295.777 18.78C294.948 12.48 299.472 6.61412 305.794 5.79111C312.042 4.96315 317.862 9.39547 318.691 15.6954C319.136 19.0781 318.017 22.3344 315.918 24.7528C324.978 30.1666 328.481 41.7556 323.778 51.406C318.811 61.5986 306.5 65.7752 296.28 60.8171C286.06 55.859 281.873 43.504 286.841 33.3115C289.121 28.6314 292.951 25.2042 297.416 23.3531Z" fill="#313134" />
	</mask>
	<g mask="url(#mask1_10108_92496)">
		<g filter="url(#filter8_f_10108_92496)">
			<path d="M304.274 5.08637C304.274 5.08637 316.134 11.2943 321.953 24.8018C322.034 24.8072 319.065 1.08044 304.274 5.08637Z" fill="#4E4E51" />
		</g>
		<g filter="url(#filter9_f_10108_92496)">
			<path d="M304.371 29.6062C304.371 29.6062 301.192 34.7399 294.925 36.9185C294.92 36.9547 305.691 36.391 304.371 29.6062Z" fill="#4E4E51" />
		</g>
		<g filter="url(#filter10_f_10108_92496)">
			<path d="M308.912 22.7904C308.912 22.7904 320.772 28.9983 326.592 42.5057C326.673 42.5112 323.703 18.7844 308.912 22.7904Z" fill="#4E4E51" />
		</g>
	</g>
	<path d="M397.806 153.793C399.687 159.024 403.591 159.112 404.544 159.158C405.118 159.224 405.512 159.49 405.91 159.85C406.518 160.58 407.31 161.206 408.098 161.737C408.686 162.088 409.189 162.633 409.598 163.183C410.314 164.193 411.036 165.298 411.663 166.407C412.081 167.147 412.569 167.408 413.224 167.184C413.878 166.961 414.234 166.467 414.19 165.613C414.128 164.38 413.786 163.256 413.069 162.246C412.452 161.326 412.518 160.752 413.134 159.769C413.489 159.276 413.94 158.777 414.39 158.279C414.94 157.87 415.4 157.562 416.163 157.618C417.416 157.935 418.663 158.157 419.906 158.284L420.964 158.516L421.538 158.582C421.633 158.577 423.449 158.77 424.018 158.742C424.493 158.718 425.351 158.769 426.015 158.735C426.684 158.797 427.998 158.445 427.998 158.445C428.567 158.416 429.126 158.197 429.581 157.794C429.762 157.594 429.942 157.395 429.832 157.115C429.723 156.835 429.529 156.75 429.239 156.67C428.855 156.594 426.659 156.42 426.749 156.32C427.413 156.287 429.31 156.19 429.979 156.251C430.833 156.208 431.577 155.885 432.117 155.287C432.388 154.988 432.568 154.788 432.454 154.414C432.34 154.039 431.96 154.058 431.576 153.983C428.152 153.966 424.722 153.855 421.369 153.359C420.795 153.293 420.216 153.132 419.732 152.966C418.764 152.635 417.811 152.588 416.877 152.921C416.407 153.04 415.838 153.069 415.269 153.097C413.557 153.089 408.628 151.532 406.133 151.087C405.559 151.021 403.229 150.093 403.125 149.908C396.301 144.737 395.174 146.887 397.806 153.793Z" fill="#FAD7C3" />
	<path d="M402.633 149.551C394.353 143.788 375.909 130.74 370.617 125.777C363.921 119.362 332.771 92.0242 332.771 92.0242L322.962 106.79C322.962 106.79 349.296 123.528 360.548 133.517C369.213 141.258 400.446 157.082 400.446 157.082C405.583 157.107 404.725 151.443 402.633 149.551Z" fill="#FAD7C3" />
	<mask id="mask2_10108_92496" style="mask-type:alpha" maskUnits="userSpaceOnUse" x="322" y="92" width="83" height="66">
		<path d="M402.633 149.551C394.353 143.788 375.909 130.74 370.617 125.777C363.921 119.363 332.771 92.0244 332.771 92.0244L322.962 106.79C322.962 106.79 349.296 123.529 360.548 133.517C369.213 141.258 400.446 157.082 400.446 157.082C405.583 157.107 404.725 151.443 402.633 149.551Z" fill="#FAD7C3" />
	</mask>
	<g mask="url(#mask2_10108_92496)">
		<g style="mix-blend-mode:multiply" filter="url(#filter11_f_10108_92496)">
			<path d="M400.446 157.082C392.166 151.319 373.1 138.48 367.809 133.517C361.112 127.102 329.68 99.0339 329.68 99.0339L322.962 106.79C322.962 106.79 349.296 123.528 360.548 133.517C369.213 141.258 400.446 157.082 400.446 157.082C402.539 158.973 405.582 157.107 400.446 157.082Z" fill="url(#paint18_linear_10108_92496)" fill-opacity="0.5" />
		</g>
	</g>
	<path d="M257.168 278.424C257.168 278.424 269.515 293.245 269.61 294.48C269.705 295.81 273.932 300.816 272.412 302.146C273.457 303.286 268.282 308.381 273.601 308.096C275.121 308.001 281.198 302.745 281.862 300.94C282.717 298.28 284.902 292.295 284.142 290.49C283.762 289.635 281.862 287.735 279.203 286.024C276.354 284.219 265.621 269.209 265.621 269.209L257.168 278.424Z" fill="#FAD7C3" />
	<path d="M275.459 281.144C275.459 281.144 275.701 292.645 267.488 293.807L269.492 326.409L288.755 281.977L275.459 281.144Z" fill="#414248" />
	<path d="M288.812 282L269.485 326.406L273.017 327.952L292.343 283.546L288.812 282Z" fill="#414248" />
	<path d="M273.161 299.189C273.043 299.28 273.014 299.34 272.837 299.403C269.97 300.319 268.209 301.692 268.209 301.692C267.828 302.027 267.351 301.946 267.255 301.531C267.102 301.236 267.212 300.697 267.593 300.362C267.711 300.271 269.618 298.746 272.754 297.885C273.137 297.699 273.527 297.96 273.506 298.467C273.419 298.648 273.395 299.006 273.161 299.189Z" fill="white" />
	<path d="M273.139 303.691C273.022 303.782 272.993 303.842 272.816 303.905C269.948 304.821 268.187 306.194 268.187 306.194C267.806 306.529 267.33 306.448 267.234 306.032C267.081 305.737 267.191 305.199 267.572 304.864C267.689 304.773 269.596 303.248 272.732 302.387C273.115 302.201 273.506 302.462 273.484 302.969C273.369 303.21 273.345 303.568 273.139 303.691Z" fill="white" />
	<path d="M273.094 308.252C272.977 308.344 272.948 308.404 272.771 308.467C269.903 309.383 268.142 310.756 268.142 310.756C267.761 311.09 267.285 311.01 267.189 310.594C267.036 310.299 267.146 309.76 267.527 309.426C267.644 309.334 269.551 307.809 272.687 306.948C273.071 306.762 273.461 307.023 273.439 307.531C273.324 307.771 273.329 308.069 273.094 308.252Z" fill="white" />
	<path d="M183.18 285.55C183.18 285.55 173.112 299.706 173.967 304.266C174.442 306.641 176.531 309.776 175.297 312.056C174.062 314.336 172.732 314.906 172.732 314.906L141.294 315.381C139.585 315.381 140.724 314.336 142.054 313.291C144.334 311.676 146.138 310.536 153.357 307.021C153.831 306.831 155.541 305.691 156.206 305.311C157.821 304.361 159.34 302.841 160.67 301.321C162.949 298.851 172.827 278.33 172.827 278.33L183.18 285.55Z" fill="#FAD7C3" />
	<path d="M328.307 174.681C328.307 174.681 335.43 195.962 324.793 205.937C314.155 215.912 250.899 214.772 230.099 214.772C230.099 214.772 221.55 238.143 220.601 241.943C219.651 245.743 180.491 296.791 180.491 296.791L165.436 287.866C165.436 287.866 211.388 200.997 214.902 197.197C218.416 193.397 267.489 174.558 279.742 171.043C292.089 167.433 328.307 174.681 328.307 174.681Z" fill="url(#paint19_linear_10108_92496)" />
	<path d="M234.774 209.719C255.384 228.91 272.215 272.791 272.215 272.791L256.763 282.906C256.763 282.906 217.88 226.476 205.058 208.331C201.544 203.201 202.082 192.732 206.736 188.552C207.305 188.077 207.97 187.507 208.635 186.937C218.038 179.051 291.234 179.373 291.234 179.373L323.326 158.547C323.326 158.547 342.741 197.224 317.78 212.893C292.818 228.561 241.509 208.769 234.774 209.719Z" fill="url(#paint20_linear_10108_92496)" />
	<mask id="mask3_10108_92496" style="mask-type:alpha" maskUnits="userSpaceOnUse" x="202" y="158" width="129" height="125">
		<path d="M234.774 209.719C255.384 228.91 272.215 272.791 272.215 272.791L256.763 282.906C256.763 282.906 217.88 226.476 205.058 208.331C201.544 203.201 202.082 192.732 206.736 188.552C207.305 188.077 207.97 187.507 208.635 186.937C218.038 179.051 291.234 179.373 291.234 179.373L323.326 158.547C323.326 158.547 342.741 197.224 317.78 212.892C292.818 228.561 241.509 208.769 234.774 209.719Z" fill="url(#paint21_linear_10108_92496)" />
	</mask>
	<g mask="url(#mask3_10108_92496)">
		<g opacity="0.9" filter="url(#filter12_f_10108_92496)">
			<path d="M249.881 293.489L267.583 278.51L202.933 204.358L249.881 293.489Z" fill="url(#paint22_linear_10108_92496)" />
		</g>
		<g filter="url(#filter13_f_10108_92496)">
			<path d="M250.97 220.5C271.58 239.69 265.256 256.722 265.256 256.722C265.256 256.722 245 231.038 232.178 212.892C228.664 207.762 227.003 203.07 227.003 203.07C226.338 203.64 227.573 202.595 227.003 203.07C227.668 202.5 294.273 212.892 314.972 206.61C331.313 201.651 331.313 178.831 331.313 178.831C331.313 178.831 344.018 204.831 319.057 220.5C294.096 236.169 257.705 219.55 250.97 220.5Z" fill="url(#paint23_linear_10108_92496)" />
		</g>
	</g>
	<path fill-rule="evenodd" clip-rule="evenodd" d="M286.137 88.4192C287.942 86.8041 295.065 86.3291 297.25 86.7091C298.835 86.6836 301.092 86.5066 303.65 86.306C310.597 85.7613 319.765 85.0424 323.722 86.7088L323.724 86.7148C333.154 87.9752 356.536 112.515 356.536 112.515C356.536 112.515 351.244 122.581 345.761 123.239C345.761 123.239 335.759 115.523 328.4 110.566C326.928 117.233 324.202 135.251 323.722 141.094C323.553 142.791 325.601 168.267 329.071 175.01C324.476 183.061 283.705 182.944 273.998 171.837C273.998 171.092 274.902 169.833 276.161 168.081C279.262 163.763 284.516 156.45 283.705 146.449C283.684 146.04 283.425 144.428 283.049 142.079C281.767 134.075 279.113 117.505 279.774 110.748C281.578 92.2227 286.137 88.4192 286.137 88.4192Z" fill="url(#paint24_linear_10108_92496)" />
	<mask id="mask4_10108_92496" style="mask-type:alpha" maskUnits="userSpaceOnUse" x="273" y="85" width="84" height="96">
		<path fill-rule="evenodd" clip-rule="evenodd" d="M286.137 88.4199C287.942 86.8049 295.065 86.3299 297.25 86.7099C298.835 86.6843 301.092 86.5073 303.65 86.3067C310.597 85.762 319.765 85.0431 323.722 86.7096L323.724 86.7154C333.154 87.9764 356.535 112.515 356.535 112.515C356.535 112.515 351.243 122.581 345.761 123.24C345.761 123.24 335.759 115.524 328.4 110.567C326.928 117.234 324.202 135.252 323.722 141.095C323.553 142.792 325.601 168.267 329.071 175.011C324.476 183.062 283.705 182.945 273.998 171.838C273.998 171.093 274.902 169.834 276.161 168.082C279.262 163.764 284.516 156.45 283.705 146.45C283.684 146.04 283.425 144.429 283.049 142.08C281.767 134.075 279.113 117.506 279.774 110.749C281.578 92.2234 286.137 88.4199 286.137 88.4199Z" fill="url(#paint25_linear_10108_92496)" />
	</mask>
	<g mask="url(#mask4_10108_92496)">
		<g style="mix-blend-mode:multiply">
			<path d="M353.374 122.455C346.678 116.041 329.135 103.935 329.135 103.935L328.318 111.562C328.318 111.562 334.224 114.918 345.476 124.906C354.142 132.647 353.374 122.455 353.374 122.455Z" fill="url(#paint26_linear_10108_92496)" fill-opacity="0.12" />
		</g>
	</g>
	<g style="mix-blend-mode:multiply">
		<path d="M310.822 85.9595L314.7 86.7765C312.37 90.0544 308.989 95.9154 305.44 96.3087C305.157 94.8144 303.225 90.8074 302.753 89.0469C302.797 90.9762 301.205 95.6117 300.538 96.3087C296.925 96.3087 293.479 90.4914 291.006 86.7765L294.906 85.9595L302.864 87.2531L310.822 85.9595Z" fill="url(#paint27_linear_10108_92496)" fill-opacity="0.22" />
	</g>
	<g opacity="0.3" filter="url(#filter14_f_10108_92496)">
		<path d="M293.76 88.6814C292.373 97.4084 293.679 105.477 296.453 118.369C298.655 107.319 306.884 98.014 310.887 89.2282" stroke="#090E96" stroke-width="1.43225" stroke-miterlimit="10" stroke-linejoin="bevel" />
	</g>
	<g style="mix-blend-mode:multiply" filter="url(#filter15_f_10108_92496)">
		<path d="M291.935 131.081L301.945 132.062C302.449 128.791 302.357 124.219 302.066 119.166L292.056 118.185C292.017 122.347 292.384 126.445 291.935 131.081Z" fill="url(#paint28_linear_10108_92496)" fill-opacity="0.12" />
	</g>
	<path d="M293.214 88.1367C291.827 96.8637 292.818 104.797 295.591 117.689C297.793 106.638 308.625 96.9225 312.628 88.1367" stroke="#313134" stroke-width="1.43225" stroke-miterlimit="10" stroke-linejoin="bevel" />
	<path d="M290.845 129.991L300.855 130.972C301.359 127.701 301.267 123.128 300.976 118.076L290.966 117.095C290.927 121.257 291.295 125.355 290.845 129.991Z" fill="white" />
	<ellipse rx="1.71364" ry="1.72979" transform="matrix(0.99949 -0.0318931 0.0381782 0.999269 295.691 121.387)" fill="url(#paint29_linear_10108_92496)" />
	<g style="mix-blend-mode:multiply">
		<path fill-rule="evenodd" clip-rule="evenodd" d="M299.117 121.37C299.117 121.358 299.117 121.347 299.116 121.335C299.116 121.324 299.115 121.313 299.114 121.301L299.117 121.37ZM297.496 123.118C297.492 123.119 297.488 123.119 297.484 123.119C296.542 123.146 295.745 122.392 295.705 121.434C295.665 120.477 296.396 119.678 297.338 119.651C297.494 119.646 297.646 119.663 297.792 119.699L297.353 119.712L297.496 123.118Z" fill="url(#paint30_linear_10108_92496)" />
	</g>
	<path d="M292.179 125.387L299.915 126.224L299.928 124.904L292.192 123.997L292.179 125.387Z" fill="#E5E9F0" />
	<path d="M292.154 127.902L299.89 128.809L299.902 127.489L292.166 126.582L292.154 127.902Z" fill="#E5E9F0" />
	<path d="M295.897 82.1865L291.162 86.6935C294.574 90.9956 298.056 93.3857 300.423 93.3857L303.208 86.2838C300.354 86.3521 298.543 84.5083 295.897 82.1865Z" fill="white" />
	<path d="M310.091 82.186L314.826 86.693C311.414 90.9951 307.932 93.3852 305.565 93.3852L302.779 86.2833C305.634 86.3516 307.445 84.5078 310.091 82.186Z" fill="white" />
	<path d="M175.563 302.089C175.563 302.089 165.307 307.273 160.711 300.361L132.206 316.244L180.559 314.45L175.563 302.089Z" fill="#414248" />
	<path d="M180.558 314.514L132.206 316.242L132.339 320.097L180.691 318.369L180.558 314.514Z" fill="#414248" />
	<path d="M158.314 307.803C158.181 307.736 158.115 307.736 157.981 307.603C155.917 305.41 153.919 304.413 153.919 304.413C153.452 304.214 153.319 303.749 153.652 303.483C153.852 303.217 154.385 303.084 154.851 303.284C154.984 303.35 157.182 304.413 159.313 306.872C159.646 307.138 159.58 307.603 159.114 307.803C158.914 307.803 158.581 307.936 158.314 307.803Z" fill="white" />
	<path d="M154.25 309.729C154.117 309.663 154.05 309.663 153.917 309.53C151.852 307.337 149.854 306.34 149.854 306.34C149.388 306.141 149.255 305.676 149.588 305.41C149.788 305.144 150.32 305.011 150.787 305.21C150.92 305.277 153.118 306.34 155.249 308.799C155.582 309.065 155.515 309.53 155.049 309.729C154.783 309.729 154.45 309.862 154.25 309.729Z" fill="white" />
	<path d="M150.121 311.66C149.988 311.593 149.921 311.593 149.788 311.46C147.723 309.267 145.725 308.27 145.725 308.27C145.259 308.071 145.126 307.606 145.459 307.34C145.659 307.074 146.191 306.941 146.658 307.141C146.791 307.207 148.989 308.27 151.12 310.729C151.453 310.995 151.386 311.46 150.92 311.66C150.654 311.66 150.387 311.792 150.121 311.66Z" fill="white" />
	<defs>
		<filter id="filter0_f_10108_92496" x="312.067" y="127.194" width="190.027" height="77.1177" filterUnits="userSpaceOnUse" color-interpolation-filters="sRGB">
			<feFlood flood-opacity="0" result="BackgroundImageFix" />
			<feBlend mode="normal" in="SourceGraphic" in2="BackgroundImageFix" result="shape" />
			<feGaussianBlur stdDeviation="5.72901" result="effect1_foregroundBlur_10108_92496" />
		</filter>
		<filter id="filter1_f_10108_92496" x="199.185" y="190.774" width="133.53" height="158.042" filterUnits="userSpaceOnUse" color-interpolation-filters="sRGB">
			<feFlood flood-opacity="0" result="BackgroundImageFix" />
			<feBlend mode="normal" in="SourceGraphic" in2="BackgroundImageFix" result="shape" />
			<feGaussianBlur stdDeviation="1.79032" result="effect1_foregroundBlur_10108_92496" />
		</filter>
		<filter id="filter2_f_10108_92496" x="208.171" y="144.476" width="285.4" height="254.935" filterUnits="userSpaceOnUse" color-interpolation-filters="sRGB">
			<feFlood flood-opacity="0" result="BackgroundImageFix" />
			<feBlend mode="normal" in="SourceGraphic" in2="BackgroundImageFix" result="shape" />
			<feGaussianBlur stdDeviation="1.79032" result="effect1_foregroundBlur_10108_92496" />
		</filter>
		<filter id="filter3_f_10108_92496" x="304.148" y="31.0111" width="18.8621" height="11.5647" filterUnits="userSpaceOnUse" color-interpolation-filters="sRGB">
			<feFlood flood-opacity="0" result="BackgroundImageFix" />
			<feBlend mode="normal" in="SourceGraphic" in2="BackgroundImageFix" result="shape" />
			<feGaussianBlur stdDeviation="0.154491" result="effect1_foregroundBlur_10108_92496" />
		</filter>
		<filter id="filter4_f_10108_92496" x="304.84" y="34.28" width="27.0831" height="43.6319" filterUnits="userSpaceOnUse" color-interpolation-filters="sRGB">
			<feFlood flood-opacity="0" result="BackgroundImageFix" />
			<feBlend mode="normal" in="SourceGraphic" in2="BackgroundImageFix" result="shape" />
			<feGaussianBlur stdDeviation="3.70779" result="effect1_foregroundBlur_10108_92496" />
		</filter>
		<filter id="filter5_f_10108_92496" x="314.065" y="43.4499" width="23.8956" height="27.5038" filterUnits="userSpaceOnUse" color-interpolation-filters="sRGB">
			<feFlood flood-opacity="0" result="BackgroundImageFix" />
			<feBlend mode="normal" in="SourceGraphic" in2="BackgroundImageFix" result="shape" />
			<feGaussianBlur stdDeviation="3.70779" result="effect1_foregroundBlur_10108_92496" />
		</filter>
		<filter id="filter6_f_10108_92496" x="286.827" y="37.1316" width="12.9594" height="34.9933" filterUnits="userSpaceOnUse" color-interpolation-filters="sRGB">
			<feFlood flood-opacity="0" result="BackgroundImageFix" />
			<feBlend mode="normal" in="SourceGraphic" in2="BackgroundImageFix" result="shape" />
			<feGaussianBlur stdDeviation="0.463474" result="effect1_foregroundBlur_10108_92496" />
		</filter>
		<filter id="filter7_f_10108_92496" x="278.976" y="45.8498" width="11.0406" height="17.3648" filterUnits="userSpaceOnUse" color-interpolation-filters="sRGB">
			<feFlood flood-opacity="0" result="BackgroundImageFix" />
			<feBlend mode="normal" in="SourceGraphic" in2="BackgroundImageFix" result="shape" />
			<feGaussianBlur stdDeviation="0.308982" result="effect1_foregroundBlur_10108_92496" />
		</filter>
		<filter id="filter8_f_10108_92496" x="299.52" y="-0.122615" width="27.1881" height="29.6776" filterUnits="userSpaceOnUse" color-interpolation-filters="sRGB">
			<feFlood flood-opacity="0" result="BackgroundImageFix" />
			<feBlend mode="normal" in="SourceGraphic" in2="BackgroundImageFix" result="shape" />
			<feGaussianBlur stdDeviation="2.37662" result="effect1_foregroundBlur_10108_92496" />
		</filter>
		<filter id="filter9_f_10108_92496" x="290.828" y="25.5086" width="17.7519" height="15.5089" filterUnits="userSpaceOnUse" color-interpolation-filters="sRGB">
			<feFlood flood-opacity="0" result="BackgroundImageFix" />
			<feBlend mode="normal" in="SourceGraphic" in2="BackgroundImageFix" result="shape" />
			<feGaussianBlur stdDeviation="2.04881" result="effect1_foregroundBlur_10108_92496" />
		</filter>
		<filter id="filter10_f_10108_92496" x="304.814" y="18.2371" width="25.8769" height="28.3664" filterUnits="userSpaceOnUse" color-interpolation-filters="sRGB">
			<feFlood flood-opacity="0" result="BackgroundImageFix" />
			<feBlend mode="normal" in="SourceGraphic" in2="BackgroundImageFix" result="shape" />
			<feGaussianBlur stdDeviation="2.04881" result="effect1_foregroundBlur_10108_92496" />
		</filter>
		<filter id="filter11_f_10108_92496" x="318.666" y="94.7372" width="88.8982" height="67.4876" filterUnits="userSpaceOnUse" color-interpolation-filters="sRGB">
			<feFlood flood-opacity="0" result="BackgroundImageFix" />
			<feBlend mode="normal" in="SourceGraphic" in2="BackgroundImageFix" result="shape" />
			<feGaussianBlur stdDeviation="2.14838" result="effect1_foregroundBlur_10108_92496" />
		</filter>
		<filter id="filter12_f_10108_92496" x="187.895" y="189.319" width="94.7277" height="119.209" filterUnits="userSpaceOnUse" color-interpolation-filters="sRGB">
			<feFlood flood-opacity="0" result="BackgroundImageFix" />
			<feBlend mode="normal" in="SourceGraphic" in2="BackgroundImageFix" result="shape" />
			<feGaussianBlur stdDeviation="7.51933" result="effect1_foregroundBlur_10108_92496" />
		</filter>
		<filter id="filter13_f_10108_92496" x="209.614" y="161.644" width="142.12" height="112.266" filterUnits="userSpaceOnUse" color-interpolation-filters="sRGB">
			<feFlood flood-opacity="0" result="BackgroundImageFix" />
			<feBlend mode="normal" in="SourceGraphic" in2="BackgroundImageFix" result="shape" />
			<feGaussianBlur stdDeviation="8.59352" result="effect1_foregroundBlur_10108_92496" />
		</filter>
		<filter id="filter14_f_10108_92496" x="291.768" y="87.853" width="20.4869" height="31.3832" filterUnits="userSpaceOnUse" color-interpolation-filters="sRGB">
			<feFlood flood-opacity="0" result="BackgroundImageFix" />
			<feBlend mode="normal" in="SourceGraphic" in2="BackgroundImageFix" result="shape" />
			<feGaussianBlur stdDeviation="0.358063" result="effect1_foregroundBlur_10108_92496" />
		</filter>
		<filter id="filter15_f_10108_92496" x="290.503" y="116.753" width="13.2317" height="16.7417" filterUnits="userSpaceOnUse" color-interpolation-filters="sRGB">
			<feFlood flood-opacity="0" result="BackgroundImageFix" />
			<feBlend mode="normal" in="SourceGraphic" in2="BackgroundImageFix" result="shape" />
			<feGaussianBlur stdDeviation="0.716126" result="effect1_foregroundBlur_10108_92496" />
		</filter>
		<linearGradient id="paint0_linear_10108_92496" x1="0" y1="356.55" x2="225.782" y2="353.062" gradientUnits="userSpaceOnUse">
			<stop stop-color="#229AFA" />
			<stop offset="1" stop-color="#1168F8" />
		</linearGradient>
		<linearGradient id="paint1_linear_10108_92496" x1="138.906" y1="212.895" x2="178.737" y2="362.671" gradientUnits="userSpaceOnUse">
			<stop stop-color="#095FEC" />
			<stop offset="1" stop-color="#0557DF" />
		</linearGradient>
		<linearGradient id="paint2_linear_10108_92496" x1="253.098" y1="244.007" x2="215.04" y2="269.825" gradientUnits="userSpaceOnUse">
			<stop />
			<stop offset="1" stop-opacity="0" />
		</linearGradient>
		<linearGradient id="paint3_linear_10108_92496" x1="250.036" y1="326.13" x2="308.674" y2="491.741" gradientUnits="userSpaceOnUse">
			<stop stop-color="#269EFF" />
			<stop offset="1" stop-color="#095FEC" />
		</linearGradient>
		<linearGradient id="paint4_linear_10108_92496" x1="344.112" y1="353.679" x2="344.214" y2="391.785" gradientUnits="userSpaceOnUse">
			<stop />
			<stop offset="1" stop-opacity="0" />
		</linearGradient>
		<linearGradient id="paint5_linear_10108_92496" x1="311.286" y1="211.768" x2="350.389" y2="322.981" gradientUnits="userSpaceOnUse">
			<stop stop-color="#269EFF" />
			<stop offset="1" stop-color="#095FEC" />
		</linearGradient>
		<linearGradient id="paint6_linear_10108_92496" x1="402.717" y1="138.742" x2="440.624" y2="248.859" gradientUnits="userSpaceOnUse">
			<stop stop-color="#269EFF" />
			<stop offset="1" stop-color="#095FEC" />
		</linearGradient>
		<linearGradient id="paint7_linear_10108_92496" x1="266.223" y1="240.926" x2="212.025" y2="345.235" gradientUnits="userSpaceOnUse">
			<stop stop-color="#66C7ED" />
			<stop offset="1" stop-color="#66C7ED" stop-opacity="0" />
		</linearGradient>
		<linearGradient id="paint8_linear_10108_92496" x1="376.523" y1="338.701" x2="347.927" y2="296.487" gradientUnits="userSpaceOnUse">
			<stop stop-color="#0592BF" />
			<stop offset="1" stop-color="#7DD3F5" stop-opacity="0.46" />
		</linearGradient>
		<linearGradient id="paint9_linear_10108_92496" x1="191.359" y1="337.464" x2="221.687" y2="417.3" gradientUnits="userSpaceOnUse">
			<stop stop-color="#269EFF" />
			<stop offset="1" stop-color="#095FEC" />
		</linearGradient>
		<linearGradient id="paint10_linear_10108_92496" x1="244.707" y1="379.552" x2="225.915" y2="389.084" gradientUnits="userSpaceOnUse">
			<stop />
			<stop offset="1" stop-opacity="0" />
		</linearGradient>
		<linearGradient id="paint11_linear_10108_92496" x1="276.425" y1="129.904" x2="289.984" y2="76.657" gradientUnits="userSpaceOnUse">
			<stop offset="0.185634" stop-color="#5FA2F6" />
			<stop offset="0.8289" stop-color="#34CFFD" />
		</linearGradient>
		<linearGradient id="paint12_linear_10108_92496" x1="279.022" y1="126.267" x2="290.755" y2="77.0097" gradientUnits="userSpaceOnUse">
			<stop stop-color="#1CADFF" />
			<stop offset="0.8289" stop-color="#50D7FF" />
		</linearGradient>
		<linearGradient id="paint13_linear_10108_92496" x1="301.348" y1="36.3899" x2="307.333" y2="13.1957" gradientUnits="userSpaceOnUse">
			<stop stop-color="#78DFFF" />
			<stop offset="0.0001" stop-color="#78C6FF" />
			<stop offset="0.8289" stop-color="#34CFFD" />
		</linearGradient>
		<linearGradient id="paint14_linear_10108_92496" x1="308.717" y1="34.2702" x2="307.017" y2="37.5972" gradientUnits="userSpaceOnUse">
			<stop stop-color="#E8C7A5" />
			<stop offset="0.0001" stop-color="#E4BF98" stop-opacity="0.984375" />
			<stop offset="1" stop-color="#E8C7A5" stop-opacity="0" />
		</linearGradient>
		<linearGradient id="paint15_linear_10108_92496" x1="299.006" y1="71.6514" x2="304.694" y2="75.8661" gradientUnits="userSpaceOnUse">
			<stop stop-color="#E8C7A5" />
			<stop offset="0.0001" stop-color="#E4BF98" stop-opacity="0.984375" />
			<stop offset="1" stop-color="#E8C7A5" stop-opacity="0" />
		</linearGradient>
		<linearGradient id="paint16_linear_10108_92496" x1="288.273" y1="53.3913" x2="295.373" y2="53.3333" gradientUnits="userSpaceOnUse">
			<stop stop-color="#E8C7A5" />
			<stop offset="0.0001" stop-color="#E4BF98" stop-opacity="0.984375" />
			<stop offset="1" stop-color="#E8C7A5" stop-opacity="0" />
		</linearGradient>
		<linearGradient id="paint17_linear_10108_92496" x1="288.537" y1="54.8028" x2="280.896" y2="52.4707" gradientUnits="userSpaceOnUse">
			<stop stop-color="#E8C7A5" />
			<stop offset="0.0001" stop-color="#E4BF98" stop-opacity="0.984375" />
			<stop offset="1" stop-color="#E8C7A5" stop-opacity="0" />
		</linearGradient>
		<linearGradient id="paint18_linear_10108_92496" x1="333.764" y1="142.159" x2="368.314" y2="103.426" gradientUnits="userSpaceOnUse">
			<stop stop-color="#E8BF95" />
			<stop offset="0.0001" stop-color="#E4BF98" stop-opacity="0.984375" />
			<stop offset="1" stop-color="#F4BA7E" stop-opacity="0" />
		</linearGradient>
		<linearGradient id="paint19_linear_10108_92496" x1="205.432" y1="295.378" x2="227.935" y2="134.149" gradientUnits="userSpaceOnUse">
			<stop stop-color="#41C2FB" />
			<stop offset="0.324198" stop-color="#37B7FF" />
			<stop offset="0.567708" stop-color="#0098ED" />
		</linearGradient>
		<linearGradient id="paint20_linear_10108_92496" x1="257.489" y1="237.32" x2="245.625" y2="155.612" gradientUnits="userSpaceOnUse">
			<stop stop-color="#36B7FF" />
			<stop offset="0.8289" stop-color="#5AD9FF" />
		</linearGradient>
		<linearGradient id="paint21_linear_10108_92496" x1="257.489" y1="237.32" x2="245.625" y2="155.612" gradientUnits="userSpaceOnUse">
			<stop stop-color="#36B7FF" />
			<stop offset="0.8289" stop-color="#5AD9FF" />
		</linearGradient>
		<linearGradient id="paint22_linear_10108_92496" x1="221.829" y1="208.789" x2="255.904" y2="272.384" gradientUnits="userSpaceOnUse">
			<stop stop-color="#39B7FE" />
			<stop offset="1" stop-color="#0098ED" />
		</linearGradient>
		<linearGradient id="paint23_linear_10108_92496" x1="252.411" y1="255.781" x2="267.978" y2="148.559" gradientUnits="userSpaceOnUse">
			<stop stop-color="#41C2FB" />
			<stop offset="0.324198" stop-color="#39B7FE" />
			<stop offset="0.966013" stop-color="#0098ED" />
		</linearGradient>
		<linearGradient id="paint24_linear_10108_92496" x1="294.795" y1="178.829" x2="320.616" y2="59.1295" gradientUnits="userSpaceOnUse">
			<stop stop-color="#36B7FF" />
			<stop offset="0.8289" stop-color="#50D7FF" />
		</linearGradient>
		<linearGradient id="paint25_linear_10108_92496" x1="294.795" y1="178.829" x2="320.616" y2="59.1302" gradientUnits="userSpaceOnUse">
			<stop stop-color="#36B7FF" />
			<stop offset="0.8289" stop-color="#50D7FF" />
		</linearGradient>
		<linearGradient id="paint26_linear_10108_92496" x1="330.225" y1="114.558" x2="339.08" y2="107.419" gradientUnits="userSpaceOnUse">
			<stop stop-color="#3B4878" />
			<stop offset="1" stop-color="#002197" stop-opacity="0" />
		</linearGradient>
		<linearGradient id="paint27_linear_10108_92496" x1="302.219" y1="86.8773" x2="302.219" y2="98.9397" gradientUnits="userSpaceOnUse">
			<stop stop-color="#006ACB" />
			<stop offset="1" stop-color="#002197" stop-opacity="0" />
		</linearGradient>
		<linearGradient id="paint28_linear_10108_92496" x1="302.268" y1="130.343" x2="292.715" y2="131.928" gradientUnits="userSpaceOnUse">
			<stop stop-color="#002197" />
			<stop offset="1" stop-color="#002197" stop-opacity="0" />
		</linearGradient>
		<linearGradient id="paint29_linear_10108_92496" x1="4.53362e-08" y1="1.73721" x2="3.44199" y2="1.73721" gradientUnits="userSpaceOnUse">
			<stop stop-color="#33EBF7" />
			<stop offset="1" stop-color="#3EA9F5" />
		</linearGradient>
		<linearGradient id="paint30_linear_10108_92496" x1="295.72" y1="121.441" x2="299.144" y2="121.294" gradientUnits="userSpaceOnUse">
			<stop stop-color="#3D6EF9" />
			<stop offset="0.0001" stop-color="#3D6EF9" />
			<stop offset="1" stop-color="#3D9FF9" />
		</linearGradient>
	</defs>
</svg>
