<svg width="38" height="39" viewBox="0 0 38 39" fill="none" xmlns="http://www.w3.org/2000/svg">
<path d="M37.8592 19.7389C37.8592 30.094 29.4401 38.4885 19.0546 38.4885C8.66912 38.4885 0.25 30.094 0.25 19.7389C0.25 9.38376 8.66912 0.989258 19.0546 0.989258C29.4401 0.989258 37.8592 9.38376 37.8592 19.7389Z" fill="#34CFFD"/>
<path d="M28.4568 35.9799C34.0775 32.7379 37.859 26.6786 37.859 19.7387C37.859 12.7987 34.0775 6.73942 28.4568 3.4975C22.8362 6.73942 19.0547 12.7987 19.0547 19.7387C19.0547 26.6786 22.8362 32.7379 28.4568 35.9799Z" fill="#0248F5"/>
<path d="M28.5801 35.9594C30.6035 37.3044 34.1538 38.4885 37.8611 38.4885V0.989258C34.1536 0.989258 31.4928 1.83237 28.5801 3.67927C33.8268 7.00587 37.8608 13.0805 37.8608 19.7392C37.8608 26.3977 33.8265 32.6328 28.5801 35.9594Z" fill="#3763E0"/>
</svg>
