<svg width="190" height="190" viewBox="0 0 190 190" fill="none" xmlns="http://www.w3.org/2000/svg">
	<path d="M85.2051 19.5876C42.4742 19.5876 7.83398 54.2279 7.83398 96.9588C7.83398 114.641 13.7659 130.939 23.7483 143.969H146.662C156.644 130.939 162.576 114.641 162.576 96.9588C162.576 54.2279 127.936 19.5876 85.2051 19.5876Z" fill="#003DA2" fill-opacity="0.14" />
	<path d="M23.5389 144.129L23.6181 144.233H23.7483H146.662H146.792L146.871 144.129C156.888 131.055 162.84 114.701 162.84 96.9588C162.84 54.0822 128.082 19.3239 85.2051 19.3239C42.3286 19.3239 7.57025 54.0822 7.57025 96.9588C7.57025 114.701 13.5225 131.055 23.5389 144.129Z" stroke="#003DA1" stroke-opacity="0.1" stroke-width="0.527473" />
	<path d="M13.6075 151.811L26.5978 145.061C26.7402 144.987 26.8984 144.948 27.0589 144.948H144.504C144.702 144.948 144.895 145.007 145.059 145.117L155.075 151.802C155.719 152.232 155.651 153.198 154.955 153.534L87.9638 185.858C87.7006 185.985 87.3949 185.99 87.1272 185.873L13.6665 153.614C12.8974 153.276 12.8621 152.198 13.6075 151.811Z" fill="url(#paint0_radial_10108_92415)" />
	<path d="M86.6585 115.92L23.6147 84.3718C22.1981 106.565 21.9606 119.724 23.7404 144.603C23.7849 145.224 24.1184 145.799 24.6401 146.138C37.5736 154.563 49.5459 160.871 86.856 177.145L86.6585 115.92Z" fill="white" />
	<g opacity="0.8" filter="url(#filter0_d_10108_92415)">
		<path d="M86.6585 115.92L23.6147 84.3718C22.1981 106.565 21.9606 119.724 23.7404 144.603C23.7849 145.224 24.1184 145.799 24.6401 146.138C37.5736 154.563 49.5459 160.871 86.856 177.145L86.6585 115.92Z" fill="url(#paint1_linear_10108_92415)" />
	</g>
	<path d="M148.526 85.3214L85.4822 54.0374C85.2017 53.8982 84.8722 53.8984 84.5919 54.038L23.6152 84.4027L86.8243 116.374L148.526 85.3214Z" fill="white" />
	<path opacity="0.9" d="M148.526 85.3214L85.4822 54.0374C85.2017 53.8982 84.8722 53.8984 84.5919 54.038L23.6152 84.4027L86.8243 116.374L148.526 85.3214Z" fill="url(#paint2_linear_10108_92415)" />
	<path d="M86.6582 115.919L86.8557 177.145C109.541 166.965 121.297 162.706 147.842 146.915C148.394 146.587 148.765 146.001 148.82 145.362C150.763 122.908 150.472 109.464 148.525 85.1604L86.6582 115.919Z" fill="white" />
	<g opacity="0.7" filter="url(#filter1_d_10108_92415)">
		<path d="M86.6582 115.919L86.8557 177.145C109.792 166.852 121.556 162.613 148.73 146.386C150.771 123.312 150.502 109.832 148.525 85.1604L86.6582 115.919Z" fill="url(#paint3_linear_10108_92415)" />
	</g>
	<path d="M125.255 96.7131L126.148 159.405L115.424 164.633L113.637 102.969L125.255 96.7131Z" fill="#F4F6F9" />
	<path d="M113.636 102.969L52.1426 67.9994L62.9343 61.7883L125.254 96.7132" fill="url(#paint4_linear_10108_92415)" />
	<path d="M108.273 65.4343L118.103 69.9026L58.2264 102.075L46.6094 95.8196L108.273 65.4343Z" fill="url(#paint5_linear_10108_92415)" />
	<path d="M58.2264 102.076L56.247 164.634L45.7148 159.197L46.6085 95.8198" fill="#F4F6F9" />
	<path opacity="0.1" d="M122.873 84.3952C123.402 87.536 123.402 91.203 123.402 91.203C123.402 91.203 99.4405 95.6552 87.3216 85.7065L85.8047 84.4344C85.8047 84.4344 70.9997 97.7439 53.0899 94.3439L50.1905 84.6621C50.1905 84.6621 52.8213 82.3065 57.5614 81.2621C57.5614 81.2621 52.2919 78.6473 49.9219 73.4099L64.7743 64.0422C64.7743 64.0422 76.2612 72.0908 76.7906 72.6168C77.3199 73.1429 82.3207 74.7134 82.3207 74.7134C82.3207 74.7134 80.48 74.1873 85.2201 67.9055C89.9603 61.6238 101.021 65.5499 94.9611 75.4986C88.9016 85.4474 103.912 83.6099 108.921 83.8769C113.922 84.136 122.873 84.3952 122.873 84.3952Z" fill="black" />
	<path d="M108.778 48.4952C112.989 50.0735 107.277 68.7303 86.0098 84.1364C86.0098 84.1364 109.94 53.3243 93.8073 43.4619C93.8073 43.4619 97.473 46.2652 101.921 47.7571C104.133 48.503 107.38 47.9691 108.778 48.4952Z" fill="#E5E9F0" />
	<path d="M108.785 48.4948C97.3849 53.6773 91.6414 61.3332 88.7894 68.2353C85.2343 76.8492 86.1587 84.2931 86.1587 84.2931C81.7661 74.2187 81.5528 66.0759 83.1092 59.7863C85.8979 48.4556 94.3749 43.0925 94.3749 43.0925C94.3749 43.0925 98.0011 45.1027 100.64 45.9743C103.278 46.8537 108.785 48.4948 108.785 48.4948Z" fill="white" />
	<path d="M86.1587 84.2931C81.7661 74.2187 81.5528 66.076 83.1092 59.7864C82.4692 63.2335 87.7387 68.1411 88.7894 68.2354C85.2343 76.8492 86.1587 84.2931 86.1587 84.2931Z" fill="#F7F7F7" />
	<path d="M48.8794 63.4691C46.6121 64.2543 58.4703 83.8613 86.2791 84.1047C86.2791 84.1047 51.605 64.482 61.0537 51.3374C61.0537 51.3453 57.1984 60.5952 48.8794 63.4691Z" fill="#E5E9F0" />
	<path d="M48.957 63.4766C51.3666 63.3902 53.7762 63.5787 56.1541 63.9791C56.9047 64.1048 57.6552 64.254 58.3978 64.4267C58.9824 64.5602 59.567 64.7094 60.1438 64.8664C60.2228 64.8821 60.3097 64.9057 60.3887 64.9293C60.4835 64.9528 60.5704 64.9842 60.6652 65.0078C65.4369 66.3505 69.9163 68.4785 73.7164 70.8341C76.118 72.3182 78.2432 73.9043 80.0049 75.4512C84.99 79.817 86.0565 84.0886 86.0565 84.0886C86.0091 80.6651 85.9854 79.1025 85.7247 76.8568C85.0216 70.7949 81.9484 65.9029 78.2037 62.0868C76.0943 59.951 73.7875 58.1528 71.5675 56.6766C71.1488 56.4018 70.738 56.1348 70.3272 55.8757C70.0665 55.7186 69.8136 55.5694 69.5608 55.4202C69.4186 55.3339 69.2843 55.2475 69.1421 55.169C68.7392 54.9334 68.3442 54.7057 67.9571 54.4937C64.086 52.3657 61.1313 51.3528 61.1313 51.3528C61.1313 51.3528 58.6901 54.3916 55.214 58.2078C51.8564 61.9062 48.957 63.4766 48.957 63.4766Z" fill="white" />
	<path d="M71.5672 56.677C73.7872 58.1532 76.094 59.9514 78.2034 62.0872C77.0342 64.3329 74.751 69.0207 73.7161 70.8346C70.5402 68.8636 66.8824 67.0576 62.9797 65.7306L62.877 65.6914C65.1996 65.55 70.477 59.2133 71.5672 56.677Z" fill="white" />
	<path opacity="0.6" d="M58.9746 64.5842L60.1438 64.8669L60.6337 65.0239C60.6416 65.0161 60.6574 65.0161 60.6653 65.0082C63.6042 63.6577 69.1738 56.1195 69.5609 55.4207C69.4187 55.3343 69.2844 55.248 69.1422 55.1694C68.7393 54.9339 68.3443 54.7062 67.9572 54.4941C65.6661 59.1662 58.9746 64.5842 58.9746 64.5842Z" fill="white" />
	<path d="M20.9134 25.4639L22.7398 33.6117L30.0729 35.6411L22.7398 37.6705L20.9134 45.8183L19.0869 37.6705L11.7539 35.6411L19.0869 33.6117L20.9134 25.4639Z" fill="white" />
	<path d="M168.452 123.402L169.624 128.891L174.329 130.258L169.624 131.625L168.452 137.113L167.281 131.625L162.576 130.258L167.281 128.891L168.452 123.402Z" fill="white" />
	<path d="M6.09596 50.9277L7.31152 56.6215L12.1919 58.0397L7.31152 59.4578L6.09596 65.1516L4.8804 59.4578L0 58.0397L4.8804 56.6215L6.09596 50.9277Z" fill="white" />
	<path d="M161.958 43.0925L164.177 53.4895L173.089 56.0791L164.177 58.6687L161.958 69.0657L159.738 58.6687L150.826 56.0791L159.738 53.4895L161.958 43.0925Z" fill="white" />
	<path d="M140.396 13.7112L142.352 21.7151L149.555 23.8884L142.352 26.0617L140.396 34.0656L138.44 26.0617L131.236 23.8884L138.44 21.7151L140.396 13.7112Z" fill="white" />
	<defs>
		<filter id="filter0_d_10108_92415" x="19.8185" y="83.3286" width="69.697" height="98.0934" filterUnits="userSpaceOnUse" color-interpolation-filters="sRGB">
			<feFlood flood-opacity="0" result="BackgroundImageFix" />
			<feColorMatrix in="SourceAlpha" type="matrix" values="0 0 0 0 0 0 0 0 0 0 0 0 0 0 0 0 0 0 127 0" result="hardAlpha" />
			<feOffset dy="1.61677" />
			<feGaussianBlur stdDeviation="1.33" />
			<feColorMatrix type="matrix" values="0 0 0 0 0 0 0 0 0 0 0 0 0 0 0 0 0 0 0.04 0" />
			<feBlend mode="normal" in2="BackgroundImageFix" result="effect1_dropShadow_10108_92415" />
			<feBlend mode="normal" in="SourceGraphic" in2="effect1_dropShadow_10108_92415" result="shape" />
		</filter>
		<filter id="filter1_d_10108_92415" x="83.9982" y="84.1172" width="68.8005" height="97.3044" filterUnits="userSpaceOnUse" color-interpolation-filters="sRGB">
			<feFlood flood-opacity="0" result="BackgroundImageFix" />
			<feColorMatrix in="SourceAlpha" type="matrix" values="0 0 0 0 0 0 0 0 0 0 0 0 0 0 0 0 0 0 127 0" result="hardAlpha" />
			<feOffset dy="1.61677" />
			<feGaussianBlur stdDeviation="1.33" />
			<feColorMatrix type="matrix" values="0 0 0 0 0 0 0 0 0 0 0 0 0 0 0 0 0 0 0.04 0" />
			<feBlend mode="normal" in2="BackgroundImageFix" result="effect1_dropShadow_10108_92415" />
			<feBlend mode="normal" in="SourceGraphic" in2="effect1_dropShadow_10108_92415" result="shape" />
		</filter>
		<radialGradient id="paint0_radial_10108_92415" cx="0" cy="0" r="1" gradientUnits="userSpaceOnUse" gradientTransform="translate(84.1424 144.948) rotate(90) scale(44.046 104.869)">
			<stop stop-color="#105FBB" />
			<stop offset="1" stop-color="#3781D8" stop-opacity="0" />
		</radialGradient>
		<linearGradient id="paint1_linear_10108_92415" x1="22.4785" y1="84.3718" x2="85.125" y2="83.6297" gradientUnits="userSpaceOnUse">
			<stop stop-color="#229AFA" />
			<stop offset="1" stop-color="#1168F8" />
		</linearGradient>
		<linearGradient id="paint2_linear_10108_92415" x1="23.6152" y1="53.8164" x2="145.043" y2="49.6776" gradientUnits="userSpaceOnUse">
			<stop stop-color="#229AFA" />
			<stop offset="1" stop-color="#1168F8" />
		</linearGradient>
		<linearGradient id="paint3_linear_10108_92415" x1="86.6582" y1="85.1604" x2="148.433" y2="84.4326" gradientUnits="userSpaceOnUse">
			<stop stop-color="#229AFA" />
			<stop offset="1" stop-color="#1168F8" />
		</linearGradient>
		<linearGradient id="paint4_linear_10108_92415" x1="88.6982" y1="61.7883" x2="88.6982" y2="102.969" gradientUnits="userSpaceOnUse">
			<stop stop-color="#E4ECFF" />
			<stop offset="1" stop-color="white" />
		</linearGradient>
		<linearGradient id="paint5_linear_10108_92415" x1="82.3563" y1="65.4343" x2="82.3563" y2="102.075" gradientUnits="userSpaceOnUse">
			<stop stop-color="#E4ECFF" />
			<stop offset="1" stop-color="white" />
		</linearGradient>
	</defs>
</svg>
