<svg width="522" height="396" viewBox="0 0 522 396" fill="none" xmlns="http://www.w3.org/2000/svg">
	<g clip-path="url(#clip0_10375_109376)">
		<g filter="url(#filter0_b_10375_109376)">
			<path d="M502.137 395.893H19.8631C8.906 395.893 0 386.655 0 375.289V20.6037C0 9.23806 8.906 0 19.8631 0H502.137C513.094 0 522 9.23806 522 20.6037V375.289C522 386.655 513.094 395.893 502.137 395.893Z" fill="url(#paint0_linear_10375_109376)" fill-opacity="0.5" />
			<path d="M502.137 395.393H19.8631C9.19924 395.393 0.5 386.396 0.5 375.289V20.6037C0.5 9.49679 9.19924 0.5 19.8631 0.5H502.137C512.801 0.5 521.5 9.49679 521.5 20.6037V375.289C521.5 386.396 512.801 395.393 502.137 395.393Z" stroke="white" stroke-opacity="0.2" />
			<path d="M502.137 395.393H19.8631C9.19924 395.393 0.5 386.396 0.5 375.289V20.6037C0.5 9.49679 9.19924 0.5 19.8631 0.5H502.137C512.801 0.5 521.5 9.49679 521.5 20.6037V375.289C521.5 386.396 512.801 395.393 502.137 395.393Z" stroke="url(#paint1_linear_10375_109376)" />
		</g>
		<path d="M507.114 373.527C507.114 379.05 502.637 383.527 497.114 383.527H20.6485C16.9798 383.527 14.0449 380.535 14.0449 376.923V22.2385C14.0449 18.5697 17.0363 15.6348 20.6485 15.6348H497.114C502.637 15.6348 507.114 20.1119 507.114 25.6348V373.527Z" fill="#F4F5F8" />
		<path d="M507.528 371.422C507.528 376.945 503.051 381.422 497.528 381.422H21.0741C17.4056 381.422 14.4707 378.438 14.4707 374.835V21.058C14.4707 17.3987 17.462 14.4712 21.0741 14.4712H497.528C503.051 14.4712 507.528 18.9483 507.528 24.4712V371.422Z" />
		<g filter="url(#filter1_d_10375_109376)">
			<circle cx="261.5" cy="197.5" r="37.5" fill="url(#paint2_linear_10375_109376)" />
		</g>
		<path d="M271.176 195.827C272.731 196.725 272.731 198.97 271.176 199.868L258.716 207.062C257.161 207.96 255.216 206.837 255.216 205.041L255.216 190.654C255.216 188.858 257.161 187.735 258.716 188.633L271.176 195.827Z" fill="#F9FAFD" />
	</g>
	<defs>
		<filter id="filter0_b_10375_109376" x="-30" y="-30" width="582" height="455.893" filterUnits="userSpaceOnUse" color-interpolation-filters="sRGB">
			<feFlood flood-opacity="0" result="BackgroundImageFix" />
			<feGaussianBlur in="BackgroundImage" stdDeviation="15" />
			<feComposite in2="SourceAlpha" operator="in" result="effect1_backgroundBlur_10375_109376" />
			<feBlend mode="normal" in="SourceGraphic" in2="effect1_backgroundBlur_10375_109376" result="shape" />
		</filter>
		<filter id="filter1_d_10375_109376" x="196" y="141.333" width="131" height="131" filterUnits="userSpaceOnUse" color-interpolation-filters="sRGB">
			<feFlood flood-opacity="0" result="BackgroundImageFix" />
			<feColorMatrix in="SourceAlpha" type="matrix" values="0 0 0 0 0 0 0 0 0 0 0 0 0 0 0 0 0 0 127 0" result="hardAlpha" />
			<feOffset dy="9.33333" />
			<feGaussianBlur stdDeviation="14" />
			<feColorMatrix type="matrix" values="0 0 0 0 0.13308 0 0 0 0 0.602784 0 0 0 0 0.981531 0 0 0 0.3 0" />
			<feBlend mode="normal" in2="BackgroundImageFix" result="effect1_dropShadow_10375_109376" />
			<feBlend mode="normal" in="SourceGraphic" in2="effect1_dropShadow_10375_109376" result="shape" />
		</filter>
		<linearGradient id="paint0_linear_10375_109376" x1="8.00643" y1="0.178045" x2="535.556" y2="384.853" gradientUnits="userSpaceOnUse">
			<stop stop-color="white" />
			<stop offset="1" stop-color="white" stop-opacity="0" />
		</linearGradient>
		<linearGradient id="paint1_linear_10375_109376" x1="9.39509" y1="9.5457" x2="534.825" y2="377.935" gradientUnits="userSpaceOnUse">
			<stop stop-color="white" />
			<stop offset="1" stop-color="white" stop-opacity="0" />
		</linearGradient>
		<linearGradient id="paint2_linear_10375_109376" x1="224" y1="160" x2="296.972" y2="158.754" gradientUnits="userSpaceOnUse">
			<stop stop-color="#229AFA" />
			<stop offset="1" stop-color="#1168F8" />
		</linearGradient>
		<clipPath id="clip0_10375_109376">
			<rect width="522" height="395.893" fill="white" />
		</clipPath>
	</defs>
</svg>
