<svg width="375" height="518" viewBox="0 0 375 518" fill="none" xmlns="http://www.w3.org/2000/svg">
<rect width="375" height="484" transform="translate(0 16)" fill="white"/>
<g filter="url(#filter0_d_10430_112767)">
<circle cx="187.5" cy="253.498" r="121.5" transform="rotate(90 187.5 253.498)" fill="white"/>
</g>
<g filter="url(#filter1_d_10430_112767)">
<circle cx="187.5" cy="253.498" r="72.5" transform="rotate(90 187.5 253.498)" fill="white"/>
</g>
<path opacity="0.4" d="M70 177.998C94.4315 177.998 103.572 181.711 114.99 194.344C131.079 212.146 106.647 257.108 157 257.108" stroke="url(#paint0_linear_10430_112767)" stroke-width="5"/>
<path opacity="0.4" d="M70 336.217C94.4315 336.217 103.572 332.503 114.99 319.87C131.079 302.068 106.647 257.107 157 257.107" stroke="url(#paint1_linear_10430_112767)" stroke-width="5"/>
<path opacity="0.4" d="M70 257L157 257" stroke="url(#paint2_linear_10430_112767)" stroke-width="5"/>
<path opacity="0.4" d="M295 169.217C273.096 169.217 264.901 173.343 254.664 187.378C240.24 207.156 262.144 257.108 217 257.108" stroke="url(#paint3_linear_10430_112767)" stroke-width="5"/>
<path opacity="0.4" d="M295 344.998C273.096 344.998 264.901 340.872 254.664 326.836C240.24 307.059 262.144 257.107 217 257.107" stroke="url(#paint4_linear_10430_112767)" stroke-width="5"/>
<path opacity="0.4" d="M295 257.107L217 257.107" stroke="url(#paint5_linear_10430_112767)" stroke-width="5"/>
<path opacity="0.4" d="M318.199 74C318.199 96.5126 306.113 125.911 275.442 135.498C241.187 146.205 188.522 139.89 188.522 198.643" stroke="url(#paint6_linear_10430_112767)" stroke-width="5"/>
<path opacity="0.4" d="M188.678 198.644C188.678 176.131 176.591 146.732 145.921 137.146C111.665 126.439 59.0003 132.753 59.0003 74.0008" stroke="url(#paint7_linear_10430_112767)" stroke-width="5"/>
<path opacity="0.4" d="M232.436 77.5711C232.436 76.1904 231.316 75.0711 229.936 75.071C228.555 75.071 227.436 76.1903 227.436 77.571L232.436 77.5711ZM227.436 77.571C227.435 94.2022 224.896 104.522 221.243 111.992C217.569 119.505 212.711 124.309 207.464 130.036C202.225 135.753 196.826 142.185 192.793 152.652C188.779 163.07 186.18 177.316 186.18 198.645L191.18 198.645C191.18 177.694 193.737 164.108 197.459 154.45C201.161 144.841 206.075 138.953 211.151 133.414C216.217 127.884 221.673 122.496 225.735 114.188C229.818 105.838 232.435 94.7087 232.436 77.5711L227.436 77.571ZM186.18 198.645L186.18 238L191.18 238L191.18 198.645L186.18 198.645Z" fill="url(#paint8_linear_10430_112767)"/>
<path opacity="0.4" d="M144.924 77.5711C144.924 76.1904 146.043 75.0711 147.424 75.071C148.805 75.071 149.924 76.1903 149.924 77.571L144.924 77.5711ZM149.924 77.571C149.924 94.2022 152.464 104.522 156.116 111.992C159.79 119.505 164.648 124.309 169.895 130.036C175.134 135.753 180.534 142.185 184.566 152.652C188.58 163.07 191.18 177.316 191.18 198.645L186.18 198.645C186.18 177.694 183.622 164.108 179.901 154.45C176.198 144.841 171.284 138.953 166.209 133.414C161.142 127.884 155.686 122.496 151.624 114.188C147.541 105.838 144.924 94.7087 144.924 77.5711L149.924 77.571ZM191.18 198.645L191.18 238L186.18 238L186.18 198.645L191.18 198.645Z" fill="url(#paint9_linear_10430_112767)"/>
<path opacity="0.4" d="M317 445.001C309.039 404.025 283.643 393.39 261.684 386.145C237.598 378.198 185.548 369.754 185.548 327.785L185.548 291.646" stroke="url(#paint10_linear_10430_112767)" stroke-width="5"/>
<path opacity="0.4" d="M54.0957 445C62.0563 404.024 87.4527 393.389 109.412 386.144C133.498 378.197 185.548 369.754 185.548 327.785" stroke="url(#paint11_linear_10430_112767)" stroke-width="5"/>
<path opacity="0.4" d="M185.311 444.999L185.311 286" stroke="url(#paint12_linear_10430_112767)" stroke-width="5"/>
<path opacity="0.4" d="M250.865 442.021C238.414 381.179 185.344 404.026 185.344 327.786" stroke="url(#paint13_linear_10430_112767)" stroke-width="5"/>
<path opacity="0.4" d="M120.025 442.021C132.477 381.179 185.547 404.026 185.547 327.786L185.547 288.823" stroke="url(#paint14_linear_10430_112767)" stroke-width="5"/>
<g filter="url(#filter2_dd_10430_112767)">
<circle cx="316.021" cy="179" r="28" transform="rotate(90 316.021 179)" fill="url(#paint15_radial_10430_112767)"/>
<circle cx="316.021" cy="179" r="28" transform="rotate(90 316.021 179)" fill="url(#paint16_radial_10430_112767)" style="mix-blend-mode:overlay"/>
</g>
<path d="M315.815 170.574C313.742 170.574 312.046 172.271 312.046 174.343C312.046 176.416 313.742 178.113 315.815 178.113C317.888 178.113 319.584 176.416 319.584 174.343C319.584 172.271 317.982 170.574 315.815 170.574ZM313.93 174.343C313.93 173.307 314.778 172.459 315.815 172.459C316.851 172.459 317.699 173.307 317.699 174.343C317.699 175.38 316.851 176.228 315.815 176.228C314.778 176.228 313.93 175.38 313.93 174.343ZM315.721 178.772C311.669 178.772 308.371 182.07 308.371 186.122C308.371 186.781 308.842 187.347 309.313 187.629C309.784 187.912 310.444 187.912 311.009 187.535C312.329 186.687 313.836 186.216 315.532 186.216C317.228 186.216 318.83 186.687 320.244 187.629C320.809 188.006 321.563 188.006 322.128 187.724C322.693 187.441 323.165 186.875 323.165 186.122C323.165 182.07 319.867 178.772 315.721 178.772ZM315.532 184.426C313.648 184.426 311.857 184.897 310.256 185.839C310.444 182.918 312.8 180.657 315.721 180.657C318.736 180.657 321.186 183.106 321.186 186.122C319.584 184.991 317.605 184.426 315.532 184.426Z" fill="white"/>
<g filter="url(#filter3_dd_10430_112767)">
<circle cx="316.021" cy="255" r="28" transform="rotate(90 316.021 255)" fill="url(#paint17_radial_10430_112767)"/>
<circle cx="316.021" cy="255" r="28" transform="rotate(90 316.021 255)" fill="url(#paint18_radial_10430_112767)" style="mix-blend-mode:overlay"/>
</g>
<path d="M316.096 247.538C314.306 247.538 312.798 249.046 312.798 250.836C312.798 252.721 314.306 254.134 316.096 254.134C317.887 254.134 319.394 252.627 319.394 250.836C319.488 249.046 317.981 247.538 316.096 247.538ZM314.683 250.836C314.683 250.082 315.342 249.423 316.096 249.423C316.85 249.423 317.51 250.082 317.51 250.836C317.51 251.59 316.85 252.25 316.096 252.25C315.342 252.25 314.683 251.684 314.683 250.836ZM316.096 254.888C312.61 254.888 309.783 257.715 309.783 261.201C309.783 261.861 310.16 262.332 310.631 262.614C311.102 262.803 311.668 262.897 312.233 262.52C313.269 261.861 314.589 261.484 315.908 261.484C317.321 261.484 318.64 261.861 319.771 262.614C320.336 262.991 320.996 262.991 321.467 262.709C321.938 262.426 322.409 261.955 322.409 261.201C322.409 257.715 319.583 254.888 316.096 254.888ZM315.814 259.599C314.306 259.599 312.893 259.976 311.573 260.636C311.856 258.469 313.741 256.772 316.002 256.772C318.358 256.772 320.242 258.563 320.431 260.918C319.111 260.07 317.51 259.599 315.814 259.599ZM319.865 250.836C319.865 249.517 320.902 248.481 322.221 248.481C323.54 248.481 324.577 249.517 324.577 250.836C324.577 252.155 323.54 253.192 322.221 253.192C320.902 253.192 319.865 252.155 319.865 250.836ZM322.221 250.082C321.75 250.082 321.467 250.459 321.467 250.836C321.467 251.307 321.844 251.59 322.221 251.59C322.692 251.59 322.975 251.213 322.975 250.836C322.975 250.459 322.692 250.082 322.221 250.082ZM322.504 258.374C322.692 258.845 322.88 259.411 322.975 259.976L324.765 260.07C325.707 260.07 326.555 259.317 326.555 258.374V258.28C326.555 255.83 324.577 253.946 322.221 253.946C321.184 253.946 320.148 254.323 319.394 254.982C319.865 255.265 320.336 255.548 320.713 255.924C321.184 255.642 321.656 255.548 322.221 255.548C323.729 255.548 324.953 256.772 324.953 258.28V258.374C324.953 258.469 324.859 258.563 324.765 258.469L322.504 258.374ZM309.972 248.481C308.652 248.481 307.616 249.517 307.616 250.836C307.616 252.155 308.652 253.192 309.972 253.192C311.291 253.192 312.327 252.155 312.327 250.836C312.327 249.517 311.291 248.481 309.972 248.481ZM309.218 250.836C309.218 250.365 309.595 250.082 309.972 250.082C310.443 250.082 310.725 250.459 310.725 250.836C310.725 251.307 310.348 251.59 309.972 251.59C309.5 251.59 309.218 251.307 309.218 250.836ZM307.145 258.28C307.145 256.772 308.37 255.548 309.877 255.548C310.443 255.548 310.914 255.736 311.385 255.924C311.762 255.548 312.233 255.171 312.704 254.982C311.95 254.323 310.914 253.946 309.877 253.946C307.522 253.946 305.543 255.83 305.543 258.28C305.543 259.128 306.203 259.882 307.145 259.882L309.124 259.976C309.218 259.411 309.406 258.845 309.595 258.374L307.145 258.28Z" fill="white"/>
<g filter="url(#filter4_dd_10430_112767)">
<circle cx="316.021" cy="331" r="28" transform="rotate(90 316.021 331)" fill="url(#paint19_radial_10430_112767)"/>
<circle cx="316.021" cy="331" r="28" transform="rotate(90 316.021 331)" fill="url(#paint20_radial_10430_112767)" style="mix-blend-mode:overlay"/>
</g>
<path d="M325.331 326.982C325.243 326.361 324.888 325.829 324.355 325.562L316.546 321.658C316.013 321.391 315.481 321.391 314.949 321.658L307.228 325.562C306.607 325.829 306.252 326.45 306.252 327.16V327.248L306.252 334.88C306.252 335.501 306.607 336.122 307.139 336.389L314.949 340.56C315.215 340.737 315.481 340.737 315.747 340.737C316.013 340.737 316.28 340.648 316.546 340.56L324.355 336.389C324.888 336.122 325.243 335.501 325.243 334.88L325.331 326.982ZM315.836 323.255L323.645 327.16L315.836 331.064L308.027 327.16L315.836 323.255ZM308.027 329.112L314.949 332.573V338.607L308.027 334.88L308.027 329.112ZM316.723 338.607V332.573L323.645 329.112L323.645 334.88L316.723 338.607Z" fill="white"/>
<path d="M315.893 328.206C316.647 328.206 317.259 327.594 317.259 326.84C317.259 326.086 316.647 325.475 315.893 325.475C315.139 325.475 314.527 326.086 314.527 326.84C314.527 327.594 315.139 328.206 315.893 328.206Z" fill="white"/>
<g filter="url(#filter5_dd_10430_112767)">
<circle cx="58.0215" cy="179" r="28" transform="rotate(90 58.0215 179)" fill="url(#paint21_radial_10430_112767)"/>
<circle cx="58.0215" cy="179" r="28" transform="rotate(90 58.0215 179)" fill="url(#paint22_radial_10430_112767)" style="mix-blend-mode:overlay"/>
</g>
<path d="M49.0039 183.548V187.564H50.6104V185.154H53.1809V187.162H54.7874V185.154H57.3578V187.564H58.9644V185.154H61.6151V187.162H63.2217V185.154H65.7921V187.564H67.3986V183.548H49.0039Z" fill="white"/>
<path d="M67.5586 175.916L67.1569 175.434C67.1569 175.434 67.1569 175.434 67.1569 175.354C67.1569 175.354 67.0766 175.273 66.9963 175.193C66.916 175.032 66.675 174.872 66.5143 174.631C66.0324 174.149 65.3898 173.587 64.5865 172.944C62.98 171.739 60.7308 170.454 58.1604 170.454C55.59 170.454 53.2605 171.739 51.7343 172.944C50.8507 173.587 50.2081 174.229 49.7261 174.631C49.4852 174.872 49.3245 175.032 49.2442 175.193C49.1638 175.273 49.0835 175.354 49.0835 175.354C49.0835 175.354 49.0835 175.354 49.0835 175.434L48.6016 175.916L49.0032 176.398C49.0032 176.398 49.0032 176.398 49.0032 176.478C49.0032 176.478 49.0835 176.559 49.1638 176.639C49.3245 176.8 49.4852 176.96 49.7261 177.201C50.2081 177.683 50.8507 178.246 51.654 178.888C53.2605 180.093 55.5096 181.378 58.0801 181.378C60.6505 181.378 62.98 180.093 64.5062 178.888C65.3094 178.246 65.952 177.683 66.434 177.201C66.675 176.96 66.8356 176.8 66.916 176.639C66.9963 176.639 67.0766 176.559 67.0766 176.478C67.0766 176.478 67.0766 176.478 67.0766 176.398L67.5586 175.916ZM65.3094 176.077C64.9078 176.478 64.3455 177.041 63.6226 177.603C62.1767 178.727 60.2489 179.772 58.1604 179.772C56.0719 179.772 54.1441 178.727 52.6982 177.603C51.8949 177.041 51.2523 176.478 50.8507 176.077C50.8507 176.077 50.7704 175.996 50.69 175.916C50.7704 175.836 50.7704 175.836 50.8507 175.755C51.2523 175.354 51.8949 174.791 52.6179 174.31C54.0638 173.185 55.9916 172.141 58.0801 172.141C60.1686 172.141 62.0964 173.185 63.5423 174.31C64.2652 174.872 64.8275 175.434 65.2291 175.836C65.3094 175.916 65.3094 175.916 65.3898 175.996L65.3094 176.077ZM58.0801 172.703C56.2326 172.703 54.7867 174.149 54.7867 175.996C54.7867 177.844 56.2326 179.29 58.0801 179.29C59.9276 179.29 61.3734 177.844 61.3734 175.996C61.3734 174.149 59.9276 172.703 58.0801 172.703ZM58.0801 177.603C57.1965 177.603 56.3932 176.88 56.3932 175.916C56.3932 174.952 57.1162 174.229 58.0801 174.229C59.044 174.229 59.7669 174.952 59.7669 175.916C59.7669 176.88 59.044 177.603 58.0801 177.603Z" fill="white"/>
<g filter="url(#filter6_dd_10430_112767)">
<circle cx="58.0215" cy="255" r="28" transform="rotate(90 58.0215 255)" fill="url(#paint23_radial_10430_112767)"/>
<circle cx="58.0215" cy="255" r="28" transform="rotate(90 58.0215 255)" fill="url(#paint24_radial_10430_112767)" style="mix-blend-mode:overlay"/>
</g>
<path fill-rule="evenodd" clip-rule="evenodd" d="M58.7385 246.596C54.5754 246.596 51.2005 249.971 51.2005 254.134C51.2005 255.876 51.7914 257.48 52.7836 258.756L50.0631 261.477C49.6951 261.845 49.6951 262.441 50.0631 262.809C50.4311 263.177 51.0277 263.177 51.3956 262.809L54.1162 260.089C55.3926 261.081 56.9966 261.672 58.7385 261.672C62.9017 261.672 66.2766 258.297 66.2766 254.134C66.2766 249.971 62.9017 246.596 58.7385 246.596ZM53.085 254.134C53.085 251.012 55.6162 248.48 58.7385 248.48C61.8609 248.48 64.3921 251.012 64.3921 254.134C64.3921 257.256 61.8609 259.788 58.7385 259.788C55.6162 259.788 53.085 257.256 53.085 254.134Z" fill="white"/>
<g filter="url(#filter7_dd_10430_112767)">
<circle cx="58.0215" cy="331" r="28" transform="rotate(90 58.0215 331)" fill="url(#paint25_radial_10430_112767)"/>
<circle cx="58.0215" cy="331" r="28" transform="rotate(90 58.0215 331)" fill="url(#paint26_radial_10430_112767)" style="mix-blend-mode:overlay"/>
</g>
<g clip-path="url(#clip0_10430_112767)">
<path fill-rule="evenodd" clip-rule="evenodd" d="M53.4416 326.035C52.8473 326.035 52.3656 326.526 52.3656 327.132H50.5219C50.5219 326.747 50.5937 326.379 50.7243 326.041C51.1513 324.937 52.2069 324.155 53.4416 324.155C53.6044 324.155 53.7641 324.169 53.9196 324.195C54.2817 324.256 54.6213 324.385 54.9255 324.568C55.0469 324.221 55.1936 323.887 55.3635 323.567C56.5571 321.318 58.8911 319.791 61.575 319.791C65.4731 319.791 68.6331 323.012 68.6331 326.987C68.6331 330.961 65.4731 334.183 61.575 334.183C57.7247 334.183 54.5936 331.039 54.5176 327.132C54.5176 326.526 54.0358 326.035 53.4416 326.035ZM66.7894 326.987C66.7894 324.051 64.4548 321.67 61.575 321.67C58.6952 321.67 56.3606 324.051 56.3606 326.987C56.3606 329.923 58.6952 332.303 61.575 332.303C64.4548 332.303 66.7894 329.923 66.7894 326.987ZM48.8457 328.526L50.4704 332.653L51.0825 332.293L53.1892 336.013C52.2787 336.763 52.0134 338.098 52.6171 339.164L54.4521 342.405L56.0488 341.465L54.2138 338.224C54.0546 337.943 54.1491 337.584 54.4249 337.421L55.4586 336.813C55.7344 336.65 56.087 336.747 56.2463 337.028L58.0812 340.268L59.6779 339.329L57.843 336.088C57.1919 334.938 55.7702 334.525 54.627 335.134L52.5341 331.438L53.1413 331.081L50.4483 327.583L48.8457 328.526Z" fill="white"/>
</g>
<path d="M309.633 111.675L307.596 112.038L307.233 110.001" stroke="#1B84F9" stroke-width="0.8" stroke-linecap="round"/>
<path d="M308.236 113.674L306.199 114.037L305.836 112" stroke="#1B84F9" stroke-width="0.8" stroke-linecap="round"/>
<path d="M257.34 141.6L255.652 140.403L256.85 138.715" stroke="#1B84F9" stroke-width="0.8" stroke-linecap="round"/>
<path d="M254.934 142.009L253.246 140.812L254.443 139.124" stroke="#1B84F9" stroke-width="0.8" stroke-linecap="round"/>
<path d="M223.346 117.289L221.388 117.959L220.718 116.001" stroke="#1B84F9" stroke-width="0.8" stroke-linecap="round"/>
<path d="M222.271 119.479L220.313 120.148L219.644 118.19" stroke="#1B84F9" stroke-width="0.8" stroke-linecap="round"/>
<path d="M149.016 94.3252L148.01 96.1336L146.201 95.1278" stroke="#1B84F9" stroke-width="0.8" stroke-linecap="round"/>
<path d="M149.686 96.6721L148.68 98.4806L146.871 97.4747" stroke="#1B84F9" stroke-width="0.8" stroke-linecap="round"/>
<path d="M73.1426 111.043L73.6599 113.047L71.6563 113.564" stroke="#1B84F9" stroke-width="0.8" stroke-linecap="round"/>
<path d="M75.2461 112.283L75.7634 114.287L73.7598 114.804" stroke="#1B84F9" stroke-width="0.8" stroke-linecap="round"/>
<path d="M189.928 189L188.464 190.463L187.001 189" stroke="#1B84F9" stroke-width="0.8" stroke-linecap="round"/>
<path d="M189.928 191.441L188.464 192.904L187.001 191.441" stroke="#1B84F9" stroke-width="0.8" stroke-linecap="round"/>
<path d="M186.928 221L185.464 222.463L184.001 221" stroke="#1B84F9" stroke-width="0.8" stroke-linecap="round"/>
<path d="M186.928 223.441L185.464 224.904L184.001 223.441" stroke="#1B84F9" stroke-width="0.8" stroke-linecap="round"/>
<path d="M300.852 406.656L298.784 406.732L298.86 408.8" stroke="#1CA66F" stroke-width="0.8" stroke-linecap="round"/>
<path d="M299.064 404.996L296.997 405.072L297.073 407.14" stroke="#1CA66F" stroke-width="0.8" stroke-linecap="round"/>
<path d="M219.834 392.903L217.843 393.467L218.407 395.458" stroke="#1CA66F" stroke-width="0.8" stroke-linecap="round"/>
<path d="M217.705 391.714L215.714 392.278L216.278 394.269" stroke="#1CA66F" stroke-width="0.8" stroke-linecap="round"/>
<path d="M92.0645 394.146L92.8954 392.25L91.0003 391.419" stroke="#1CA66F" stroke-width="0.8" stroke-linecap="round"/>
<path d="M94.3359 393.258L95.1669 391.363L93.2718 390.532" stroke="#1CA66F" stroke-width="0.8" stroke-linecap="round"/>
<path d="M187 372.106L185.537 370.643L184.074 372.106" stroke="#1CA66F" stroke-width="0.8" stroke-linecap="round"/>
<path d="M187 369.667L185.537 368.204L184.074 369.667" stroke="#1CA66F" stroke-width="0.8" stroke-linecap="round"/>
<path d="M187 315.041L185.537 313.577L184.074 315.041" stroke="#1CA66F" stroke-width="0.8" stroke-linecap="round"/>
<path d="M187 312.602L185.537 311.139L184.074 312.602" stroke="#1CA66F" stroke-width="0.8" stroke-linecap="round"/>
<path d="M275.174 341.209L273.304 342.096L274.191 343.966" stroke="#FF6A30" stroke-width="0.8" stroke-linecap="round"/>
<path d="M272.875 340.389L271.005 341.276L271.892 343.146" stroke="#FF6A30" stroke-width="0.8" stroke-linecap="round"/>
<path d="M259.902 255.5L258.439 256.963L259.902 258.426" stroke="#FF6A30" stroke-width="0.8" stroke-linecap="round"/>
<path d="M257.463 255.5L256 256.963L257.463 258.426" stroke="#FF6A30" stroke-width="0.8" stroke-linecap="round"/>
<path d="M111.857 189L112.06 191.059L110 191.262" stroke="#EA9F0A" stroke-width="0.8" stroke-linecap="round"/>
<path d="M113.744 190.55L113.946 192.609L111.887 192.811" stroke="#EA9F0A" stroke-width="0.8" stroke-linecap="round"/>
<path d="M110 255.5L111.478 256.948L110.03 258.426" stroke="#EA9F0A" stroke-width="0.8" stroke-linecap="round"/>
<path d="M112.439 255.476L113.918 256.924L112.47 258.402" stroke="#EA9F0A" stroke-width="0.8" stroke-linecap="round"/>
<path d="M95.6211 331.812L97.5096 332.657L96.6637 334.546" stroke="#EA9F0A" stroke-width="0.8" stroke-linecap="round"/>
<path d="M97.9023 330.943L99.7909 331.789L98.945 333.677" stroke="#EA9F0A" stroke-width="0.8" stroke-linecap="round"/>
<path d="M121 289.904L122.473 288.45L123.926 289.923" stroke="#EA9F0A" stroke-width="0.8" stroke-linecap="round"/>
<path d="M121.018 287.463L122.49 286.009L123.944 287.482" stroke="#EA9F0A" stroke-width="0.8" stroke-linecap="round"/>
<path d="M272.426 170.692L271.633 172.604L273.545 173.396" stroke="#FF6A30" stroke-width="0.8" stroke-linecap="round"/>
<path d="M270.172 171.626L269.379 173.537L271.291 174.33" stroke="#FF6A30" stroke-width="0.8" stroke-linecap="round"/>
<circle cx="187.349" cy="254.651" r="32.1935" transform="rotate(90 187.349 254.651)" fill="white" stroke="#ECF0F6" stroke-width="9"/>
<g filter="url(#filter8_dd_10430_112767)">
<circle cx="187.349" cy="254.651" r="26.1572" transform="rotate(90 187.349 254.651)" fill="url(#paint27_radial_10430_112767)"/>
<circle cx="187.349" cy="254.651" r="26.1572" transform="rotate(90 187.349 254.651)" fill="url(#paint28_radial_10430_112767)" style="mix-blend-mode:overlay"/>
</g>
<g filter="url(#filter9_d_10430_112767)">
<path d="M214.125 272.525C223.997 257.738 220.012 237.747 205.225 227.875C190.437 218.003 170.447 221.988 160.575 236.775C150.703 251.562 154.687 271.553 169.475 281.425C180.389 288.712 194.139 288.449 204.562 281.866" stroke="url(#paint29_linear_10430_112767)" stroke-width="4" stroke-linecap="round"/>
</g>
<path fill-rule="evenodd" clip-rule="evenodd" d="M198.752 264.684C198.752 264.684 198.752 264.684 198.752 264.684C198.752 258.387 193.647 253.282 187.35 253.282C181.053 253.282 175.948 258.387 175.948 264.684C175.948 264.732 175.949 264.781 175.949 264.829L175.949 264.684L198.752 264.684Z" fill="white" fill-opacity="0.8"/>
<circle cx="187.35" cy="253.283" r="11.4019" transform="rotate(90 187.35 253.283)" fill="white" fill-opacity="0.8"/>
<g filter="url(#filter10_dd_10430_112767)">
<circle cx="316" cy="53" r="28" transform="rotate(90 316 53)" fill="url(#paint30_radial_10430_112767)"/>
<circle cx="316" cy="53" r="28" transform="rotate(90 316 53)" fill="url(#paint31_radial_10430_112767)" style="mix-blend-mode:overlay"/>
</g>
<g clip-path="url(#clip1_10430_112767)">
<path d="M305.957 60.9466C305.76 60.9466 305.465 60.8483 305.268 60.75C304.875 60.5533 304.58 60.0617 304.58 59.4718L304.58 48.2626C304.58 46.0995 306.35 44.3296 308.513 44.3296L320.902 44.3296C323.065 44.3296 324.835 46.0995 324.835 48.2626L324.835 53.0806L322.869 53.0806L322.869 48.2626C322.869 47.181 321.984 46.2961 320.902 46.2961L308.513 46.2961C307.432 46.2961 306.547 47.181 306.547 48.2626L306.547 58.5868C308.021 57.8002 309.693 57.4069 311.365 57.4069L316.183 57.4069L316.183 59.3734L311.365 59.3734C309.693 59.3734 308.12 59.8651 306.842 60.75C306.547 60.8483 306.252 60.9466 305.957 60.9466Z" fill="white"/>
<path d="M327.194 62.1266L325.817 61.5366C325.129 61.2417 324.441 61.1433 323.752 61.1433L318.049 61.1433C316.378 61.1433 315.1 59.8651 315.1 58.1936L315.1 55.3421C315.1 53.6706 316.378 52.3923 318.049 52.3923L324.244 52.3923C325.915 52.3923 327.194 53.6706 327.194 55.3421L327.194 62.1266ZM318.049 54.3588C317.459 54.3588 317.066 54.7522 317.066 55.3421L317.066 58.1936C317.066 58.7835 317.459 59.1768 318.049 59.1768L323.752 59.1768C324.244 59.1768 324.736 59.1768 325.227 59.2751L325.227 55.2438C325.227 54.6538 324.834 54.2605 324.244 54.2605L318.049 54.2605V54.3588Z" fill="white"/>
</g>
<g filter="url(#filter11_dd_10430_112767)">
<circle cx="230" cy="53" r="28" transform="rotate(90 230 53)" fill="url(#paint32_radial_10430_112767)"/>
<circle cx="230" cy="53" r="28" transform="rotate(90 230 53)" fill="url(#paint33_radial_10430_112767)" style="mix-blend-mode:overlay"/>
</g>
<g clip-path="url(#clip2_10430_112767)">
<path d="M240.985 59.3116L239.289 56.9559L239.289 48.0987C239.289 46.4969 238.064 45.272 236.462 45.272L223.271 45.272C221.669 45.272 220.444 46.4969 220.444 48.0987L220.444 56.9559L218.748 59.3116C218.559 59.5943 218.559 59.9712 218.654 60.2538C218.842 60.5365 219.125 60.725 219.502 60.725L240.231 60.725C240.608 60.725 240.891 60.5365 241.079 60.2538C241.268 59.9712 241.174 59.5943 240.985 59.3116ZM222.328 48.0987C222.328 47.5334 222.705 47.1565 223.271 47.1565L236.462 47.1565C237.028 47.1565 237.405 47.5334 237.405 48.0987L237.405 55.6368L222.328 55.6368L222.328 48.0987ZM221.292 58.9347L222.328 57.5213L237.405 57.5213L238.441 58.9347L221.292 58.9347Z" fill="white"/>
</g>
<g filter="url(#filter12_dd_10430_112767)">
<circle cx="144" cy="53" r="28" transform="rotate(90 144 53)" fill="url(#paint34_radial_10430_112767)"/>
<circle cx="144" cy="53" r="28" transform="rotate(90 144 53)" fill="url(#paint35_radial_10430_112767)" style="mix-blend-mode:overlay"/>
</g>
<path d="M148.919 55.1429L148.079 53.6315L143.629 45.9908L142.79 44.4795L141.53 45.7389L137.164 50.0211C134.981 52.2041 134.477 55.5627 136.072 58.2495C136.24 58.5014 137.92 60.8524 137.92 60.8524C138.675 62.1958 140.439 62.6156 141.782 61.8599C143.125 61.1043 143.545 59.425 142.873 58.0816L142.454 57.2419L147.324 55.6466L148.919 55.1429ZM137.332 57.074C136.492 55.3947 136.66 53.5475 137.668 52.0362L139.935 56.2344L137.332 57.074ZM140.942 60.4326C140.439 60.7684 139.683 60.6005 139.431 60.0127L138.339 58.5854L140.774 57.8297L141.362 58.9212C141.614 59.425 141.446 60.0967 140.942 60.4326ZM141.53 55.7306L138.843 50.6928L142.37 47.1663L146.4 54.1353L141.53 55.7306Z" fill="white"/>
<path d="M146.149 44.1427C145.963 44.5596 146.156 45.0434 146.548 45.2769C147.56 45.8798 148.406 46.7483 149.087 47.8375C149.695 48.9175 150.031 50.106 150.052 51.2721C150.06 51.7386 150.391 52.1577 150.856 52.2042C151.316 52.2502 151.73 51.9129 151.731 51.4504C151.738 49.9475 151.377 48.4131 150.598 46.9979C149.813 45.5696 148.602 44.5057 147.224 43.7546C146.824 43.5365 146.334 43.7261 146.149 44.1427ZM146.28 47.3188C146.114 47.7456 146.339 48.2264 146.651 48.5612C146.777 48.6953 146.889 48.8477 146.988 49.013C147.077 49.161 147.145 49.3194 147.192 49.481C147.324 49.9362 147.649 50.3973 148.121 50.4445C148.562 50.4886 148.964 50.1643 148.922 49.723C148.87 49.164 148.701 48.6299 148.415 48.1734C148.133 47.6656 147.737 47.2337 147.279 46.9285C146.908 46.6819 146.441 46.9039 146.28 47.3188Z" fill="white"/>
<g filter="url(#filter13_dd_10430_112767)">
<circle cx="58" cy="53" r="28" transform="rotate(90 58 53)" fill="url(#paint36_radial_10430_112767)"/>
<circle cx="58" cy="53" r="28" transform="rotate(90 58 53)" fill="url(#paint37_radial_10430_112767)" style="mix-blend-mode:overlay"/>
</g>
<path d="M64.1394 43.9108H63.8646L63.8646 42.4451L62.0324 42.4451L62.0324 43.9108L54.6122 43.9108L54.6122 42.4451L52.78 42.4451L52.78 43.9108L52.0471 43.9108C50.0318 43.9108 48.3828 45.5597 48.3828 47.5751L48.3828 58.5681C48.3828 60.5835 50.0318 62.2325 52.0471 62.2325L64.1394 62.2325C66.1548 62.2325 67.8038 60.5835 67.8038 58.5681L67.8038 47.5751C67.8038 45.5597 66.1548 43.9108 64.1394 43.9108ZM52.0471 45.743L52.78 45.743L52.78 47.0255L54.6122 47.0255L54.6122 45.743L62.0324 45.743L62.0324 47.0255L63.8646 47.0255L63.8646 45.743H64.1394C65.1471 45.743 65.9716 46.5674 65.9716 47.5751L65.9716 47.85L50.215 47.85L50.215 47.5751C50.215 46.5674 51.0395 45.743 52.0471 45.743ZM64.1394 60.4003L52.0471 60.4003C51.0395 60.4003 50.215 59.5758 50.215 58.5681L50.215 49.6821L65.9716 49.6821L65.9716 58.5681C65.9716 59.5758 65.1471 60.4003 64.1394 60.4003Z" fill="white"/>
<path d="M53.5137 53.8954C54.0197 53.8954 54.4298 53.4853 54.4298 52.9793C54.4298 52.4734 54.0197 52.0632 53.5137 52.0632C53.0078 52.0632 52.5977 52.4734 52.5977 52.9793C52.5977 53.4853 53.0078 53.8954 53.5137 53.8954Z" fill="white"/>
<path d="M63.4949 52.0632L55.3418 52.0632L55.3418 53.8954L63.4949 53.8954L63.4949 52.0632Z" fill="white"/>
<path d="M53.5137 57.5602C54.0197 57.5602 54.4298 57.15 54.4298 56.6441C54.4298 56.1382 54.0197 55.728 53.5137 55.728C53.0078 55.728 52.5977 56.1382 52.5977 56.6441C52.5977 57.15 53.0078 57.5602 53.5137 57.5602Z" fill="white"/>
<path d="M63.4949 55.728L55.3418 55.728L55.3418 57.5602L63.4949 57.5602L63.4949 55.728Z" fill="white"/>
<g filter="url(#filter14_dd_10430_112767)">
<circle cx="316" cy="455" r="28" transform="rotate(90 316 455)" fill="url(#paint38_radial_10430_112767)"/>
<circle cx="316" cy="455" r="28" transform="rotate(90 316 455)" fill="url(#paint39_radial_10430_112767)" style="mix-blend-mode:overlay"/>
</g>
<path d="M322.904 449.216L308.867 449.216C307.363 449.216 306.193 450.385 306.193 451.889L306.193 458.574C306.193 460.078 307.363 461.247 308.867 461.247L322.904 461.247C324.408 461.247 325.578 460.078 325.578 458.574L325.578 451.889C325.661 450.385 324.408 449.216 322.904 449.216ZM308.867 450.887L322.904 450.887C323.489 450.887 323.907 451.304 323.907 451.889V452.307L307.864 452.307V451.889C307.864 451.304 308.282 450.887 308.867 450.887ZM322.904 459.576L308.867 459.576C308.282 459.576 307.864 459.158 307.864 458.574L307.864 457.07L317.473 457.07L317.473 455.399L307.864 455.399V453.978L323.99 453.978L323.99 458.574C323.99 459.158 323.489 459.576 322.904 459.576Z" fill="white"/>
<path d="M322.068 458.991C322.76 458.991 323.321 458.43 323.321 457.737C323.321 457.045 322.76 456.484 322.068 456.484C321.376 456.484 320.814 457.045 320.814 457.737C320.814 458.43 321.376 458.991 322.068 458.991Z" fill="white"/>
<g filter="url(#filter15_dd_10430_112767)">
<circle cx="251.5" cy="455" r="28" transform="rotate(90 251.5 455)" fill="url(#paint40_radial_10430_112767)"/>
<circle cx="251.5" cy="455" r="28" transform="rotate(90 251.5 455)" fill="url(#paint41_radial_10430_112767)" style="mix-blend-mode:overlay"/>
</g>
<path fill-rule="evenodd" clip-rule="evenodd" d="M256.545 447.505L246.187 447.505C245.732 447.505 245.341 447.831 245.26 448.279L243.843 456.072C243.833 456.127 243.828 456.184 243.828 456.24L243.828 461.639C243.828 462.159 244.25 462.581 244.77 462.581L257.962 462.581C258.482 462.581 258.904 462.159 258.904 461.639L258.904 456.24C258.904 456.184 258.899 456.127 258.889 456.072L257.472 448.279C257.39 447.831 257 447.505 256.545 447.505ZM246.187 445.62C244.821 445.62 243.65 446.597 243.406 447.941L241.989 455.734C241.959 455.901 241.943 456.07 241.943 456.24L241.943 461.639C241.943 463.2 243.209 464.465 244.77 464.465L257.962 464.465C259.523 464.465 260.788 463.2 260.788 461.639L260.788 456.24C260.788 456.07 260.773 455.901 260.743 455.734L259.326 447.941C259.082 446.597 257.911 445.62 256.545 445.62L246.187 445.62Z" fill="white"/>
<path fill-rule="evenodd" clip-rule="evenodd" d="M246.671 457.87L241.943 457.87V455.985L246.89 455.985C247.721 455.985 248.408 456.599 248.522 457.398L254.209 457.398C254.324 456.599 255.011 455.985 255.842 455.985H260.788V457.87H256.061C255.946 458.669 255.259 459.283 254.428 459.283L248.304 459.283C247.473 459.283 246.786 458.669 246.671 457.87Z" fill="white"/>
<g filter="url(#filter16_dd_10430_112767)">
<circle cx="187" cy="455" r="28" transform="rotate(90 187 455)" fill="url(#paint42_radial_10430_112767)"/>
<circle cx="187" cy="455" r="28" transform="rotate(90 187 455)" fill="url(#paint43_radial_10430_112767)" style="mix-blend-mode:overlay"/>
</g>
<path d="M182.133 456.927C182.133 456.362 182.51 455.985 183.076 455.985L188.729 455.985C189.295 455.985 189.671 456.362 189.671 456.927C189.671 457.493 189.295 457.87 188.729 457.87L183.076 457.87C182.51 457.87 182.133 457.493 182.133 456.927ZM183.076 458.812C182.51 458.812 182.133 459.189 182.133 459.754C182.133 460.32 182.51 460.696 183.076 460.696L186.845 460.696C187.41 460.696 187.787 460.32 187.787 459.754C187.787 459.189 187.41 458.812 186.845 458.812L183.076 458.812ZM187.693 445.62L183.076 445.62C181.003 445.62 179.307 447.316 179.307 449.389L179.307 460.696C179.307 462.769 181.003 464.465 183.076 464.465L190.614 464.465C192.687 464.465 194.383 462.769 194.383 460.696L194.383 452.122L187.693 445.62ZM188.258 448.824L191.085 451.651H190.143C189.106 451.651 188.258 450.803 188.258 449.766V448.824ZM192.498 460.696C192.498 461.733 191.65 462.581 190.614 462.581L183.076 462.581C182.039 462.581 181.191 461.733 181.191 460.696L181.191 449.389C181.191 448.353 182.039 447.505 183.076 447.505L186.374 447.505L186.374 449.766C186.374 451.839 188.07 453.535 190.143 453.535H192.498L192.498 460.696Z" fill="white"/>
<g filter="url(#filter17_dd_10430_112767)">
<circle cx="122.5" cy="455" r="28" transform="rotate(90 122.5 455)" fill="url(#paint44_radial_10430_112767)"/>
<circle cx="122.5" cy="455" r="28" transform="rotate(90 122.5 455)" fill="url(#paint45_radial_10430_112767)" style="mix-blend-mode:overlay"/>
</g>
<path fill-rule="evenodd" clip-rule="evenodd" d="M128.631 449.783C128.961 449.394 128.914 448.811 128.527 448.48C128.14 448.149 127.558 448.196 127.228 448.585L116.015 461.811C115.686 462.199 115.732 462.782 116.12 463.113C116.507 463.445 117.089 463.398 117.419 463.009L128.631 449.783ZM116.198 462.93C116.212 462.943 116.226 462.957 116.241 462.969C116.549 463.233 117.012 463.195 117.274 462.886L128.487 449.66C128.736 449.367 128.715 448.933 128.449 448.665C128.716 448.933 128.737 449.367 128.488 449.661L117.275 462.887C117.013 463.196 116.55 463.234 116.242 462.97C116.227 462.957 116.212 462.944 116.198 462.93Z" fill="white"/>
<path fill-rule="evenodd" clip-rule="evenodd" d="M118.659 448.469C116.935 448.469 115.539 449.872 115.539 451.602C115.539 453.331 116.935 454.734 118.659 454.734C120.383 454.734 121.779 453.331 121.779 451.602C121.779 449.872 120.383 448.469 118.659 448.469ZM117.382 451.602C117.382 450.892 117.954 450.318 118.659 450.318C119.364 450.318 119.936 450.892 119.936 451.602C119.936 452.311 119.364 452.885 118.659 452.885C117.954 452.885 117.382 452.311 117.382 451.602ZM117.193 451.602C117.193 450.789 117.849 450.13 118.659 450.13C119.065 450.13 119.433 450.296 119.698 450.564C119.433 450.295 119.065 450.129 118.658 450.129C117.849 450.129 117.193 450.788 117.193 451.601C117.193 452.006 117.355 452.373 117.619 452.639C117.356 452.373 117.193 452.006 117.193 451.602ZM120.735 449.523C121.263 450.055 121.59 450.79 121.59 451.601C121.59 453.227 120.277 454.545 118.658 454.545C117.847 454.545 117.113 454.214 116.583 453.68C117.113 454.215 117.848 454.546 118.659 454.546C120.278 454.546 121.59 453.228 121.59 451.602C121.59 450.79 121.263 450.055 120.735 449.523Z" fill="white"/>
<path fill-rule="evenodd" clip-rule="evenodd" d="M125.988 457.448C124.264 457.448 122.868 458.851 122.868 460.58C122.868 462.309 124.264 463.713 125.988 463.713C127.711 463.713 129.108 462.309 129.108 460.58C129.108 458.851 127.711 457.448 125.988 457.448ZM124.71 460.58C124.71 459.871 125.283 459.297 125.988 459.297C126.692 459.297 127.265 459.871 127.265 460.58C127.265 461.29 126.692 461.864 125.988 461.864C125.283 461.864 124.71 461.29 124.71 460.58ZM125.988 459.108C125.178 459.108 124.522 459.767 124.522 460.58C124.522 460.985 124.685 461.351 124.948 461.617C124.684 461.351 124.521 460.984 124.521 460.579C124.521 459.766 125.177 459.107 125.987 459.107C126.393 459.107 126.761 459.274 127.027 459.542C126.761 459.274 126.394 459.108 125.988 459.108ZM123.911 462.658C124.442 463.193 125.176 463.524 125.988 463.524C127.607 463.524 128.919 462.206 128.919 460.58C128.919 459.769 128.592 459.034 128.063 458.501C128.592 459.034 128.918 459.768 128.918 460.579C128.918 462.205 127.606 463.523 125.987 463.523C125.176 463.523 124.442 463.193 123.911 462.658Z" fill="white"/>
<g filter="url(#filter18_dd_10430_112767)">
<circle cx="58" cy="455" r="28" transform="rotate(90 58 455)" fill="url(#paint46_radial_10430_112767)"/>
<circle cx="58" cy="455" r="28" transform="rotate(90 58 455)" fill="url(#paint47_radial_10430_112767)" style="mix-blend-mode:overlay"/>
</g>
<path d="M52.1471 445.62C50.5452 445.62 49.3203 446.845 49.3203 448.447V461.639C49.3203 463.241 50.5452 464.465 52.1471 464.465H63.4542C65.056 464.465 66.2809 463.241 66.2809 461.639V448.447C66.2809 446.845 65.056 445.62 63.4542 445.62H52.1471ZM51.2048 448.447C51.2048 447.882 51.5817 447.505 52.1471 447.505H63.4542C64.0195 447.505 64.3964 447.882 64.3964 448.447V461.639C64.3964 462.204 64.0195 462.581 63.4542 462.581H52.1471C51.5817 462.581 51.2048 462.204 51.2048 461.639V448.447ZM54.9739 450.332C54.9739 450.897 54.5969 451.274 54.0316 451.274C53.4662 451.274 53.0893 450.897 53.0893 450.332C53.0893 449.766 53.4662 449.389 54.0316 449.389C54.5969 449.389 54.9739 449.766 54.9739 450.332ZM57.8006 449.389C57.2353 449.389 56.8584 449.766 56.8584 450.332C56.8584 450.897 57.2353 451.274 57.8006 451.274H61.5696C62.135 451.274 62.5119 450.897 62.5119 450.332C62.5119 449.766 62.135 449.389 61.5696 449.389H57.8006ZM54.0316 455.043C54.5969 455.043 54.9739 454.666 54.9739 454.101C54.9739 453.535 54.5969 453.158 54.0316 453.158C53.4662 453.158 53.0893 453.535 53.0893 454.101C53.0893 454.666 53.4662 455.043 54.0316 455.043ZM56.8584 454.101C56.8584 453.535 57.2353 453.158 57.8006 453.158H61.5696C62.135 453.158 62.5119 453.535 62.5119 454.101C62.5119 454.666 62.135 455.043 61.5696 455.043H57.8006C57.2353 455.043 56.8584 454.666 56.8584 454.101ZM54.9739 457.87C54.9739 458.435 54.5969 458.812 54.0316 458.812C53.4662 458.812 53.0893 458.435 53.0893 457.87C53.0893 457.304 53.4662 456.927 54.0316 456.927C54.5969 456.927 54.9739 457.304 54.9739 457.87ZM57.8006 456.927C57.2353 456.927 56.8584 457.304 56.8584 457.87C56.8584 458.435 57.2353 458.812 57.8006 458.812H61.5696C62.135 458.812 62.5119 458.435 62.5119 457.87C62.5119 457.304 62.135 456.927 61.5696 456.927H57.8006Z" fill="white"/>
<path d="M130 418.859L129.525 416.845L127.511 417.32" stroke="#1CA66F" stroke-width="0.8" stroke-linecap="round"/>
<path d="M131.283 416.784L130.808 414.77L128.794 415.245" stroke="#1CA66F" stroke-width="0.8" stroke-linecap="round"/>
<path d="M186.926 403.904L185.463 402.441L183.999 403.904" stroke="#1CA66F" stroke-width="0.8" stroke-linecap="round"/>
<path d="M186.926 401.463L185.463 400L183.999 401.463" stroke="#1CA66F" stroke-width="0.8" stroke-linecap="round"/>
<path d="M243.521 417.343L241.513 416.845L241.015 418.853" stroke="#1CA66F" stroke-width="0.8" stroke-linecap="round"/>
<path d="M242.262 415.254L240.253 414.756L239.755 416.764" stroke="#1CA66F" stroke-width="0.8" stroke-linecap="round"/>
<path d="M17.8 296.234C16.976 296.234 16.24 296.05 15.592 295.682C14.936 295.306 14.428 294.798 14.068 294.158C13.7 293.51 13.516 292.786 13.516 291.986C13.516 291.05 13.756 290.23 14.236 289.526C14.716 288.822 15.38 288.33 16.228 288.05L16.228 289.982C15.828 290.174 15.528 290.446 15.328 290.798C15.128 291.142 15.028 291.542 15.028 291.998C15.028 292.486 15.144 292.922 15.376 293.306C15.6 293.682 15.92 293.978 16.336 294.194C16.752 294.402 17.24 294.506 17.8 294.506C18.352 294.506 18.84 294.402 19.264 294.194C19.68 293.978 20.004 293.682 20.236 293.306C20.46 292.922 20.572 292.486 20.572 291.998C20.572 291.542 20.472 291.142 20.272 290.798C20.064 290.446 19.76 290.174 19.36 289.982L19.36 288.05C20.216 288.33 20.884 288.822 21.364 289.526C21.836 290.222 22.072 291.042 22.072 291.986C22.072 292.786 21.892 293.51 21.532 294.158C21.164 294.798 20.656 295.306 20.008 295.682C19.36 296.05 18.624 296.234 17.8 296.234ZM13.624 283.216L18.808 283.216C19.376 283.216 19.812 283.068 20.116 282.772C20.412 282.476 20.56 282.06 20.56 281.524C20.56 280.98 20.412 280.56 20.116 280.264C19.812 279.968 19.376 279.82 18.808 279.82L13.624 279.82L13.624 278.128L18.796 278.128C19.508 278.128 20.112 278.284 20.608 278.596C21.096 278.9 21.464 279.312 21.712 279.832C21.96 280.344 22.084 280.916 22.084 281.548C22.084 282.172 21.96 282.74 21.712 283.252C21.464 283.756 21.096 284.156 20.608 284.452C20.112 284.748 19.508 284.896 18.796 284.896L13.624 284.896L13.624 283.216ZM22.084 271.87C22.084 272.454 21.984 272.982 21.784 273.454C21.584 273.918 21.296 274.286 20.92 274.558C20.544 274.83 20.1 274.97 19.588 274.978L19.588 273.178C19.932 273.154 20.204 273.034 20.404 272.818C20.604 272.594 20.704 272.29 20.704 271.906C20.704 271.514 20.612 271.206 20.428 270.982C20.236 270.758 19.988 270.646 19.684 270.646C19.436 270.646 19.232 270.722 19.072 270.874C18.912 271.026 18.788 271.218 18.7 271.45C18.604 271.674 18.5 271.986 18.388 272.386C18.228 272.93 18.072 273.374 17.92 273.718C17.76 274.054 17.524 274.346 17.212 274.594C16.892 274.834 16.468 274.954 15.94 274.954C15.444 274.954 15.012 274.83 14.644 274.582C14.276 274.334 13.996 273.986 13.804 273.538C13.604 273.09 13.504 272.578 13.504 272.002C13.504 271.138 13.716 270.438 14.14 269.902C14.556 269.358 15.14 269.058 15.892 269.002L15.892 270.85C15.604 270.866 15.368 270.99 15.184 271.222C14.992 271.446 14.896 271.746 14.896 272.122C14.896 272.45 14.98 272.714 15.148 272.914C15.316 273.106 15.56 273.202 15.88 273.202C16.104 273.202 16.292 273.13 16.444 272.986C16.588 272.834 16.708 272.65 16.804 272.434C16.892 272.21 16.996 271.898 17.116 271.498C17.276 270.954 17.436 270.51 17.596 270.166C17.756 269.822 17.996 269.526 18.316 269.278C18.636 269.03 19.056 268.906 19.576 268.906C20.024 268.906 20.44 269.022 20.824 269.254C21.208 269.486 21.516 269.826 21.748 270.274C21.972 270.722 22.084 271.254 22.084 271.87ZM13.624 260.006L14.98 260.006L14.98 262.238L22 262.238L22 263.918L14.98 263.918L14.98 266.15L13.624 266.15L13.624 260.006ZM22.084 253.149C22.084 253.933 21.9 254.653 21.532 255.309C21.164 255.965 20.656 256.485 20.008 256.869C19.352 257.253 18.612 257.445 17.788 257.445C16.972 257.445 16.24 257.253 15.592 256.869C14.936 256.485 14.424 255.965 14.056 255.309C13.688 254.653 13.504 253.933 13.504 253.149C13.504 252.357 13.688 251.637 14.056 250.989C14.424 250.333 14.936 249.817 15.592 249.441C16.24 249.057 16.972 248.865 17.788 248.865C18.612 248.865 19.352 249.057 20.008 249.441C20.656 249.817 21.164 250.333 21.532 250.989C21.9 251.645 22.084 252.365 22.084 253.149ZM20.584 253.149C20.584 252.645 20.472 252.201 20.248 251.817C20.016 251.433 19.688 251.133 19.264 250.917C18.84 250.701 18.348 250.593 17.788 250.593C17.228 250.593 16.74 250.701 16.324 250.917C15.9 251.133 15.576 251.433 15.352 251.817C15.128 252.201 15.016 252.645 15.016 253.149C15.016 253.653 15.128 254.101 15.352 254.493C15.576 254.877 15.9 255.177 16.324 255.393C16.74 255.609 17.228 255.717 17.788 255.717C18.348 255.717 18.84 255.609 19.264 255.393C19.688 255.177 20.016 254.877 20.248 254.493C20.472 254.101 20.584 253.653 20.584 253.149ZM13.624 236.739L22 236.739L22 238.419L16.552 238.419L22 240.663L22 241.935L16.552 244.191L22 244.191L22 245.871L13.624 245.871L13.624 243.963L19.852 241.299L13.624 238.635L13.624 236.739ZM14.98 231.655L17.08 231.655L17.08 228.835L18.412 228.835L18.412 231.655L20.632 231.655L20.632 228.475L22 228.475L22 233.335L13.612 233.335L13.612 228.475L14.98 228.475L14.98 231.655ZM22 220.885L18.736 222.733L18.736 223.525L22 223.525L22 225.205L13.624 225.205L13.624 222.061C13.624 221.413 13.74 220.861 13.972 220.405C14.196 219.949 14.504 219.609 14.896 219.385C15.28 219.153 15.712 219.037 16.192 219.037C16.744 219.037 17.244 219.197 17.692 219.517C18.132 219.837 18.436 220.313 18.604 220.945L22 218.941L22 220.885ZM17.476 223.525L17.476 222.121C17.476 221.665 17.368 221.325 17.152 221.101C16.928 220.877 16.62 220.765 16.228 220.765C15.844 220.765 15.548 220.877 15.34 221.101C15.124 221.325 15.016 221.665 15.016 222.121L15.016 223.525L17.476 223.525Z" fill="#B4BECF"/>
<path d="M358.784 189.286C358.336 189.286 357.916 189.178 357.524 188.962C357.132 188.754 356.816 188.422 356.576 187.966C356.336 187.518 356.216 186.95 356.216 186.262L356.216 184.858L353 184.858L353 183.178L361.376 183.178L361.376 186.262C361.376 186.91 361.264 187.462 361.04 187.918C360.816 188.374 360.508 188.714 360.116 188.938C359.724 189.17 359.28 189.286 358.784 189.286ZM357.572 186.19C357.572 186.654 357.676 186.998 357.884 187.222C358.1 187.446 358.4 187.558 358.784 187.558C359.6 187.558 360.008 187.102 360.008 186.19L360.008 184.858L357.572 184.858L357.572 186.19ZM354.596 197.358L354.596 194.022L353 193.47L353 191.706L361.388 194.718L361.388 196.674L353 199.686L353 197.91L354.596 197.358ZM355.94 196.902L359.444 195.69L355.94 194.478L355.94 196.902ZM353 206.875L356.264 205.027L356.264 204.235L353 204.235L353 202.555L361.376 202.555L361.376 205.699C361.376 206.347 361.26 206.899 361.028 207.355C360.804 207.811 360.496 208.151 360.104 208.375C359.72 208.607 359.288 208.723 358.808 208.723C358.256 208.723 357.756 208.563 357.308 208.243C356.868 207.923 356.564 207.447 356.396 206.815L353 208.819L353 206.875ZM357.524 204.235L357.524 205.639C357.524 206.095 357.632 206.435 357.848 206.659C358.072 206.883 358.38 206.995 358.772 206.995C359.156 206.995 359.452 206.883 359.66 206.659C359.876 206.435 359.984 206.095 359.984 205.639L359.984 204.235L357.524 204.235ZM361.376 217.686L360.02 217.686L360.02 215.454L353 215.454L353 213.774L360.02 213.774L360.02 211.542L361.376 211.542L361.376 217.686ZM353 227.819L353 226.139L358.748 222.335L353 222.335L353 220.655L361.388 220.655L361.388 222.335L355.628 226.139L361.388 226.139L361.388 227.819L353 227.819ZM360.02 232.902L357.92 232.902L357.92 235.722L356.588 235.722L356.588 232.902L354.368 232.902L354.368 236.082L353 236.082L353 231.222L361.388 231.222L361.388 236.082L360.02 236.082L360.02 232.902ZM353 243.672L356.264 241.824L356.264 241.032L353 241.032L353 239.352L361.376 239.352L361.376 242.496C361.376 243.144 361.26 243.696 361.028 244.152C360.804 244.608 360.496 244.948 360.104 245.172C359.72 245.404 359.288 245.52 358.808 245.52C358.256 245.52 357.756 245.36 357.308 245.04C356.868 244.72 356.564 244.244 356.396 243.612L353 245.616L353 243.672ZM357.524 241.032L357.524 242.436C357.524 242.892 357.632 243.232 357.848 243.456C358.072 243.68 358.38 243.792 358.772 243.792C359.156 243.792 359.452 243.68 359.66 243.456C359.876 243.232 359.984 242.892 359.984 242.436L359.984 241.032L357.524 241.032ZM353 259.83L353.9 258.918C353.204 258.142 352.856 257.194 352.856 256.074C352.856 255.458 352.96 254.914 353.168 254.442C353.384 253.978 353.684 253.618 354.068 253.362C354.46 253.106 354.912 252.978 355.424 252.978C355.976 252.978 356.472 253.134 356.912 253.446C357.352 253.758 357.708 254.218 357.98 254.826C358.244 254.61 358.496 254.454 358.736 254.358C358.984 254.262 359.248 254.214 359.528 254.214C359.912 254.214 360.256 254.314 360.56 254.514C360.872 254.714 361.116 254.998 361.292 255.366C361.468 255.742 361.556 256.178 361.556 256.674C361.556 257.178 361.46 257.61 361.268 257.97C361.076 258.33 360.82 258.598 360.5 258.774C360.18 258.95 359.824 259.026 359.432 259.002L359.432 257.37C359.696 257.378 359.896 257.314 360.032 257.178C360.176 257.042 360.248 256.858 360.248 256.626C360.248 256.402 360.18 256.214 360.044 256.062C359.916 255.918 359.748 255.846 359.54 255.846C359.34 255.846 359.14 255.906 358.94 256.026C358.748 256.146 358.508 256.342 358.22 256.614L356.132 258.726C356.148 258.742 356.164 258.754 356.18 258.762C356.196 258.77 356.212 258.778 356.228 258.786L357.368 259.47L357.368 261.222L355.892 260.382C355.58 260.222 355.284 260.05 355.004 259.866L353 261.894L353 259.83ZM354.248 256.122C354.248 256.778 354.48 257.358 354.944 257.862L356.984 255.798C356.64 255.022 356.152 254.634 355.52 254.634C355.16 254.634 354.856 254.77 354.608 255.042C354.368 255.314 354.248 255.674 354.248 256.122ZM352.916 271.964C352.916 271.38 353.016 270.852 353.216 270.38C353.416 269.916 353.704 269.548 354.08 269.276C354.456 269.004 354.9 268.864 355.412 268.856L355.412 270.656C355.068 270.68 354.796 270.8 354.596 271.016C354.396 271.24 354.296 271.544 354.296 271.928C354.296 272.32 354.388 272.628 354.572 272.852C354.764 273.076 355.012 273.188 355.316 273.188C355.564 273.188 355.768 273.112 355.928 272.96C356.088 272.808 356.212 272.616 356.3 272.384C356.396 272.16 356.5 271.848 356.612 271.448C356.772 270.904 356.928 270.46 357.08 270.116C357.24 269.78 357.476 269.488 357.788 269.24C358.108 269 358.532 268.88 359.06 268.88C359.556 268.88 359.988 269.004 360.356 269.252C360.724 269.5 361.004 269.848 361.196 270.296C361.396 270.744 361.496 271.256 361.496 271.832C361.496 272.696 361.284 273.396 360.86 273.932C360.444 274.476 359.86 274.776 359.108 274.832L359.108 272.984C359.396 272.968 359.632 272.844 359.816 272.612C360.008 272.388 360.104 272.088 360.104 271.712C360.104 271.384 360.02 271.12 359.852 270.92C359.684 270.728 359.44 270.632 359.12 270.632C358.896 270.632 358.708 270.704 358.556 270.848C358.412 271 358.292 271.184 358.196 271.4C358.108 271.624 358.004 271.936 357.884 272.336C357.724 272.88 357.564 273.324 357.404 273.668C357.244 274.012 357.004 274.308 356.684 274.556C356.364 274.804 355.944 274.928 355.424 274.928C354.976 274.928 354.56 274.812 354.176 274.58C353.792 274.348 353.484 274.008 353.252 273.56C353.028 273.112 352.916 272.58 352.916 271.964ZM361.376 279.784L356.192 279.784C355.624 279.784 355.188 279.932 354.884 280.228C354.588 280.524 354.44 280.94 354.44 281.476C354.44 282.02 354.588 282.44 354.884 282.736C355.188 283.032 355.624 283.18 356.192 283.18L361.376 283.18L361.376 284.872L356.204 284.872C355.492 284.872 354.888 284.716 354.392 284.404C353.904 284.1 353.536 283.688 353.288 283.168C353.04 282.656 352.916 282.084 352.916 281.452C352.916 280.828 353.04 280.26 353.288 279.748C353.536 279.244 353.904 278.844 354.392 278.548C354.888 278.252 355.492 278.104 356.204 278.104L361.376 278.104L361.376 279.784ZM358.784 294.346C358.336 294.346 357.916 294.238 357.524 294.022C357.132 293.814 356.816 293.482 356.576 293.026C356.336 292.578 356.216 292.01 356.216 291.322L356.216 289.918L353 289.918L353 288.238L361.376 288.238L361.376 291.322C361.376 291.97 361.264 292.522 361.04 292.978C360.816 293.434 360.508 293.774 360.116 293.998C359.724 294.23 359.28 294.346 358.784 294.346ZM357.572 291.25C357.572 291.714 357.676 292.058 357.884 292.282C358.1 292.506 358.4 292.618 358.784 292.618C359.6 292.618 360.008 292.162 360.008 291.25L360.008 289.918L357.572 289.918L357.572 291.25ZM358.784 303.39C358.336 303.39 357.916 303.282 357.524 303.066C357.132 302.858 356.816 302.526 356.576 302.07C356.336 301.622 356.216 301.054 356.216 300.366L356.216 298.962L353 298.962L353 297.282L361.376 297.282L361.376 300.366C361.376 301.014 361.264 301.566 361.04 302.022C360.816 302.478 360.508 302.818 360.116 303.042C359.724 303.274 359.28 303.39 358.784 303.39ZM357.572 300.294C357.572 300.758 357.676 301.102 357.884 301.326C358.1 301.55 358.4 301.662 358.784 301.662C359.6 301.662 360.008 301.206 360.008 300.294L360.008 298.962L357.572 298.962L357.572 300.294ZM354.332 308.006L354.332 310.766L353 310.766L353 306.326L361.376 306.326L361.376 308.006L354.332 308.006ZM361.376 315.258L353 315.258L353 313.578L361.376 313.578L361.376 315.258ZM360.02 320.341L357.92 320.341L357.92 323.161L356.588 323.161L356.588 320.341L354.368 320.341L354.368 323.521L353 323.521L353 318.661L361.388 318.661L361.388 323.521L360.02 323.521L360.02 320.341ZM353 331.111L356.264 329.263L356.264 328.471L353 328.471L353 326.791L361.376 326.791L361.376 329.935C361.376 330.583 361.26 331.135 361.028 331.591C360.804 332.047 360.496 332.387 360.104 332.611C359.72 332.843 359.288 332.959 358.808 332.959C358.256 332.959 357.756 332.799 357.308 332.479C356.868 332.159 356.564 331.683 356.396 331.051L353 333.055L353 331.111ZM357.524 328.471L357.524 329.875C357.524 330.331 357.632 330.671 357.848 330.895C358.072 331.119 358.38 331.231 358.772 331.231C359.156 331.231 359.452 331.119 359.66 330.895C359.876 330.671 359.984 330.331 359.984 329.875L359.984 328.471L357.524 328.471Z" fill="#B4BECF"/>
<path d="M107.637 0.624V9H105.957V0.624H107.637ZM118.204 9H116.524L112.72 3.252V9H111.04V0.611999H112.72L116.524 6.372V0.611999H118.204V9ZM127.308 0.624V1.98H125.076V9H123.396V1.98H121.164V0.624H127.308ZM131.957 1.98V4.08H134.777V5.412H131.957V7.632H135.137V9H130.277V0.611999H135.137V1.98H131.957ZM142.727 9L140.879 5.736H140.087V9H138.407V0.624H141.551C142.199 0.624 142.751 0.74 143.207 0.972C143.663 1.196 144.003 1.504 144.227 1.896C144.459 2.28 144.575 2.712 144.575 3.192C144.575 3.744 144.415 4.244 144.095 4.692C143.775 5.132 143.299 5.436 142.667 5.604L144.671 9H142.727ZM140.087 4.476H141.491C141.947 4.476 142.287 4.368 142.511 4.152C142.735 3.928 142.847 3.62 142.847 3.228C142.847 2.844 142.735 2.548 142.511 2.34C142.287 2.124 141.947 2.016 141.491 2.016H140.087V4.476ZM155.002 9H153.322L149.518 3.252V9H147.838V0.611999H149.518L153.322 6.372V0.611999H155.002V9ZM163.541 7.404H160.205L159.653 9H157.889L160.901 0.611999H162.857L165.869 9H164.093L163.541 7.404ZM163.085 6.06L161.873 2.556L160.661 6.06H163.085ZM170.418 7.668H173.178V9H168.738V0.624H170.418V7.668ZM191.788 0.624L189.448 9H187.468L185.896 3.036L184.252 9L182.284 9.012L180.028 0.624H181.828L183.304 7.128L185.008 0.624H186.88L188.488 7.092L189.976 0.624H191.788ZM198.517 9.084C197.733 9.084 197.013 8.9 196.357 8.532C195.701 8.164 195.181 7.656 194.797 7.008C194.413 6.352 194.221 5.612 194.221 4.788C194.221 3.972 194.413 3.24 194.797 2.592C195.181 1.936 195.701 1.424 196.357 1.056C197.013 0.688 197.733 0.504 198.517 0.504C199.309 0.504 200.029 0.688 200.677 1.056C201.333 1.424 201.849 1.936 202.225 2.592C202.609 3.24 202.801 3.972 202.801 4.788C202.801 5.612 202.609 6.352 202.225 7.008C201.849 7.656 201.333 8.164 200.677 8.532C200.021 8.9 199.301 9.084 198.517 9.084ZM198.517 7.584C199.021 7.584 199.465 7.472 199.849 7.248C200.233 7.016 200.533 6.688 200.749 6.264C200.965 5.84 201.073 5.348 201.073 4.788C201.073 4.228 200.965 3.74 200.749 3.324C200.533 2.9 200.233 2.576 199.849 2.352C199.465 2.128 199.021 2.016 198.517 2.016C198.013 2.016 197.565 2.128 197.173 2.352C196.789 2.576 196.489 2.9 196.273 3.324C196.057 3.74 195.949 4.228 195.949 4.788C195.949 5.348 196.057 5.84 196.273 6.264C196.489 6.688 196.789 7.016 197.173 7.248C197.565 7.472 198.013 7.584 198.517 7.584ZM210.114 9L208.266 5.736H207.474V9H205.794V0.624H208.938C209.586 0.624 210.138 0.74 210.594 0.972C211.05 1.196 211.39 1.504 211.614 1.896C211.846 2.28 211.962 2.712 211.962 3.192C211.962 3.744 211.802 4.244 211.482 4.692C211.162 5.132 210.686 5.436 210.054 5.604L212.058 9H210.114ZM207.474 4.476H208.878C209.334 4.476 209.674 4.368 209.898 4.152C210.122 3.928 210.234 3.62 210.234 3.228C210.234 2.844 210.122 2.548 209.898 2.34C209.674 2.124 209.334 2.016 208.878 2.016H207.474V4.476ZM219.953 9L216.905 5.268V9H215.225V0.624H216.905V4.38L219.953 0.624H221.981L218.525 4.776L222.077 9H219.953ZM227.817 9.084C227.233 9.084 226.705 8.984 226.233 8.784C225.769 8.584 225.401 8.296 225.129 7.92C224.857 7.544 224.717 7.1 224.709 6.588H226.509C226.533 6.932 226.653 7.204 226.869 7.404C227.093 7.604 227.397 7.704 227.781 7.704C228.173 7.704 228.481 7.612 228.705 7.428C228.929 7.236 229.041 6.988 229.041 6.684C229.041 6.436 228.965 6.232 228.813 6.072C228.661 5.912 228.469 5.788 228.237 5.7C228.013 5.604 227.701 5.5 227.301 5.388C226.757 5.228 226.313 5.072 225.969 4.92C225.633 4.76 225.341 4.524 225.093 4.212C224.853 3.892 224.733 3.468 224.733 2.94C224.733 2.444 224.857 2.012 225.105 1.644C225.353 1.276 225.701 0.996 226.149 0.804C226.597 0.604 227.109 0.504 227.685 0.504C228.549 0.504 229.249 0.716 229.785 1.14C230.329 1.556 230.629 2.14 230.685 2.892H228.837C228.821 2.604 228.697 2.368 228.465 2.184C228.241 1.992 227.941 1.896 227.565 1.896C227.237 1.896 226.973 1.98 226.773 2.148C226.581 2.316 226.485 2.56 226.485 2.88C226.485 3.104 226.557 3.292 226.701 3.444C226.853 3.588 227.037 3.708 227.253 3.804C227.477 3.892 227.789 3.996 228.189 4.116C228.733 4.276 229.177 4.436 229.521 4.596C229.865 4.756 230.161 4.996 230.409 5.316C230.657 5.636 230.781 6.056 230.781 6.576C230.781 7.024 230.665 7.44 230.433 7.824C230.201 8.208 229.861 8.516 229.413 8.748C228.965 8.972 228.433 9.084 227.817 9.084ZM240.089 3.216C240.089 3.664 239.981 4.084 239.765 4.476C239.557 4.868 239.225 5.184 238.769 5.424C238.321 5.664 237.753 5.784 237.065 5.784H235.661V9H233.981V0.624H237.065C237.713 0.624 238.265 0.736 238.721 0.96C239.177 1.184 239.517 1.492 239.741 1.884C239.973 2.276 240.089 2.72 240.089 3.216ZM236.993 4.428C237.457 4.428 237.801 4.324 238.025 4.116C238.249 3.9 238.361 3.6 238.361 3.216C238.361 2.4 237.905 1.992 236.993 1.992H235.661V4.428H236.993ZM248.161 7.404H244.825L244.273 9H242.509L245.521 0.611999H247.477L250.489 9H248.713L248.161 7.404ZM247.705 6.06L246.493 2.556L245.281 6.06H247.705ZM252.95 4.8C252.95 3.976 253.134 3.24 253.502 2.592C253.878 1.936 254.386 1.428 255.026 1.068C255.674 0.7 256.398 0.516 257.198 0.516C258.134 0.516 258.954 0.756 259.658 1.236C260.362 1.716 260.854 2.38 261.134 3.228H259.202C259.01 2.828 258.738 2.528 258.386 2.328C258.042 2.128 257.642 2.028 257.186 2.028C256.698 2.028 256.262 2.144 255.878 2.376C255.502 2.6 255.206 2.92 254.99 3.336C254.782 3.752 254.678 4.24 254.678 4.8C254.678 5.352 254.782 5.84 254.99 6.264C255.206 6.68 255.502 7.004 255.878 7.236C256.262 7.46 256.698 7.572 257.186 7.572C257.642 7.572 258.042 7.472 258.386 7.272C258.738 7.064 259.01 6.76 259.202 6.36H261.134C260.854 7.216 260.362 7.884 259.658 8.364C258.962 8.836 258.142 9.072 257.198 9.072C256.398 9.072 255.674 8.892 255.026 8.532C254.386 8.164 253.878 7.656 253.502 7.008C253.134 6.36 252.95 5.624 252.95 4.8ZM265.992 1.98V4.08H268.812V5.412H265.992V7.632H269.172V9H264.312V0.611999H269.172V1.98H265.992Z" fill="#B4BECF"/>
<path d="M124.646 500.624V501.98H122.414V509H120.734V501.98H118.502V500.624H124.646ZM131.503 509.084C130.719 509.084 129.999 508.9 129.343 508.532C128.687 508.164 128.167 507.656 127.783 507.008C127.399 506.352 127.207 505.612 127.207 504.788C127.207 503.972 127.399 503.24 127.783 502.592C128.167 501.936 128.687 501.424 129.343 501.056C129.999 500.688 130.719 500.504 131.503 500.504C132.295 500.504 133.015 500.688 133.663 501.056C134.319 501.424 134.835 501.936 135.211 502.592C135.595 503.24 135.787 503.972 135.787 504.788C135.787 505.612 135.595 506.352 135.211 507.008C134.835 507.656 134.319 508.164 133.663 508.532C133.007 508.9 132.287 509.084 131.503 509.084ZM131.503 507.584C132.007 507.584 132.451 507.472 132.835 507.248C133.219 507.016 133.519 506.688 133.735 506.264C133.951 505.84 134.059 505.348 134.059 504.788C134.059 504.228 133.951 503.74 133.735 503.324C133.519 502.9 133.219 502.576 132.835 502.352C132.451 502.128 132.007 502.016 131.503 502.016C130.999 502.016 130.551 502.128 130.159 502.352C129.775 502.576 129.475 502.9 129.259 503.324C129.043 503.74 128.935 504.228 128.935 504.788C128.935 505.348 129.043 505.84 129.259 506.264C129.475 506.688 129.775 507.016 130.159 507.248C130.551 507.472 130.999 507.584 131.503 507.584ZM142.669 509.084C141.885 509.084 141.165 508.9 140.509 508.532C139.853 508.164 139.333 507.656 138.949 507.008C138.565 506.352 138.373 505.612 138.373 504.788C138.373 503.972 138.565 503.24 138.949 502.592C139.333 501.936 139.853 501.424 140.509 501.056C141.165 500.688 141.885 500.504 142.669 500.504C143.461 500.504 144.181 500.688 144.829 501.056C145.485 501.424 146.001 501.936 146.377 502.592C146.761 503.24 146.953 503.972 146.953 504.788C146.953 505.612 146.761 506.352 146.377 507.008C146.001 507.656 145.485 508.164 144.829 508.532C144.173 508.9 143.453 509.084 142.669 509.084ZM142.669 507.584C143.173 507.584 143.617 507.472 144.001 507.248C144.385 507.016 144.685 506.688 144.901 506.264C145.117 505.84 145.225 505.348 145.225 504.788C145.225 504.228 145.117 503.74 144.901 503.324C144.685 502.9 144.385 502.576 144.001 502.352C143.617 502.128 143.173 502.016 142.669 502.016C142.165 502.016 141.717 502.128 141.325 502.352C140.941 502.576 140.641 502.9 140.425 503.324C140.209 503.74 140.101 504.228 140.101 504.788C140.101 505.348 140.209 505.84 140.425 506.264C140.641 506.688 140.941 507.016 141.325 507.248C141.717 507.472 142.165 507.584 142.669 507.584ZM151.626 507.668H154.386V509H149.946V500.624H151.626V507.668ZM163.48 500.624V509H161.8V500.624H163.48ZM174.047 509H172.367L168.563 503.252V509H166.883V500.612H168.563L172.367 506.372V500.612H174.047V509ZM183.15 500.624V501.98H180.918V509H179.238V501.98H177.006V500.624H183.15ZM187.8 501.98V504.08H190.62V505.412H187.8V507.632H190.98V509H186.12V500.612H190.98V501.98H187.8ZM200.082 503.144C199.89 502.792 199.626 502.524 199.29 502.34C198.954 502.156 198.562 502.064 198.114 502.064C197.618 502.064 197.178 502.176 196.794 502.4C196.41 502.624 196.11 502.944 195.894 503.36C195.678 503.776 195.57 504.256 195.57 504.8C195.57 505.36 195.678 505.848 195.894 506.264C196.118 506.68 196.426 507 196.818 507.224C197.21 507.448 197.666 507.56 198.186 507.56C198.826 507.56 199.35 507.392 199.758 507.056C200.166 506.712 200.434 506.236 200.562 505.628H197.682V504.344H202.218V505.808C202.106 506.392 201.866 506.932 201.498 507.428C201.13 507.924 200.654 508.324 200.07 508.628C199.494 508.924 198.846 509.072 198.126 509.072C197.318 509.072 196.586 508.892 195.93 508.532C195.282 508.164 194.77 507.656 194.394 507.008C194.026 506.36 193.842 505.624 193.842 504.8C193.842 503.976 194.026 503.24 194.394 502.592C194.77 501.936 195.282 501.428 195.93 501.068C196.586 500.7 197.314 500.516 198.114 500.516C199.058 500.516 199.878 500.748 200.574 501.212C201.27 501.668 201.75 502.312 202.014 503.144H200.082ZM209.524 509L207.676 505.736H206.884V509H205.204V500.624H208.348C208.996 500.624 209.548 500.74 210.004 500.972C210.46 501.196 210.8 501.504 211.024 501.896C211.256 502.28 211.372 502.712 211.372 503.192C211.372 503.744 211.212 504.244 210.892 504.692C210.572 505.132 210.096 505.436 209.464 505.604L211.468 509H209.524ZM206.884 504.476H208.288C208.744 504.476 209.084 504.368 209.308 504.152C209.532 503.928 209.644 503.62 209.644 503.228C209.644 502.844 209.532 502.548 209.308 502.34C209.084 502.124 208.744 502.016 208.288 502.016H206.884V504.476ZM219.771 507.404H216.435L215.883 509H214.119L217.131 500.612H219.087L222.099 509H220.323L219.771 507.404ZM219.315 506.06L218.103 502.556L216.891 506.06H219.315ZM230.668 500.624V501.98H228.436V509H226.756V501.98H224.524V500.624H230.668ZM235.317 500.624V509H233.637V500.624H235.317ZM242.608 509.084C241.824 509.084 241.104 508.9 240.448 508.532C239.792 508.164 239.272 507.656 238.888 507.008C238.504 506.352 238.312 505.612 238.312 504.788C238.312 503.972 238.504 503.24 238.888 502.592C239.272 501.936 239.792 501.424 240.448 501.056C241.104 500.688 241.824 500.504 242.608 500.504C243.4 500.504 244.12 500.688 244.768 501.056C245.424 501.424 245.94 501.936 246.316 502.592C246.7 503.24 246.892 503.972 246.892 504.788C246.892 505.612 246.7 506.352 246.316 507.008C245.94 507.656 245.424 508.164 244.768 508.532C244.112 508.9 243.392 509.084 242.608 509.084ZM242.608 507.584C243.112 507.584 243.556 507.472 243.94 507.248C244.324 507.016 244.624 506.688 244.84 506.264C245.056 505.84 245.164 505.348 245.164 504.788C245.164 504.228 245.056 503.74 244.84 503.324C244.624 502.9 244.324 502.576 243.94 502.352C243.556 502.128 243.112 502.016 242.608 502.016C242.104 502.016 241.656 502.128 241.264 502.352C240.88 502.576 240.58 502.9 240.364 503.324C240.148 503.74 240.04 504.228 240.04 504.788C240.04 505.348 240.148 505.84 240.364 506.264C240.58 506.688 240.88 507.016 241.264 507.248C241.656 507.472 242.104 507.584 242.608 507.584ZM257.049 509H255.369L251.565 503.252V509H249.885V500.612H251.565L255.369 506.372V500.612H257.049V509Z" fill="#B4BECF"/>
<defs>
<filter id="filter0_d_10430_112767" x="-8" y="57.9976" width="391" height="391" filterUnits="userSpaceOnUse" color-interpolation-filters="sRGB">
<feFlood flood-opacity="0" result="BackgroundImageFix"/>
<feColorMatrix in="SourceAlpha" type="matrix" values="0 0 0 0 0 0 0 0 0 0 0 0 0 0 0 0 0 0 127 0" result="hardAlpha"/>
<feOffset/>
<feGaussianBlur stdDeviation="37"/>
<feColorMatrix type="matrix" values="0 0 0 0 0 0 0 0 0 0 0 0 0 0 0 0 0 0 0.04 0"/>
<feBlend mode="normal" in2="BackgroundImageFix" result="effect1_dropShadow_10430_112767"/>
<feBlend mode="normal" in="SourceGraphic" in2="effect1_dropShadow_10430_112767" result="shape"/>
</filter>
<filter id="filter1_d_10430_112767" x="41" y="106.998" width="293" height="293" filterUnits="userSpaceOnUse" color-interpolation-filters="sRGB">
<feFlood flood-opacity="0" result="BackgroundImageFix"/>
<feColorMatrix in="SourceAlpha" type="matrix" values="0 0 0 0 0 0 0 0 0 0 0 0 0 0 0 0 0 0 127 0" result="hardAlpha"/>
<feOffset/>
<feGaussianBlur stdDeviation="37"/>
<feColorMatrix type="matrix" values="0 0 0 0 0 0 0 0 0 0 0 0 0 0 0 0 0 0 0.04 0"/>
<feBlend mode="normal" in2="BackgroundImageFix" result="effect1_dropShadow_10430_112767"/>
<feBlend mode="normal" in="SourceGraphic" in2="effect1_dropShadow_10430_112767" result="shape"/>
</filter>
<filter id="filter2_dd_10430_112767" x="258.821" y="126.8" width="114.4" height="114.4" filterUnits="userSpaceOnUse" color-interpolation-filters="sRGB">
<feFlood flood-opacity="0" result="BackgroundImageFix"/>
<feColorMatrix in="SourceAlpha" type="matrix" values="0 0 0 0 0 0 0 0 0 0 0 0 0 0 0 0 0 0 127 0" result="hardAlpha"/>
<feOffset dy="5"/>
<feGaussianBlur stdDeviation="14.6"/>
<feColorMatrix type="matrix" values="0 0 0 0 0.6125 0 0 0 0 0.404892 0 0 0 0 0.0969792 0 0 0 0.22 0"/>
<feBlend mode="normal" in2="BackgroundImageFix" result="effect1_dropShadow_10430_112767"/>
<feColorMatrix in="SourceAlpha" type="matrix" values="0 0 0 0 0 0 0 0 0 0 0 0 0 0 0 0 0 0 127 0" result="hardAlpha"/>
<feOffset/>
<feGaussianBlur stdDeviation="6"/>
<feColorMatrix type="matrix" values="0 0 0 0 1 0 0 0 0 0.698039 0 0 0 0 0.415686 0 0 0 0.5 0"/>
<feBlend mode="normal" in2="effect1_dropShadow_10430_112767" result="effect2_dropShadow_10430_112767"/>
<feBlend mode="normal" in="SourceGraphic" in2="effect2_dropShadow_10430_112767" result="shape"/>
</filter>
<filter id="filter3_dd_10430_112767" x="258.821" y="202.8" width="114.4" height="114.4" filterUnits="userSpaceOnUse" color-interpolation-filters="sRGB">
<feFlood flood-opacity="0" result="BackgroundImageFix"/>
<feColorMatrix in="SourceAlpha" type="matrix" values="0 0 0 0 0 0 0 0 0 0 0 0 0 0 0 0 0 0 127 0" result="hardAlpha"/>
<feOffset dy="5"/>
<feGaussianBlur stdDeviation="14.6"/>
<feColorMatrix type="matrix" values="0 0 0 0 0.6125 0 0 0 0 0.404892 0 0 0 0 0.0969792 0 0 0 0.22 0"/>
<feBlend mode="normal" in2="BackgroundImageFix" result="effect1_dropShadow_10430_112767"/>
<feColorMatrix in="SourceAlpha" type="matrix" values="0 0 0 0 0 0 0 0 0 0 0 0 0 0 0 0 0 0 127 0" result="hardAlpha"/>
<feOffset/>
<feGaussianBlur stdDeviation="6"/>
<feColorMatrix type="matrix" values="0 0 0 0 1 0 0 0 0 0.698039 0 0 0 0 0.415686 0 0 0 0.5 0"/>
<feBlend mode="normal" in2="effect1_dropShadow_10430_112767" result="effect2_dropShadow_10430_112767"/>
<feBlend mode="normal" in="SourceGraphic" in2="effect2_dropShadow_10430_112767" result="shape"/>
</filter>
<filter id="filter4_dd_10430_112767" x="258.821" y="278.8" width="114.4" height="114.4" filterUnits="userSpaceOnUse" color-interpolation-filters="sRGB">
<feFlood flood-opacity="0" result="BackgroundImageFix"/>
<feColorMatrix in="SourceAlpha" type="matrix" values="0 0 0 0 0 0 0 0 0 0 0 0 0 0 0 0 0 0 127 0" result="hardAlpha"/>
<feOffset dy="5"/>
<feGaussianBlur stdDeviation="14.6"/>
<feColorMatrix type="matrix" values="0 0 0 0 0.6125 0 0 0 0 0.404892 0 0 0 0 0.0969792 0 0 0 0.22 0"/>
<feBlend mode="normal" in2="BackgroundImageFix" result="effect1_dropShadow_10430_112767"/>
<feColorMatrix in="SourceAlpha" type="matrix" values="0 0 0 0 0 0 0 0 0 0 0 0 0 0 0 0 0 0 127 0" result="hardAlpha"/>
<feOffset/>
<feGaussianBlur stdDeviation="6"/>
<feColorMatrix type="matrix" values="0 0 0 0 1 0 0 0 0 0.698039 0 0 0 0 0.415686 0 0 0 0.5 0"/>
<feBlend mode="normal" in2="effect1_dropShadow_10430_112767" result="effect2_dropShadow_10430_112767"/>
<feBlend mode="normal" in="SourceGraphic" in2="effect2_dropShadow_10430_112767" result="shape"/>
</filter>
<filter id="filter5_dd_10430_112767" x="0.821484" y="126.8" width="114.4" height="114.4" filterUnits="userSpaceOnUse" color-interpolation-filters="sRGB">
<feFlood flood-opacity="0" result="BackgroundImageFix"/>
<feColorMatrix in="SourceAlpha" type="matrix" values="0 0 0 0 0 0 0 0 0 0 0 0 0 0 0 0 0 0 127 0" result="hardAlpha"/>
<feOffset dy="5"/>
<feGaussianBlur stdDeviation="14.6"/>
<feColorMatrix type="matrix" values="0 0 0 0 0.754167 0 0 0 0 0.55159 0 0 0 0 0.034566 0 0 0 0.22 0"/>
<feBlend mode="normal" in2="BackgroundImageFix" result="effect1_dropShadow_10430_112767"/>
<feColorMatrix in="SourceAlpha" type="matrix" values="0 0 0 0 0 0 0 0 0 0 0 0 0 0 0 0 0 0 127 0" result="hardAlpha"/>
<feOffset/>
<feGaussianBlur stdDeviation="6"/>
<feColorMatrix type="matrix" values="0 0 0 0 0.976471 0 0 0 0 0.713726 0 0 0 0 0.0431373 0 0 0 0.5 0"/>
<feBlend mode="normal" in2="effect1_dropShadow_10430_112767" result="effect2_dropShadow_10430_112767"/>
<feBlend mode="normal" in="SourceGraphic" in2="effect2_dropShadow_10430_112767" result="shape"/>
</filter>
<filter id="filter6_dd_10430_112767" x="0.821484" y="202.8" width="114.4" height="114.4" filterUnits="userSpaceOnUse" color-interpolation-filters="sRGB">
<feFlood flood-opacity="0" result="BackgroundImageFix"/>
<feColorMatrix in="SourceAlpha" type="matrix" values="0 0 0 0 0 0 0 0 0 0 0 0 0 0 0 0 0 0 127 0" result="hardAlpha"/>
<feOffset dy="5"/>
<feGaussianBlur stdDeviation="14.6"/>
<feColorMatrix type="matrix" values="0 0 0 0 0.754167 0 0 0 0 0.55159 0 0 0 0 0.034566 0 0 0 0.22 0"/>
<feBlend mode="normal" in2="BackgroundImageFix" result="effect1_dropShadow_10430_112767"/>
<feColorMatrix in="SourceAlpha" type="matrix" values="0 0 0 0 0 0 0 0 0 0 0 0 0 0 0 0 0 0 127 0" result="hardAlpha"/>
<feOffset/>
<feGaussianBlur stdDeviation="6"/>
<feColorMatrix type="matrix" values="0 0 0 0 0.976471 0 0 0 0 0.713726 0 0 0 0 0.0431373 0 0 0 0.5 0"/>
<feBlend mode="normal" in2="effect1_dropShadow_10430_112767" result="effect2_dropShadow_10430_112767"/>
<feBlend mode="normal" in="SourceGraphic" in2="effect2_dropShadow_10430_112767" result="shape"/>
</filter>
<filter id="filter7_dd_10430_112767" x="0.821484" y="278.8" width="114.4" height="114.4" filterUnits="userSpaceOnUse" color-interpolation-filters="sRGB">
<feFlood flood-opacity="0" result="BackgroundImageFix"/>
<feColorMatrix in="SourceAlpha" type="matrix" values="0 0 0 0 0 0 0 0 0 0 0 0 0 0 0 0 0 0 127 0" result="hardAlpha"/>
<feOffset dy="5"/>
<feGaussianBlur stdDeviation="14.6"/>
<feColorMatrix type="matrix" values="0 0 0 0 0.754167 0 0 0 0 0.55159 0 0 0 0 0.034566 0 0 0 0.22 0"/>
<feBlend mode="normal" in2="BackgroundImageFix" result="effect1_dropShadow_10430_112767"/>
<feColorMatrix in="SourceAlpha" type="matrix" values="0 0 0 0 0 0 0 0 0 0 0 0 0 0 0 0 0 0 127 0" result="hardAlpha"/>
<feOffset/>
<feGaussianBlur stdDeviation="6"/>
<feColorMatrix type="matrix" values="0 0 0 0 0.976471 0 0 0 0 0.713726 0 0 0 0 0.0431373 0 0 0 0.5 0"/>
<feBlend mode="normal" in2="effect1_dropShadow_10430_112767" result="effect2_dropShadow_10430_112767"/>
<feBlend mode="normal" in="SourceGraphic" in2="effect2_dropShadow_10430_112767" result="shape"/>
</filter>
<filter id="filter8_dd_10430_112767" x="131.991" y="212.394" width="110.714" height="110.714" filterUnits="userSpaceOnUse" color-interpolation-filters="sRGB">
<feFlood flood-opacity="0" result="BackgroundImageFix"/>
<feColorMatrix in="SourceAlpha" type="matrix" values="0 0 0 0 0 0 0 0 0 0 0 0 0 0 0 0 0 0 127 0" result="hardAlpha"/>
<feOffset dy="13.1"/>
<feGaussianBlur stdDeviation="14.6"/>
<feColorMatrix type="matrix" values="0 0 0 0 0.178646 0 0 0 0 0.415406 0 0 0 0 0.875 0 0 0 0.4 0"/>
<feBlend mode="normal" in2="BackgroundImageFix" result="effect1_dropShadow_10430_112767"/>
<feColorMatrix in="SourceAlpha" type="matrix" values="0 0 0 0 0 0 0 0 0 0 0 0 0 0 0 0 0 0 127 0" result="hardAlpha"/>
<feOffset/>
<feGaussianBlur stdDeviation="6"/>
<feColorMatrix type="matrix" values="0 0 0 0 0.145098 0 0 0 0 0.501961 0 0 0 0 0.980392 0 0 0 0.5 0"/>
<feBlend mode="normal" in2="effect1_dropShadow_10430_112767" result="effect2_dropShadow_10430_112767"/>
<feBlend mode="normal" in="SourceGraphic" in2="effect2_dropShadow_10430_112767" result="shape"/>
</filter>
<filter id="filter9_d_10430_112767" x="149.152" y="217.453" width="76.3945" height="76.394" filterUnits="userSpaceOnUse" color-interpolation-filters="sRGB">
<feFlood flood-opacity="0" result="BackgroundImageFix"/>
<feColorMatrix in="SourceAlpha" type="matrix" values="0 0 0 0 0 0 0 0 0 0 0 0 0 0 0 0 0 0 127 0" result="hardAlpha"/>
<feOffset dy="1"/>
<feGaussianBlur stdDeviation="2"/>
<feColorMatrix type="matrix" values="0 0 0 0 0.0673049 0 0 0 0 0.408746 0 0 0 0 0.971664 0 0 0 0.4 0"/>
<feBlend mode="normal" in2="BackgroundImageFix" result="effect1_dropShadow_10430_112767"/>
<feBlend mode="normal" in="SourceGraphic" in2="effect1_dropShadow_10430_112767" result="shape"/>
</filter>
<filter id="filter10_dd_10430_112767" x="258.8" y="0.799999" width="114.4" height="114.4" filterUnits="userSpaceOnUse" color-interpolation-filters="sRGB">
<feFlood flood-opacity="0" result="BackgroundImageFix"/>
<feColorMatrix in="SourceAlpha" type="matrix" values="0 0 0 0 0 0 0 0 0 0 0 0 0 0 0 0 0 0 127 0" result="hardAlpha"/>
<feOffset dy="5"/>
<feGaussianBlur stdDeviation="14.6"/>
<feColorMatrix type="matrix" values="0 0 0 0 0.178646 0 0 0 0 0.415406 0 0 0 0 0.875 0 0 0 0.4 0"/>
<feBlend mode="normal" in2="BackgroundImageFix" result="effect1_dropShadow_10430_112767"/>
<feColorMatrix in="SourceAlpha" type="matrix" values="0 0 0 0 0 0 0 0 0 0 0 0 0 0 0 0 0 0 127 0" result="hardAlpha"/>
<feOffset/>
<feGaussianBlur stdDeviation="6"/>
<feColorMatrix type="matrix" values="0 0 0 0 0.145098 0 0 0 0 0.501961 0 0 0 0 0.980392 0 0 0 0.5 0"/>
<feBlend mode="normal" in2="effect1_dropShadow_10430_112767" result="effect2_dropShadow_10430_112767"/>
<feBlend mode="normal" in="SourceGraphic" in2="effect2_dropShadow_10430_112767" result="shape"/>
</filter>
<filter id="filter11_dd_10430_112767" x="172.8" y="0.799999" width="114.4" height="114.4" filterUnits="userSpaceOnUse" color-interpolation-filters="sRGB">
<feFlood flood-opacity="0" result="BackgroundImageFix"/>
<feColorMatrix in="SourceAlpha" type="matrix" values="0 0 0 0 0 0 0 0 0 0 0 0 0 0 0 0 0 0 127 0" result="hardAlpha"/>
<feOffset dy="5"/>
<feGaussianBlur stdDeviation="14.6"/>
<feColorMatrix type="matrix" values="0 0 0 0 0.178646 0 0 0 0 0.415406 0 0 0 0 0.875 0 0 0 0.4 0"/>
<feBlend mode="normal" in2="BackgroundImageFix" result="effect1_dropShadow_10430_112767"/>
<feColorMatrix in="SourceAlpha" type="matrix" values="0 0 0 0 0 0 0 0 0 0 0 0 0 0 0 0 0 0 127 0" result="hardAlpha"/>
<feOffset/>
<feGaussianBlur stdDeviation="6"/>
<feColorMatrix type="matrix" values="0 0 0 0 0.145098 0 0 0 0 0.501961 0 0 0 0 0.980392 0 0 0 0.5 0"/>
<feBlend mode="normal" in2="effect1_dropShadow_10430_112767" result="effect2_dropShadow_10430_112767"/>
<feBlend mode="normal" in="SourceGraphic" in2="effect2_dropShadow_10430_112767" result="shape"/>
</filter>
<filter id="filter12_dd_10430_112767" x="86.8" y="0.799999" width="114.4" height="114.4" filterUnits="userSpaceOnUse" color-interpolation-filters="sRGB">
<feFlood flood-opacity="0" result="BackgroundImageFix"/>
<feColorMatrix in="SourceAlpha" type="matrix" values="0 0 0 0 0 0 0 0 0 0 0 0 0 0 0 0 0 0 127 0" result="hardAlpha"/>
<feOffset dy="5"/>
<feGaussianBlur stdDeviation="14.6"/>
<feColorMatrix type="matrix" values="0 0 0 0 0.178646 0 0 0 0 0.415406 0 0 0 0 0.875 0 0 0 0.4 0"/>
<feBlend mode="normal" in2="BackgroundImageFix" result="effect1_dropShadow_10430_112767"/>
<feColorMatrix in="SourceAlpha" type="matrix" values="0 0 0 0 0 0 0 0 0 0 0 0 0 0 0 0 0 0 127 0" result="hardAlpha"/>
<feOffset/>
<feGaussianBlur stdDeviation="6"/>
<feColorMatrix type="matrix" values="0 0 0 0 0.145098 0 0 0 0 0.501961 0 0 0 0 0.980392 0 0 0 0.5 0"/>
<feBlend mode="normal" in2="effect1_dropShadow_10430_112767" result="effect2_dropShadow_10430_112767"/>
<feBlend mode="normal" in="SourceGraphic" in2="effect2_dropShadow_10430_112767" result="shape"/>
</filter>
<filter id="filter13_dd_10430_112767" x="0.799999" y="0.799999" width="114.4" height="114.4" filterUnits="userSpaceOnUse" color-interpolation-filters="sRGB">
<feFlood flood-opacity="0" result="BackgroundImageFix"/>
<feColorMatrix in="SourceAlpha" type="matrix" values="0 0 0 0 0 0 0 0 0 0 0 0 0 0 0 0 0 0 127 0" result="hardAlpha"/>
<feOffset dy="5"/>
<feGaussianBlur stdDeviation="14.6"/>
<feColorMatrix type="matrix" values="0 0 0 0 0.178646 0 0 0 0 0.415406 0 0 0 0 0.875 0 0 0 0.4 0"/>
<feBlend mode="normal" in2="BackgroundImageFix" result="effect1_dropShadow_10430_112767"/>
<feColorMatrix in="SourceAlpha" type="matrix" values="0 0 0 0 0 0 0 0 0 0 0 0 0 0 0 0 0 0 127 0" result="hardAlpha"/>
<feOffset/>
<feGaussianBlur stdDeviation="6"/>
<feColorMatrix type="matrix" values="0 0 0 0 0.145098 0 0 0 0 0.501961 0 0 0 0 0.980392 0 0 0 0.5 0"/>
<feBlend mode="normal" in2="effect1_dropShadow_10430_112767" result="effect2_dropShadow_10430_112767"/>
<feBlend mode="normal" in="SourceGraphic" in2="effect2_dropShadow_10430_112767" result="shape"/>
</filter>
<filter id="filter14_dd_10430_112767" x="258.8" y="402.8" width="114.4" height="114.4" filterUnits="userSpaceOnUse" color-interpolation-filters="sRGB">
<feFlood flood-opacity="0" result="BackgroundImageFix"/>
<feColorMatrix in="SourceAlpha" type="matrix" values="0 0 0 0 0 0 0 0 0 0 0 0 0 0 0 0 0 0 127 0" result="hardAlpha"/>
<feOffset dy="5"/>
<feGaussianBlur stdDeviation="14.6"/>
<feColorMatrix type="matrix" values="0 0 0 0 0.108611 0 0 0 0 0.566667 0 0 0 0 0.291833 0 0 0 0.22 0"/>
<feBlend mode="normal" in2="BackgroundImageFix" result="effect1_dropShadow_10430_112767"/>
<feColorMatrix in="SourceAlpha" type="matrix" values="0 0 0 0 0 0 0 0 0 0 0 0 0 0 0 0 0 0 127 0" result="hardAlpha"/>
<feOffset/>
<feGaussianBlur stdDeviation="6"/>
<feColorMatrix type="matrix" values="0 0 0 0 0.329412 0 0 0 0 0.776471 0 0 0 0 0.603922 0 0 0 0.5 0"/>
<feBlend mode="normal" in2="effect1_dropShadow_10430_112767" result="effect2_dropShadow_10430_112767"/>
<feBlend mode="normal" in="SourceGraphic" in2="effect2_dropShadow_10430_112767" result="shape"/>
</filter>
<filter id="filter15_dd_10430_112767" x="194.3" y="402.8" width="114.4" height="114.4" filterUnits="userSpaceOnUse" color-interpolation-filters="sRGB">
<feFlood flood-opacity="0" result="BackgroundImageFix"/>
<feColorMatrix in="SourceAlpha" type="matrix" values="0 0 0 0 0 0 0 0 0 0 0 0 0 0 0 0 0 0 127 0" result="hardAlpha"/>
<feOffset dy="5"/>
<feGaussianBlur stdDeviation="14.6"/>
<feColorMatrix type="matrix" values="0 0 0 0 0.108611 0 0 0 0 0.566667 0 0 0 0 0.291833 0 0 0 0.22 0"/>
<feBlend mode="normal" in2="BackgroundImageFix" result="effect1_dropShadow_10430_112767"/>
<feColorMatrix in="SourceAlpha" type="matrix" values="0 0 0 0 0 0 0 0 0 0 0 0 0 0 0 0 0 0 127 0" result="hardAlpha"/>
<feOffset/>
<feGaussianBlur stdDeviation="6"/>
<feColorMatrix type="matrix" values="0 0 0 0 0.329412 0 0 0 0 0.776471 0 0 0 0 0.603922 0 0 0 0.5 0"/>
<feBlend mode="normal" in2="effect1_dropShadow_10430_112767" result="effect2_dropShadow_10430_112767"/>
<feBlend mode="normal" in="SourceGraphic" in2="effect2_dropShadow_10430_112767" result="shape"/>
</filter>
<filter id="filter16_dd_10430_112767" x="129.8" y="402.8" width="114.4" height="114.4" filterUnits="userSpaceOnUse" color-interpolation-filters="sRGB">
<feFlood flood-opacity="0" result="BackgroundImageFix"/>
<feColorMatrix in="SourceAlpha" type="matrix" values="0 0 0 0 0 0 0 0 0 0 0 0 0 0 0 0 0 0 127 0" result="hardAlpha"/>
<feOffset dy="5"/>
<feGaussianBlur stdDeviation="14.6"/>
<feColorMatrix type="matrix" values="0 0 0 0 0.108611 0 0 0 0 0.566667 0 0 0 0 0.291833 0 0 0 0.22 0"/>
<feBlend mode="normal" in2="BackgroundImageFix" result="effect1_dropShadow_10430_112767"/>
<feColorMatrix in="SourceAlpha" type="matrix" values="0 0 0 0 0 0 0 0 0 0 0 0 0 0 0 0 0 0 127 0" result="hardAlpha"/>
<feOffset/>
<feGaussianBlur stdDeviation="6"/>
<feColorMatrix type="matrix" values="0 0 0 0 0.329412 0 0 0 0 0.776471 0 0 0 0 0.603922 0 0 0 0.5 0"/>
<feBlend mode="normal" in2="effect1_dropShadow_10430_112767" result="effect2_dropShadow_10430_112767"/>
<feBlend mode="normal" in="SourceGraphic" in2="effect2_dropShadow_10430_112767" result="shape"/>
</filter>
<filter id="filter17_dd_10430_112767" x="65.3" y="402.8" width="114.4" height="114.4" filterUnits="userSpaceOnUse" color-interpolation-filters="sRGB">
<feFlood flood-opacity="0" result="BackgroundImageFix"/>
<feColorMatrix in="SourceAlpha" type="matrix" values="0 0 0 0 0 0 0 0 0 0 0 0 0 0 0 0 0 0 127 0" result="hardAlpha"/>
<feOffset dy="5"/>
<feGaussianBlur stdDeviation="14.6"/>
<feColorMatrix type="matrix" values="0 0 0 0 0.108611 0 0 0 0 0.566667 0 0 0 0 0.291833 0 0 0 0.22 0"/>
<feBlend mode="normal" in2="BackgroundImageFix" result="effect1_dropShadow_10430_112767"/>
<feColorMatrix in="SourceAlpha" type="matrix" values="0 0 0 0 0 0 0 0 0 0 0 0 0 0 0 0 0 0 127 0" result="hardAlpha"/>
<feOffset/>
<feGaussianBlur stdDeviation="6"/>
<feColorMatrix type="matrix" values="0 0 0 0 0.329412 0 0 0 0 0.776471 0 0 0 0 0.603922 0 0 0 0.5 0"/>
<feBlend mode="normal" in2="effect1_dropShadow_10430_112767" result="effect2_dropShadow_10430_112767"/>
<feBlend mode="normal" in="SourceGraphic" in2="effect2_dropShadow_10430_112767" result="shape"/>
</filter>
<filter id="filter18_dd_10430_112767" x="0.799999" y="402.8" width="114.4" height="114.4" filterUnits="userSpaceOnUse" color-interpolation-filters="sRGB">
<feFlood flood-opacity="0" result="BackgroundImageFix"/>
<feColorMatrix in="SourceAlpha" type="matrix" values="0 0 0 0 0 0 0 0 0 0 0 0 0 0 0 0 0 0 127 0" result="hardAlpha"/>
<feOffset dy="5"/>
<feGaussianBlur stdDeviation="14.6"/>
<feColorMatrix type="matrix" values="0 0 0 0 0.108611 0 0 0 0 0.566667 0 0 0 0 0.291833 0 0 0 0.22 0"/>
<feBlend mode="normal" in2="BackgroundImageFix" result="effect1_dropShadow_10430_112767"/>
<feColorMatrix in="SourceAlpha" type="matrix" values="0 0 0 0 0 0 0 0 0 0 0 0 0 0 0 0 0 0 127 0" result="hardAlpha"/>
<feOffset/>
<feGaussianBlur stdDeviation="6"/>
<feColorMatrix type="matrix" values="0 0 0 0 0.329412 0 0 0 0 0.776471 0 0 0 0 0.603922 0 0 0 0.5 0"/>
<feBlend mode="normal" in2="effect1_dropShadow_10430_112767" result="effect2_dropShadow_10430_112767"/>
<feBlend mode="normal" in="SourceGraphic" in2="effect2_dropShadow_10430_112767" result="shape"/>
</filter>
<linearGradient id="paint0_linear_10430_112767" x1="113.5" y1="177.998" x2="113.5" y2="257.108" gradientUnits="userSpaceOnUse">
<stop stop-color="#FEC124"/>
<stop offset="0.744792" stop-color="#F0F4FA"/>
</linearGradient>
<linearGradient id="paint1_linear_10430_112767" x1="113.5" y1="336.217" x2="113.5" y2="257.107" gradientUnits="userSpaceOnUse">
<stop stop-color="#FEC124"/>
<stop offset="0.744792" stop-color="#F0F4FA"/>
</linearGradient>
<linearGradient id="paint2_linear_10430_112767" x1="70" y1="256.5" x2="157" y2="256.5" gradientUnits="userSpaceOnUse">
<stop stop-color="#FEC124"/>
<stop offset="0.614583" stop-color="#ECF0F6"/>
</linearGradient>
<linearGradient id="paint3_linear_10430_112767" x1="256" y1="169.217" x2="256" y2="257.108" gradientUnits="userSpaceOnUse">
<stop stop-color="#FF864F"/>
<stop offset="0.776042" stop-color="#F0F4FA"/>
</linearGradient>
<linearGradient id="paint4_linear_10430_112767" x1="256" y1="344.998" x2="256" y2="257.107" gradientUnits="userSpaceOnUse">
<stop stop-color="#FF864F"/>
<stop offset="0.776042" stop-color="#F0F4FA"/>
</linearGradient>
<linearGradient id="paint5_linear_10430_112767" x1="295" y1="256.607" x2="217" y2="256.607" gradientUnits="userSpaceOnUse">
<stop stop-color="#FF864F"/>
<stop offset="0.567708" stop-color="#ECF0F6"/>
</linearGradient>
<linearGradient id="paint6_linear_10430_112767" x1="318.199" y1="121.033" x2="188.522" y2="121.033" gradientUnits="userSpaceOnUse">
<stop stop-color="#57ACFF"/>
<stop offset="1" stop-color="#ECF0F6"/>
</linearGradient>
<linearGradient id="paint7_linear_10430_112767" x1="188.678" y1="151.61" x2="59.0003" y2="151.61" gradientUnits="userSpaceOnUse">
<stop stop-color="#ECF0F6"/>
<stop offset="1" stop-color="#61B1FE"/>
</linearGradient>
<linearGradient id="paint8_linear_10430_112767" x1="229.936" y1="138.108" x2="188.68" y2="138.108" gradientUnits="userSpaceOnUse">
<stop stop-color="#57ACFF"/>
<stop offset="1" stop-color="#ECF0F6"/>
</linearGradient>
<linearGradient id="paint9_linear_10430_112767" x1="147.424" y1="138.108" x2="188.68" y2="138.108" gradientUnits="userSpaceOnUse">
<stop stop-color="#57ACFF"/>
<stop offset="1" stop-color="#ECF0F6"/>
</linearGradient>
<linearGradient id="paint10_linear_10430_112767" x1="317" y1="386.393" x2="185.548" y2="386.393" gradientUnits="userSpaceOnUse">
<stop stop-color="#4AC19B"/>
<stop offset="1" stop-color="#ECF0F7"/>
</linearGradient>
<linearGradient id="paint11_linear_10430_112767" x1="54.0957" y1="386.392" x2="185.548" y2="386.392" gradientUnits="userSpaceOnUse">
<stop stop-color="#4AC19B"/>
<stop offset="1" stop-color="#ECF0F7"/>
</linearGradient>
<linearGradient id="paint12_linear_10430_112767" x1="185.311" y1="444.999" x2="185.311" y2="286" gradientUnits="userSpaceOnUse">
<stop stop-color="#4AC19B"/>
<stop offset="0.533211" stop-color="#F0F4FA"/>
</linearGradient>
<linearGradient id="paint13_linear_10430_112767" x1="250.865" y1="384.904" x2="185.344" y2="384.904" gradientUnits="userSpaceOnUse">
<stop stop-color="#4AC19B"/>
<stop offset="1" stop-color="#ECF0F7"/>
</linearGradient>
<linearGradient id="paint14_linear_10430_112767" x1="120.025" y1="384.904" x2="185.547" y2="384.904" gradientUnits="userSpaceOnUse">
<stop stop-color="#4AC19B"/>
<stop offset="1" stop-color="#ECF0F7"/>
</linearGradient>
<radialGradient id="paint15_radial_10430_112767" cx="0" cy="0" r="1" gradientUnits="userSpaceOnUse" gradientTransform="translate(327.383 162.963) rotate(134.775) scale(46.3368)">
<stop stop-color="#FFB26A"/>
<stop offset="1" stop-color="#FF7846"/>
</radialGradient>
<radialGradient id="paint16_radial_10430_112767" cx="0" cy="0" r="1" gradientUnits="userSpaceOnUse" gradientTransform="translate(319.674 172.471) rotate(130.333) scale(35.7339)">
<stop offset="0.760417" stop-color="#FA3D3D" stop-opacity="0"/>
<stop offset="1" stop-color="#2FD2E6" stop-opacity="0.34"/>
<stop offset="1" stop-color="#FFB26A" stop-opacity="0.34"/>
</radialGradient>
<radialGradient id="paint17_radial_10430_112767" cx="0" cy="0" r="1" gradientUnits="userSpaceOnUse" gradientTransform="translate(327.383 238.963) rotate(134.775) scale(46.3368)">
<stop stop-color="#FFB26A"/>
<stop offset="1" stop-color="#FF7846"/>
</radialGradient>
<radialGradient id="paint18_radial_10430_112767" cx="0" cy="0" r="1" gradientUnits="userSpaceOnUse" gradientTransform="translate(319.674 248.471) rotate(130.333) scale(35.7339)">
<stop offset="0.760417" stop-color="#FA3D3D" stop-opacity="0"/>
<stop offset="1" stop-color="#2FD2E6" stop-opacity="0.34"/>
<stop offset="1" stop-color="#FFB26A" stop-opacity="0.34"/>
</radialGradient>
<radialGradient id="paint19_radial_10430_112767" cx="0" cy="0" r="1" gradientUnits="userSpaceOnUse" gradientTransform="translate(327.383 314.963) rotate(134.775) scale(46.3368)">
<stop stop-color="#FFB26A"/>
<stop offset="1" stop-color="#FF7846"/>
</radialGradient>
<radialGradient id="paint20_radial_10430_112767" cx="0" cy="0" r="1" gradientUnits="userSpaceOnUse" gradientTransform="translate(319.674 324.471) rotate(130.333) scale(35.7339)">
<stop offset="0.760417" stop-color="#FA3D3D" stop-opacity="0"/>
<stop offset="1" stop-color="#2FD2E6" stop-opacity="0.34"/>
<stop offset="1" stop-color="#FFB26A" stop-opacity="0.34"/>
</radialGradient>
<radialGradient id="paint21_radial_10430_112767" cx="0" cy="0" r="1" gradientUnits="userSpaceOnUse" gradientTransform="translate(69.3834 162.963) rotate(134.775) scale(46.3368)">
<stop stop-color="#FFD67A"/>
<stop offset="1" stop-color="#FEBB10"/>
</radialGradient>
<radialGradient id="paint22_radial_10430_112767" cx="0" cy="0" r="1" gradientUnits="userSpaceOnUse" gradientTransform="translate(61.6741 172.471) rotate(130.333) scale(35.7339)">
<stop offset="0.760417" stop-color="#FA3D3D" stop-opacity="0"/>
<stop offset="1" stop-color="#FFF172" stop-opacity="0.34"/>
</radialGradient>
<radialGradient id="paint23_radial_10430_112767" cx="0" cy="0" r="1" gradientUnits="userSpaceOnUse" gradientTransform="translate(69.3834 238.963) rotate(134.775) scale(46.3368)">
<stop stop-color="#FFD67A"/>
<stop offset="1" stop-color="#FEBB10"/>
</radialGradient>
<radialGradient id="paint24_radial_10430_112767" cx="0" cy="0" r="1" gradientUnits="userSpaceOnUse" gradientTransform="translate(61.6741 248.471) rotate(130.333) scale(35.7339)">
<stop offset="0.760417" stop-color="#FA3D3D" stop-opacity="0"/>
<stop offset="1" stop-color="#FFF172" stop-opacity="0.34"/>
</radialGradient>
<radialGradient id="paint25_radial_10430_112767" cx="0" cy="0" r="1" gradientUnits="userSpaceOnUse" gradientTransform="translate(69.3834 314.963) rotate(134.775) scale(46.3368)">
<stop stop-color="#FFD67A"/>
<stop offset="1" stop-color="#FEBB10"/>
</radialGradient>
<radialGradient id="paint26_radial_10430_112767" cx="0" cy="0" r="1" gradientUnits="userSpaceOnUse" gradientTransform="translate(61.6741 324.471) rotate(130.333) scale(35.7339)">
<stop offset="0.760417" stop-color="#FA3D3D" stop-opacity="0"/>
<stop offset="1" stop-color="#FFF172" stop-opacity="0.34"/>
</radialGradient>
<radialGradient id="paint27_radial_10430_112767" cx="0" cy="0" r="1" gradientUnits="userSpaceOnUse" gradientTransform="translate(197.963 239.669) rotate(134.775) scale(43.2872)">
<stop stop-color="#53ACFF"/>
<stop offset="1" stop-color="#146FF8"/>
</radialGradient>
<radialGradient id="paint28_radial_10430_112767" cx="0" cy="0" r="1" gradientUnits="userSpaceOnUse" gradientTransform="translate(190.761 248.552) rotate(130.333) scale(33.3821)">
<stop offset="0.760417" stop-color="#3DB5FA" stop-opacity="0"/>
<stop offset="1" stop-color="#2FD2E6" stop-opacity="0.34"/>
</radialGradient>
<linearGradient id="paint29_linear_10430_112767" x1="232" y1="245.75" x2="198.106" y2="298.446" gradientUnits="userSpaceOnUse">
<stop stop-color="#229AFA"/>
<stop offset="1" stop-color="#1168F8"/>
</linearGradient>
<radialGradient id="paint30_radial_10430_112767" cx="0" cy="0" r="1" gradientUnits="userSpaceOnUse" gradientTransform="translate(327.362 36.9626) rotate(134.775) scale(46.3368)">
<stop stop-color="#5EB2FF"/>
<stop offset="1" stop-color="#146FF8"/>
</radialGradient>
<radialGradient id="paint31_radial_10430_112767" cx="0" cy="0" r="1" gradientUnits="userSpaceOnUse" gradientTransform="translate(319.653 46.4708) rotate(130.333) scale(35.7339)">
<stop offset="0.760417" stop-color="#3DB5FA" stop-opacity="0"/>
<stop offset="1" stop-color="#2FD2E6" stop-opacity="0.34"/>
</radialGradient>
<radialGradient id="paint32_radial_10430_112767" cx="0" cy="0" r="1" gradientUnits="userSpaceOnUse" gradientTransform="translate(241.362 36.9626) rotate(134.775) scale(46.3368)">
<stop stop-color="#5EB2FF"/>
<stop offset="1" stop-color="#146FF8"/>
</radialGradient>
<radialGradient id="paint33_radial_10430_112767" cx="0" cy="0" r="1" gradientUnits="userSpaceOnUse" gradientTransform="translate(233.653 46.4708) rotate(130.333) scale(35.7339)">
<stop offset="0.760417" stop-color="#3DB5FA" stop-opacity="0"/>
<stop offset="1" stop-color="#2FD2E6" stop-opacity="0.34"/>
</radialGradient>
<radialGradient id="paint34_radial_10430_112767" cx="0" cy="0" r="1" gradientUnits="userSpaceOnUse" gradientTransform="translate(155.362 36.9626) rotate(134.775) scale(46.3368)">
<stop stop-color="#5EB2FF"/>
<stop offset="1" stop-color="#146FF8"/>
</radialGradient>
<radialGradient id="paint35_radial_10430_112767" cx="0" cy="0" r="1" gradientUnits="userSpaceOnUse" gradientTransform="translate(147.653 46.4708) rotate(130.333) scale(35.7339)">
<stop offset="0.760417" stop-color="#3DB5FA" stop-opacity="0"/>
<stop offset="1" stop-color="#2FD2E6" stop-opacity="0.34"/>
</radialGradient>
<radialGradient id="paint36_radial_10430_112767" cx="0" cy="0" r="1" gradientUnits="userSpaceOnUse" gradientTransform="translate(69.362 36.9626) rotate(134.775) scale(46.3368)">
<stop stop-color="#5EB2FF"/>
<stop offset="1" stop-color="#146FF8"/>
</radialGradient>
<radialGradient id="paint37_radial_10430_112767" cx="0" cy="0" r="1" gradientUnits="userSpaceOnUse" gradientTransform="translate(61.6526 46.4708) rotate(130.333) scale(35.7339)">
<stop offset="0.760417" stop-color="#3DB5FA" stop-opacity="0"/>
<stop offset="1" stop-color="#2FD2E6" stop-opacity="0.34"/>
</radialGradient>
<radialGradient id="paint38_radial_10430_112767" cx="0" cy="0" r="1" gradientUnits="userSpaceOnUse" gradientTransform="translate(327.362 438.963) rotate(134.775) scale(46.3368)">
<stop stop-color="#A0F5C6"/>
<stop offset="1" stop-color="#41BA8E"/>
</radialGradient>
<radialGradient id="paint39_radial_10430_112767" cx="0" cy="0" r="1" gradientUnits="userSpaceOnUse" gradientTransform="translate(319.653 448.471) rotate(130.333) scale(35.7339)">
<stop offset="0.760417" stop-color="#3D5BFA" stop-opacity="0"/>
<stop offset="1" stop-color="#8AE9B5" stop-opacity="0.34"/>
</radialGradient>
<radialGradient id="paint40_radial_10430_112767" cx="0" cy="0" r="1" gradientUnits="userSpaceOnUse" gradientTransform="translate(262.862 438.963) rotate(134.775) scale(46.3368)">
<stop stop-color="#A0F5C6"/>
<stop offset="1" stop-color="#41BA8E"/>
</radialGradient>
<radialGradient id="paint41_radial_10430_112767" cx="0" cy="0" r="1" gradientUnits="userSpaceOnUse" gradientTransform="translate(255.153 448.471) rotate(130.333) scale(35.7339)">
<stop offset="0.760417" stop-color="#3D5BFA" stop-opacity="0"/>
<stop offset="1" stop-color="#8AE9B5" stop-opacity="0.34"/>
</radialGradient>
<radialGradient id="paint42_radial_10430_112767" cx="0" cy="0" r="1" gradientUnits="userSpaceOnUse" gradientTransform="translate(198.362 438.963) rotate(134.775) scale(46.3368)">
<stop stop-color="#A0F5C6"/>
<stop offset="1" stop-color="#41BA8E"/>
</radialGradient>
<radialGradient id="paint43_radial_10430_112767" cx="0" cy="0" r="1" gradientUnits="userSpaceOnUse" gradientTransform="translate(190.653 448.471) rotate(130.333) scale(35.7339)">
<stop offset="0.760417" stop-color="#3D5BFA" stop-opacity="0"/>
<stop offset="1" stop-color="#8AE9B5" stop-opacity="0.34"/>
</radialGradient>
<radialGradient id="paint44_radial_10430_112767" cx="0" cy="0" r="1" gradientUnits="userSpaceOnUse" gradientTransform="translate(133.862 438.963) rotate(134.775) scale(46.3368)">
<stop stop-color="#A0F5C6"/>
<stop offset="1" stop-color="#41BA8E"/>
</radialGradient>
<radialGradient id="paint45_radial_10430_112767" cx="0" cy="0" r="1" gradientUnits="userSpaceOnUse" gradientTransform="translate(126.153 448.471) rotate(130.333) scale(35.7339)">
<stop offset="0.760417" stop-color="#3D5BFA" stop-opacity="0"/>
<stop offset="1" stop-color="#8AE9B5" stop-opacity="0.34"/>
</radialGradient>
<radialGradient id="paint46_radial_10430_112767" cx="0" cy="0" r="1" gradientUnits="userSpaceOnUse" gradientTransform="translate(69.362 438.963) rotate(134.775) scale(46.3368)">
<stop stop-color="#A0F5C6"/>
<stop offset="1" stop-color="#41BA8E"/>
</radialGradient>
<radialGradient id="paint47_radial_10430_112767" cx="0" cy="0" r="1" gradientUnits="userSpaceOnUse" gradientTransform="translate(61.6526 448.471) rotate(130.333) scale(35.7339)">
<stop offset="0.760417" stop-color="#3D5BFA" stop-opacity="0"/>
<stop offset="1" stop-color="#8AE9B5" stop-opacity="0.34"/>
</radialGradient>
<clipPath id="clip0_10430_112767">
<rect width="22.6141" height="22.6141" fill="white" transform="translate(46.9609 319.791)"/>
</clipPath>
<clipPath id="clip1_10430_112767">
<rect width="22.6141" height="22.6142" fill="white" transform="translate(304.58 41.5029)"/>
</clipPath>
<clipPath id="clip2_10430_112767">
<rect width="22.6141" height="22.6142" fill="white" transform="translate(218.559 41.5029)"/>
</clipPath>
</defs>
</svg>
