<svg width="222" height="201" viewBox="0 0 222 201" fill="none" xmlns="http://www.w3.org/2000/svg">
	<g clip-path="url(#clip0_8880_65456)">
		<ellipse opacity="0.06" cx="110.638" cy="115.49" rx="85.1064" ry="85.1064" fill="url(#paint0_linear_8880_65456)" />
		<path d="M94.7373 26.9677C96.5982 36.2721 105.684 42.2926 114.879 40.4318C124.074 38.5709 130.313 29.3759 128.452 20.0715C126.591 10.767 117.506 4.74653 108.311 6.60741C99.0064 8.4683 92.8765 17.6633 94.7373 26.9677Z" fill="#313134" />
		<path d="M97.9125 42.4023C99.445 49.9553 106.779 54.7717 114.223 53.2392C121.666 51.7067 126.592 44.3727 125.06 36.8197C123.527 29.2667 116.193 24.4503 108.749 25.9827C101.306 27.4058 96.38 34.7399 97.9125 42.4023Z" fill="url(#paint1_linear_8880_65456)" />
		<path d="M100.101 89.0337C84.4477 82.6848 77.0042 64.7327 83.3531 49.0794C89.702 33.426 107.545 25.873 123.198 32.3314C138.851 38.6803 146.295 56.6324 139.946 72.2857C133.597 87.9391 115.754 95.3826 100.101 89.0337Z" fill="#313134" />
		<path d="M136.991 74.2556C137.976 65.9364 137.538 59.1496 137.538 59.1496C137.538 59.1496 135.677 38.3515 111.923 38.4609C85.9805 38.4609 85.7615 59.1496 85.7615 59.1496C85.7615 59.1496 85.3237 65.8269 86.4183 74.0367V73.9272C86.4183 73.9272 81.7114 70.2055 78.2085 74.6935C72.9543 81.2613 81.8209 93.0834 89.8117 87.6102C92.4388 94.5064 96.9269 100.636 104.042 103.482L101.962 125.156L73.9395 135.118C73.9395 135.118 82.9155 147.925 111.704 147.925C140.493 147.925 143.887 136.869 143.887 136.869L121.337 125.813L120.024 103.92C127.248 101.293 131.517 94.8348 134.145 87.6102C142.135 93.3023 151.111 81.4802 145.857 74.8029C142.683 70.8622 137.976 73.5988 136.991 74.2556Z" fill="#F4D8C8" />
		<path d="M81.6016 78.4157C81.6016 78.4157 84.2287 77.6494 87.0748 83.1226" stroke="#B7A089" stroke-width="1.27743" stroke-miterlimit="10" stroke-linecap="round" stroke-linejoin="round" />
		<path d="M142.245 78.4157C142.245 78.4157 139.618 77.6494 136.771 83.1226" stroke="#B7A089" stroke-width="1.27743" stroke-miterlimit="10" stroke-linecap="round" stroke-linejoin="round" />
		<path d="M114.222 79.6202V83.123H112.252" stroke="#B7A089" stroke-width="1.27743" stroke-miterlimit="10" stroke-linecap="round" stroke-linejoin="round" />
		<path d="M119.587 34.1927C119.587 34.1927 110.83 60.3546 85.8719 58.8221C85.8719 58.8221 80.5081 25.4356 119.587 34.1927Z" fill="#313134" />
		<path d="M105.684 34.1923C105.684 34.1923 114.441 60.3542 139.398 58.8217C139.508 58.8217 137.975 24.2311 105.684 34.1923Z" fill="#313134" />
		<path d="M123.966 83.123C128.621 83.123 132.395 79.3493 132.395 74.6943C132.395 70.0392 128.621 66.2656 123.966 66.2656C119.311 66.2656 115.537 70.0392 115.537 74.6943C115.537 79.3493 119.311 83.123 123.966 83.123Z" stroke="#313134" stroke-width="2.73735" />
		<path d="M102.181 83.123C106.836 83.123 110.609 79.3493 110.609 74.6943C110.609 70.0392 106.836 66.2656 102.181 66.2656C97.5256 66.2656 93.752 70.0392 93.752 74.6943C93.752 79.3493 97.5256 83.123 102.181 83.123Z" stroke="#313134" stroke-width="2.73735" />
		<path d="M115.318 74.2567H111.158" stroke="#313134" stroke-width="2.73735" />
		<path d="M115.426 105.234C114.988 105.563 102.729 116.181 102.729 116.181L103.933 103.483C108.421 105.015 110.938 105.453 115.426 105.234Z" fill="#CAB59F" />
		<path d="M114.836 89.9454C114.006 89.4659 111.097 89.09 109.246 90.0394" stroke="#B7A089" stroke-width="1.27743" stroke-linecap="round" />
		<path d="M106.902 62.4566C106.902 62.4566 107.888 64.7499 104.124 65.4999C101.198 65.9113 97.727 67.1728 96.162 67.8349C95.31 68.0652 94.1955 68.0007 93.6553 67.3029C93.2387 66.6982 93.1625 66.1562 93.752 65.6312C94.7141 64.6116 98.1881 61.8021 101.765 61.2993C105.932 60.2716 106.902 62.4566 106.902 62.4566Z" fill="#313134" />
		<path d="M119.129 62.566C119.129 62.566 118.144 64.8594 121.907 65.6094C124.834 66.0207 128.304 67.2822 129.869 67.9443C130.721 68.1746 131.836 68.1102 132.376 67.4123C132.793 66.8076 132.869 66.2656 132.279 65.7406C131.317 64.7211 127.843 61.9115 124.266 61.4088C119.991 60.3658 119.129 62.566 119.129 62.566Z" fill="#313134" />
		<circle cx="102.127" cy="74.355" r="1.41844" fill="#313134" />
		<circle cx="123.405" cy="74.355" r="1.41844" fill="#313134" />
		<path d="M146.809 126.732C142.243 122.954 127.502 124.431 120.605 126.732C117.013 127.683 114.168 124.545 110.976 124.552C108.083 124.559 104.906 127.813 100.63 126.732C93.6142 125.279 81.5613 122.638 75.8876 124.552C70.2138 126.467 58.8661 155.915 54.6108 163.008C54.6108 163.613 53.9015 156.625 53.1923 155.206C49.3235 162.592 42.6927 161.274 38.2988 160.921C45.8601 172.462 50.8095 177.33 60.2846 184.542C68.6114 175.588 76.7264 160.876 79.4333 155.206C80.0631 162.902 82.0351 182.374 83.2957 196.341C104.095 201.932 115.909 203.48 137.927 196.341C138.734 180.983 139.008 159.22 139.008 155.915C140.444 162.495 147.391 179.487 153.55 189.249C162.409 184.259 167.158 180.35 175.262 171.518C176.037 167.55 176.695 163.81 177.306 160.88C167.603 159.427 160.284 155.206 159.575 154.497L158.866 158.752C157.448 153.079 152.517 131.453 146.809 126.732Z" fill="url(#paint2_linear_8880_65456)" />
		<path d="M95.1758 126.689C100.43 144.86 105.684 160.732 110.282 175.401C113.894 157.777 120.462 140.7 127.03 126.689" stroke="#313134" stroke-width="1.8249" stroke-miterlimit="10" stroke-linejoin="bevel" />
		<path d="M118.929 194.666L102.728 196.089C101.962 190.835 102.181 183.501 102.728 175.401L118.929 173.977C118.929 180.655 118.272 187.223 118.929 194.666Z" fill="white" />
		<ellipse rx="2.85308" ry="2.85308" transform="matrix(0.999474 -0.032405 0.0376007 0.999292 109.957 181.072)" fill="url(#paint3_linear_8880_65456)" />
		<g style="mix-blend-mode:multiply">
			<path d="M112.691 178.136C112.691 178.136 112.691 178.136 112.691 178.136C111.122 178.187 109.898 179.504 109.958 181.077C110.017 182.65 111.337 183.884 112.906 183.834C112.922 183.833 112.939 183.833 112.956 183.832L112.906 183.834L112.691 178.136Z" fill="url(#paint4_linear_8880_65456)" />
		</g>
		<path d="M116.303 187.332L104.152 188.536V186.456L116.303 185.143V187.332Z" fill="url(#paint5_linear_8880_65456)" fill-opacity="0.1" />
		<path d="M116.303 191.054L104.152 192.367V190.287L116.303 188.974V191.054Z" fill="url(#paint6_linear_8880_65456)" fill-opacity="0.1" />
		<path d="M99.5549 117.276L92.1113 124.5C97.4751 131.396 102.948 135.228 106.67 135.228L111.049 123.843C106.561 123.953 103.715 120.997 99.5549 117.276Z" fill="white" />
		<path d="M122.543 117.275L129.986 124.5C124.622 131.396 119.149 135.227 115.427 135.227L111.049 123.843C115.537 123.953 118.383 120.997 122.543 117.275Z" fill="white" />
		<path d="M158.866 160.171C157.684 163.48 155.32 172.227 155.32 175.064" stroke="black" stroke-opacity="0.3" stroke-width="0.912451" />
		<path d="M54.814 162.801C55.2666 166.286 55.72 175.335 55.1178 178.108" stroke="black" stroke-opacity="0.3" stroke-width="0.912451" />
		<path d="M168.404 110.543L170.07 114.569C167.375 128.965 162.411 145.277 160.283 154.497C158.154 163.716 174.467 162.298 177.304 160.879C179.432 143.149 180.906 125.448 180.858 114.075C180.315 110.512 185.722 110.07 192.066 106.944C198.411 103.817 208.213 94.636 209.435 93.5372C210.412 92.6582 209.258 90.259 208.559 89.1693C209.196 89.2097 210.568 88.9829 210.953 87.7527C211.435 86.2149 208.448 84.8497 205.288 86.2179C203.53 84.852 200.614 87.2289 199.375 88.588C198.898 88.035 197.282 87.6713 194.635 90.6402C191.327 94.3514 187.327 96.8425 185.365 97.5023C183.402 98.1622 187.167 93.3039 187.748 90.2042C188.328 87.1045 186.489 85.812 184.835 87.6675C183.181 89.5231 180.822 96.4307 172.564 99.4364C165.958 101.841 167.038 107.842 168.404 110.543Z" fill="#F4D8C8" />
		<path d="M46.8531 111.124L45.0523 115.092C47.26 129.571 51.6722 146.041 53.4886 155.327C54.9677 162.888 44.4644 162.988 39.0067 161.948L35.8881 156.624C34.5935 140.386 33.8917 124.639 34.2868 114.235C34.9493 110.693 29.5608 110.069 23.325 106.73C17.0892 103.391 7.60261 93.8854 6.41824 92.746C5.47073 91.8346 6.70523 89.4757 7.44092 88.4102C6.80218 88.429 5.43882 88.1561 5.09526 86.9136C4.66582 85.3605 7.69711 84.0967 10.8093 85.5706C12.6119 84.2647 15.4467 86.7384 16.6387 88.1385C17.1343 87.602 18.7618 87.2929 21.3069 90.3493C24.4884 94.1698 28.4016 96.7942 30.3409 97.5198C32.2803 98.2454 28.6809 93.2631 28.2053 90.1456C27.7297 87.0281 29.6112 85.7982 31.2019 87.7085C32.7927 89.6187 34.9169 96.6019 43.0689 99.8841C49.5906 102.51 48.309 108.471 46.8531 111.124Z" fill="#F4D8C8" />
	</g>
	<defs>
		<linearGradient id="paint0_linear_8880_65456" x1="25.5313" y1="30.3834" x2="191.142" y2="27.5563" gradientUnits="userSpaceOnUse">
			<stop stop-color="#229AFA" />
			<stop offset="1" stop-color="#1168F8" />
		</linearGradient>
		<linearGradient id="paint1_linear_8880_65456" x1="97.6328" y1="25.6986" x2="124.59" y2="25.2404" gradientUnits="userSpaceOnUse">
			<stop stop-color="#229AFA" />
			<stop offset="1" stop-color="#1168F8" />
		</linearGradient>
		<linearGradient id="paint2_linear_8880_65456" x1="38.2988" y1="123.881" x2="173.459" y2="119.729" gradientUnits="userSpaceOnUse">
			<stop stop-color="#229AFA" />
			<stop offset="1" stop-color="#1168F8" />
		</linearGradient>
		<linearGradient id="paint3_linear_8880_65456" x1="0" y1="0" x2="5.55188" y2="-0.094773" gradientUnits="userSpaceOnUse">
			<stop stop-color="#229AFA" />
			<stop offset="1" stop-color="#1168F8" />
		</linearGradient>
		<linearGradient id="paint4_linear_8880_65456" x1="109.947" y1="178.129" x2="112.859" y2="178.094" gradientUnits="userSpaceOnUse">
			<stop stop-color="#229AFA" />
			<stop offset="1" stop-color="#1168F8" />
		</linearGradient>
		<linearGradient id="paint5_linear_8880_65456" x1="104.152" y1="185.143" x2="115.934" y2="184.422" gradientUnits="userSpaceOnUse">
			<stop stop-color="#229AFA" />
			<stop offset="1" stop-color="#1168F8" />
		</linearGradient>
		<linearGradient id="paint6_linear_8880_65456" x1="104.152" y1="188.974" x2="115.934" y2="188.254" gradientUnits="userSpaceOnUse">
			<stop stop-color="#229AFA" />
			<stop offset="1" stop-color="#1168F8" />
		</linearGradient>
		<clipPath id="clip0_8880_65456">
			<rect width="221.277" height="200" fill="white" transform="translate(0 0.59613)" />
		</clipPath>
	</defs>
</svg>
