<svg width="259" height="50" viewBox="0 0 259 50" fill="none" xmlns="http://www.w3.org/2000/svg">
<g clip-path="url(#clip0_9658_75074)">
<path d="M26.6641 26.4447V50.0002L47.0664 38.2213V14.665L26.6641 26.4447Z" fill="url(#paint0_linear_9658_75074)"/>
<path d="M47.0664 14.665L26.6641 26.4447V50.0002" fill="url(#paint1_linear_9658_75074)"/>
<path d="M45.4039 11.7789L25 0L4.59766 11.7789V11.7828L25 23.5625L45.4039 11.7828V11.7789Z" fill="url(#paint2_linear_9658_75074)"/>
<path d="M4.59766 11.7793V11.7833L25 23.5629L45.4039 11.7833V11.7793" fill="url(#paint3_linear_9658_75074)"/>
<path d="M23.3356 26.4447L2.93164 14.665V38.2213L23.3356 50.0002V26.4447Z" fill="url(#paint4_linear_9658_75074)"/>
<path d="M23.3356 50.0002V26.4447L2.93164 14.665" fill="url(#paint5_linear_9658_75074)"/>
</g>
<path d="M83.6 20.45L77.525 32.2V38H73.25V32.2L67.175 20.45H72.025L75.425 27.8L78.8 20.45H83.6ZM91.8225 38.2C90.4558 38.2 89.2225 37.9083 88.1225 37.325C87.0391 36.7417 86.1808 35.9083 85.5475 34.825C84.9308 33.7417 84.6225 32.475 84.6225 31.025C84.6225 29.5917 84.9391 28.3333 85.5725 27.25C86.2058 26.15 87.0725 25.3083 88.1725 24.725C89.2725 24.1417 90.5058 23.85 91.8725 23.85C93.2391 23.85 94.4725 24.1417 95.5725 24.725C96.6725 25.3083 97.5391 26.15 98.1725 27.25C98.8058 28.3333 99.1225 29.5917 99.1225 31.025C99.1225 32.4583 98.7975 33.725 98.1475 34.825C97.5141 35.9083 96.6391 36.7417 95.5225 37.325C94.4225 37.9083 93.1891 38.2 91.8225 38.2ZM91.8225 34.5C92.6391 34.5 93.3308 34.2 93.8975 33.6C94.4808 33 94.7725 32.1417 94.7725 31.025C94.7725 29.9083 94.4891 29.05 93.9225 28.45C93.3725 27.85 92.6891 27.55 91.8725 27.55C91.0391 27.55 90.3475 27.85 89.7975 28.45C89.2475 29.0333 88.9725 29.8917 88.9725 31.025C88.9725 32.1417 89.2391 33 89.7725 33.6C90.3225 34.2 91.0058 34.5 91.8225 34.5ZM115.315 24.05V38H111.04V36.1C110.607 36.7167 110.015 37.2167 109.265 37.6C108.532 37.9667 107.715 38.15 106.815 38.15C105.749 38.15 104.807 37.9167 103.99 37.45C103.174 36.9667 102.54 36.275 102.09 35.375C101.64 34.475 101.415 33.4167 101.415 32.2V24.05H105.665V31.625C105.665 32.5583 105.907 33.2833 106.39 33.8C106.874 34.3167 107.524 34.575 108.34 34.575C109.174 34.575 109.832 34.3167 110.315 33.8C110.799 33.2833 111.04 32.5583 111.04 31.625V24.05H115.315ZM122.811 26.375C123.311 25.6083 123.936 25.0083 124.686 24.575C125.436 24.125 126.269 23.9 127.186 23.9V28.425H126.011C124.944 28.425 124.144 28.6583 123.611 29.125C123.078 29.575 122.811 30.375 122.811 31.525V38H118.536V24.05H122.811V26.375ZM133.977 31.025C133.977 29.575 134.269 28.3083 134.852 27.225C135.452 26.1417 136.277 25.3083 137.327 24.725C138.394 24.1417 139.611 23.85 140.977 23.85C142.727 23.85 144.186 24.3083 145.352 25.225C146.536 26.1417 147.311 27.4333 147.677 29.1H143.127C142.744 28.0333 142.002 27.5 140.902 27.5C140.119 27.5 139.494 27.8083 139.027 28.425C138.561 29.025 138.327 29.8917 138.327 31.025C138.327 32.1583 138.561 33.0333 139.027 33.65C139.494 34.25 140.119 34.55 140.902 34.55C142.002 34.55 142.744 34.0167 143.127 32.95H147.677C147.311 34.5833 146.536 35.8667 145.352 36.8C144.169 37.7333 142.711 38.2 140.977 38.2C139.611 38.2 138.394 37.9083 137.327 37.325C136.277 36.7417 135.452 35.9083 134.852 34.825C134.269 33.7417 133.977 32.475 133.977 31.025ZM156.464 38.2C155.097 38.2 153.864 37.9083 152.764 37.325C151.681 36.7417 150.822 35.9083 150.189 34.825C149.572 33.7417 149.264 32.475 149.264 31.025C149.264 29.5917 149.581 28.3333 150.214 27.25C150.847 26.15 151.714 25.3083 152.814 24.725C153.914 24.1417 155.147 23.85 156.514 23.85C157.881 23.85 159.114 24.1417 160.214 24.725C161.314 25.3083 162.181 26.15 162.814 27.25C163.447 28.3333 163.764 29.5917 163.764 31.025C163.764 32.4583 163.439 33.725 162.789 34.825C162.156 35.9083 161.281 36.7417 160.164 37.325C159.064 37.9083 157.831 38.2 156.464 38.2ZM156.464 34.5C157.281 34.5 157.972 34.2 158.539 33.6C159.122 33 159.414 32.1417 159.414 31.025C159.414 29.9083 159.131 29.05 158.564 28.45C158.014 27.85 157.331 27.55 156.514 27.55C155.681 27.55 154.989 27.85 154.439 28.45C153.889 29.0333 153.614 29.8917 153.614 31.025C153.614 32.1417 153.881 33 154.414 33.6C154.964 34.2 155.647 34.5 156.464 34.5ZM183.982 23.9C185.715 23.9 187.09 24.425 188.107 25.475C189.14 26.525 189.657 27.9833 189.657 29.85V38H185.407V30.425C185.407 29.525 185.165 28.8333 184.682 28.35C184.215 27.85 183.565 27.6 182.732 27.6C181.899 27.6 181.24 27.85 180.757 28.35C180.29 28.8333 180.057 29.525 180.057 30.425V38H175.807V30.425C175.807 29.525 175.565 28.8333 175.082 28.35C174.615 27.85 173.965 27.6 173.132 27.6C172.299 27.6 171.64 27.85 171.157 28.35C170.69 28.8333 170.457 29.525 170.457 30.425V38H166.182V24.05H170.457V25.8C170.89 25.2167 171.457 24.7583 172.157 24.425C172.857 24.075 173.649 23.9 174.532 23.9C175.582 23.9 176.515 24.125 177.332 24.575C178.165 25.025 178.815 25.6667 179.282 26.5C179.765 25.7333 180.424 25.1083 181.257 24.625C182.09 24.1417 182.999 23.9 183.982 23.9ZM197.072 26.025C197.489 25.375 198.064 24.85 198.797 24.45C199.53 24.05 200.389 23.85 201.372 23.85C202.522 23.85 203.564 24.1417 204.497 24.725C205.43 25.3083 206.164 26.1417 206.697 27.225C207.247 28.3083 207.522 29.5667 207.522 31C207.522 32.4333 207.247 33.7 206.697 34.8C206.164 35.8833 205.43 36.725 204.497 37.325C203.564 37.9083 202.522 38.2 201.372 38.2C200.405 38.2 199.547 38 198.797 37.6C198.064 37.2 197.489 36.6833 197.072 36.05V44.65H192.797V24.05H197.072V26.025ZM203.172 31C203.172 29.9333 202.872 29.1 202.272 28.5C201.689 27.8833 200.964 27.575 200.097 27.575C199.247 27.575 198.522 27.8833 197.922 28.5C197.339 29.1167 197.047 29.9583 197.047 31.025C197.047 32.0917 197.339 32.9333 197.922 33.55C198.522 34.1667 199.247 34.475 200.097 34.475C200.947 34.475 201.672 34.1667 202.272 33.55C202.872 32.9167 203.172 32.0667 203.172 31ZM209.065 31C209.065 29.5667 209.331 28.3083 209.865 27.225C210.415 26.1417 211.156 25.3083 212.09 24.725C213.023 24.1417 214.065 23.85 215.215 23.85C216.198 23.85 217.056 24.05 217.79 24.45C218.54 24.85 219.115 25.375 219.515 26.025V24.05H223.79V38H219.515V36.025C219.098 36.675 218.515 37.2 217.765 37.6C217.031 38 216.173 38.2 215.19 38.2C214.056 38.2 213.023 37.9083 212.09 37.325C211.156 36.725 210.415 35.8833 209.865 34.8C209.331 33.7 209.065 32.4333 209.065 31ZM219.515 31.025C219.515 29.9583 219.215 29.1167 218.615 28.5C218.031 27.8833 217.315 27.575 216.465 27.575C215.615 27.575 214.89 27.8833 214.29 28.5C213.706 29.1 213.415 29.9333 213.415 31C213.415 32.0667 213.706 32.9167 214.29 33.55C214.89 34.1667 215.615 34.475 216.465 34.475C217.315 34.475 218.031 34.1667 218.615 33.55C219.215 32.9333 219.515 32.0917 219.515 31.025ZM235.532 23.9C237.166 23.9 238.466 24.4333 239.432 25.5C240.416 26.55 240.907 28 240.907 29.85V38H236.657V30.425C236.657 29.4917 236.416 28.7667 235.932 28.25C235.449 27.7333 234.799 27.475 233.982 27.475C233.166 27.475 232.516 27.7333 232.032 28.25C231.549 28.7667 231.307 29.4917 231.307 30.425V38H227.032V24.05H231.307V25.9C231.741 25.2833 232.324 24.8 233.057 24.45C233.791 24.0833 234.616 23.9 235.532 23.9ZM258.278 24.05L249.528 44.625H244.928L248.128 37.525L242.453 24.05H247.228L250.453 32.775L253.653 24.05H258.278Z" fill="#313134"/>
<defs>
<linearGradient id="paint0_linear_9658_75074" x1="36.8652" y1="68.8842" x2="36.8652" y2="9.42507" gradientUnits="userSpaceOnUse">
<stop stop-color="#29D3DA"/>
<stop offset="0.519" stop-color="#0077FF"/>
<stop offset="0.999" stop-color="#064093"/>
<stop offset="1" stop-color="#084698"/>
</linearGradient>
<linearGradient id="paint1_linear_9658_75074" x1="18.7969" y1="14.2657" x2="37.6445" y2="33.1133" gradientUnits="userSpaceOnUse">
<stop stop-color="#29D3DA"/>
<stop offset="0.519" stop-color="#0077FF"/>
<stop offset="0.999" stop-color="#064093"/>
<stop offset="1" stop-color="#084698"/>
</linearGradient>
<linearGradient id="paint2_linear_9658_75074" x1="25.0008" y1="-14.4516" x2="25.0008" y2="30.2591" gradientUnits="userSpaceOnUse">
<stop offset="0.012" stop-color="#E0B386"/>
<stop offset="0.519" stop-color="#DA498C"/>
<stop offset="1" stop-color="#961484"/>
</linearGradient>
<linearGradient id="paint3_linear_9658_75074" x1="25.0008" y1="4.55269" x2="25.0008" y2="26.912" gradientUnits="userSpaceOnUse">
<stop offset="0.012" stop-color="#E0B386"/>
<stop offset="0.519" stop-color="#DA498C"/>
<stop offset="1" stop-color="#961484"/>
</linearGradient>
<linearGradient id="paint4_linear_9658_75074" x1="13.1336" y1="68.8842" x2="13.1336" y2="9.42507" gradientUnits="userSpaceOnUse">
<stop stop-color="#29D3DA"/>
<stop offset="0.519" stop-color="#0077FF"/>
<stop offset="0.999" stop-color="#064093"/>
<stop offset="1" stop-color="#084698"/>
</linearGradient>
<linearGradient id="paint5_linear_9658_75074" x1="32.1157" y1="15.9662" x2="10.8267" y2="34.3232" gradientUnits="userSpaceOnUse">
<stop stop-color="#29D3DA"/>
<stop offset="0.519" stop-color="#0077FF"/>
<stop offset="0.999" stop-color="#064093"/>
<stop offset="1" stop-color="#084698"/>
</linearGradient>
<clipPath id="clip0_9658_75074">
<rect width="50" height="50" fill="white"/>
</clipPath>
</defs>
</svg>
