<?xml version="1.0" standalone="no"?>
<!DOCTYPE svg PUBLIC "-//W3C//DTD SVG 20010904//EN"
 "http://www.w3.org/TR/2001/REC-SVG-20010904/DTD/svg10.dtd">
<svg version="1.0" xmlns="http://www.w3.org/2000/svg"
 width="992.000000pt" height="992.000000pt" viewBox="0 0 992.000000 992.000000"
 preserveAspectRatio="xMidYMid meet">
<metadata>
Created by potrace 1.14, written by Peter Selinger 2001-2017
</metadata>
<g transform="translate(0.000000,992.000000) scale(0.100000,-0.100000)"
fill="#000000" stroke="none">
<path d="M4538 9755 c-2 -1 -43 -6 -93 -9 -49 -4 -103 -9 -120 -11 -16 -2 -57
-6 -90 -10 -33 -3 -71 -7 -85 -9 -14 -3 -43 -7 -65 -10 -44 -6 -80 -14 -80
-16 0 -1 -16 -3 -35 -4 -19 -2 -60 -8 -90 -14 -30 -7 -64 -14 -75 -16 -22 -5
-160 -37 -212 -50 -10 -3 -52 -15 -93 -26 -41 -12 -82 -23 -90 -25 -8 -2 -42
-13 -75 -25 -33 -11 -64 -22 -70 -24 -65 -18 -101 -32 -106 -39 -3 -5 -8 -8
-10 -6 -5 3 -70 -19 -116 -38 -18 -7 -35 -13 -38 -13 -3 0 -20 -7 -38 -17 -17
-9 -34 -18 -37 -18 -12 -4 -50 -20 -125 -55 -44 -21 -84 -39 -90 -41 -5 -2
-43 -21 -82 -42 -40 -20 -75 -36 -77 -35 -2 2 -12 -4 -22 -13 -11 -9 -48 -31
-84 -50 -35 -19 -69 -37 -75 -42 -20 -15 -136 -87 -140 -87 -7 0 -140 -94
-147 -105 -4 -5 -8 -6 -8 -2 0 6 -56 -31 -105 -71 -5 -4 -37 -28 -70 -52 -33
-25 -62 -47 -65 -50 -3 -3 -27 -24 -55 -45 -27 -22 -55 -44 -61 -50 -6 -5 -38
-32 -70 -60 -70 -59 -371 -358 -435 -431 -24 -28 -55 -64 -69 -80 -14 -16 -52
-63 -85 -104 -33 -41 -66 -81 -73 -88 -6 -7 -12 -17 -12 -20 0 -4 -10 -19 -23
-32 -35 -41 -233 -331 -250 -370 -4 -8 -16 -28 -26 -45 -11 -16 -28 -46 -39
-65 -11 -19 -30 -53 -43 -75 -42 -74 -199 -397 -203 -420 -1 -5 -8 -21 -16
-35 -8 -14 -13 -29 -12 -34 2 -5 -1 -12 -5 -15 -10 -8 -34 -71 -96 -256 -27
-82 -52 -157 -55 -165 -8 -23 -31 -102 -38 -130 -2 -8 -13 -51 -24 -95 -11
-44 -23 -96 -26 -115 -3 -19 -8 -42 -11 -50 -3 -8 -7 -26 -9 -40 -2 -14 -6
-32 -7 -40 -11 -45 -18 -89 -22 -120 -4 -45 -14 -108 -21 -140 -3 -14 -7 -47
-10 -75 -2 -27 -6 -66 -8 -85 -27 -200 -28 -827 -1 -980 2 -14 7 -54 11 -90 4
-36 8 -76 9 -90 2 -14 4 -25 5 -25 1 0 4 -16 6 -35 1 -19 5 -48 9 -65 5 -26
14 -72 30 -155 3 -14 7 -36 10 -50 10 -50 14 -67 39 -165 15 -55 29 -108 31
-118 2 -10 7 -27 10 -37 3 -10 7 -27 10 -37 10 -52 114 -348 150 -428 10 -22
20 -46 21 -53 1 -8 9 -28 17 -45 9 -18 26 -57 40 -87 37 -85 110 -234 116
-240 3 -3 16 -25 28 -50 12 -25 38 -72 58 -105 19 -33 38 -68 41 -77 4 -10 10
-18 15 -18 5 0 9 -5 9 -12 0 -7 11 -28 23 -47 13 -20 50 -76 83 -126 32 -49
70 -106 84 -125 15 -19 46 -62 71 -95 24 -33 46 -62 49 -65 3 -3 19 -23 35
-45 29 -38 38 -50 85 -105 12 -14 38 -44 58 -68 122 -145 375 -394 532 -522
30 -25 61 -51 68 -58 8 -7 30 -25 50 -40 21 -15 39 -29 42 -32 47 -51 566
-390 597 -390 6 0 13 -4 15 -8 4 -9 272 -146 373 -190 39 -16 88 -38 110 -48
22 -9 45 -18 50 -19 10 -3 134 -50 170 -65 64 -27 454 -142 525 -154 14 -3 25
-5 25 -6 0 -1 11 -3 25 -6 23 -4 123 -24 145 -30 6 -1 28 -5 50 -9 22 -3 51
-8 65 -11 28 -4 104 -15 135 -19 11 -1 20 -3 20 -4 0 -1 25 -4 55 -6 30 -3 69
-7 85 -10 178 -26 798 -27 980 0 17 2 55 7 85 10 30 3 82 10 115 15 104 16
129 20 160 25 17 2 39 6 50 9 89 20 105 23 105 19 0 -3 7 0 15 7 8 7 15 10 15
7 0 -2 44 6 98 19 170 42 202 51 297 81 44 15 86 26 93 26 6 0 12 4 12 9 0 5
4 7 8 4 5 -3 21 2 36 10 16 7 36 14 45 14 10 0 21 3 25 7 4 5 11 8 14 9 4 1
23 7 42 15 19 7 38 12 43 11 4 -1 7 2 7 8 0 5 6 10 14 10 16 0 130 47 222 91
33 16 66 29 72 29 7 0 12 4 12 9 0 5 12 12 28 16 15 3 35 14 46 23 10 9 21 16
25 16 6 -2 58 23 119 58 20 12 62 34 92 51 30 16 71 39 90 50 l35 19 -30 -25
c-16 -15 -34 -27 -40 -27 -15 -1 150 -103 188 -116 9 -4 17 -10 17 -15 0 -5 5
-9 10 -9 6 0 70 -29 143 -63 72 -35 164 -76 202 -92 39 -15 79 -31 90 -35 11
-5 45 -17 75 -28 30 -11 71 -26 90 -34 19 -7 38 -13 42 -13 3 0 10 -3 14 -7 4
-5 19 -8 34 -8 14 0 30 -4 35 -9 6 -5 37 -16 70 -24 33 -8 114 -29 180 -47 66
-17 127 -33 135 -34 8 -2 31 -6 50 -10 33 -6 51 -9 103 -21 12 -3 45 -8 72
-11 28 -4 54 -9 60 -12 5 -3 26 -7 46 -8 21 -1 52 -5 71 -8 35 -7 75 -12 173
-22 113 -11 150 -13 308 -19 l157 -6 0 4801 0 4801 -187 -5 c-104 -4 -199 -8
-213 -11 -14 -2 -63 -6 -110 -10 -90 -6 -100 -8 -250 -31 -127 -20 -147 -23
-200 -35 -25 -6 -58 -13 -75 -16 -16 -3 -32 -9 -33 -14 -2 -5 -8 -7 -13 -4 -9
6 -40 -1 -194 -48 -55 -17 -107 -32 -115 -33 -8 -2 -23 -7 -35 -12 -11 -5 -54
-22 -95 -37 -41 -15 -88 -34 -105 -41 -65 -29 -110 -47 -117 -46 -5 1 -8 -3
-8 -8 0 -5 -3 -9 -7 -8 -11 3 -287 -134 -291 -144 -2 -5 -7 -6 -12 -3 -4 3
-13 -2 -20 -10 -7 -8 -16 -15 -21 -15 -11 0 -133 -73 -137 -82 -2 -5 -8 -8
-13 -8 -5 0 -28 -12 -50 -26 l-42 -26 -46 23 c-25 13 -49 28 -53 34 -4 5 -8 6
-8 1 0 -5 -8 -3 -17 5 -57 45 -546 276 -603 284 -3 1 -23 9 -45 19 -37 16
-178 65 -200 70 -5 1 -15 5 -21 8 -6 4 -22 9 -37 12 -15 2 -31 7 -37 11 -5 3
-18 8 -27 10 -10 2 -45 11 -78 20 -86 24 -253 65 -284 70 -32 5 -117 23 -123
26 -2 1 -16 3 -33 4 -16 2 -39 6 -50 8 -11 3 -45 8 -75 12 -30 4 -62 9 -71 10
-27 5 -114 16 -170 21 -30 3 -74 7 -99 10 -49 5 -646 14 -652 9z"/>
</g>
</svg>
