<svg width="93" height="36" viewBox="0 0 93 36" fill="none" xmlns="http://www.w3.org/2000/svg">
<g clip-path="url(#clip0_9659_74841)">
<path d="M13.0785 12.4695H0.234394V16.5594L8.60572 16.5594C8.85438 16.5595 9.09284 16.6582 9.26867 16.8341C9.44449 17.0099 9.54327 17.2484 9.54328 17.497V24.7394H7.7542C7.50554 24.7394 7.26707 24.6406 7.09125 24.4648C6.91542 24.289 6.81664 24.0505 6.81664 23.8019V18.6045H3.28143C2.8505 18.6045 2.4238 18.6893 2.02568 18.8542C1.62756 19.0191 1.26581 19.2609 0.961105 19.5656C0.656396 19.8703 0.414688 20.232 0.249782 20.6301C0.0848748 21.0283 -1.07117e-06 21.455 0 21.8859V25.548C-4.28463e-07 25.9789 0.0848759 26.4056 0.249783 26.8037C0.41469 27.2018 0.656398 27.5636 0.961106 27.8683C1.26582 28.173 1.62756 28.4147 2.02568 28.5796C2.4238 28.7445 2.8505 28.8294 3.28143 28.8294H16.3599V15.7509C16.3599 15.32 16.275 14.8933 16.1101 14.4952C15.9452 14.097 15.7035 13.7353 15.3988 13.4306C15.0941 13.1259 14.7323 12.8842 14.3342 12.7193C13.9361 12.5544 13.5094 12.4695 13.0785 12.4695Z" fill="#0ABF53"/>
<path d="M28.6289 24.7394H26.8398C26.5912 24.7394 26.3527 24.6406 26.1769 24.4648C26.0011 24.289 25.9023 24.0505 25.9023 23.8019V12.4694H22.3674C21.9364 12.4694 21.5097 12.5543 21.1116 12.7192C20.7135 12.8841 20.3518 13.1258 20.047 13.4305C19.7423 13.7352 19.5006 14.097 19.3357 14.4951C19.1708 14.8932 19.0859 15.3199 19.0859 15.7508V25.548C19.0859 25.9789 19.1708 26.4056 19.3357 26.8037C19.5006 27.2018 19.7423 27.5636 20.047 27.8683C20.3518 28.173 20.7135 28.4147 21.1116 28.5796C21.5097 28.7445 21.9364 28.8294 22.3674 28.8294H35.4458V5.65283H28.6291L28.6289 24.7394Z" fill="#0ABF53"/>
<path d="M47.715 24.7392H45.9259C45.6772 24.7392 45.4388 24.6404 45.2629 24.4646C45.0871 24.2888 44.9883 24.0503 44.9883 23.8017V12.4692H38.1719V25.5478C38.1719 25.9787 38.2567 26.4054 38.4217 26.8035C38.5866 27.2017 38.8283 27.5634 39.133 27.8681C39.4377 28.1728 39.7994 28.4145 40.1976 28.5794C40.5957 28.7443 41.0224 28.8292 41.4533 28.8292H47.7152V30.8742H38.4063V35.6449H51.2505C52.1208 35.6449 52.9554 35.2992 53.5708 34.6838C54.1862 34.0684 54.5319 33.2338 54.5319 32.3635V12.4692H47.715V24.7392Z" fill="#0ABF53"/>
<path d="M70.3401 12.4692H57.2617V25.5477C57.2617 25.9786 57.3466 26.4053 57.5115 26.8035C57.6764 27.2016 57.9181 27.5633 58.2228 27.868C58.5275 28.1727 58.8893 28.4145 59.2874 28.5794C59.6855 28.7443 60.1122 28.8291 60.5431 28.8291H73.3871V24.7391H65.0157C64.7671 24.7391 64.5286 24.6404 64.3528 24.4645C64.177 24.2887 64.0782 24.0503 64.0782 23.8016V16.5593H65.8673C65.9904 16.5593 66.1123 16.5835 66.2261 16.6306C66.3398 16.6777 66.4432 16.7468 66.5302 16.8338C66.6173 16.9209 66.6864 17.0243 66.7335 17.138C66.7806 17.2518 66.8048 17.3737 66.8048 17.4968V22.6942H70.3401C70.771 22.6942 71.1977 22.6093 71.5958 22.4444C71.994 22.2795 72.3557 22.0378 72.6604 21.7331C72.9651 21.4283 73.2068 21.0666 73.3717 20.6685C73.5366 20.2704 73.6215 19.8437 73.6215 19.4127V15.7507C73.6215 15.3197 73.5366 14.893 73.3717 14.4949C73.2068 14.0968 72.9651 13.7351 72.6604 13.4303C72.3557 13.1256 71.994 12.8839 71.5958 12.719C71.1977 12.5541 70.771 12.4692 70.3401 12.4692Z" fill="#0ABF53"/>
<path d="M89.4263 12.4692H76.3477V28.8291H83.1644V16.5592H84.9535C85.2019 16.5599 85.4399 16.6589 85.6156 16.8346C85.7913 17.0102 85.8903 17.2483 85.891 17.4967V28.8291H92.7077V15.7507C92.7077 15.3197 92.6228 14.893 92.4579 14.4949C92.293 14.0968 92.0513 13.7351 91.7466 13.4303C91.4419 13.1256 91.0802 12.8839 90.682 12.719C90.2839 12.5541 89.8572 12.4692 89.4263 12.4692Z" fill="#0ABF53"/>
</g>
<defs>
<clipPath id="clip0_9659_74841">
<rect width="92.8281" height="36" fill="white"/>
</clipPath>
</defs>
</svg>
