<svg width="38" height="38" viewBox="0 0 38 38" fill="none" xmlns="http://www.w3.org/2000/svg">
<path fill-rule="evenodd" clip-rule="evenodd" d="M27.8893 33.4886C30.4061 34.9445 33.3282 35.7778 36.4449 35.7778V32.2129C34.5391 32.2129 32.7252 31.8194 31.0801 31.1091C34.3834 27.9895 36.4449 23.5688 36.4449 18.6667C36.4449 13.7645 34.3834 9.3438 31.0801 6.22418C32.7252 5.51391 34.5391 5.12036 36.4449 5.12036V1.55554C33.3282 1.55554 30.4061 2.38881 27.8893 3.84471C25.3725 2.38881 22.4504 1.55554 19.3338 1.55554C9.88356 1.55554 2.22266 9.21645 2.22266 18.6667C2.22266 28.1169 9.88356 35.7778 19.3338 35.7778C22.4504 35.7778 25.3725 34.9445 27.8893 33.4886ZM24.6985 31.1091C23.0534 31.8194 21.2396 32.2129 19.3338 32.2129C11.8524 32.2129 5.78747 26.1481 5.78747 18.6667C5.78747 11.1852 11.8524 5.12036 19.3338 5.12036C21.2396 5.12036 23.0534 5.51391 24.6985 6.22418C21.3952 9.3438 19.3338 13.7645 19.3338 18.6667C19.3338 23.5688 21.3952 27.9895 24.6985 31.1091ZM27.8893 8.16351C30.9351 10.6475 32.8801 14.4299 32.8801 18.6667C32.8801 22.9034 30.9351 26.6858 27.8893 29.1698C24.8436 26.6858 22.8986 22.9034 22.8986 18.6667C22.8986 14.4299 24.8436 10.6475 27.8893 8.16351Z" fill="white"/>
</svg>
