<svg width="38" height="38" viewBox="0 0 38 38" fill="none" xmlns="http://www.w3.org/2000/svg">
<g clip-path="url(#clip0_10464_107830)">
<path d="M19.0007 0C8.63028 0 0.333984 8.2963 0.333984 18.6667C0.333984 29.037 8.63028 37.3333 19.0007 37.3333C29.371 37.3333 37.6673 29.037 37.6673 18.6667C37.6673 8.2963 29.371 0 19.0007 0ZM21.4204 33.7037V28.6914C22.8031 28.3457 24.013 28 25.05 27.1358C26.6056 26.0988 27.8155 24.716 28.6797 23.1605C29.5439 21.6049 29.8895 19.7037 29.8895 17.8025C29.8895 15.9012 29.371 14.1728 28.5068 12.6173C27.4698 11.0617 26.2599 9.67901 24.5315 8.81481C21.2476 6.91358 16.7537 6.91358 13.4698 8.81481C11.9142 9.67901 10.7044 10.8889 9.66732 12.6173C8.80312 14.1728 8.2846 16.0741 8.11176 18.1481L11.5686 18.321C11.5686 16.7654 12.0871 15.5556 12.6056 14.3457C13.2969 13.1358 14.1611 12.4444 15.1982 11.7531C16.2352 11.0617 17.6179 10.8889 19.0007 10.8889C20.3834 10.8889 21.5932 11.2346 22.8031 11.9259C24.013 12.6173 24.8772 13.4815 25.3957 14.5185C26.0871 15.5556 26.4328 16.7654 26.4328 17.9753C26.4328 19.358 26.0871 20.5679 25.5686 21.7778C25.05 22.8148 24.1858 23.8519 23.1488 24.5432C22.1118 25.2346 20.9019 25.5802 19.692 25.7531L18.1365 25.9259V34.2222C10.013 33.358 3.79077 26.6173 3.79077 18.6667C3.79077 10.1975 10.5315 3.45679 19.0007 3.45679C27.4698 3.45679 34.2105 10.1975 34.2105 18.6667C34.2105 26.2716 28.6797 32.4938 21.4204 33.7037Z" fill="white"/>
<path d="M19.0019 21.3112C20.4624 21.3112 21.6463 20.1273 21.6463 18.6668C21.6463 17.2063 20.4624 16.0223 19.0019 16.0223C17.5414 16.0223 16.3574 17.2063 16.3574 18.6668C16.3574 20.1273 17.5414 21.3112 19.0019 21.3112Z" fill="white"/>
</g>
<defs>
<clipPath id="clip0_10464_107830">
<rect width="37.3333" height="37.3333" fill="white" transform="translate(0.333984)"/>
</clipPath>
</defs>
</svg>
