<svg width="38" height="38" viewBox="0 0 38 38" fill="none" xmlns="http://www.w3.org/2000/svg">
<path d="M14.8697 9.60707V6.29431H11.5569V9.60707H8.24414V12.9198H11.5569V16.2326H14.8697V12.9198H18.1824V9.60707H14.8697V9.60707Z" fill="white"/>
<path d="M28.7842 0H8.07949C5.26364 0 3.11035 2.15329 3.11035 4.96914V30.8086C3.11035 33.6245 5.26364 35.7778 8.07949 35.7778H23.8151C29.2811 35.7778 33.7534 31.3056 33.7534 25.8395V4.96914C33.7534 2.15329 31.4344 0 28.7842 0ZM23.8151 32.465H8.07949C7.08566 32.465 6.42311 31.8025 6.42311 30.8086V4.96914C6.42311 3.97531 7.08566 3.31276 8.07949 3.31276H28.7842C29.778 3.31276 30.4406 3.97531 30.4406 4.96914V20.5391H8.74204V23.8519H30.4406V25.8395C30.4406 26.0051 30.4406 26.0051 30.4406 26.1708H8.74204V29.4835H29.4468C28.1217 31.3056 26.134 32.465 23.8151 32.465Z" fill="white"/>
</svg>
