<svg width="38" height="38" viewBox="0 0 38 38" fill="none" xmlns="http://www.w3.org/2000/svg">
<path d="M4.03906 26.0835V32.714H6.69125V28.7357H10.9348V32.0509H13.5869V28.7357H17.8304V32.714H20.4826V28.7357H24.8587V32.0509H27.5109V28.7357H31.7544V32.714H34.4066V26.0835H4.03906Z" fill="white"/>
<path d="M34.6708 13.4846L34.0078 12.6889C34.0078 12.6889 34.0078 12.6889 34.0078 12.5563C34.0078 12.5563 33.8752 12.4237 33.7426 12.2911C33.61 12.0259 33.2121 11.7607 32.9469 11.3629C32.1513 10.5672 31.0904 9.63893 29.7643 8.57806C27.1121 6.58891 23.399 4.46716 19.1555 4.46716C14.912 4.46716 11.0663 6.58891 8.54677 8.57806C7.08807 9.63893 6.02719 10.6998 5.23153 11.3629C4.8337 11.7607 4.56849 12.0259 4.43588 12.2911C4.30327 12.4237 4.17066 12.5563 4.17066 12.5563C4.17066 12.5563 4.17066 12.5563 4.17066 12.6889L3.375 13.4846L4.03805 14.2803C4.03805 14.2803 4.03805 14.2803 4.03805 14.4129C4.03805 14.4129 4.17066 14.5455 4.30327 14.6781C4.56849 14.9433 4.8337 15.2085 5.23153 15.6064C6.02719 16.402 7.08806 17.3303 8.41416 18.3912C11.0663 20.3803 14.7794 22.5021 19.0229 22.5021C23.2664 22.5021 27.1121 20.3803 29.6317 18.3912C30.9578 17.3303 32.0186 16.402 32.8143 15.6064C33.2121 15.2085 33.4773 14.9433 33.61 14.6781C33.7426 14.6781 33.8752 14.5455 33.8752 14.4129C33.8752 14.4129 33.8752 14.4129 33.8752 14.2803L34.6708 13.4846ZM30.9578 13.7498C30.2947 14.4129 29.3665 15.3411 28.173 16.2694C25.786 18.1259 22.6034 19.8499 19.1555 19.8499C15.7077 19.8499 12.5251 18.1259 10.1381 16.2694C8.81199 15.3411 7.75111 14.4129 7.08806 13.7498C7.08806 13.7498 6.95546 13.6172 6.82285 13.4846C6.95546 13.352 6.95546 13.352 7.08806 13.2194C7.75111 12.5563 8.81199 11.6281 10.0055 10.8324C12.3924 8.97588 15.5751 7.25196 19.0229 7.25196C22.4708 7.25196 25.6534 8.97588 28.0404 10.8324C29.2338 11.7607 30.1621 12.6889 30.8252 13.352C30.9578 13.4846 30.9578 13.4846 31.0904 13.6172C31.0904 13.6172 30.9578 13.7498 30.9578 13.7498ZM19.0229 8.18023C15.9729 8.18023 13.5859 10.5672 13.5859 13.6172C13.5859 16.6672 15.9729 19.0542 19.0229 19.0542C22.0729 19.0542 24.4599 16.6672 24.4599 13.6172C24.4599 10.5672 22.0729 8.18023 19.0229 8.18023ZM19.0229 16.2694C17.5642 16.2694 16.2381 15.0759 16.2381 13.4846C16.2381 11.8933 17.4316 10.6998 19.0229 10.6998C20.6142 10.6998 21.8077 11.8933 21.8077 13.4846C21.8077 15.0759 20.6142 16.2694 19.0229 16.2694Z" fill="white"/>
</svg>
