<svg width="38" height="38" viewBox="0 0 38 38" fill="none" xmlns="http://www.w3.org/2000/svg">
<path fill-rule="evenodd" clip-rule="evenodd" d="M17.4438 3.11122C13.1468 3.11981 9.66602 6.60586 9.66602 10.9049C9.66602 15.2092 13.1554 18.6986 17.4597 18.6986C18.4251 18.6986 19.3496 18.523 20.2028 18.2021C20.9873 18.2413 21.4882 18.841 21.4882 19.4212C21.4882 20.0214 20.9523 20.6423 20.121 20.6423V20.6565C19.2906 20.3548 18.3944 20.1903 17.4597 20.1903C13.1554 20.1903 9.66602 23.6797 9.66602 27.984C9.66602 32.2883 13.1554 35.7777 17.4597 35.7777C21.764 35.7777 25.2534 32.2883 25.2534 27.984C25.2534 25.9121 24.4449 24.029 23.1262 22.633C24.0224 21.8522 24.5994 20.7201 24.5994 19.4212C24.5994 18.134 24.0327 17.0105 23.1501 16.2304C24.4547 14.8371 25.2534 12.9643 25.2534 10.9049C25.2534 9.14751 24.6717 7.52598 23.6904 6.22232H26.7771V3.11121L17.4438 3.11122ZM12.7771 10.9049C12.7771 8.31878 14.8736 6.22232 17.4597 6.22232C20.0458 6.22232 22.1423 8.31878 22.1423 10.9049C22.1423 13.491 20.0458 15.5875 17.4597 15.5875C14.8736 15.5875 12.7771 13.491 12.7771 10.9049ZM12.7771 27.984C12.7771 25.3979 14.8736 23.3014 17.4597 23.3014C20.0458 23.3014 22.1423 25.3979 22.1423 27.984C22.1423 30.5701 20.0458 32.6666 17.4597 32.6666C14.8736 32.6666 12.7771 30.5701 12.7771 27.984Z" fill="white"/>
</svg>
