<svg width="38" height="38" viewBox="0 0 38 38" fill="none" xmlns="http://www.w3.org/2000/svg">
<g clip-path="url(#clip0_10464_107853)">
<path fill-rule="evenodd" clip-rule="evenodd" d="M18.7552 6.12368C17.5133 6.12368 16.3109 6.28086 15.1662 6.57534L14.3911 3.56234C15.787 3.20323 17.2498 3.01257 18.7552 3.01257C28.3056 3.01257 36.0748 10.6807 36.0748 20.173C36.0748 29.6653 28.3056 37.3334 18.7552 37.3334C9.20474 37.3334 1.43555 29.6653 1.43555 20.173C1.43555 15.1527 3.61301 10.6373 7.07329 7.50355L9.16168 9.80955C6.32096 12.3822 4.54666 16.0732 4.54666 20.173C4.54666 27.9173 10.8931 34.2223 18.7552 34.2223C26.6173 34.2223 32.9637 27.9173 32.9637 20.173C32.9637 12.4286 26.6173 6.12368 18.7552 6.12368Z" fill="white"/>
<path fill-rule="evenodd" clip-rule="evenodd" d="M18.7553 17.27C17.0641 17.27 15.6931 18.641 15.6931 20.3323C15.6931 22.0235 17.0641 23.3945 18.7553 23.3945C20.4466 23.3945 21.8176 22.0235 21.8176 20.3323C21.8176 18.641 20.4466 17.27 18.7553 17.27ZM12.582 20.3323C12.582 16.9228 15.3459 14.1589 18.7553 14.1589C22.1648 14.1589 24.9287 16.9228 24.9287 20.3323C24.9287 23.7417 22.1648 26.5056 18.7553 26.5056C15.3459 26.5056 12.582 23.7417 12.582 20.3323Z" fill="white"/>
<path fill-rule="evenodd" clip-rule="evenodd" d="M12.4699 0.330146L11.5117 1.55557L10.5535 0.330146L11.5117 -0.419067L12.4699 0.330146ZM11.5117 3.62993C11.2927 3.841 11.0557 4.08165 10.8203 4.34245C10.4023 4.80559 10.0196 5.29929 9.74874 5.77616C9.46865 6.26924 9.37478 6.62783 9.37478 6.85149C9.37478 8.65392 10.5642 9.65729 11.5117 9.65729C12.4592 9.65729 13.6486 8.65392 13.6486 6.85149C13.6486 6.62783 13.5548 6.26924 13.2747 5.77616C13.0038 5.29929 12.6211 4.80559 12.2031 4.34245C11.9678 4.08165 11.7308 3.841 11.5117 3.62993ZM10.5535 0.330146C10.5538 0.329935 10.5535 0.330146 11.5117 1.55557C12.4699 0.330146 12.4696 0.329935 12.4699 0.330146L12.4725 0.3322L12.4765 0.335325L12.4884 0.344753L12.5276 0.376062C12.5604 0.402363 12.606 0.439447 12.6628 0.486484C12.7762 0.580454 12.9347 0.71475 13.1233 0.882702C13.4983 1.21669 14.003 1.69318 14.5128 2.25808C15.0179 2.81783 15.5584 3.49757 15.9798 4.23951C16.3921 4.96523 16.7598 5.87081 16.7598 6.85149C16.7598 9.86649 14.6428 12.7684 11.5117 12.7684C8.3806 12.7684 6.26367 9.86649 6.26367 6.85149C6.26367 5.87081 6.63137 4.96523 7.04361 4.23951C7.46507 3.49757 8.0055 2.81783 8.51065 2.25808C9.02045 1.69318 9.52518 1.21669 9.90018 0.882702C10.0888 0.71475 10.2472 0.580454 10.3606 0.486484C10.4174 0.439447 10.4631 0.402363 10.4958 0.376062L10.535 0.344753L10.5469 0.335325L10.5509 0.3322L10.5535 0.330146ZM10.5523 2.77999C10.552 2.77981 10.5521 2.77982 10.5523 2.77999Z" fill="white"/>
</g>
<defs>
<clipPath id="clip0_10464_107853">
<rect width="37.3333" height="37.3333" fill="white"/>
</clipPath>
</defs>
</svg>
