<svg width="38" height="38" viewBox="0 0 38 38" fill="none" xmlns="http://www.w3.org/2000/svg">
	<g clip-path="url(#clip0_10464_107860)">
		<path fill-rule="evenodd" clip-rule="evenodd" d="M19.3104 16.3554C17.4917 16.3554 16.0174 17.8297 16.0174 19.6484C16.0174 21.4671 17.4917 22.9414 19.3104 22.9414C21.1291 22.9414 22.6034 21.4671 22.6034 19.6484C22.6034 17.8297 21.1291 16.3554 19.3104 16.3554ZM12.9063 19.6484C12.9062 16.1115 15.7735 13.2443 19.3104 13.2443C22.8473 13.2443 25.7145 16.1115 25.7145 19.6484C25.7145 23.1853 22.8473 26.0526 19.3104 26.0526C15.7735 26.0526 12.9063 23.1853 12.9063 19.6484Z" fill="white" />
		<path fill-rule="evenodd" clip-rule="evenodd" d="M19.3087 12.6772C16.6968 12.6772 14.1879 13.5084 11.9427 14.6971L10.487 11.9476C13.0277 10.6024 16.0406 9.56604 19.3087 9.56604C24.3728 9.56604 28.8424 12.0526 31.9489 14.3935C33.5201 15.5774 34.7887 16.7588 35.6657 17.6452C36.1051 18.0892 36.4484 18.4614 36.6847 18.7259C36.8028 18.8582 36.8944 18.9637 36.9579 19.038C36.9896 19.0752 37.0144 19.1046 37.032 19.1256L37.053 19.1508L37.0594 19.1586L37.0616 19.1612C37.062 19.1617 37.0632 19.1631 35.8608 20.15C37.0632 21.1369 37.0628 21.1373 37.0625 21.1377L37.0594 21.1414L37.053 21.1492L37.032 21.1744C37.0144 21.1954 36.9896 21.2248 36.9579 21.262C36.8944 21.3363 36.8028 21.4418 36.6847 21.5741C36.4484 21.8386 36.1051 22.2109 35.6657 22.6549C34.7887 23.5412 33.5201 24.7226 31.9489 25.9065C28.8424 28.2475 24.3728 30.734 19.3087 30.734C14.2446 30.734 9.77502 28.2475 6.66845 25.9065C5.09728 24.7226 3.82872 23.5412 2.95165 22.6549C2.51228 22.2109 2.16893 21.8386 1.9327 21.5741C1.81453 21.4418 1.72299 21.3363 1.65949 21.262C1.62773 21.2248 1.60297 21.1954 1.58537 21.1744L1.56436 21.1492L1.55793 21.1414L1.55573 21.1388C1.55538 21.1383 1.55422 21.1369 2.75661 20.15C1.55422 19.1631 1.55434 19.1629 1.55447 19.1628L1.55692 19.1598L1.56131 19.1545L1.57517 19.1378L1.62297 19.081C1.66367 19.0329 1.72197 18.9649 1.79718 18.879C1.94757 18.7074 2.16586 18.4642 2.44662 18.1672C3.00751 17.5737 3.82121 16.7613 4.84414 15.8721L6.88522 18.2201C6.03898 18.9557 5.35126 19.6325 4.85451 20.15C4.95026 20.2498 5.05318 20.3555 5.16305 20.4665C5.96114 21.273 7.11658 22.3487 8.54074 23.4219C11.4249 25.5952 15.2313 27.6229 19.3087 27.6229C23.386 27.6229 27.1925 25.5952 30.0766 23.4219C31.5008 22.3487 32.6562 21.273 33.4543 20.4665C33.5642 20.3555 33.6671 20.2498 33.7629 20.15C33.6671 20.0503 33.5642 19.9445 33.4543 19.8335C32.6562 19.027 31.5008 17.9513 30.0766 16.8781C27.1925 14.7048 23.386 12.6772 19.3087 12.6772ZM2.75661 20.15L1.55447 19.1628L0.744141 20.15L1.55422 21.1369L2.75661 20.15ZM35.8608 20.15L37.0625 21.1377L37.8732 20.15L37.0632 19.1631L35.8608 20.15Z" fill="white" />
		<path fill-rule="evenodd" clip-rule="evenodd" d="M9.02551 6.66423L7.93925 7.77769L6.85298 6.66423L7.93925 5.60449L9.02551 6.66423ZM7.93925 10.1274C8.04709 10.2647 8.15729 10.4102 8.26718 10.5621C9.04067 11.6315 9.56036 12.7014 9.56036 13.4622C9.56036 14.4851 9.27631 15.342 8.8983 15.899C8.51454 16.4646 8.14736 16.5881 7.93925 16.5881C7.73114 16.5881 7.36396 16.4646 6.98019 15.899C6.60219 15.342 6.31814 14.4851 6.31814 13.4622C6.31814 12.7014 6.83782 11.6315 7.61132 10.5621C7.72121 10.4102 7.83141 10.2647 7.93925 10.1274ZM6.85298 6.66423C6.85324 6.66399 6.85298 6.66423 7.93925 7.77769C9.02551 6.66423 9.02526 6.66399 9.02551 6.66423L9.02792 6.66658L9.03148 6.67008L9.04204 6.68048L9.07636 6.71467C9.10489 6.74328 9.14456 6.78347 9.19377 6.83434C9.29209 6.93597 9.42908 7.08084 9.59189 7.26177C9.91593 7.62185 10.3503 8.13363 10.788 8.73875C11.6028 9.86528 12.6715 11.6377 12.6715 13.4622C12.6715 15.0248 12.2444 16.5087 11.4727 17.6459C10.7067 18.7747 9.48556 19.6992 7.93925 19.6992C6.39294 19.6992 5.17178 18.7747 4.40583 17.6459C3.63411 16.5087 3.20703 15.0248 3.20703 13.4622C3.20703 11.6377 4.27568 9.86528 5.09051 8.73875C5.5282 8.13363 5.96257 7.62185 6.28661 7.26177C6.44942 7.08084 6.58641 6.93597 6.68473 6.83434C6.73394 6.78347 6.7736 6.74328 6.80214 6.71467L6.83646 6.68048L6.84701 6.67008L6.85058 6.66658L6.85298 6.66423Z" fill="white" />
	</g>
	<defs>
		<clipPath id="clip0_10464_107860">
			<rect width="37.3333" height="37.3333" fill="white" transform="translate(0.666016)" />
		</clipPath>
	</defs>
</svg>
