<svg width="19" height="14" viewBox="0 0 19 14" fill="none" xmlns="http://www.w3.org/2000/svg">
<path d="M18.2627 0.703751C18.5572 1.17815 18.3122 1.80208 17.8146 2.05531C17.5109 2.20983 17.2228 2.39138 16.95 2.59995C16.3833 3.03328 15.9 3.53328 15.5 4.09995C15.1 4.63328 14.8 5.21662 14.6 5.84995C14.5915 5.87688 14.5832 5.90379 14.5752 5.93066C14.2837 6.90717 15.171 7.69995 16.1901 7.69995H16.2815C16.9214 7.69995 17.546 7.99713 17.804 8.58271C17.8563 8.70147 17.905 8.82389 17.95 8.94995C18.1167 9.41662 18.2 9.83328 18.2 10.2C18.2 10.7666 18.1167 11.3166 17.95 11.8499C17.9037 11.9889 17.8535 12.124 17.7995 12.2552C17.5448 12.8736 16.8983 13.2 16.2296 13.2H13.0141C12.2164 13.2 11.4787 12.7307 11.2401 11.9695C10.9909 11.1743 10.8442 10.4012 10.8 9.64995C10.8 7.74995 11.15 6.16662 11.85 4.89995C12.5833 3.59995 13.4667 2.56662 14.5 1.79995C15.3992 1.12555 16.3576 0.640662 17.3752 0.345275C17.7167 0.246159 18.0752 0.401654 18.2627 0.703751ZM7.9627 0.703751C8.25716 1.17815 8.01221 1.80208 7.51459 2.05531C7.21095 2.20983 6.92275 2.39138 6.65 2.59995C6.08333 3.03328 5.6 3.53328 5.2 4.09995C4.8 4.63328 4.5 5.21662 4.3 5.84995C4.2915 5.87688 4.28323 5.90379 4.27521 5.93066C3.98367 6.90717 4.87099 7.69995 5.89009 7.69995H5.98155C6.62142 7.69995 7.24602 7.99713 7.50398 8.5827C7.55631 8.70147 7.60498 8.82389 7.65 8.94995C7.81667 9.41662 7.9 9.83328 7.9 10.2C7.9 10.7666 7.81667 11.3166 7.65 11.8499C7.60368 11.9889 7.5535 12.124 7.49946 12.2552C7.24483 12.8736 6.59834 13.2 5.92963 13.2H2.71412C1.91643 13.2 1.17869 12.7307 0.940113 11.9695C0.690893 11.1743 0.544189 10.4012 0.5 9.64995C0.5 7.74995 0.85 6.16662 1.55 4.89995C2.28333 3.59995 3.16667 2.56662 4.2 1.79995C5.0992 1.12555 6.05761 0.640661 7.07525 0.345275C7.41671 0.246159 7.7752 0.401654 7.9627 0.703751Z" fill="#313134"/>
</svg>
